G04 #@! TF.GenerationSoftware,KiCad,Pcbnew,(6.0.1)*
G04 #@! TF.CreationDate,2022-02-21T00:55:15+09:00*
G04 #@! TF.ProjectId,KiCAD_jtag,4b694341-445f-46a7-9461-672e6b696361,rev?*
G04 #@! TF.SameCoordinates,Original*
G04 #@! TF.FileFunction,Legend,Top*
G04 #@! TF.FilePolarity,Positive*
%FSLAX46Y46*%
G04 Gerber Fmt 4.6, Leading zero omitted, Abs format (unit mm)*
G04 Created by KiCad (PCBNEW (6.0.1)) date 2022-02-21 00:55:15*
%MOMM*%
%LPD*%
G01*
G04 APERTURE LIST*
%ADD10C,0.152400*%
%ADD11C,0.300000*%
%ADD12C,0.150000*%
%ADD13C,0.254000*%
%ADD14C,0.120000*%
%ADD15C,0.200000*%
G04 APERTURE END LIST*
D10*
X260792904Y-135627228D02*
X260430047Y-135881228D01*
X260792904Y-136062657D02*
X260030904Y-136062657D01*
X260030904Y-135772371D01*
X260067190Y-135699800D01*
X260103475Y-135663514D01*
X260176047Y-135627228D01*
X260284904Y-135627228D01*
X260357475Y-135663514D01*
X260393761Y-135699800D01*
X260430047Y-135772371D01*
X260430047Y-136062657D01*
X260575190Y-135336942D02*
X260575190Y-134974085D01*
X260792904Y-135409514D02*
X260030904Y-135155514D01*
X260792904Y-134901514D01*
X260756618Y-134683800D02*
X260792904Y-134574942D01*
X260792904Y-134393514D01*
X260756618Y-134320942D01*
X260720332Y-134284657D01*
X260647761Y-134248371D01*
X260575190Y-134248371D01*
X260502618Y-134284657D01*
X260466332Y-134320942D01*
X260430047Y-134393514D01*
X260393761Y-134538657D01*
X260357475Y-134611228D01*
X260321190Y-134647514D01*
X260248618Y-134683800D01*
X260176047Y-134683800D01*
X260103475Y-134647514D01*
X260067190Y-134611228D01*
X260030904Y-134538657D01*
X260030904Y-134357228D01*
X260067190Y-134248371D01*
X260792904Y-133921800D02*
X260030904Y-133921800D01*
X260030904Y-133631514D01*
X260067190Y-133558942D01*
X260103475Y-133522657D01*
X260176047Y-133486371D01*
X260284904Y-133486371D01*
X260357475Y-133522657D01*
X260393761Y-133558942D01*
X260430047Y-133631514D01*
X260430047Y-133921800D01*
X260430047Y-133014657D02*
X260792904Y-133014657D01*
X260030904Y-133268657D02*
X260430047Y-133014657D01*
X260030904Y-132760657D01*
X260792904Y-132506657D02*
X260030904Y-132506657D01*
X260792904Y-132071228D01*
X260030904Y-132071228D01*
X260865475Y-131200371D02*
X260829190Y-131272942D01*
X260756618Y-131345514D01*
X260647761Y-131454371D01*
X260611475Y-131526942D01*
X260611475Y-131599514D01*
X260792904Y-131563228D02*
X260756618Y-131635800D01*
X260684047Y-131708371D01*
X260538904Y-131744657D01*
X260284904Y-131744657D01*
X260139761Y-131708371D01*
X260067190Y-131635800D01*
X260030904Y-131563228D01*
X260030904Y-131418085D01*
X260067190Y-131345514D01*
X260139761Y-131272942D01*
X260284904Y-131236657D01*
X260538904Y-131236657D01*
X260684047Y-131272942D01*
X260756618Y-131345514D01*
X260792904Y-131418085D01*
X260792904Y-131563228D01*
X260792904Y-129894085D02*
X260430047Y-130148085D01*
X260792904Y-130329514D02*
X260030904Y-130329514D01*
X260030904Y-130039228D01*
X260067190Y-129966657D01*
X260103475Y-129930371D01*
X260176047Y-129894085D01*
X260284904Y-129894085D01*
X260357475Y-129930371D01*
X260393761Y-129966657D01*
X260430047Y-130039228D01*
X260430047Y-130329514D01*
X260756618Y-129277228D02*
X260792904Y-129349800D01*
X260792904Y-129494942D01*
X260756618Y-129567514D01*
X260684047Y-129603800D01*
X260393761Y-129603800D01*
X260321190Y-129567514D01*
X260284904Y-129494942D01*
X260284904Y-129349800D01*
X260321190Y-129277228D01*
X260393761Y-129240942D01*
X260466332Y-129240942D01*
X260538904Y-129603800D01*
X260284904Y-128986942D02*
X260792904Y-128805514D01*
X260284904Y-128624085D01*
X260720332Y-128333800D02*
X260756618Y-128297514D01*
X260792904Y-128333800D01*
X260756618Y-128370085D01*
X260720332Y-128333800D01*
X260792904Y-128333800D01*
X260030904Y-127245228D02*
X260030904Y-127172657D01*
X260067190Y-127100085D01*
X260103475Y-127063800D01*
X260176047Y-127027514D01*
X260321190Y-126991228D01*
X260502618Y-126991228D01*
X260647761Y-127027514D01*
X260720332Y-127063800D01*
X260756618Y-127100085D01*
X260792904Y-127172657D01*
X260792904Y-127245228D01*
X260756618Y-127317800D01*
X260720332Y-127354085D01*
X260647761Y-127390371D01*
X260502618Y-127426657D01*
X260321190Y-127426657D01*
X260176047Y-127390371D01*
X260103475Y-127354085D01*
X260067190Y-127317800D01*
X260030904Y-127245228D01*
X260720332Y-126664657D02*
X260756618Y-126628371D01*
X260792904Y-126664657D01*
X260756618Y-126700942D01*
X260720332Y-126664657D01*
X260792904Y-126664657D01*
X260792904Y-125902657D02*
X260792904Y-126338085D01*
X260792904Y-126120371D02*
X260030904Y-126120371D01*
X260139761Y-126192942D01*
X260212332Y-126265514D01*
X260248618Y-126338085D01*
X262310010Y-137187514D02*
X262273724Y-137223800D01*
X262164867Y-137296371D01*
X262092295Y-137332657D01*
X261983438Y-137368942D01*
X261802010Y-137405228D01*
X261656867Y-137405228D01*
X261475438Y-137368942D01*
X261366581Y-137332657D01*
X261294010Y-137296371D01*
X261185152Y-137223800D01*
X261148867Y-137187514D01*
X261947152Y-136461800D02*
X261983438Y-136498085D01*
X262019724Y-136606942D01*
X262019724Y-136679514D01*
X261983438Y-136788371D01*
X261910867Y-136860942D01*
X261838295Y-136897228D01*
X261693152Y-136933514D01*
X261584295Y-136933514D01*
X261439152Y-136897228D01*
X261366581Y-136860942D01*
X261294010Y-136788371D01*
X261257724Y-136679514D01*
X261257724Y-136606942D01*
X261294010Y-136498085D01*
X261330295Y-136461800D01*
X262310010Y-136207800D02*
X262273724Y-136171514D01*
X262164867Y-136098942D01*
X262092295Y-136062657D01*
X261983438Y-136026371D01*
X261802010Y-135990085D01*
X261656867Y-135990085D01*
X261475438Y-136026371D01*
X261366581Y-136062657D01*
X261294010Y-136098942D01*
X261185152Y-136171514D01*
X261148867Y-136207800D01*
X262019724Y-135046657D02*
X261257724Y-135046657D01*
X261802010Y-134792657D01*
X261257724Y-134538657D01*
X262019724Y-134538657D01*
X262019724Y-133849228D02*
X261620581Y-133849228D01*
X261548010Y-133885514D01*
X261511724Y-133958085D01*
X261511724Y-134103228D01*
X261548010Y-134175800D01*
X261983438Y-133849228D02*
X262019724Y-133921800D01*
X262019724Y-134103228D01*
X261983438Y-134175800D01*
X261910867Y-134212085D01*
X261838295Y-134212085D01*
X261765724Y-134175800D01*
X261729438Y-134103228D01*
X261729438Y-133921800D01*
X261693152Y-133849228D01*
X261983438Y-133522657D02*
X262019724Y-133450085D01*
X262019724Y-133304942D01*
X261983438Y-133232371D01*
X261910867Y-133196085D01*
X261874581Y-133196085D01*
X261802010Y-133232371D01*
X261765724Y-133304942D01*
X261765724Y-133413800D01*
X261729438Y-133486371D01*
X261656867Y-133522657D01*
X261620581Y-133522657D01*
X261548010Y-133486371D01*
X261511724Y-133413800D01*
X261511724Y-133304942D01*
X261548010Y-133232371D01*
X262019724Y-132542942D02*
X261620581Y-132542942D01*
X261548010Y-132579228D01*
X261511724Y-132651800D01*
X261511724Y-132796942D01*
X261548010Y-132869514D01*
X261983438Y-132542942D02*
X262019724Y-132615514D01*
X262019724Y-132796942D01*
X261983438Y-132869514D01*
X261910867Y-132905800D01*
X261838295Y-132905800D01*
X261765724Y-132869514D01*
X261729438Y-132796942D01*
X261729438Y-132615514D01*
X261693152Y-132542942D01*
X261511724Y-132252657D02*
X262019724Y-132071228D01*
X261511724Y-131889800D02*
X262019724Y-132071228D01*
X262201152Y-132143800D01*
X262237438Y-132180085D01*
X262273724Y-132252657D01*
X261511724Y-131272942D02*
X262019724Y-131272942D01*
X261511724Y-131599514D02*
X261910867Y-131599514D01*
X261983438Y-131563228D01*
X262019724Y-131490657D01*
X262019724Y-131381800D01*
X261983438Y-131309228D01*
X261947152Y-131272942D01*
X262019724Y-130910085D02*
X261257724Y-130910085D01*
X261729438Y-130837514D02*
X262019724Y-130619800D01*
X261511724Y-130619800D02*
X261802010Y-130910085D01*
X262019724Y-130293228D02*
X261511724Y-130293228D01*
X261257724Y-130293228D02*
X261294010Y-130329514D01*
X261330295Y-130293228D01*
X261294010Y-130256942D01*
X261257724Y-130293228D01*
X261330295Y-130293228D01*
X261257724Y-129458657D02*
X261257724Y-129023228D01*
X262019724Y-129240942D02*
X261257724Y-129240942D01*
X262019724Y-128442657D02*
X261620581Y-128442657D01*
X261548010Y-128478942D01*
X261511724Y-128551514D01*
X261511724Y-128696657D01*
X261548010Y-128769228D01*
X261983438Y-128442657D02*
X262019724Y-128515228D01*
X262019724Y-128696657D01*
X261983438Y-128769228D01*
X261910867Y-128805514D01*
X261838295Y-128805514D01*
X261765724Y-128769228D01*
X261729438Y-128696657D01*
X261729438Y-128515228D01*
X261693152Y-128442657D01*
X262019724Y-128079800D02*
X261257724Y-128079800D01*
X261729438Y-128007228D02*
X262019724Y-127789514D01*
X261511724Y-127789514D02*
X261802010Y-128079800D01*
X262019724Y-127136371D02*
X261620581Y-127136371D01*
X261548010Y-127172657D01*
X261511724Y-127245228D01*
X261511724Y-127390371D01*
X261548010Y-127462942D01*
X261983438Y-127136371D02*
X262019724Y-127208942D01*
X262019724Y-127390371D01*
X261983438Y-127462942D01*
X261910867Y-127499228D01*
X261838295Y-127499228D01*
X261765724Y-127462942D01*
X261729438Y-127390371D01*
X261729438Y-127208942D01*
X261693152Y-127136371D01*
X261511724Y-126446942D02*
X262128581Y-126446942D01*
X262201152Y-126483228D01*
X262237438Y-126519514D01*
X262273724Y-126592085D01*
X262273724Y-126700942D01*
X262237438Y-126773514D01*
X261983438Y-126446942D02*
X262019724Y-126519514D01*
X262019724Y-126664657D01*
X261983438Y-126737228D01*
X261947152Y-126773514D01*
X261874581Y-126809800D01*
X261656867Y-126809800D01*
X261584295Y-126773514D01*
X261548010Y-126737228D01*
X261511724Y-126664657D01*
X261511724Y-126519514D01*
X261548010Y-126446942D01*
X262019724Y-126084085D02*
X261511724Y-126084085D01*
X261257724Y-126084085D02*
X261294010Y-126120371D01*
X261330295Y-126084085D01*
X261294010Y-126047800D01*
X261257724Y-126084085D01*
X261330295Y-126084085D01*
X261511724Y-125793800D02*
X262019724Y-125648657D01*
X261656867Y-125503514D01*
X262019724Y-125358371D01*
X261511724Y-125213228D01*
X262019724Y-124596371D02*
X261620581Y-124596371D01*
X261548010Y-124632657D01*
X261511724Y-124705228D01*
X261511724Y-124850371D01*
X261548010Y-124922942D01*
X261983438Y-124596371D02*
X262019724Y-124668942D01*
X262019724Y-124850371D01*
X261983438Y-124922942D01*
X261910867Y-124959228D01*
X261838295Y-124959228D01*
X261765724Y-124922942D01*
X261729438Y-124850371D01*
X261729438Y-124668942D01*
X261693152Y-124596371D01*
D11*
X244075600Y-105541371D02*
X244575600Y-107041371D01*
X245075600Y-105541371D01*
X246432742Y-106898514D02*
X246361314Y-106969942D01*
X246147028Y-107041371D01*
X246004171Y-107041371D01*
X245789885Y-106969942D01*
X245647028Y-106827085D01*
X245575600Y-106684228D01*
X245504171Y-106398514D01*
X245504171Y-106184228D01*
X245575600Y-105898514D01*
X245647028Y-105755657D01*
X245789885Y-105612800D01*
X246004171Y-105541371D01*
X246147028Y-105541371D01*
X246361314Y-105612800D01*
X246432742Y-105684228D01*
X247932742Y-106898514D02*
X247861314Y-106969942D01*
X247647028Y-107041371D01*
X247504171Y-107041371D01*
X247289885Y-106969942D01*
X247147028Y-106827085D01*
X247075600Y-106684228D01*
X247004171Y-106398514D01*
X247004171Y-106184228D01*
X247075600Y-105898514D01*
X247147028Y-105755657D01*
X247289885Y-105612800D01*
X247504171Y-105541371D01*
X247647028Y-105541371D01*
X247861314Y-105612800D01*
X247932742Y-105684228D01*
X205579371Y-104768914D02*
X205579371Y-105483200D01*
X206293657Y-105554628D01*
X206222228Y-105483200D01*
X206150800Y-105340342D01*
X206150800Y-104983200D01*
X206222228Y-104840342D01*
X206293657Y-104768914D01*
X206436514Y-104697485D01*
X206793657Y-104697485D01*
X206936514Y-104768914D01*
X207007942Y-104840342D01*
X207079371Y-104983200D01*
X207079371Y-105340342D01*
X207007942Y-105483200D01*
X206936514Y-105554628D01*
X205579371Y-104268914D02*
X207079371Y-103768914D01*
X205579371Y-103268914D01*
X206138171Y-139717485D02*
X206138171Y-138788914D01*
X206709600Y-139288914D01*
X206709600Y-139074628D01*
X206781028Y-138931771D01*
X206852457Y-138860342D01*
X206995314Y-138788914D01*
X207352457Y-138788914D01*
X207495314Y-138860342D01*
X207566742Y-138931771D01*
X207638171Y-139074628D01*
X207638171Y-139503200D01*
X207566742Y-139646057D01*
X207495314Y-139717485D01*
X207495314Y-138146057D02*
X207566742Y-138074628D01*
X207638171Y-138146057D01*
X207566742Y-138217485D01*
X207495314Y-138146057D01*
X207638171Y-138146057D01*
X206138171Y-137574628D02*
X206138171Y-136646057D01*
X206709600Y-137146057D01*
X206709600Y-136931771D01*
X206781028Y-136788914D01*
X206852457Y-136717485D01*
X206995314Y-136646057D01*
X207352457Y-136646057D01*
X207495314Y-136717485D01*
X207566742Y-136788914D01*
X207638171Y-136931771D01*
X207638171Y-137360342D01*
X207566742Y-137503200D01*
X207495314Y-137574628D01*
X206138171Y-136217485D02*
X207638171Y-135717485D01*
X206138171Y-135217485D01*
D12*
X245553333Y-145880380D02*
X245220000Y-145404190D01*
X244981904Y-145880380D02*
X244981904Y-144880380D01*
X245362857Y-144880380D01*
X245458095Y-144928000D01*
X245505714Y-144975619D01*
X245553333Y-145070857D01*
X245553333Y-145213714D01*
X245505714Y-145308952D01*
X245458095Y-145356571D01*
X245362857Y-145404190D01*
X244981904Y-145404190D01*
X246458095Y-144880380D02*
X245981904Y-144880380D01*
X245934285Y-145356571D01*
X245981904Y-145308952D01*
X246077142Y-145261333D01*
X246315238Y-145261333D01*
X246410476Y-145308952D01*
X246458095Y-145356571D01*
X246505714Y-145451809D01*
X246505714Y-145689904D01*
X246458095Y-145785142D01*
X246410476Y-145832761D01*
X246315238Y-145880380D01*
X246077142Y-145880380D01*
X245981904Y-145832761D01*
X245934285Y-145785142D01*
X262682380Y-104446666D02*
X262206190Y-104780000D01*
X262682380Y-105018095D02*
X261682380Y-105018095D01*
X261682380Y-104637142D01*
X261730000Y-104541904D01*
X261777619Y-104494285D01*
X261872857Y-104446666D01*
X262015714Y-104446666D01*
X262110952Y-104494285D01*
X262158571Y-104541904D01*
X262206190Y-104637142D01*
X262206190Y-105018095D01*
X262682380Y-103494285D02*
X262682380Y-104065714D01*
X262682380Y-103780000D02*
X261682380Y-103780000D01*
X261825238Y-103875238D01*
X261920476Y-103970476D01*
X261968095Y-104065714D01*
X205024380Y-138450857D02*
X204548190Y-138784190D01*
X205024380Y-139022285D02*
X204024380Y-139022285D01*
X204024380Y-138641333D01*
X204072000Y-138546095D01*
X204119619Y-138498476D01*
X204214857Y-138450857D01*
X204357714Y-138450857D01*
X204452952Y-138498476D01*
X204500571Y-138546095D01*
X204548190Y-138641333D01*
X204548190Y-139022285D01*
X204119619Y-138069904D02*
X204072000Y-138022285D01*
X204024380Y-137927047D01*
X204024380Y-137688952D01*
X204072000Y-137593714D01*
X204119619Y-137546095D01*
X204214857Y-137498476D01*
X204310095Y-137498476D01*
X204452952Y-137546095D01*
X205024380Y-138117523D01*
X205024380Y-137498476D01*
X204024380Y-136641333D02*
X204024380Y-136831809D01*
X204072000Y-136927047D01*
X204119619Y-136974666D01*
X204262476Y-137069904D01*
X204452952Y-137117523D01*
X204833904Y-137117523D01*
X204929142Y-137069904D01*
X204976761Y-137022285D01*
X205024380Y-136927047D01*
X205024380Y-136736571D01*
X204976761Y-136641333D01*
X204929142Y-136593714D01*
X204833904Y-136546095D01*
X204595809Y-136546095D01*
X204500571Y-136593714D01*
X204452952Y-136641333D01*
X204405333Y-136736571D01*
X204405333Y-136927047D01*
X204452952Y-137022285D01*
X204500571Y-137069904D01*
X204595809Y-137117523D01*
X245985133Y-139784380D02*
X245651800Y-139308190D01*
X245413704Y-139784380D02*
X245413704Y-138784380D01*
X245794657Y-138784380D01*
X245889895Y-138832000D01*
X245937514Y-138879619D01*
X245985133Y-138974857D01*
X245985133Y-139117714D01*
X245937514Y-139212952D01*
X245889895Y-139260571D01*
X245794657Y-139308190D01*
X245413704Y-139308190D01*
X246556561Y-139212952D02*
X246461323Y-139165333D01*
X246413704Y-139117714D01*
X246366085Y-139022476D01*
X246366085Y-138974857D01*
X246413704Y-138879619D01*
X246461323Y-138832000D01*
X246556561Y-138784380D01*
X246747038Y-138784380D01*
X246842276Y-138832000D01*
X246889895Y-138879619D01*
X246937514Y-138974857D01*
X246937514Y-139022476D01*
X246889895Y-139117714D01*
X246842276Y-139165333D01*
X246747038Y-139212952D01*
X246556561Y-139212952D01*
X246461323Y-139260571D01*
X246413704Y-139308190D01*
X246366085Y-139403428D01*
X246366085Y-139593904D01*
X246413704Y-139689142D01*
X246461323Y-139736761D01*
X246556561Y-139784380D01*
X246747038Y-139784380D01*
X246842276Y-139736761D01*
X246889895Y-139689142D01*
X246937514Y-139593904D01*
X246937514Y-139403428D01*
X246889895Y-139308190D01*
X246842276Y-139260571D01*
X246747038Y-139212952D01*
D13*
X237368238Y-144986523D02*
X237368238Y-143716523D01*
X238698714Y-144865571D02*
X238638238Y-144926047D01*
X238456809Y-144986523D01*
X238335857Y-144986523D01*
X238154428Y-144926047D01*
X238033476Y-144805095D01*
X237973000Y-144684142D01*
X237912523Y-144442238D01*
X237912523Y-144260809D01*
X237973000Y-144018904D01*
X238033476Y-143897952D01*
X238154428Y-143777000D01*
X238335857Y-143716523D01*
X238456809Y-143716523D01*
X238638238Y-143777000D01*
X238698714Y-143837476D01*
X239122047Y-143716523D02*
X239908238Y-143716523D01*
X239484904Y-144200333D01*
X239666333Y-144200333D01*
X239787285Y-144260809D01*
X239847761Y-144321285D01*
X239908238Y-144442238D01*
X239908238Y-144744619D01*
X239847761Y-144865571D01*
X239787285Y-144926047D01*
X239666333Y-144986523D01*
X239303476Y-144986523D01*
X239182523Y-144926047D01*
X239122047Y-144865571D01*
D12*
X222487142Y-146260380D02*
X222153809Y-145784190D01*
X221915714Y-146260380D02*
X221915714Y-145260380D01*
X222296666Y-145260380D01*
X222391904Y-145308000D01*
X222439523Y-145355619D01*
X222487142Y-145450857D01*
X222487142Y-145593714D01*
X222439523Y-145688952D01*
X222391904Y-145736571D01*
X222296666Y-145784190D01*
X221915714Y-145784190D01*
X222868095Y-145355619D02*
X222915714Y-145308000D01*
X223010952Y-145260380D01*
X223249047Y-145260380D01*
X223344285Y-145308000D01*
X223391904Y-145355619D01*
X223439523Y-145450857D01*
X223439523Y-145546095D01*
X223391904Y-145688952D01*
X222820476Y-146260380D01*
X223439523Y-146260380D01*
X224391904Y-146260380D02*
X223820476Y-146260380D01*
X224106190Y-146260380D02*
X224106190Y-145260380D01*
X224010952Y-145403238D01*
X223915714Y-145498476D01*
X223820476Y-145546095D01*
X204896380Y-134228095D02*
X203896380Y-134228095D01*
X203896380Y-133990000D01*
X203944000Y-133847142D01*
X204039238Y-133751904D01*
X204134476Y-133704285D01*
X204324952Y-133656666D01*
X204467809Y-133656666D01*
X204658285Y-133704285D01*
X204753523Y-133751904D01*
X204848761Y-133847142D01*
X204896380Y-133990000D01*
X204896380Y-134228095D01*
X203896380Y-133323333D02*
X203896380Y-132704285D01*
X204277333Y-133037619D01*
X204277333Y-132894761D01*
X204324952Y-132799523D01*
X204372571Y-132751904D01*
X204467809Y-132704285D01*
X204705904Y-132704285D01*
X204801142Y-132751904D01*
X204848761Y-132799523D01*
X204896380Y-132894761D01*
X204896380Y-133180476D01*
X204848761Y-133275714D01*
X204801142Y-133323333D01*
X230636642Y-115400380D02*
X230303309Y-114924190D01*
X230065214Y-115400380D02*
X230065214Y-114400380D01*
X230446166Y-114400380D01*
X230541404Y-114448000D01*
X230589023Y-114495619D01*
X230636642Y-114590857D01*
X230636642Y-114733714D01*
X230589023Y-114828952D01*
X230541404Y-114876571D01*
X230446166Y-114924190D01*
X230065214Y-114924190D01*
X231589023Y-115400380D02*
X231017595Y-115400380D01*
X231303309Y-115400380D02*
X231303309Y-114400380D01*
X231208071Y-114543238D01*
X231112833Y-114638476D01*
X231017595Y-114686095D01*
X232160452Y-114828952D02*
X232065214Y-114781333D01*
X232017595Y-114733714D01*
X231969976Y-114638476D01*
X231969976Y-114590857D01*
X232017595Y-114495619D01*
X232065214Y-114448000D01*
X232160452Y-114400380D01*
X232350928Y-114400380D01*
X232446166Y-114448000D01*
X232493785Y-114495619D01*
X232541404Y-114590857D01*
X232541404Y-114638476D01*
X232493785Y-114733714D01*
X232446166Y-114781333D01*
X232350928Y-114828952D01*
X232160452Y-114828952D01*
X232065214Y-114876571D01*
X232017595Y-114924190D01*
X231969976Y-115019428D01*
X231969976Y-115209904D01*
X232017595Y-115305142D01*
X232065214Y-115352761D01*
X232160452Y-115400380D01*
X232350928Y-115400380D01*
X232446166Y-115352761D01*
X232493785Y-115305142D01*
X232541404Y-115209904D01*
X232541404Y-115019428D01*
X232493785Y-114924190D01*
X232446166Y-114876571D01*
X232350928Y-114828952D01*
X230567333Y-113019142D02*
X230519714Y-113066761D01*
X230376857Y-113114380D01*
X230281619Y-113114380D01*
X230138761Y-113066761D01*
X230043523Y-112971523D01*
X229995904Y-112876285D01*
X229948285Y-112685809D01*
X229948285Y-112542952D01*
X229995904Y-112352476D01*
X230043523Y-112257238D01*
X230138761Y-112162000D01*
X230281619Y-112114380D01*
X230376857Y-112114380D01*
X230519714Y-112162000D01*
X230567333Y-112209619D01*
X231472095Y-112114380D02*
X230995904Y-112114380D01*
X230948285Y-112590571D01*
X230995904Y-112542952D01*
X231091142Y-112495333D01*
X231329238Y-112495333D01*
X231424476Y-112542952D01*
X231472095Y-112590571D01*
X231519714Y-112685809D01*
X231519714Y-112923904D01*
X231472095Y-113019142D01*
X231424476Y-113066761D01*
X231329238Y-113114380D01*
X231091142Y-113114380D01*
X230995904Y-113066761D01*
X230948285Y-113019142D01*
X217042980Y-134663933D02*
X217757266Y-134663933D01*
X217900123Y-134711552D01*
X217995361Y-134806790D01*
X218042980Y-134949647D01*
X218042980Y-135044885D01*
X217042980Y-133759171D02*
X217042980Y-133949647D01*
X217090600Y-134044885D01*
X217138219Y-134092504D01*
X217281076Y-134187742D01*
X217471552Y-134235361D01*
X217852504Y-134235361D01*
X217947742Y-134187742D01*
X217995361Y-134140123D01*
X218042980Y-134044885D01*
X218042980Y-133854409D01*
X217995361Y-133759171D01*
X217947742Y-133711552D01*
X217852504Y-133663933D01*
X217614409Y-133663933D01*
X217519171Y-133711552D01*
X217471552Y-133759171D01*
X217423933Y-133854409D01*
X217423933Y-134044885D01*
X217471552Y-134140123D01*
X217519171Y-134187742D01*
X217614409Y-134235361D01*
X243267333Y-110700380D02*
X242934000Y-110224190D01*
X242695904Y-110700380D02*
X242695904Y-109700380D01*
X243076857Y-109700380D01*
X243172095Y-109748000D01*
X243219714Y-109795619D01*
X243267333Y-109890857D01*
X243267333Y-110033714D01*
X243219714Y-110128952D01*
X243172095Y-110176571D01*
X243076857Y-110224190D01*
X242695904Y-110224190D01*
X243743523Y-110700380D02*
X243934000Y-110700380D01*
X244029238Y-110652761D01*
X244076857Y-110605142D01*
X244172095Y-110462285D01*
X244219714Y-110271809D01*
X244219714Y-109890857D01*
X244172095Y-109795619D01*
X244124476Y-109748000D01*
X244029238Y-109700380D01*
X243838761Y-109700380D01*
X243743523Y-109748000D01*
X243695904Y-109795619D01*
X243648285Y-109890857D01*
X243648285Y-110128952D01*
X243695904Y-110224190D01*
X243743523Y-110271809D01*
X243838761Y-110319428D01*
X244029238Y-110319428D01*
X244124476Y-110271809D01*
X244172095Y-110224190D01*
X244219714Y-110128952D01*
X260142380Y-104446666D02*
X259666190Y-104780000D01*
X260142380Y-105018095D02*
X259142380Y-105018095D01*
X259142380Y-104637142D01*
X259190000Y-104541904D01*
X259237619Y-104494285D01*
X259332857Y-104446666D01*
X259475714Y-104446666D01*
X259570952Y-104494285D01*
X259618571Y-104541904D01*
X259666190Y-104637142D01*
X259666190Y-105018095D01*
X259237619Y-104065714D02*
X259190000Y-104018095D01*
X259142380Y-103922857D01*
X259142380Y-103684761D01*
X259190000Y-103589523D01*
X259237619Y-103541904D01*
X259332857Y-103494285D01*
X259428095Y-103494285D01*
X259570952Y-103541904D01*
X260142380Y-104113333D01*
X260142380Y-103494285D01*
D13*
X237368238Y-125428523D02*
X237368238Y-124158523D01*
X238698714Y-125307571D02*
X238638238Y-125368047D01*
X238456809Y-125428523D01*
X238335857Y-125428523D01*
X238154428Y-125368047D01*
X238033476Y-125247095D01*
X237973000Y-125126142D01*
X237912523Y-124884238D01*
X237912523Y-124702809D01*
X237973000Y-124460904D01*
X238033476Y-124339952D01*
X238154428Y-124219000D01*
X238335857Y-124158523D01*
X238456809Y-124158523D01*
X238638238Y-124219000D01*
X238698714Y-124279476D01*
X239182523Y-124279476D02*
X239243000Y-124219000D01*
X239363952Y-124158523D01*
X239666333Y-124158523D01*
X239787285Y-124219000D01*
X239847761Y-124279476D01*
X239908238Y-124400428D01*
X239908238Y-124521380D01*
X239847761Y-124702809D01*
X239122047Y-125428523D01*
X239908238Y-125428523D01*
D12*
X255475142Y-115622666D02*
X255522761Y-115670285D01*
X255570380Y-115813142D01*
X255570380Y-115908380D01*
X255522761Y-116051238D01*
X255427523Y-116146476D01*
X255332285Y-116194095D01*
X255141809Y-116241714D01*
X254998952Y-116241714D01*
X254808476Y-116194095D01*
X254713238Y-116146476D01*
X254618000Y-116051238D01*
X254570380Y-115908380D01*
X254570380Y-115813142D01*
X254618000Y-115670285D01*
X254665619Y-115622666D01*
X255570380Y-114670285D02*
X255570380Y-115241714D01*
X255570380Y-114956000D02*
X254570380Y-114956000D01*
X254713238Y-115051238D01*
X254808476Y-115146476D01*
X254856095Y-115241714D01*
X230059333Y-143499142D02*
X230011714Y-143546761D01*
X229868857Y-143594380D01*
X229773619Y-143594380D01*
X229630761Y-143546761D01*
X229535523Y-143451523D01*
X229487904Y-143356285D01*
X229440285Y-143165809D01*
X229440285Y-143022952D01*
X229487904Y-142832476D01*
X229535523Y-142737238D01*
X229630761Y-142642000D01*
X229773619Y-142594380D01*
X229868857Y-142594380D01*
X230011714Y-142642000D01*
X230059333Y-142689619D01*
X230392666Y-142594380D02*
X231011714Y-142594380D01*
X230678380Y-142975333D01*
X230821238Y-142975333D01*
X230916476Y-143022952D01*
X230964095Y-143070571D01*
X231011714Y-143165809D01*
X231011714Y-143403904D01*
X230964095Y-143499142D01*
X230916476Y-143546761D01*
X230821238Y-143594380D01*
X230535523Y-143594380D01*
X230440285Y-143546761D01*
X230392666Y-143499142D01*
X247658542Y-130894380D02*
X247325209Y-130418190D01*
X247087114Y-130894380D02*
X247087114Y-129894380D01*
X247468066Y-129894380D01*
X247563304Y-129942000D01*
X247610923Y-129989619D01*
X247658542Y-130084857D01*
X247658542Y-130227714D01*
X247610923Y-130322952D01*
X247563304Y-130370571D01*
X247468066Y-130418190D01*
X247087114Y-130418190D01*
X248610923Y-130894380D02*
X248039495Y-130894380D01*
X248325209Y-130894380D02*
X248325209Y-129894380D01*
X248229971Y-130037238D01*
X248134733Y-130132476D01*
X248039495Y-130180095D01*
X248991876Y-129989619D02*
X249039495Y-129942000D01*
X249134733Y-129894380D01*
X249372828Y-129894380D01*
X249468066Y-129942000D01*
X249515685Y-129989619D01*
X249563304Y-130084857D01*
X249563304Y-130180095D01*
X249515685Y-130322952D01*
X248944257Y-130894380D01*
X249563304Y-130894380D01*
X241743333Y-133180380D02*
X241410000Y-132704190D01*
X241171904Y-133180380D02*
X241171904Y-132180380D01*
X241552857Y-132180380D01*
X241648095Y-132228000D01*
X241695714Y-132275619D01*
X241743333Y-132370857D01*
X241743333Y-132513714D01*
X241695714Y-132608952D01*
X241648095Y-132656571D01*
X241552857Y-132704190D01*
X241171904Y-132704190D01*
X242600476Y-132180380D02*
X242410000Y-132180380D01*
X242314761Y-132228000D01*
X242267142Y-132275619D01*
X242171904Y-132418476D01*
X242124285Y-132608952D01*
X242124285Y-132989904D01*
X242171904Y-133085142D01*
X242219523Y-133132761D01*
X242314761Y-133180380D01*
X242505238Y-133180380D01*
X242600476Y-133132761D01*
X242648095Y-133085142D01*
X242695714Y-132989904D01*
X242695714Y-132751809D01*
X242648095Y-132656571D01*
X242600476Y-132608952D01*
X242505238Y-132561333D01*
X242314761Y-132561333D01*
X242219523Y-132608952D01*
X242171904Y-132656571D01*
X242124285Y-132751809D01*
X228799642Y-117845142D02*
X228752023Y-117892761D01*
X228609166Y-117940380D01*
X228513928Y-117940380D01*
X228371071Y-117892761D01*
X228275833Y-117797523D01*
X228228214Y-117702285D01*
X228180595Y-117511809D01*
X228180595Y-117368952D01*
X228228214Y-117178476D01*
X228275833Y-117083238D01*
X228371071Y-116988000D01*
X228513928Y-116940380D01*
X228609166Y-116940380D01*
X228752023Y-116988000D01*
X228799642Y-117035619D01*
X229752023Y-117940380D02*
X229180595Y-117940380D01*
X229466309Y-117940380D02*
X229466309Y-116940380D01*
X229371071Y-117083238D01*
X229275833Y-117178476D01*
X229180595Y-117226095D01*
X230609166Y-116940380D02*
X230418690Y-116940380D01*
X230323452Y-116988000D01*
X230275833Y-117035619D01*
X230180595Y-117178476D01*
X230132976Y-117368952D01*
X230132976Y-117749904D01*
X230180595Y-117845142D01*
X230228214Y-117892761D01*
X230323452Y-117940380D01*
X230513928Y-117940380D01*
X230609166Y-117892761D01*
X230656785Y-117845142D01*
X230704404Y-117749904D01*
X230704404Y-117511809D01*
X230656785Y-117416571D01*
X230609166Y-117368952D01*
X230513928Y-117321333D01*
X230323452Y-117321333D01*
X230228214Y-117368952D01*
X230180595Y-117416571D01*
X230132976Y-117511809D01*
X217363542Y-105719066D02*
X217411161Y-105766685D01*
X217458780Y-105909542D01*
X217458780Y-106004780D01*
X217411161Y-106147638D01*
X217315923Y-106242876D01*
X217220685Y-106290495D01*
X217030209Y-106338114D01*
X216887352Y-106338114D01*
X216696876Y-106290495D01*
X216601638Y-106242876D01*
X216506400Y-106147638D01*
X216458780Y-106004780D01*
X216458780Y-105909542D01*
X216506400Y-105766685D01*
X216554019Y-105719066D01*
X216458780Y-105385733D02*
X216458780Y-104719066D01*
X217458780Y-105147638D01*
D13*
X212222238Y-138570523D02*
X212222238Y-137300523D01*
X213552714Y-138449571D02*
X213492238Y-138510047D01*
X213310809Y-138570523D01*
X213189857Y-138570523D01*
X213008428Y-138510047D01*
X212887476Y-138389095D01*
X212827000Y-138268142D01*
X212766523Y-138026238D01*
X212766523Y-137844809D01*
X212827000Y-137602904D01*
X212887476Y-137481952D01*
X213008428Y-137361000D01*
X213189857Y-137300523D01*
X213310809Y-137300523D01*
X213492238Y-137361000D01*
X213552714Y-137421476D01*
X214157476Y-138570523D02*
X214399380Y-138570523D01*
X214520333Y-138510047D01*
X214580809Y-138449571D01*
X214701761Y-138268142D01*
X214762238Y-138026238D01*
X214762238Y-137542428D01*
X214701761Y-137421476D01*
X214641285Y-137361000D01*
X214520333Y-137300523D01*
X214278428Y-137300523D01*
X214157476Y-137361000D01*
X214097000Y-137421476D01*
X214036523Y-137542428D01*
X214036523Y-137844809D01*
X214097000Y-137965761D01*
X214157476Y-138026238D01*
X214278428Y-138086714D01*
X214520333Y-138086714D01*
X214641285Y-138026238D01*
X214701761Y-137965761D01*
X214762238Y-137844809D01*
D12*
X240251142Y-147817142D02*
X240203523Y-147864761D01*
X240060666Y-147912380D01*
X239965428Y-147912380D01*
X239822571Y-147864761D01*
X239727333Y-147769523D01*
X239679714Y-147674285D01*
X239632095Y-147483809D01*
X239632095Y-147340952D01*
X239679714Y-147150476D01*
X239727333Y-147055238D01*
X239822571Y-146960000D01*
X239965428Y-146912380D01*
X240060666Y-146912380D01*
X240203523Y-146960000D01*
X240251142Y-147007619D01*
X241203523Y-147912380D02*
X240632095Y-147912380D01*
X240917809Y-147912380D02*
X240917809Y-146912380D01*
X240822571Y-147055238D01*
X240727333Y-147150476D01*
X240632095Y-147198095D01*
X241679714Y-147912380D02*
X241870190Y-147912380D01*
X241965428Y-147864761D01*
X242013047Y-147817142D01*
X242108285Y-147674285D01*
X242155904Y-147483809D01*
X242155904Y-147102857D01*
X242108285Y-147007619D01*
X242060666Y-146960000D01*
X241965428Y-146912380D01*
X241774952Y-146912380D01*
X241679714Y-146960000D01*
X241632095Y-147007619D01*
X241584476Y-147102857D01*
X241584476Y-147340952D01*
X241632095Y-147436190D01*
X241679714Y-147483809D01*
X241774952Y-147531428D01*
X241965428Y-147531428D01*
X242060666Y-147483809D01*
X242108285Y-147436190D01*
X242155904Y-147340952D01*
X239997142Y-141467142D02*
X239949523Y-141514761D01*
X239806666Y-141562380D01*
X239711428Y-141562380D01*
X239568571Y-141514761D01*
X239473333Y-141419523D01*
X239425714Y-141324285D01*
X239378095Y-141133809D01*
X239378095Y-140990952D01*
X239425714Y-140800476D01*
X239473333Y-140705238D01*
X239568571Y-140610000D01*
X239711428Y-140562380D01*
X239806666Y-140562380D01*
X239949523Y-140610000D01*
X239997142Y-140657619D01*
X240378095Y-140657619D02*
X240425714Y-140610000D01*
X240520952Y-140562380D01*
X240759047Y-140562380D01*
X240854285Y-140610000D01*
X240901904Y-140657619D01*
X240949523Y-140752857D01*
X240949523Y-140848095D01*
X240901904Y-140990952D01*
X240330476Y-141562380D01*
X240949523Y-141562380D01*
X241568571Y-140562380D02*
X241663809Y-140562380D01*
X241759047Y-140610000D01*
X241806666Y-140657619D01*
X241854285Y-140752857D01*
X241901904Y-140943333D01*
X241901904Y-141181428D01*
X241854285Y-141371904D01*
X241806666Y-141467142D01*
X241759047Y-141514761D01*
X241663809Y-141562380D01*
X241568571Y-141562380D01*
X241473333Y-141514761D01*
X241425714Y-141467142D01*
X241378095Y-141371904D01*
X241330476Y-141181428D01*
X241330476Y-140943333D01*
X241378095Y-140752857D01*
X241425714Y-140657619D01*
X241473333Y-140610000D01*
X241568571Y-140562380D01*
D13*
X237601238Y-138618923D02*
X237601238Y-137348923D01*
X238931714Y-138497971D02*
X238871238Y-138558447D01*
X238689809Y-138618923D01*
X238568857Y-138618923D01*
X238387428Y-138558447D01*
X238266476Y-138437495D01*
X238206000Y-138316542D01*
X238145523Y-138074638D01*
X238145523Y-137893209D01*
X238206000Y-137651304D01*
X238266476Y-137530352D01*
X238387428Y-137409400D01*
X238568857Y-137348923D01*
X238689809Y-137348923D01*
X238871238Y-137409400D01*
X238931714Y-137469876D01*
X240020285Y-137348923D02*
X239778380Y-137348923D01*
X239657428Y-137409400D01*
X239596952Y-137469876D01*
X239476000Y-137651304D01*
X239415523Y-137893209D01*
X239415523Y-138377019D01*
X239476000Y-138497971D01*
X239536476Y-138558447D01*
X239657428Y-138618923D01*
X239899333Y-138618923D01*
X240020285Y-138558447D01*
X240080761Y-138497971D01*
X240141238Y-138377019D01*
X240141238Y-138074638D01*
X240080761Y-137953685D01*
X240020285Y-137893209D01*
X239899333Y-137832733D01*
X239657428Y-137832733D01*
X239536476Y-137893209D01*
X239476000Y-137953685D01*
X239415523Y-138074638D01*
D12*
X228617942Y-134863142D02*
X228570323Y-134910761D01*
X228427466Y-134958380D01*
X228332228Y-134958380D01*
X228189371Y-134910761D01*
X228094133Y-134815523D01*
X228046514Y-134720285D01*
X227998895Y-134529809D01*
X227998895Y-134386952D01*
X228046514Y-134196476D01*
X228094133Y-134101238D01*
X228189371Y-134006000D01*
X228332228Y-133958380D01*
X228427466Y-133958380D01*
X228570323Y-134006000D01*
X228617942Y-134053619D01*
X229570323Y-134958380D02*
X228998895Y-134958380D01*
X229284609Y-134958380D02*
X229284609Y-133958380D01*
X229189371Y-134101238D01*
X229094133Y-134196476D01*
X228998895Y-134244095D01*
X230475085Y-133958380D02*
X229998895Y-133958380D01*
X229951276Y-134434571D01*
X229998895Y-134386952D01*
X230094133Y-134339333D01*
X230332228Y-134339333D01*
X230427466Y-134386952D01*
X230475085Y-134434571D01*
X230522704Y-134529809D01*
X230522704Y-134767904D01*
X230475085Y-134863142D01*
X230427466Y-134910761D01*
X230332228Y-134958380D01*
X230094133Y-134958380D01*
X229998895Y-134910761D01*
X229951276Y-134863142D01*
X230243542Y-139200180D02*
X229910209Y-138723990D01*
X229672114Y-139200180D02*
X229672114Y-138200180D01*
X230053066Y-138200180D01*
X230148304Y-138247800D01*
X230195923Y-138295419D01*
X230243542Y-138390657D01*
X230243542Y-138533514D01*
X230195923Y-138628752D01*
X230148304Y-138676371D01*
X230053066Y-138723990D01*
X229672114Y-138723990D01*
X231195923Y-139200180D02*
X230624495Y-139200180D01*
X230910209Y-139200180D02*
X230910209Y-138200180D01*
X230814971Y-138343038D01*
X230719733Y-138438276D01*
X230624495Y-138485895D01*
X231672114Y-139200180D02*
X231862590Y-139200180D01*
X231957828Y-139152561D01*
X232005447Y-139104942D01*
X232100685Y-138962085D01*
X232148304Y-138771609D01*
X232148304Y-138390657D01*
X232100685Y-138295419D01*
X232053066Y-138247800D01*
X231957828Y-138200180D01*
X231767352Y-138200180D01*
X231672114Y-138247800D01*
X231624495Y-138295419D01*
X231576876Y-138390657D01*
X231576876Y-138628752D01*
X231624495Y-138723990D01*
X231672114Y-138771609D01*
X231767352Y-138819228D01*
X231957828Y-138819228D01*
X232053066Y-138771609D01*
X232100685Y-138723990D01*
X232148304Y-138628752D01*
X230313333Y-137149142D02*
X230265714Y-137196761D01*
X230122857Y-137244380D01*
X230027619Y-137244380D01*
X229884761Y-137196761D01*
X229789523Y-137101523D01*
X229741904Y-137006285D01*
X229694285Y-136815809D01*
X229694285Y-136672952D01*
X229741904Y-136482476D01*
X229789523Y-136387238D01*
X229884761Y-136292000D01*
X230027619Y-136244380D01*
X230122857Y-136244380D01*
X230265714Y-136292000D01*
X230313333Y-136339619D01*
X231170476Y-136244380D02*
X230980000Y-136244380D01*
X230884761Y-136292000D01*
X230837142Y-136339619D01*
X230741904Y-136482476D01*
X230694285Y-136672952D01*
X230694285Y-137053904D01*
X230741904Y-137149142D01*
X230789523Y-137196761D01*
X230884761Y-137244380D01*
X231075238Y-137244380D01*
X231170476Y-137196761D01*
X231218095Y-137149142D01*
X231265714Y-137053904D01*
X231265714Y-136815809D01*
X231218095Y-136720571D01*
X231170476Y-136672952D01*
X231075238Y-136625333D01*
X230884761Y-136625333D01*
X230789523Y-136672952D01*
X230741904Y-136720571D01*
X230694285Y-136815809D01*
X241743333Y-126576380D02*
X241410000Y-126100190D01*
X241171904Y-126576380D02*
X241171904Y-125576380D01*
X241552857Y-125576380D01*
X241648095Y-125624000D01*
X241695714Y-125671619D01*
X241743333Y-125766857D01*
X241743333Y-125909714D01*
X241695714Y-126004952D01*
X241648095Y-126052571D01*
X241552857Y-126100190D01*
X241171904Y-126100190D01*
X242600476Y-125909714D02*
X242600476Y-126576380D01*
X242362380Y-125528761D02*
X242124285Y-126243047D01*
X242743333Y-126243047D01*
X230850633Y-130545142D02*
X230803014Y-130592761D01*
X230660157Y-130640380D01*
X230564919Y-130640380D01*
X230422061Y-130592761D01*
X230326823Y-130497523D01*
X230279204Y-130402285D01*
X230231585Y-130211809D01*
X230231585Y-130068952D01*
X230279204Y-129878476D01*
X230326823Y-129783238D01*
X230422061Y-129688000D01*
X230564919Y-129640380D01*
X230660157Y-129640380D01*
X230803014Y-129688000D01*
X230850633Y-129735619D01*
X231707776Y-129973714D02*
X231707776Y-130640380D01*
X231469680Y-129592761D02*
X231231585Y-130307047D01*
X231850633Y-130307047D01*
X245585142Y-143594380D02*
X245251809Y-143118190D01*
X245013714Y-143594380D02*
X245013714Y-142594380D01*
X245394666Y-142594380D01*
X245489904Y-142642000D01*
X245537523Y-142689619D01*
X245585142Y-142784857D01*
X245585142Y-142927714D01*
X245537523Y-143022952D01*
X245489904Y-143070571D01*
X245394666Y-143118190D01*
X245013714Y-143118190D01*
X246537523Y-143594380D02*
X245966095Y-143594380D01*
X246251809Y-143594380D02*
X246251809Y-142594380D01*
X246156571Y-142737238D01*
X246061333Y-142832476D01*
X245966095Y-142880095D01*
X247489904Y-143594380D02*
X246918476Y-143594380D01*
X247204190Y-143594380D02*
X247204190Y-142594380D01*
X247108952Y-142737238D01*
X247013714Y-142832476D01*
X246918476Y-142880095D01*
X205501180Y-108895933D02*
X206215466Y-108895933D01*
X206358323Y-108943552D01*
X206453561Y-109038790D01*
X206501180Y-109181647D01*
X206501180Y-109276885D01*
X205834514Y-107991171D02*
X206501180Y-107991171D01*
X205453561Y-108229266D02*
X206167847Y-108467361D01*
X206167847Y-107848314D01*
X257856380Y-104446666D02*
X257380190Y-104780000D01*
X257856380Y-105018095D02*
X256856380Y-105018095D01*
X256856380Y-104637142D01*
X256904000Y-104541904D01*
X256951619Y-104494285D01*
X257046857Y-104446666D01*
X257189714Y-104446666D01*
X257284952Y-104494285D01*
X257332571Y-104541904D01*
X257380190Y-104637142D01*
X257380190Y-105018095D01*
X256856380Y-104113333D02*
X256856380Y-103494285D01*
X257237333Y-103827619D01*
X257237333Y-103684761D01*
X257284952Y-103589523D01*
X257332571Y-103541904D01*
X257427809Y-103494285D01*
X257665904Y-103494285D01*
X257761142Y-103541904D01*
X257808761Y-103589523D01*
X257856380Y-103684761D01*
X257856380Y-103970476D01*
X257808761Y-104065714D01*
X257761142Y-104113333D01*
D13*
X263820523Y-115679761D02*
X262550523Y-115679761D01*
X263699571Y-114349285D02*
X263760047Y-114409761D01*
X263820523Y-114591190D01*
X263820523Y-114712142D01*
X263760047Y-114893571D01*
X263639095Y-115014523D01*
X263518142Y-115075000D01*
X263276238Y-115135476D01*
X263094809Y-115135476D01*
X262852904Y-115075000D01*
X262731952Y-115014523D01*
X262611000Y-114893571D01*
X262550523Y-114712142D01*
X262550523Y-114591190D01*
X262611000Y-114409761D01*
X262671476Y-114349285D01*
X263820523Y-113139761D02*
X263820523Y-113865476D01*
X263820523Y-113502619D02*
X262550523Y-113502619D01*
X262731952Y-113623571D01*
X262852904Y-113744523D01*
X262913380Y-113865476D01*
D12*
X241727333Y-115400380D02*
X241394000Y-114924190D01*
X241155904Y-115400380D02*
X241155904Y-114400380D01*
X241536857Y-114400380D01*
X241632095Y-114448000D01*
X241679714Y-114495619D01*
X241727333Y-114590857D01*
X241727333Y-114733714D01*
X241679714Y-114828952D01*
X241632095Y-114876571D01*
X241536857Y-114924190D01*
X241155904Y-114924190D01*
X242060666Y-114400380D02*
X242727333Y-114400380D01*
X242298761Y-115400380D01*
X230583142Y-126322380D02*
X230249809Y-125846190D01*
X230011714Y-126322380D02*
X230011714Y-125322380D01*
X230392666Y-125322380D01*
X230487904Y-125370000D01*
X230535523Y-125417619D01*
X230583142Y-125512857D01*
X230583142Y-125655714D01*
X230535523Y-125750952D01*
X230487904Y-125798571D01*
X230392666Y-125846190D01*
X230011714Y-125846190D01*
X231535523Y-126322380D02*
X230964095Y-126322380D01*
X231249809Y-126322380D02*
X231249809Y-125322380D01*
X231154571Y-125465238D01*
X231059333Y-125560476D01*
X230964095Y-125608095D01*
X232440285Y-125322380D02*
X231964095Y-125322380D01*
X231916476Y-125798571D01*
X231964095Y-125750952D01*
X232059333Y-125703333D01*
X232297428Y-125703333D01*
X232392666Y-125750952D01*
X232440285Y-125798571D01*
X232487904Y-125893809D01*
X232487904Y-126131904D01*
X232440285Y-126227142D01*
X232392666Y-126274761D01*
X232297428Y-126322380D01*
X232059333Y-126322380D01*
X231964095Y-126274761D01*
X231916476Y-126227142D01*
X230567333Y-123941142D02*
X230519714Y-123988761D01*
X230376857Y-124036380D01*
X230281619Y-124036380D01*
X230138761Y-123988761D01*
X230043523Y-123893523D01*
X229995904Y-123798285D01*
X229948285Y-123607809D01*
X229948285Y-123464952D01*
X229995904Y-123274476D01*
X230043523Y-123179238D01*
X230138761Y-123084000D01*
X230281619Y-123036380D01*
X230376857Y-123036380D01*
X230519714Y-123084000D01*
X230567333Y-123131619D01*
X230948285Y-123131619D02*
X230995904Y-123084000D01*
X231091142Y-123036380D01*
X231329238Y-123036380D01*
X231424476Y-123084000D01*
X231472095Y-123131619D01*
X231519714Y-123226857D01*
X231519714Y-123322095D01*
X231472095Y-123464952D01*
X230900666Y-124036380D01*
X231519714Y-124036380D01*
X212665704Y-115484980D02*
X212665704Y-114484980D01*
X212903800Y-114484980D01*
X213046657Y-114532600D01*
X213141895Y-114627838D01*
X213189514Y-114723076D01*
X213237133Y-114913552D01*
X213237133Y-115056409D01*
X213189514Y-115246885D01*
X213141895Y-115342123D01*
X213046657Y-115437361D01*
X212903800Y-115484980D01*
X212665704Y-115484980D01*
X213618085Y-114580219D02*
X213665704Y-114532600D01*
X213760942Y-114484980D01*
X213999038Y-114484980D01*
X214094276Y-114532600D01*
X214141895Y-114580219D01*
X214189514Y-114675457D01*
X214189514Y-114770695D01*
X214141895Y-114913552D01*
X213570466Y-115484980D01*
X214189514Y-115484980D01*
X218221895Y-115114980D02*
X218221895Y-114114980D01*
X218793323Y-115114980D02*
X218364752Y-114543552D01*
X218793323Y-114114980D02*
X218221895Y-114686409D01*
X222471142Y-139630980D02*
X222137809Y-139154790D01*
X221899714Y-139630980D02*
X221899714Y-138630980D01*
X222280666Y-138630980D01*
X222375904Y-138678600D01*
X222423523Y-138726219D01*
X222471142Y-138821457D01*
X222471142Y-138964314D01*
X222423523Y-139059552D01*
X222375904Y-139107171D01*
X222280666Y-139154790D01*
X221899714Y-139154790D01*
X222852095Y-138726219D02*
X222899714Y-138678600D01*
X222994952Y-138630980D01*
X223233047Y-138630980D01*
X223328285Y-138678600D01*
X223375904Y-138726219D01*
X223423523Y-138821457D01*
X223423523Y-138916695D01*
X223375904Y-139059552D01*
X222804476Y-139630980D01*
X223423523Y-139630980D01*
X224280666Y-138964314D02*
X224280666Y-139630980D01*
X224042571Y-138583361D02*
X223804476Y-139297647D01*
X224423523Y-139297647D01*
X229551333Y-128767142D02*
X229503714Y-128814761D01*
X229360857Y-128862380D01*
X229265619Y-128862380D01*
X229122761Y-128814761D01*
X229027523Y-128719523D01*
X228979904Y-128624285D01*
X228932285Y-128433809D01*
X228932285Y-128290952D01*
X228979904Y-128100476D01*
X229027523Y-128005238D01*
X229122761Y-127910000D01*
X229265619Y-127862380D01*
X229360857Y-127862380D01*
X229503714Y-127910000D01*
X229551333Y-127957619D01*
X230122761Y-128290952D02*
X230027523Y-128243333D01*
X229979904Y-128195714D01*
X229932285Y-128100476D01*
X229932285Y-128052857D01*
X229979904Y-127957619D01*
X230027523Y-127910000D01*
X230122761Y-127862380D01*
X230313238Y-127862380D01*
X230408476Y-127910000D01*
X230456095Y-127957619D01*
X230503714Y-128052857D01*
X230503714Y-128100476D01*
X230456095Y-128195714D01*
X230408476Y-128243333D01*
X230313238Y-128290952D01*
X230122761Y-128290952D01*
X230027523Y-128338571D01*
X229979904Y-128386190D01*
X229932285Y-128481428D01*
X229932285Y-128671904D01*
X229979904Y-128767142D01*
X230027523Y-128814761D01*
X230122761Y-128862380D01*
X230313238Y-128862380D01*
X230408476Y-128814761D01*
X230456095Y-128767142D01*
X230503714Y-128671904D01*
X230503714Y-128481428D01*
X230456095Y-128386190D01*
X230408476Y-128338571D01*
X230313238Y-128290952D01*
X222979142Y-126956380D02*
X222645809Y-126480190D01*
X222407714Y-126956380D02*
X222407714Y-125956380D01*
X222788666Y-125956380D01*
X222883904Y-126004000D01*
X222931523Y-126051619D01*
X222979142Y-126146857D01*
X222979142Y-126289714D01*
X222931523Y-126384952D01*
X222883904Y-126432571D01*
X222788666Y-126480190D01*
X222407714Y-126480190D01*
X223360095Y-126051619D02*
X223407714Y-126004000D01*
X223502952Y-125956380D01*
X223741047Y-125956380D01*
X223836285Y-126004000D01*
X223883904Y-126051619D01*
X223931523Y-126146857D01*
X223931523Y-126242095D01*
X223883904Y-126384952D01*
X223312476Y-126956380D01*
X223931523Y-126956380D01*
X224550571Y-125956380D02*
X224645809Y-125956380D01*
X224741047Y-126004000D01*
X224788666Y-126051619D01*
X224836285Y-126146857D01*
X224883904Y-126337333D01*
X224883904Y-126575428D01*
X224836285Y-126765904D01*
X224788666Y-126861142D01*
X224741047Y-126908761D01*
X224645809Y-126956380D01*
X224550571Y-126956380D01*
X224455333Y-126908761D01*
X224407714Y-126861142D01*
X224360095Y-126765904D01*
X224312476Y-126575428D01*
X224312476Y-126337333D01*
X224360095Y-126146857D01*
X224407714Y-126051619D01*
X224455333Y-126004000D01*
X224550571Y-125956380D01*
D13*
X237368238Y-114506523D02*
X237368238Y-113236523D01*
X238698714Y-114385571D02*
X238638238Y-114446047D01*
X238456809Y-114506523D01*
X238335857Y-114506523D01*
X238154428Y-114446047D01*
X238033476Y-114325095D01*
X237973000Y-114204142D01*
X237912523Y-113962238D01*
X237912523Y-113780809D01*
X237973000Y-113538904D01*
X238033476Y-113417952D01*
X238154428Y-113297000D01*
X238335857Y-113236523D01*
X238456809Y-113236523D01*
X238638238Y-113297000D01*
X238698714Y-113357476D01*
X239847761Y-113236523D02*
X239243000Y-113236523D01*
X239182523Y-113841285D01*
X239243000Y-113780809D01*
X239363952Y-113720333D01*
X239666333Y-113720333D01*
X239787285Y-113780809D01*
X239847761Y-113841285D01*
X239908238Y-113962238D01*
X239908238Y-114264619D01*
X239847761Y-114385571D01*
X239787285Y-114446047D01*
X239666333Y-114506523D01*
X239363952Y-114506523D01*
X239243000Y-114446047D01*
X239182523Y-114385571D01*
X230002238Y-110172523D02*
X230002238Y-108902523D01*
X231332714Y-110051571D02*
X231272238Y-110112047D01*
X231090809Y-110172523D01*
X230969857Y-110172523D01*
X230788428Y-110112047D01*
X230667476Y-109991095D01*
X230607000Y-109870142D01*
X230546523Y-109628238D01*
X230546523Y-109446809D01*
X230607000Y-109204904D01*
X230667476Y-109083952D01*
X230788428Y-108963000D01*
X230969857Y-108902523D01*
X231090809Y-108902523D01*
X231272238Y-108963000D01*
X231332714Y-109023476D01*
X231756047Y-108902523D02*
X232602714Y-108902523D01*
X232058428Y-110172523D01*
D12*
X241013142Y-124290380D02*
X240679809Y-123814190D01*
X240441714Y-124290380D02*
X240441714Y-123290380D01*
X240822666Y-123290380D01*
X240917904Y-123338000D01*
X240965523Y-123385619D01*
X241013142Y-123480857D01*
X241013142Y-123623714D01*
X240965523Y-123718952D01*
X240917904Y-123766571D01*
X240822666Y-123814190D01*
X240441714Y-123814190D01*
X241965523Y-124290380D02*
X241394095Y-124290380D01*
X241679809Y-124290380D02*
X241679809Y-123290380D01*
X241584571Y-123433238D01*
X241489333Y-123528476D01*
X241394095Y-123576095D01*
X242584571Y-123290380D02*
X242679809Y-123290380D01*
X242775047Y-123338000D01*
X242822666Y-123385619D01*
X242870285Y-123480857D01*
X242917904Y-123671333D01*
X242917904Y-123909428D01*
X242870285Y-124099904D01*
X242822666Y-124195142D01*
X242775047Y-124242761D01*
X242679809Y-124290380D01*
X242584571Y-124290380D01*
X242489333Y-124242761D01*
X242441714Y-124195142D01*
X242394095Y-124099904D01*
X242346476Y-123909428D01*
X242346476Y-123671333D01*
X242394095Y-123480857D01*
X242441714Y-123385619D01*
X242489333Y-123338000D01*
X242584571Y-123290380D01*
X238727142Y-110733142D02*
X238679523Y-110780761D01*
X238536666Y-110828380D01*
X238441428Y-110828380D01*
X238298571Y-110780761D01*
X238203333Y-110685523D01*
X238155714Y-110590285D01*
X238108095Y-110399809D01*
X238108095Y-110256952D01*
X238155714Y-110066476D01*
X238203333Y-109971238D01*
X238298571Y-109876000D01*
X238441428Y-109828380D01*
X238536666Y-109828380D01*
X238679523Y-109876000D01*
X238727142Y-109923619D01*
X239679523Y-110828380D02*
X239108095Y-110828380D01*
X239393809Y-110828380D02*
X239393809Y-109828380D01*
X239298571Y-109971238D01*
X239203333Y-110066476D01*
X239108095Y-110114095D01*
X240012857Y-109828380D02*
X240631904Y-109828380D01*
X240298571Y-110209333D01*
X240441428Y-110209333D01*
X240536666Y-110256952D01*
X240584285Y-110304571D01*
X240631904Y-110399809D01*
X240631904Y-110637904D01*
X240584285Y-110733142D01*
X240536666Y-110780761D01*
X240441428Y-110828380D01*
X240155714Y-110828380D01*
X240060476Y-110780761D01*
X240012857Y-110733142D01*
X204642380Y-105684857D02*
X204166190Y-106018190D01*
X204642380Y-106256285D02*
X203642380Y-106256285D01*
X203642380Y-105875333D01*
X203690000Y-105780095D01*
X203737619Y-105732476D01*
X203832857Y-105684857D01*
X203975714Y-105684857D01*
X204070952Y-105732476D01*
X204118571Y-105780095D01*
X204166190Y-105875333D01*
X204166190Y-106256285D01*
X203737619Y-105303904D02*
X203690000Y-105256285D01*
X203642380Y-105161047D01*
X203642380Y-104922952D01*
X203690000Y-104827714D01*
X203737619Y-104780095D01*
X203832857Y-104732476D01*
X203928095Y-104732476D01*
X204070952Y-104780095D01*
X204642380Y-105351523D01*
X204642380Y-104732476D01*
X203642380Y-104399142D02*
X203642380Y-103732476D01*
X204642380Y-104161047D01*
X222995142Y-133560380D02*
X222661809Y-133084190D01*
X222423714Y-133560380D02*
X222423714Y-132560380D01*
X222804666Y-132560380D01*
X222899904Y-132608000D01*
X222947523Y-132655619D01*
X222995142Y-132750857D01*
X222995142Y-132893714D01*
X222947523Y-132988952D01*
X222899904Y-133036571D01*
X222804666Y-133084190D01*
X222423714Y-133084190D01*
X223376095Y-132655619D02*
X223423714Y-132608000D01*
X223518952Y-132560380D01*
X223757047Y-132560380D01*
X223852285Y-132608000D01*
X223899904Y-132655619D01*
X223947523Y-132750857D01*
X223947523Y-132846095D01*
X223899904Y-132988952D01*
X223328476Y-133560380D01*
X223947523Y-133560380D01*
X224328476Y-132655619D02*
X224376095Y-132608000D01*
X224471333Y-132560380D01*
X224709428Y-132560380D01*
X224804666Y-132608000D01*
X224852285Y-132655619D01*
X224899904Y-132750857D01*
X224899904Y-132846095D01*
X224852285Y-132988952D01*
X224280857Y-133560380D01*
X224899904Y-133560380D01*
D13*
X237469838Y-131956323D02*
X237469838Y-130686323D01*
X238800314Y-131835371D02*
X238739838Y-131895847D01*
X238558409Y-131956323D01*
X238437457Y-131956323D01*
X238256028Y-131895847D01*
X238135076Y-131774895D01*
X238074600Y-131653942D01*
X238014123Y-131412038D01*
X238014123Y-131230609D01*
X238074600Y-130988704D01*
X238135076Y-130867752D01*
X238256028Y-130746800D01*
X238437457Y-130686323D01*
X238558409Y-130686323D01*
X238739838Y-130746800D01*
X238800314Y-130807276D01*
X239888885Y-131109657D02*
X239888885Y-131956323D01*
X239586504Y-130625847D02*
X239284123Y-131532990D01*
X240070314Y-131532990D01*
D12*
X229297333Y-147817142D02*
X229249714Y-147864761D01*
X229106857Y-147912380D01*
X229011619Y-147912380D01*
X228868761Y-147864761D01*
X228773523Y-147769523D01*
X228725904Y-147674285D01*
X228678285Y-147483809D01*
X228678285Y-147340952D01*
X228725904Y-147150476D01*
X228773523Y-147055238D01*
X228868761Y-146960000D01*
X229011619Y-146912380D01*
X229106857Y-146912380D01*
X229249714Y-146960000D01*
X229297333Y-147007619D01*
X229773523Y-147912380D02*
X229964000Y-147912380D01*
X230059238Y-147864761D01*
X230106857Y-147817142D01*
X230202095Y-147674285D01*
X230249714Y-147483809D01*
X230249714Y-147102857D01*
X230202095Y-147007619D01*
X230154476Y-146960000D01*
X230059238Y-146912380D01*
X229868761Y-146912380D01*
X229773523Y-146960000D01*
X229725904Y-147007619D01*
X229678285Y-147102857D01*
X229678285Y-147340952D01*
X229725904Y-147436190D01*
X229773523Y-147483809D01*
X229868761Y-147531428D01*
X230059238Y-147531428D01*
X230154476Y-147483809D01*
X230202095Y-147436190D01*
X230249714Y-147340952D01*
X240997142Y-113114380D02*
X240663809Y-112638190D01*
X240425714Y-113114380D02*
X240425714Y-112114380D01*
X240806666Y-112114380D01*
X240901904Y-112162000D01*
X240949523Y-112209619D01*
X240997142Y-112304857D01*
X240997142Y-112447714D01*
X240949523Y-112542952D01*
X240901904Y-112590571D01*
X240806666Y-112638190D01*
X240425714Y-112638190D01*
X241949523Y-113114380D02*
X241378095Y-113114380D01*
X241663809Y-113114380D02*
X241663809Y-112114380D01*
X241568571Y-112257238D01*
X241473333Y-112352476D01*
X241378095Y-112400095D01*
X242282857Y-112114380D02*
X242901904Y-112114380D01*
X242568571Y-112495333D01*
X242711428Y-112495333D01*
X242806666Y-112542952D01*
X242854285Y-112590571D01*
X242901904Y-112685809D01*
X242901904Y-112923904D01*
X242854285Y-113019142D01*
X242806666Y-113066761D01*
X242711428Y-113114380D01*
X242425714Y-113114380D01*
X242330476Y-113066761D01*
X242282857Y-113019142D01*
X253768666Y-102667380D02*
X253768666Y-103381666D01*
X253721047Y-103524523D01*
X253625809Y-103619761D01*
X253482952Y-103667380D01*
X253387714Y-103667380D01*
X254768666Y-103667380D02*
X254197238Y-103667380D01*
X254482952Y-103667380D02*
X254482952Y-102667380D01*
X254387714Y-102810238D01*
X254292476Y-102905476D01*
X254197238Y-102953095D01*
X245712142Y-137472980D02*
X245378809Y-136996790D01*
X245140714Y-137472980D02*
X245140714Y-136472980D01*
X245521666Y-136472980D01*
X245616904Y-136520600D01*
X245664523Y-136568219D01*
X245712142Y-136663457D01*
X245712142Y-136806314D01*
X245664523Y-136901552D01*
X245616904Y-136949171D01*
X245521666Y-136996790D01*
X245140714Y-136996790D01*
X246664523Y-137472980D02*
X246093095Y-137472980D01*
X246378809Y-137472980D02*
X246378809Y-136472980D01*
X246283571Y-136615838D01*
X246188333Y-136711076D01*
X246093095Y-136758695D01*
X247521666Y-136806314D02*
X247521666Y-137472980D01*
X247283571Y-136425361D02*
X247045476Y-137139647D01*
X247664523Y-137139647D01*
D13*
X230002238Y-121110523D02*
X230002238Y-119840523D01*
X231332714Y-120989571D02*
X231272238Y-121050047D01*
X231090809Y-121110523D01*
X230969857Y-121110523D01*
X230788428Y-121050047D01*
X230667476Y-120929095D01*
X230607000Y-120808142D01*
X230546523Y-120566238D01*
X230546523Y-120384809D01*
X230607000Y-120142904D01*
X230667476Y-120021952D01*
X230788428Y-119901000D01*
X230969857Y-119840523D01*
X231090809Y-119840523D01*
X231272238Y-119901000D01*
X231332714Y-119961476D01*
X232058428Y-120384809D02*
X231937476Y-120324333D01*
X231877000Y-120263857D01*
X231816523Y-120142904D01*
X231816523Y-120082428D01*
X231877000Y-119961476D01*
X231937476Y-119901000D01*
X232058428Y-119840523D01*
X232300333Y-119840523D01*
X232421285Y-119901000D01*
X232481761Y-119961476D01*
X232542238Y-120082428D01*
X232542238Y-120142904D01*
X232481761Y-120263857D01*
X232421285Y-120324333D01*
X232300333Y-120384809D01*
X232058428Y-120384809D01*
X231937476Y-120445285D01*
X231877000Y-120505761D01*
X231816523Y-120626714D01*
X231816523Y-120868619D01*
X231877000Y-120989571D01*
X231937476Y-121050047D01*
X232058428Y-121110523D01*
X232300333Y-121110523D01*
X232421285Y-121050047D01*
X232481761Y-120989571D01*
X232542238Y-120868619D01*
X232542238Y-120626714D01*
X232481761Y-120505761D01*
X232421285Y-120445285D01*
X232300333Y-120384809D01*
X210214923Y-135744533D02*
X211122066Y-135744533D01*
X211303495Y-135805009D01*
X211424447Y-135925961D01*
X211484923Y-136107390D01*
X211484923Y-136228342D01*
X210214923Y-134535009D02*
X210214923Y-135139771D01*
X210819685Y-135200247D01*
X210759209Y-135139771D01*
X210698733Y-135018819D01*
X210698733Y-134716438D01*
X210759209Y-134595485D01*
X210819685Y-134535009D01*
X210940638Y-134474533D01*
X211243019Y-134474533D01*
X211363971Y-134535009D01*
X211424447Y-134595485D01*
X211484923Y-134716438D01*
X211484923Y-135018819D01*
X211424447Y-135139771D01*
X211363971Y-135200247D01*
D12*
X219756180Y-105805457D02*
X219279990Y-106138790D01*
X219756180Y-106376885D02*
X218756180Y-106376885D01*
X218756180Y-105995933D01*
X218803800Y-105900695D01*
X218851419Y-105853076D01*
X218946657Y-105805457D01*
X219089514Y-105805457D01*
X219184752Y-105853076D01*
X219232371Y-105900695D01*
X219279990Y-105995933D01*
X219279990Y-106376885D01*
X218851419Y-105424504D02*
X218803800Y-105376885D01*
X218756180Y-105281647D01*
X218756180Y-105043552D01*
X218803800Y-104948314D01*
X218851419Y-104900695D01*
X218946657Y-104853076D01*
X219041895Y-104853076D01*
X219184752Y-104900695D01*
X219756180Y-105472123D01*
X219756180Y-104853076D01*
X218756180Y-103948314D02*
X218756180Y-104424504D01*
X219232371Y-104472123D01*
X219184752Y-104424504D01*
X219137133Y-104329266D01*
X219137133Y-104091171D01*
X219184752Y-103995933D01*
X219232371Y-103948314D01*
X219327609Y-103900695D01*
X219565704Y-103900695D01*
X219660942Y-103948314D01*
X219708561Y-103995933D01*
X219756180Y-104091171D01*
X219756180Y-104329266D01*
X219708561Y-104424504D01*
X219660942Y-104472123D01*
X204770380Y-110098095D02*
X203770380Y-110098095D01*
X203770380Y-109860000D01*
X203818000Y-109717142D01*
X203913238Y-109621904D01*
X204008476Y-109574285D01*
X204198952Y-109526666D01*
X204341809Y-109526666D01*
X204532285Y-109574285D01*
X204627523Y-109621904D01*
X204722761Y-109717142D01*
X204770380Y-109860000D01*
X204770380Y-110098095D01*
X204103714Y-108669523D02*
X204770380Y-108669523D01*
X203722761Y-108907619D02*
X204437047Y-109145714D01*
X204437047Y-108526666D01*
X239997142Y-117845142D02*
X239949523Y-117892761D01*
X239806666Y-117940380D01*
X239711428Y-117940380D01*
X239568571Y-117892761D01*
X239473333Y-117797523D01*
X239425714Y-117702285D01*
X239378095Y-117511809D01*
X239378095Y-117368952D01*
X239425714Y-117178476D01*
X239473333Y-117083238D01*
X239568571Y-116988000D01*
X239711428Y-116940380D01*
X239806666Y-116940380D01*
X239949523Y-116988000D01*
X239997142Y-117035619D01*
X240949523Y-117940380D02*
X240378095Y-117940380D01*
X240663809Y-117940380D02*
X240663809Y-116940380D01*
X240568571Y-117083238D01*
X240473333Y-117178476D01*
X240378095Y-117226095D01*
X241520952Y-117368952D02*
X241425714Y-117321333D01*
X241378095Y-117273714D01*
X241330476Y-117178476D01*
X241330476Y-117130857D01*
X241378095Y-117035619D01*
X241425714Y-116988000D01*
X241520952Y-116940380D01*
X241711428Y-116940380D01*
X241806666Y-116988000D01*
X241854285Y-117035619D01*
X241901904Y-117130857D01*
X241901904Y-117178476D01*
X241854285Y-117273714D01*
X241806666Y-117321333D01*
X241711428Y-117368952D01*
X241520952Y-117368952D01*
X241425714Y-117416571D01*
X241378095Y-117464190D01*
X241330476Y-117559428D01*
X241330476Y-117749904D01*
X241378095Y-117845142D01*
X241425714Y-117892761D01*
X241520952Y-117940380D01*
X241711428Y-117940380D01*
X241806666Y-117892761D01*
X241854285Y-117845142D01*
X241901904Y-117749904D01*
X241901904Y-117559428D01*
X241854285Y-117464190D01*
X241806666Y-117416571D01*
X241711428Y-117368952D01*
X230091142Y-145880380D02*
X229757809Y-145404190D01*
X229519714Y-145880380D02*
X229519714Y-144880380D01*
X229900666Y-144880380D01*
X229995904Y-144928000D01*
X230043523Y-144975619D01*
X230091142Y-145070857D01*
X230091142Y-145213714D01*
X230043523Y-145308952D01*
X229995904Y-145356571D01*
X229900666Y-145404190D01*
X229519714Y-145404190D01*
X231043523Y-145880380D02*
X230472095Y-145880380D01*
X230757809Y-145880380D02*
X230757809Y-144880380D01*
X230662571Y-145023238D01*
X230567333Y-145118476D01*
X230472095Y-145166095D01*
X231900666Y-144880380D02*
X231710190Y-144880380D01*
X231614952Y-144928000D01*
X231567333Y-144975619D01*
X231472095Y-145118476D01*
X231424476Y-145308952D01*
X231424476Y-145689904D01*
X231472095Y-145785142D01*
X231519714Y-145832761D01*
X231614952Y-145880380D01*
X231805428Y-145880380D01*
X231900666Y-145832761D01*
X231948285Y-145785142D01*
X231995904Y-145689904D01*
X231995904Y-145451809D01*
X231948285Y-145356571D01*
X231900666Y-145308952D01*
X231805428Y-145261333D01*
X231614952Y-145261333D01*
X231519714Y-145308952D01*
X231472095Y-145356571D01*
X231424476Y-145451809D01*
X213073142Y-141517942D02*
X213025523Y-141565561D01*
X212882666Y-141613180D01*
X212787428Y-141613180D01*
X212644571Y-141565561D01*
X212549333Y-141470323D01*
X212501714Y-141375085D01*
X212454095Y-141184609D01*
X212454095Y-141041752D01*
X212501714Y-140851276D01*
X212549333Y-140756038D01*
X212644571Y-140660800D01*
X212787428Y-140613180D01*
X212882666Y-140613180D01*
X213025523Y-140660800D01*
X213073142Y-140708419D01*
X214025523Y-141613180D02*
X213454095Y-141613180D01*
X213739809Y-141613180D02*
X213739809Y-140613180D01*
X213644571Y-140756038D01*
X213549333Y-140851276D01*
X213454095Y-140898895D01*
X214644571Y-140613180D02*
X214739809Y-140613180D01*
X214835047Y-140660800D01*
X214882666Y-140708419D01*
X214930285Y-140803657D01*
X214977904Y-140994133D01*
X214977904Y-141232228D01*
X214930285Y-141422704D01*
X214882666Y-141517942D01*
X214835047Y-141565561D01*
X214739809Y-141613180D01*
X214644571Y-141613180D01*
X214549333Y-141565561D01*
X214501714Y-141517942D01*
X214454095Y-141422704D01*
X214406476Y-141232228D01*
X214406476Y-140994133D01*
X214454095Y-140803657D01*
X214501714Y-140708419D01*
X214549333Y-140660800D01*
X214644571Y-140613180D01*
X240908904Y-105114380D02*
X240908904Y-104114380D01*
X241147000Y-104114380D01*
X241289857Y-104162000D01*
X241385095Y-104257238D01*
X241432714Y-104352476D01*
X241480333Y-104542952D01*
X241480333Y-104685809D01*
X241432714Y-104876285D01*
X241385095Y-104971523D01*
X241289857Y-105066761D01*
X241147000Y-105114380D01*
X240908904Y-105114380D01*
X242432714Y-105114380D02*
X241861285Y-105114380D01*
X242147000Y-105114380D02*
X242147000Y-104114380D01*
X242051761Y-104257238D01*
X241956523Y-104352476D01*
X241861285Y-104400095D01*
X240149542Y-134812342D02*
X240101923Y-134859961D01*
X239959066Y-134907580D01*
X239863828Y-134907580D01*
X239720971Y-134859961D01*
X239625733Y-134764723D01*
X239578114Y-134669485D01*
X239530495Y-134479009D01*
X239530495Y-134336152D01*
X239578114Y-134145676D01*
X239625733Y-134050438D01*
X239720971Y-133955200D01*
X239863828Y-133907580D01*
X239959066Y-133907580D01*
X240101923Y-133955200D01*
X240149542Y-134002819D01*
X241101923Y-134907580D02*
X240530495Y-134907580D01*
X240816209Y-134907580D02*
X240816209Y-133907580D01*
X240720971Y-134050438D01*
X240625733Y-134145676D01*
X240530495Y-134193295D01*
X241959066Y-134240914D02*
X241959066Y-134907580D01*
X241720971Y-133859961D02*
X241482876Y-134574247D01*
X242101923Y-134574247D01*
X228821142Y-141467142D02*
X228773523Y-141514761D01*
X228630666Y-141562380D01*
X228535428Y-141562380D01*
X228392571Y-141514761D01*
X228297333Y-141419523D01*
X228249714Y-141324285D01*
X228202095Y-141133809D01*
X228202095Y-140990952D01*
X228249714Y-140800476D01*
X228297333Y-140705238D01*
X228392571Y-140610000D01*
X228535428Y-140562380D01*
X228630666Y-140562380D01*
X228773523Y-140610000D01*
X228821142Y-140657619D01*
X229773523Y-141562380D02*
X229202095Y-141562380D01*
X229487809Y-141562380D02*
X229487809Y-140562380D01*
X229392571Y-140705238D01*
X229297333Y-140800476D01*
X229202095Y-140848095D01*
X230154476Y-140657619D02*
X230202095Y-140610000D01*
X230297333Y-140562380D01*
X230535428Y-140562380D01*
X230630666Y-140610000D01*
X230678285Y-140657619D01*
X230725904Y-140752857D01*
X230725904Y-140848095D01*
X230678285Y-140990952D01*
X230106857Y-141562380D01*
X230725904Y-141562380D01*
X240251142Y-128767142D02*
X240203523Y-128814761D01*
X240060666Y-128862380D01*
X239965428Y-128862380D01*
X239822571Y-128814761D01*
X239727333Y-128719523D01*
X239679714Y-128624285D01*
X239632095Y-128433809D01*
X239632095Y-128290952D01*
X239679714Y-128100476D01*
X239727333Y-128005238D01*
X239822571Y-127910000D01*
X239965428Y-127862380D01*
X240060666Y-127862380D01*
X240203523Y-127910000D01*
X240251142Y-127957619D01*
X241203523Y-128862380D02*
X240632095Y-128862380D01*
X240917809Y-128862380D02*
X240917809Y-127862380D01*
X240822571Y-128005238D01*
X240727333Y-128100476D01*
X240632095Y-128148095D01*
X241536857Y-127862380D02*
X242203523Y-127862380D01*
X241774952Y-128862380D01*
X230599142Y-132824780D02*
X230265809Y-132348590D01*
X230027714Y-132824780D02*
X230027714Y-131824780D01*
X230408666Y-131824780D01*
X230503904Y-131872400D01*
X230551523Y-131920019D01*
X230599142Y-132015257D01*
X230599142Y-132158114D01*
X230551523Y-132253352D01*
X230503904Y-132300971D01*
X230408666Y-132348590D01*
X230027714Y-132348590D01*
X231551523Y-132824780D02*
X230980095Y-132824780D01*
X231265809Y-132824780D02*
X231265809Y-131824780D01*
X231170571Y-131967638D01*
X231075333Y-132062876D01*
X230980095Y-132110495D01*
X231884857Y-131824780D02*
X232551523Y-131824780D01*
X232122952Y-132824780D01*
X222979142Y-115780380D02*
X222645809Y-115304190D01*
X222407714Y-115780380D02*
X222407714Y-114780380D01*
X222788666Y-114780380D01*
X222883904Y-114828000D01*
X222931523Y-114875619D01*
X222979142Y-114970857D01*
X222979142Y-115113714D01*
X222931523Y-115208952D01*
X222883904Y-115256571D01*
X222788666Y-115304190D01*
X222407714Y-115304190D01*
X223360095Y-114875619D02*
X223407714Y-114828000D01*
X223502952Y-114780380D01*
X223741047Y-114780380D01*
X223836285Y-114828000D01*
X223883904Y-114875619D01*
X223931523Y-114970857D01*
X223931523Y-115066095D01*
X223883904Y-115208952D01*
X223312476Y-115780380D01*
X223931523Y-115780380D01*
X224264857Y-114780380D02*
X224883904Y-114780380D01*
X224550571Y-115161333D01*
X224693428Y-115161333D01*
X224788666Y-115208952D01*
X224836285Y-115256571D01*
X224883904Y-115351809D01*
X224883904Y-115589904D01*
X224836285Y-115685142D01*
X224788666Y-115732761D01*
X224693428Y-115780380D01*
X224407714Y-115780380D01*
X224312476Y-115732761D01*
X224264857Y-115685142D01*
X238473142Y-120229142D02*
X238425523Y-120276761D01*
X238282666Y-120324380D01*
X238187428Y-120324380D01*
X238044571Y-120276761D01*
X237949333Y-120181523D01*
X237901714Y-120086285D01*
X237854095Y-119895809D01*
X237854095Y-119752952D01*
X237901714Y-119562476D01*
X237949333Y-119467238D01*
X238044571Y-119372000D01*
X238187428Y-119324380D01*
X238282666Y-119324380D01*
X238425523Y-119372000D01*
X238473142Y-119419619D01*
X239425523Y-120324380D02*
X238854095Y-120324380D01*
X239139809Y-120324380D02*
X239139809Y-119324380D01*
X239044571Y-119467238D01*
X238949333Y-119562476D01*
X238854095Y-119610095D01*
X240377904Y-120324380D02*
X239806476Y-120324380D01*
X240092190Y-120324380D02*
X240092190Y-119324380D01*
X239996952Y-119467238D01*
X239901714Y-119562476D01*
X239806476Y-119610095D01*
D14*
X243153064Y-146163000D02*
X242698936Y-146163000D01*
X243153064Y-144693000D02*
X242698936Y-144693000D01*
X261241000Y-107100936D02*
X261241000Y-107555064D01*
X262711000Y-107100936D02*
X262711000Y-107555064D01*
X203529000Y-138035064D02*
X203529000Y-137580936D01*
X202059000Y-138035064D02*
X202059000Y-137580936D01*
X243153064Y-140041600D02*
X242698936Y-140041600D01*
X243153064Y-138571600D02*
X242698936Y-138571600D01*
D15*
X235352000Y-145862000D02*
X234752000Y-145862000D01*
X234752000Y-145862000D02*
X234752000Y-142962000D01*
X235352000Y-142962000D02*
X235352000Y-145862000D01*
X234752000Y-142962000D02*
X235352000Y-142962000D01*
X236902000Y-146012000D02*
X235702000Y-146012000D01*
D14*
X223357064Y-143423000D02*
X222902936Y-143423000D01*
X223357064Y-144893000D02*
X222902936Y-144893000D01*
X203754000Y-131630000D02*
X201834000Y-131630000D01*
X203754000Y-134490000D02*
X203754000Y-131630000D01*
X201834000Y-131630000D02*
X201834000Y-134490000D01*
X227712936Y-115683000D02*
X228167064Y-115683000D01*
X227712936Y-114213000D02*
X228167064Y-114213000D01*
X227678748Y-111927000D02*
X228201252Y-111927000D01*
X227678748Y-113397000D02*
X228201252Y-113397000D01*
X216373800Y-117082600D02*
X217703800Y-117082600D01*
X216373800Y-119682600D02*
X216373800Y-132442600D01*
X216373800Y-132442600D02*
X219033800Y-132442600D01*
X216373800Y-119682600D02*
X219033800Y-119682600D01*
X216373800Y-118412600D02*
X216373800Y-117082600D01*
X219033800Y-119682600D02*
X219033800Y-132442600D01*
X243661064Y-107863000D02*
X243206936Y-107863000D01*
X243661064Y-109333000D02*
X243206936Y-109333000D01*
X260425000Y-107116936D02*
X260425000Y-107571064D01*
X258955000Y-107116936D02*
X258955000Y-107571064D01*
D15*
X234752000Y-123404000D02*
X235352000Y-123404000D01*
X235352000Y-123404000D02*
X235352000Y-126304000D01*
X234752000Y-126304000D02*
X234752000Y-123404000D01*
X236902000Y-126454000D02*
X235702000Y-126454000D01*
X235352000Y-126304000D02*
X234752000Y-126304000D01*
D14*
X254383000Y-112379248D02*
X254383000Y-112901752D01*
X255853000Y-112379248D02*
X255853000Y-112901752D01*
X227170748Y-142407000D02*
X227693252Y-142407000D01*
X227170748Y-143877000D02*
X227693252Y-143877000D01*
X245201064Y-131177000D02*
X244746936Y-131177000D01*
X245201064Y-129707000D02*
X244746936Y-129707000D01*
X245169064Y-131993000D02*
X244714936Y-131993000D01*
X245169064Y-133463000D02*
X244714936Y-133463000D01*
X233005752Y-117715000D02*
X232483248Y-117715000D01*
X233005752Y-116245000D02*
X232483248Y-116245000D01*
X216268800Y-108823852D02*
X216268800Y-108301348D01*
X217738800Y-108823852D02*
X217738800Y-108301348D01*
D15*
X216972000Y-139446000D02*
X216972000Y-136546000D01*
X217572000Y-136546000D02*
X217572000Y-139446000D01*
X216972000Y-136546000D02*
X217572000Y-136546000D01*
X217572000Y-139446000D02*
X216972000Y-139446000D01*
X219122000Y-139496000D02*
X217922000Y-139496000D01*
D14*
X237330748Y-148195000D02*
X237853252Y-148195000D01*
X237330748Y-146725000D02*
X237853252Y-146725000D01*
X237170548Y-141794200D02*
X237693052Y-141794200D01*
X237170548Y-140324200D02*
X237693052Y-140324200D01*
D15*
X235444200Y-136561200D02*
X235444200Y-139461200D01*
X235444200Y-139461200D02*
X234844200Y-139461200D01*
X234844200Y-136561200D02*
X235444200Y-136561200D01*
X236994200Y-139611200D02*
X235794200Y-139611200D01*
X234844200Y-139461200D02*
X234844200Y-136561200D01*
D14*
X233027252Y-135241000D02*
X232504748Y-135241000D01*
X233027252Y-133771000D02*
X232504748Y-133771000D01*
X227093936Y-138343000D02*
X227548064Y-138343000D01*
X227093936Y-139813000D02*
X227548064Y-139813000D01*
X227141448Y-137527000D02*
X227663952Y-137527000D01*
X227141448Y-136057000D02*
X227663952Y-136057000D01*
X245185064Y-125389000D02*
X244730936Y-125389000D01*
X245185064Y-126859000D02*
X244730936Y-126859000D01*
X227678748Y-129453000D02*
X228201252Y-129453000D01*
X227678748Y-130923000D02*
X228201252Y-130923000D01*
X243153064Y-143877000D02*
X242698936Y-143877000D01*
X243153064Y-142407000D02*
X242698936Y-142407000D01*
X209648800Y-109892600D02*
X209648800Y-107232600D01*
X214788800Y-109892600D02*
X214788800Y-107232600D01*
X207048800Y-109892600D02*
X207048800Y-108562600D01*
X208378800Y-109892600D02*
X207048800Y-109892600D01*
X209648800Y-107232600D02*
X214788800Y-107232600D01*
X209648800Y-109892600D02*
X214788800Y-109892600D01*
X258139000Y-107100936D02*
X258139000Y-107555064D01*
X256669000Y-107100936D02*
X256669000Y-107555064D01*
D15*
X256986000Y-116040000D02*
X256986000Y-112840000D01*
X256986000Y-112840000D02*
X261886000Y-112840000D01*
X261886000Y-116040000D02*
X256986000Y-116040000D01*
X261886000Y-112840000D02*
X261886000Y-116040000D01*
X256831000Y-117915000D02*
X256831000Y-116390000D01*
D14*
X245169064Y-115683000D02*
X244714936Y-115683000D01*
X245169064Y-114213000D02*
X244714936Y-114213000D01*
X227712936Y-126605000D02*
X228167064Y-126605000D01*
X227712936Y-125135000D02*
X228167064Y-125135000D01*
X227678748Y-124319000D02*
X228201252Y-124319000D01*
X227678748Y-122849000D02*
X228201252Y-122849000D01*
X215343800Y-114032600D02*
X215343800Y-111092600D01*
X217143800Y-112562600D02*
X216123800Y-112562600D01*
X216123800Y-114032600D02*
X216123800Y-111092600D01*
X216123800Y-111092600D02*
X210683800Y-111092600D01*
X215223800Y-114032600D02*
X215223800Y-111092600D01*
X210683800Y-111092600D02*
X210683800Y-114032600D01*
X209663800Y-112562600D02*
X210683800Y-112562600D01*
X210683800Y-114032600D02*
X216123800Y-114032600D01*
X215103800Y-114032600D02*
X215103800Y-111092600D01*
X223341064Y-136793600D02*
X222886936Y-136793600D01*
X223341064Y-138263600D02*
X222886936Y-138263600D01*
X233027252Y-127167000D02*
X232504748Y-127167000D01*
X233027252Y-128637000D02*
X232504748Y-128637000D01*
X223849064Y-124119000D02*
X223394936Y-124119000D01*
X223849064Y-125589000D02*
X223394936Y-125589000D01*
D15*
X235352000Y-115382000D02*
X234752000Y-115382000D01*
X234752000Y-112482000D02*
X235352000Y-112482000D01*
X235352000Y-112482000D02*
X235352000Y-115382000D01*
X236902000Y-115532000D02*
X235702000Y-115532000D01*
X234752000Y-115382000D02*
X234752000Y-112482000D01*
X235352000Y-108148000D02*
X235352000Y-111048000D01*
X235352000Y-111048000D02*
X234752000Y-111048000D01*
X234752000Y-111048000D02*
X234752000Y-108148000D01*
X233202000Y-108098000D02*
X234402000Y-108098000D01*
X234752000Y-108148000D02*
X235352000Y-108148000D01*
D14*
X245185064Y-123103000D02*
X244730936Y-123103000D01*
X245185064Y-124573000D02*
X244730936Y-124573000D01*
X239108748Y-109317000D02*
X239631252Y-109317000D01*
X239108748Y-107847000D02*
X239631252Y-107847000D01*
X201805000Y-104814936D02*
X201805000Y-105269064D01*
X203275000Y-104814936D02*
X203275000Y-105269064D01*
X223865064Y-132193000D02*
X223410936Y-132193000D01*
X223865064Y-130723000D02*
X223410936Y-130723000D01*
D15*
X236902000Y-133058000D02*
X235702000Y-133058000D01*
X235352000Y-130008000D02*
X235352000Y-132908000D01*
X234752000Y-132908000D02*
X234752000Y-130008000D01*
X234752000Y-130008000D02*
X235352000Y-130008000D01*
X235352000Y-132908000D02*
X234752000Y-132908000D01*
D14*
X232773252Y-146725000D02*
X232250748Y-146725000D01*
X232773252Y-148195000D02*
X232250748Y-148195000D01*
X245185064Y-111927000D02*
X244730936Y-111927000D01*
X245185064Y-113397000D02*
X244730936Y-113397000D01*
X252772000Y-104215000D02*
X254102000Y-104215000D01*
X252772000Y-109415000D02*
X255432000Y-109415000D01*
X252772000Y-106815000D02*
X252772000Y-109415000D01*
X252772000Y-105545000D02*
X252772000Y-104215000D01*
X252772000Y-106815000D02*
X255432000Y-106815000D01*
X255432000Y-106815000D02*
X255432000Y-109415000D01*
X243178464Y-136260200D02*
X242724336Y-136260200D01*
X243178464Y-137730200D02*
X242724336Y-137730200D01*
D15*
X236248000Y-120836000D02*
X233348000Y-120836000D01*
X236298000Y-118686000D02*
X236298000Y-119886000D01*
X233348000Y-120836000D02*
X233348000Y-120236000D01*
X236248000Y-120236000D02*
X236248000Y-120836000D01*
X233348000Y-120236000D02*
X236248000Y-120236000D01*
X207653800Y-118262600D02*
X207653800Y-116937600D01*
X207653800Y-133587600D02*
X207653800Y-132262600D01*
X213953800Y-118262600D02*
X213953800Y-116937600D01*
X213953800Y-116937600D02*
X207653800Y-116937600D01*
X213953800Y-133587600D02*
X207653800Y-133587600D01*
X213953800Y-133587600D02*
X213953800Y-132262600D01*
D14*
X218568800Y-108789664D02*
X218568800Y-108335536D01*
X220038800Y-108789664D02*
X220038800Y-108335536D01*
X203500000Y-111220000D02*
X203500000Y-108360000D01*
X201580000Y-111220000D02*
X203500000Y-111220000D01*
X201580000Y-108360000D02*
X201580000Y-111220000D01*
X237076748Y-117715000D02*
X237599252Y-117715000D01*
X237076748Y-116245000D02*
X237599252Y-116245000D01*
X227204936Y-144693000D02*
X227659064Y-144693000D01*
X227204936Y-146163000D02*
X227659064Y-146163000D01*
X216756748Y-140375000D02*
X217279252Y-140375000D01*
X216756748Y-141845000D02*
X217279252Y-141845000D01*
X242647000Y-105352000D02*
X239787000Y-105352000D01*
X239787000Y-105352000D02*
X239787000Y-107272000D01*
X239787000Y-107272000D02*
X242647000Y-107272000D01*
X237076748Y-135241000D02*
X237599252Y-135241000D01*
X237076748Y-133771000D02*
X237599252Y-133771000D01*
X233103452Y-140324200D02*
X232580948Y-140324200D01*
X233103452Y-141794200D02*
X232580948Y-141794200D01*
X237330748Y-127167000D02*
X237853252Y-127167000D01*
X237330748Y-128637000D02*
X237853252Y-128637000D01*
X227728936Y-131739000D02*
X228183064Y-131739000D01*
X227728936Y-133209000D02*
X228183064Y-133209000D01*
X223849064Y-112943000D02*
X223394936Y-112943000D01*
X223849064Y-114413000D02*
X223394936Y-114413000D01*
X238854748Y-120817000D02*
X239377252Y-120817000D01*
X238854748Y-122287000D02*
X239377252Y-122287000D01*
M02*
