G04 #@! TF.GenerationSoftware,KiCad,Pcbnew,(6.0.1)*
G04 #@! TF.CreationDate,2022-02-21T00:55:15+09:00*
G04 #@! TF.ProjectId,KiCAD_jtag,4b694341-445f-46a7-9461-672e6b696361,rev?*
G04 #@! TF.SameCoordinates,Original*
G04 #@! TF.FileFunction,Copper,L2,Inr*
G04 #@! TF.FilePolarity,Positive*
%FSLAX46Y46*%
G04 Gerber Fmt 4.6, Leading zero omitted, Abs format (unit mm)*
G04 Created by KiCad (PCBNEW (6.0.1)) date 2022-02-21 00:55:15*
%MOMM*%
%LPD*%
G01*
G04 APERTURE LIST*
G04 #@! TA.AperFunction,ComponentPad*
%ADD10R,1.700000X1.700000*%
G04 #@! TD*
G04 #@! TA.AperFunction,ComponentPad*
%ADD11O,1.700000X1.700000*%
G04 #@! TD*
G04 #@! TA.AperFunction,ComponentPad*
%ADD12R,2.200000X2.200000*%
G04 #@! TD*
G04 #@! TA.AperFunction,ComponentPad*
%ADD13O,2.200000X2.200000*%
G04 #@! TD*
G04 #@! TA.AperFunction,ViaPad*
%ADD14C,0.889000*%
G04 #@! TD*
G04 #@! TA.AperFunction,Conductor*
%ADD15C,0.406400*%
G04 #@! TD*
G04 APERTURE END LIST*
D10*
X217703800Y-118412600D03*
D11*
X217703800Y-120952600D03*
X217703800Y-123492600D03*
X217703800Y-126032600D03*
X217703800Y-128572600D03*
X217703800Y-131112600D03*
D10*
X208378800Y-108562600D03*
D11*
X210918800Y-108562600D03*
X213458800Y-108562600D03*
D12*
X218483800Y-112562600D03*
D13*
X208323800Y-112562600D03*
D10*
X254102000Y-105545000D03*
D11*
X254102000Y-108085000D03*
D10*
X208370000Y-98770000D03*
D11*
X208370000Y-96230000D03*
X210910000Y-98770000D03*
X210910000Y-96230000D03*
X213450000Y-98770000D03*
X213450000Y-96230000D03*
X215990000Y-98770000D03*
X215990000Y-96230000D03*
X218530000Y-98770000D03*
X218530000Y-96230000D03*
X221070000Y-98770000D03*
X221070000Y-96230000D03*
X223610000Y-98770000D03*
X223610000Y-96230000D03*
X226150000Y-98770000D03*
X226150000Y-96230000D03*
X228690000Y-98770000D03*
X228690000Y-96230000D03*
X231230000Y-98770000D03*
X231230000Y-96230000D03*
X233770000Y-98770000D03*
X233770000Y-96230000D03*
X236310000Y-98770000D03*
X236310000Y-96230000D03*
X238850000Y-98770000D03*
X238850000Y-96230000D03*
X241390000Y-98770000D03*
X241390000Y-96230000D03*
X243930000Y-98770000D03*
X243930000Y-96230000D03*
X246470000Y-98770000D03*
X246470000Y-96230000D03*
X249010000Y-98770000D03*
X249010000Y-96230000D03*
X251550000Y-98770000D03*
X251550000Y-96230000D03*
X254090000Y-98770000D03*
X254090000Y-96230000D03*
X256630000Y-98770000D03*
X256630000Y-96230000D03*
D14*
X237084000Y-142380000D03*
X237084000Y-135776000D03*
X245466000Y-142888000D03*
X247498000Y-112408000D03*
X247498000Y-123584000D03*
X247498000Y-129934000D03*
X238100000Y-107328000D03*
X253340000Y-111900000D03*
X202794000Y-140602000D03*
X237084000Y-148730000D03*
X245466000Y-136538000D03*
X237338000Y-129172000D03*
X236830000Y-118250000D03*
X260706000Y-103772000D03*
X202540000Y-102248000D03*
X229718000Y-143142000D03*
X230226000Y-130188000D03*
X205842000Y-128156000D03*
X262484000Y-118758000D03*
X239878000Y-127902000D03*
X239624000Y-116726000D03*
X218034000Y-136030000D03*
X232512000Y-119520000D03*
X205842000Y-126124000D03*
X240386000Y-120028000D03*
X229718000Y-136792000D03*
X240132000Y-104788000D03*
X229210000Y-111392000D03*
X205842000Y-124092000D03*
X256388000Y-118758000D03*
X230480000Y-123584000D03*
X237846000Y-138062000D03*
X232340000Y-110548000D03*
X253340000Y-113424000D03*
X205842000Y-122314000D03*
X204318000Y-131712000D03*
X233802000Y-107602000D03*
X239827000Y-141059000D03*
X240386000Y-147460000D03*
X237846000Y-125108000D03*
X230480000Y-127902000D03*
X230226000Y-116726000D03*
X230226000Y-134506000D03*
X202794000Y-112154000D03*
X218056000Y-142612000D03*
X237846000Y-131712000D03*
X229972000Y-147460000D03*
X237846000Y-144666000D03*
X230277000Y-141059000D03*
X240640000Y-109868000D03*
X218034000Y-105296000D03*
X237846000Y-114186000D03*
X239624000Y-134506000D03*
X259690000Y-102502000D03*
X258928000Y-101486000D03*
X231750000Y-125870000D03*
X250800000Y-125870000D03*
X232004000Y-145174000D03*
X219812000Y-102248000D03*
X213716000Y-139586000D03*
X231496000Y-132474000D03*
X231242000Y-139078000D03*
X243942000Y-116980000D03*
X243942000Y-118250000D03*
X241656000Y-102756000D03*
X245974000Y-127648000D03*
X245974000Y-116472000D03*
X241656000Y-101486000D03*
X232258000Y-121552000D03*
X229006800Y-103518000D03*
X243942000Y-146952000D03*
X250800000Y-146952000D03*
X228702000Y-127140000D03*
X228448000Y-133998000D03*
X232766000Y-148730000D03*
X227940000Y-146952000D03*
X238354000Y-120028000D03*
X215980000Y-142612000D03*
X233020000Y-142380000D03*
X227940000Y-140602000D03*
X232766000Y-118250000D03*
X233020000Y-129172000D03*
X233020000Y-135776000D03*
X228702000Y-116218000D03*
D15*
X210096000Y-100026000D02*
X227434000Y-100026000D01*
X248260000Y-107328000D02*
X248768000Y-107836000D01*
X208378800Y-108562600D02*
X208379000Y-108562800D01*
X248768000Y-111646000D02*
X248514000Y-111900000D01*
X248514000Y-111900000D02*
X248006000Y-111900000D01*
X236322000Y-141618000D02*
X236322000Y-136538000D01*
X210668000Y-113932000D02*
X210668000Y-110884000D01*
X237084000Y-148730000D02*
X244450000Y-148730000D01*
X236322000Y-135014000D02*
X236322000Y-130188000D01*
X209626000Y-100026000D02*
X210096000Y-100026000D01*
X241148000Y-118250000D02*
X241910000Y-119012000D01*
X253340000Y-111900000D02*
X248514000Y-111900000D01*
X238100000Y-101232000D02*
X238100000Y-107328000D01*
X245466000Y-142888000D02*
X245466000Y-136538000D01*
X236830000Y-118250000D02*
X241148000Y-118250000D01*
X253340000Y-111900000D02*
X260198000Y-111900000D01*
X202794000Y-140602000D02*
X204318000Y-140602000D01*
X230390000Y-100470000D02*
X237338000Y-100470000D01*
X241910000Y-119012000D02*
X241910000Y-127902000D01*
X236068000Y-143396000D02*
X237084000Y-142380000D01*
X210668000Y-110884000D02*
X208379000Y-108595000D01*
X208379000Y-108595000D02*
X208379000Y-108563000D01*
X210160000Y-106781000D02*
X210160000Y-100090000D01*
X247498000Y-112408000D02*
X247498000Y-123584000D01*
X210160000Y-100090000D02*
X210096000Y-100026000D01*
X248006000Y-111900000D02*
X247498000Y-112408000D01*
X245466000Y-136538000D02*
X247498000Y-134506000D01*
X247498000Y-129934000D02*
X247498000Y-123584000D01*
X260706000Y-111392000D02*
X260706000Y-103772000D01*
X238100000Y-107328000D02*
X248260000Y-107328000D01*
X236322000Y-130188000D02*
X237338000Y-129172000D01*
X205080000Y-133744000D02*
X207620000Y-131204000D01*
X228690000Y-98770000D02*
X230390000Y-100470000D01*
X205080000Y-139840000D02*
X205080000Y-133744000D01*
X237084000Y-135776000D02*
X236322000Y-135014000D01*
X260198000Y-111900000D02*
X260706000Y-111392000D01*
X237084000Y-148730000D02*
X236068000Y-147714000D01*
X245466000Y-147714000D02*
X245466000Y-142888000D01*
X244450000Y-148730000D02*
X245466000Y-147714000D01*
X207620000Y-116980000D02*
X210668000Y-113932000D01*
X248768000Y-107836000D02*
X248768000Y-111646000D01*
X237338000Y-100470000D02*
X238100000Y-101232000D01*
X208370000Y-98770000D02*
X209626000Y-100026000D01*
X207620000Y-131204000D02*
X207620000Y-116980000D01*
X204318000Y-140602000D02*
X205080000Y-139840000D01*
X247498000Y-134506000D02*
X247498000Y-129934000D01*
X237084000Y-142380000D02*
X236322000Y-141618000D01*
X236322000Y-136538000D02*
X237084000Y-135776000D01*
X227434000Y-100026000D02*
X228690000Y-98770000D01*
X236068000Y-147714000D02*
X236068000Y-143396000D01*
X208379000Y-108562800D02*
X208379000Y-108563000D01*
X240640000Y-129172000D02*
X237338000Y-129172000D01*
X208379000Y-108563000D02*
X210160000Y-106781000D01*
X241910000Y-127902000D02*
X240640000Y-129172000D01*
X206682000Y-96230000D02*
X205588000Y-95136000D01*
X210910000Y-96230000D02*
X208370000Y-96230000D01*
X201016000Y-98692000D02*
X202540000Y-100216000D01*
X202286000Y-95136000D02*
X201016000Y-96406000D01*
X205588000Y-95136000D02*
X202286000Y-95136000D01*
X201016000Y-96406000D02*
X201016000Y-98692000D01*
X202540000Y-100216000D02*
X202540000Y-102248000D01*
X208370000Y-96230000D02*
X206682000Y-96230000D01*
X217526000Y-148730000D02*
X228448000Y-148730000D01*
X215980000Y-142612000D02*
X216002000Y-142634000D01*
X227940000Y-134506000D02*
X228448000Y-133998000D01*
X233020000Y-142380000D02*
X233020000Y-148476000D01*
X228702000Y-116218000D02*
X228702000Y-118250000D01*
X228448000Y-127394000D02*
X228702000Y-127140000D01*
X228702000Y-118250000D02*
X228702000Y-127140000D01*
X228539000Y-118413000D02*
X228702000Y-118250000D01*
X217704000Y-118412800D02*
X217704000Y-118413000D01*
X216002000Y-142634000D02*
X216002000Y-147206000D01*
X228448000Y-133998000D02*
X228448000Y-127394000D01*
X227940000Y-146952000D02*
X227940000Y-140602000D01*
X216002000Y-147206000D02*
X217526000Y-148730000D01*
X232766000Y-118250000D02*
X234036000Y-118250000D01*
X227940000Y-148222000D02*
X227940000Y-146952000D01*
X235814000Y-120028000D02*
X238354000Y-120028000D01*
X228448000Y-148730000D02*
X227940000Y-148222000D01*
X233020000Y-129172000D02*
X233020000Y-135776000D01*
X217703800Y-118412600D02*
X217704000Y-118412800D01*
X233020000Y-135776000D02*
X233020000Y-142380000D01*
X227940000Y-140602000D02*
X227940000Y-134506000D01*
X233020000Y-148476000D02*
X232766000Y-148730000D01*
X232766000Y-148730000D02*
X228448000Y-148730000D01*
X234036000Y-118250000D02*
X235814000Y-120028000D01*
X217704000Y-118413000D02*
X228539000Y-118413000D01*
G04 #@! TA.AperFunction,Conductor*
G36*
X217227757Y-105824002D02*
G01*
X217258381Y-105851735D01*
X217320414Y-105930000D01*
X217345152Y-105961212D01*
X217349846Y-105965207D01*
X217382819Y-105993269D01*
X217487478Y-106082342D01*
X217650621Y-106173519D01*
X217828367Y-106231272D01*
X218013945Y-106253401D01*
X218020080Y-106252929D01*
X218020082Y-106252929D01*
X218076119Y-106248617D01*
X218200287Y-106239063D01*
X218380296Y-106188804D01*
X218385785Y-106186031D01*
X218385791Y-106186029D01*
X218463159Y-106146947D01*
X218547114Y-106104538D01*
X218575524Y-106082342D01*
X218599486Y-106063621D01*
X218694387Y-105989475D01*
X218698413Y-105984811D01*
X218698416Y-105984808D01*
X218816507Y-105847998D01*
X218818647Y-105849845D01*
X218864751Y-105813243D01*
X218912120Y-105804000D01*
X235434000Y-105804000D01*
X235502121Y-105824002D01*
X235548614Y-105877658D01*
X235560000Y-105930000D01*
X235560000Y-119266000D01*
X239244000Y-119266000D01*
X239312121Y-119286002D01*
X239358614Y-119339658D01*
X239370000Y-119392000D01*
X239370000Y-122442000D01*
X239349998Y-122510121D01*
X239296342Y-122556614D01*
X239244000Y-122568000D01*
X234544000Y-122568000D01*
X234544000Y-149366000D01*
X234523998Y-149434121D01*
X234470342Y-149480614D01*
X234418000Y-149492000D01*
X212318000Y-149492000D01*
X212249879Y-149471998D01*
X212203386Y-149418342D01*
X212192000Y-149366000D01*
X212192000Y-147446630D01*
X229014482Y-147446630D01*
X229030121Y-147632867D01*
X229081636Y-147812520D01*
X229167064Y-147978746D01*
X229170887Y-147983570D01*
X229170890Y-147983574D01*
X229220487Y-148046149D01*
X229283152Y-148125212D01*
X229287846Y-148129207D01*
X229357059Y-148188112D01*
X229425478Y-148246342D01*
X229588621Y-148337519D01*
X229766367Y-148395272D01*
X229951945Y-148417401D01*
X229958080Y-148416929D01*
X229958082Y-148416929D01*
X230014119Y-148412617D01*
X230138287Y-148403063D01*
X230318296Y-148352804D01*
X230323785Y-148350031D01*
X230323791Y-148350029D01*
X230401159Y-148310947D01*
X230485114Y-148268538D01*
X230513524Y-148246342D01*
X230537486Y-148227621D01*
X230632387Y-148153475D01*
X230636413Y-148148811D01*
X230636416Y-148148808D01*
X230712669Y-148060468D01*
X230754507Y-148011998D01*
X230846821Y-147849495D01*
X230857293Y-147818017D01*
X230879413Y-147751521D01*
X230905814Y-147672157D01*
X230911553Y-147626727D01*
X230928796Y-147490241D01*
X230928797Y-147490232D01*
X230929238Y-147486738D01*
X230929611Y-147460000D01*
X230911373Y-147273999D01*
X230907419Y-147260901D01*
X230859136Y-147100983D01*
X230857355Y-147095083D01*
X230769615Y-146930066D01*
X230756727Y-146914264D01*
X230655388Y-146790010D01*
X230655385Y-146790007D01*
X230651493Y-146785235D01*
X230646744Y-146781306D01*
X230512239Y-146670034D01*
X230512236Y-146670032D01*
X230507489Y-146666105D01*
X230343089Y-146577214D01*
X230253822Y-146549581D01*
X230170441Y-146523770D01*
X230170438Y-146523769D01*
X230164554Y-146521948D01*
X230158429Y-146521304D01*
X230158428Y-146521304D01*
X229984813Y-146503056D01*
X229984812Y-146503056D01*
X229978685Y-146502412D01*
X229860087Y-146513206D01*
X229798703Y-146518792D01*
X229798702Y-146518792D01*
X229792562Y-146519351D01*
X229786648Y-146521092D01*
X229786646Y-146521092D01*
X229664466Y-146557052D01*
X229613273Y-146572119D01*
X229447647Y-146658705D01*
X229301995Y-146775813D01*
X229181862Y-146918981D01*
X229178899Y-146924370D01*
X229178896Y-146924375D01*
X229105509Y-147057868D01*
X229091826Y-147082757D01*
X229035315Y-147260901D01*
X229014482Y-147446630D01*
X212192000Y-147446630D01*
X212192000Y-145160630D01*
X231046482Y-145160630D01*
X231062121Y-145346867D01*
X231113636Y-145526520D01*
X231199064Y-145692746D01*
X231202887Y-145697570D01*
X231202890Y-145697574D01*
X231308170Y-145830402D01*
X231315152Y-145839212D01*
X231319846Y-145843207D01*
X231352819Y-145871269D01*
X231457478Y-145960342D01*
X231620621Y-146051519D01*
X231798367Y-146109272D01*
X231983945Y-146131401D01*
X231990080Y-146130929D01*
X231990082Y-146130929D01*
X232046119Y-146126617D01*
X232170287Y-146117063D01*
X232350296Y-146066804D01*
X232355785Y-146064031D01*
X232355791Y-146064029D01*
X232433159Y-146024947D01*
X232517114Y-145982538D01*
X232545524Y-145960342D01*
X232569486Y-145941621D01*
X232664387Y-145867475D01*
X232668413Y-145862811D01*
X232668416Y-145862808D01*
X232782480Y-145730663D01*
X232786507Y-145725998D01*
X232878821Y-145563495D01*
X232893091Y-145520600D01*
X232935867Y-145392009D01*
X232937814Y-145386157D01*
X232959058Y-145217998D01*
X232960796Y-145204241D01*
X232960797Y-145204232D01*
X232961238Y-145200738D01*
X232961611Y-145174000D01*
X232943373Y-144987999D01*
X232939419Y-144974901D01*
X232891136Y-144814983D01*
X232889355Y-144809083D01*
X232801615Y-144644066D01*
X232788727Y-144628264D01*
X232687388Y-144504010D01*
X232687385Y-144504007D01*
X232683493Y-144499235D01*
X232678744Y-144495306D01*
X232544239Y-144384034D01*
X232544236Y-144384032D01*
X232539489Y-144380105D01*
X232375089Y-144291214D01*
X232285822Y-144263581D01*
X232202441Y-144237770D01*
X232202438Y-144237769D01*
X232196554Y-144235948D01*
X232190429Y-144235304D01*
X232190428Y-144235304D01*
X232016813Y-144217056D01*
X232016812Y-144217056D01*
X232010685Y-144216412D01*
X231892087Y-144227206D01*
X231830703Y-144232792D01*
X231830702Y-144232792D01*
X231824562Y-144233351D01*
X231818648Y-144235092D01*
X231818646Y-144235092D01*
X231696466Y-144271052D01*
X231645273Y-144286119D01*
X231479647Y-144372705D01*
X231333995Y-144489813D01*
X231213862Y-144632981D01*
X231210899Y-144638370D01*
X231210896Y-144638375D01*
X231137509Y-144771868D01*
X231123826Y-144796757D01*
X231067315Y-144974901D01*
X231046482Y-145160630D01*
X212192000Y-145160630D01*
X212192000Y-142598630D01*
X217098482Y-142598630D01*
X217098998Y-142604774D01*
X217113011Y-142771644D01*
X217114121Y-142784867D01*
X217165636Y-142964520D01*
X217251064Y-143130746D01*
X217254887Y-143135570D01*
X217254890Y-143135574D01*
X217360170Y-143268402D01*
X217367152Y-143277212D01*
X217371846Y-143281207D01*
X217431101Y-143331637D01*
X217509478Y-143398342D01*
X217672621Y-143489519D01*
X217850367Y-143547272D01*
X218035945Y-143569401D01*
X218042080Y-143568929D01*
X218042082Y-143568929D01*
X218098119Y-143564617D01*
X218222287Y-143555063D01*
X218402296Y-143504804D01*
X218407785Y-143502031D01*
X218407791Y-143502029D01*
X218485159Y-143462947D01*
X218569114Y-143420538D01*
X218597524Y-143398342D01*
X218654077Y-143354157D01*
X218716387Y-143305475D01*
X218720413Y-143300811D01*
X218720416Y-143300808D01*
X218807306Y-143200145D01*
X218838507Y-143163998D01*
X218858599Y-143128630D01*
X228760482Y-143128630D01*
X228776121Y-143314867D01*
X228827636Y-143494520D01*
X228913064Y-143660746D01*
X228916887Y-143665570D01*
X228916890Y-143665574D01*
X228966328Y-143727948D01*
X229029152Y-143807212D01*
X229033846Y-143811207D01*
X229066819Y-143839269D01*
X229171478Y-143928342D01*
X229334621Y-144019519D01*
X229512367Y-144077272D01*
X229697945Y-144099401D01*
X229704080Y-144098929D01*
X229704082Y-144098929D01*
X229760119Y-144094617D01*
X229884287Y-144085063D01*
X230064296Y-144034804D01*
X230069785Y-144032031D01*
X230069791Y-144032029D01*
X230169200Y-143981813D01*
X230231114Y-143950538D01*
X230259524Y-143928342D01*
X230331503Y-143872105D01*
X230378387Y-143835475D01*
X230382413Y-143830811D01*
X230382416Y-143830808D01*
X230496480Y-143698663D01*
X230500507Y-143693998D01*
X230571702Y-143568672D01*
X230589778Y-143536852D01*
X230589779Y-143536851D01*
X230592821Y-143531495D01*
X230601150Y-143506459D01*
X230630993Y-143416746D01*
X230651814Y-143354157D01*
X230661030Y-143281207D01*
X230674796Y-143172241D01*
X230674797Y-143172232D01*
X230675238Y-143168738D01*
X230675611Y-143142000D01*
X230657373Y-142955999D01*
X230653419Y-142942901D01*
X230605136Y-142782983D01*
X230603355Y-142777083D01*
X230515615Y-142612066D01*
X230502727Y-142596264D01*
X230401388Y-142472010D01*
X230401385Y-142472007D01*
X230397493Y-142467235D01*
X230392744Y-142463306D01*
X230258239Y-142352034D01*
X230258236Y-142352032D01*
X230253489Y-142348105D01*
X230089089Y-142259214D01*
X230030617Y-142241114D01*
X229971457Y-142201863D01*
X229967121Y-142191989D01*
X229919461Y-142204517D01*
X229909888Y-142203878D01*
X229730813Y-142185056D01*
X229730812Y-142185056D01*
X229724685Y-142184412D01*
X229619345Y-142193999D01*
X229544703Y-142200792D01*
X229544702Y-142200792D01*
X229538562Y-142201351D01*
X229532648Y-142203092D01*
X229532646Y-142203092D01*
X229443389Y-142229362D01*
X229359273Y-142254119D01*
X229193647Y-142340705D01*
X229047995Y-142457813D01*
X228927862Y-142600981D01*
X228924899Y-142606370D01*
X228924896Y-142606375D01*
X228909042Y-142635214D01*
X228837826Y-142764757D01*
X228835965Y-142770624D01*
X228835964Y-142770626D01*
X228829568Y-142790789D01*
X228781315Y-142942901D01*
X228760482Y-143128630D01*
X218858599Y-143128630D01*
X218930821Y-143001495D01*
X218945091Y-142958600D01*
X218987867Y-142830009D01*
X218989814Y-142824157D01*
X218996577Y-142770626D01*
X219012796Y-142642241D01*
X219012797Y-142642232D01*
X219013238Y-142638738D01*
X219013611Y-142612000D01*
X218995373Y-142425999D01*
X218991419Y-142412901D01*
X218969621Y-142340705D01*
X218941355Y-142247083D01*
X218853615Y-142082066D01*
X218788366Y-142002063D01*
X218739388Y-141942010D01*
X218739385Y-141942007D01*
X218735493Y-141937235D01*
X218730744Y-141933306D01*
X218596239Y-141822034D01*
X218596236Y-141822032D01*
X218591489Y-141818105D01*
X218427089Y-141729214D01*
X218337822Y-141701581D01*
X218254441Y-141675770D01*
X218254438Y-141675769D01*
X218248554Y-141673948D01*
X218242429Y-141673304D01*
X218242428Y-141673304D01*
X218068813Y-141655056D01*
X218068812Y-141655056D01*
X218062685Y-141654412D01*
X217944087Y-141665206D01*
X217882703Y-141670792D01*
X217882702Y-141670792D01*
X217876562Y-141671351D01*
X217870648Y-141673092D01*
X217870646Y-141673092D01*
X217761435Y-141705235D01*
X217697273Y-141724119D01*
X217691808Y-141726976D01*
X217651960Y-141747808D01*
X217531647Y-141810705D01*
X217385995Y-141927813D01*
X217265862Y-142070981D01*
X217262899Y-142076370D01*
X217262896Y-142076375D01*
X217193234Y-142203092D01*
X217175826Y-142234757D01*
X217173965Y-142240624D01*
X217173964Y-142240626D01*
X217168646Y-142257391D01*
X217119315Y-142412901D01*
X217098482Y-142598630D01*
X212192000Y-142598630D01*
X212192000Y-141045630D01*
X229319482Y-141045630D01*
X229335121Y-141231867D01*
X229386636Y-141411520D01*
X229472064Y-141577746D01*
X229475887Y-141582570D01*
X229475890Y-141582574D01*
X229548313Y-141673948D01*
X229588152Y-141724212D01*
X229592846Y-141728207D01*
X229686427Y-141807851D01*
X229730478Y-141845342D01*
X229893621Y-141936519D01*
X229899481Y-141938423D01*
X229961995Y-141958735D01*
X230020601Y-141998808D01*
X230024232Y-142007399D01*
X230069713Y-141994762D01*
X230082794Y-141995635D01*
X230198379Y-142009417D01*
X230256945Y-142016401D01*
X230263080Y-142015929D01*
X230263082Y-142015929D01*
X230319119Y-142011617D01*
X230443287Y-142002063D01*
X230623296Y-141951804D01*
X230628785Y-141949031D01*
X230628791Y-141949029D01*
X230706159Y-141909947D01*
X230790114Y-141867538D01*
X230818524Y-141845342D01*
X230866509Y-141807851D01*
X230937387Y-141752475D01*
X230941413Y-141747811D01*
X230941416Y-141747808D01*
X231055480Y-141615663D01*
X231059507Y-141610998D01*
X231151821Y-141448495D01*
X231166091Y-141405600D01*
X231208867Y-141277009D01*
X231210814Y-141271157D01*
X231216553Y-141225727D01*
X231233796Y-141089241D01*
X231233797Y-141089232D01*
X231234238Y-141085738D01*
X231234611Y-141059000D01*
X231216373Y-140872999D01*
X231212419Y-140859901D01*
X231164136Y-140699983D01*
X231162355Y-140694083D01*
X231074615Y-140529066D01*
X231068853Y-140522001D01*
X230960388Y-140389010D01*
X230960385Y-140389007D01*
X230956493Y-140384235D01*
X230951744Y-140380306D01*
X230817239Y-140269034D01*
X230817236Y-140269032D01*
X230812489Y-140265105D01*
X230648089Y-140176214D01*
X230539704Y-140142663D01*
X230475441Y-140122770D01*
X230475438Y-140122769D01*
X230469554Y-140120948D01*
X230463429Y-140120304D01*
X230463428Y-140120304D01*
X230289813Y-140102056D01*
X230289812Y-140102056D01*
X230283685Y-140101412D01*
X230165087Y-140112206D01*
X230103703Y-140117792D01*
X230103702Y-140117792D01*
X230097562Y-140118351D01*
X230091648Y-140120092D01*
X230091646Y-140120092D01*
X229969466Y-140156052D01*
X229918273Y-140171119D01*
X229752647Y-140257705D01*
X229606995Y-140374813D01*
X229486862Y-140517981D01*
X229483899Y-140523370D01*
X229483896Y-140523375D01*
X229472887Y-140543401D01*
X229396826Y-140681757D01*
X229340315Y-140859901D01*
X229319482Y-141045630D01*
X212192000Y-141045630D01*
X212192000Y-139572630D01*
X212758482Y-139572630D01*
X212758998Y-139578774D01*
X212773142Y-139747207D01*
X212774121Y-139758867D01*
X212825636Y-139938520D01*
X212911064Y-140104746D01*
X212914887Y-140109570D01*
X212914890Y-140109574D01*
X212965935Y-140173976D01*
X213027152Y-140251212D01*
X213031846Y-140255207D01*
X213064819Y-140283269D01*
X213169478Y-140372342D01*
X213332621Y-140463519D01*
X213510367Y-140521272D01*
X213695945Y-140543401D01*
X213702080Y-140542929D01*
X213702082Y-140542929D01*
X213758119Y-140538617D01*
X213882287Y-140529063D01*
X214062296Y-140478804D01*
X214067785Y-140476031D01*
X214067791Y-140476029D01*
X214145159Y-140436947D01*
X214229114Y-140394538D01*
X214236190Y-140389010D01*
X214281486Y-140353621D01*
X214376387Y-140279475D01*
X214380413Y-140274811D01*
X214380416Y-140274808D01*
X214467092Y-140174392D01*
X214498507Y-140137998D01*
X214569361Y-140013272D01*
X214587778Y-139980852D01*
X214587779Y-139980851D01*
X214590821Y-139975495D01*
X214598467Y-139952512D01*
X214647867Y-139804009D01*
X214649814Y-139798157D01*
X214657366Y-139738381D01*
X214672796Y-139616241D01*
X214672797Y-139616232D01*
X214673238Y-139612738D01*
X214673611Y-139586000D01*
X214655373Y-139399999D01*
X214651419Y-139386901D01*
X214632760Y-139325103D01*
X214601355Y-139221083D01*
X214518169Y-139064630D01*
X230284482Y-139064630D01*
X230284998Y-139070774D01*
X230297078Y-139214626D01*
X230300121Y-139250867D01*
X230351636Y-139430520D01*
X230373392Y-139472852D01*
X230433343Y-139589505D01*
X230437064Y-139596746D01*
X230440887Y-139601570D01*
X230440890Y-139601574D01*
X230546170Y-139734402D01*
X230553152Y-139743212D01*
X230557846Y-139747207D01*
X230624588Y-139804009D01*
X230695478Y-139864342D01*
X230858621Y-139955519D01*
X231036367Y-140013272D01*
X231221945Y-140035401D01*
X231228080Y-140034929D01*
X231228082Y-140034929D01*
X231284119Y-140030617D01*
X231408287Y-140021063D01*
X231588296Y-139970804D01*
X231593785Y-139968031D01*
X231593791Y-139968029D01*
X231671159Y-139928947D01*
X231755114Y-139886538D01*
X231783524Y-139864342D01*
X231807486Y-139845621D01*
X231902387Y-139771475D01*
X231906413Y-139766811D01*
X231906416Y-139766808D01*
X232020480Y-139634663D01*
X232024507Y-139629998D01*
X232116821Y-139467495D01*
X232131091Y-139424600D01*
X232173867Y-139296009D01*
X232175814Y-139290157D01*
X232186779Y-139203362D01*
X232198796Y-139108241D01*
X232198797Y-139108232D01*
X232199238Y-139104738D01*
X232199611Y-139078000D01*
X232181373Y-138891999D01*
X232177419Y-138878901D01*
X232129136Y-138718983D01*
X232127355Y-138713083D01*
X232039615Y-138548066D01*
X232026727Y-138532264D01*
X231925388Y-138408010D01*
X231925385Y-138408007D01*
X231921493Y-138403235D01*
X231916744Y-138399306D01*
X231782239Y-138288034D01*
X231782236Y-138288032D01*
X231777489Y-138284105D01*
X231613089Y-138195214D01*
X231523822Y-138167581D01*
X231440441Y-138141770D01*
X231440438Y-138141769D01*
X231434554Y-138139948D01*
X231428429Y-138139304D01*
X231428428Y-138139304D01*
X231254813Y-138121056D01*
X231254812Y-138121056D01*
X231248685Y-138120412D01*
X231130087Y-138131206D01*
X231068703Y-138136792D01*
X231068702Y-138136792D01*
X231062562Y-138137351D01*
X231056648Y-138139092D01*
X231056646Y-138139092D01*
X230934466Y-138175052D01*
X230883273Y-138190119D01*
X230717647Y-138276705D01*
X230571995Y-138393813D01*
X230451862Y-138536981D01*
X230448899Y-138542370D01*
X230448896Y-138542375D01*
X230392593Y-138644792D01*
X230361826Y-138700757D01*
X230305315Y-138878901D01*
X230284482Y-139064630D01*
X214518169Y-139064630D01*
X214513615Y-139056066D01*
X214472018Y-139005063D01*
X214399388Y-138916010D01*
X214399385Y-138916007D01*
X214395493Y-138911235D01*
X214390744Y-138907306D01*
X214256239Y-138796034D01*
X214256236Y-138796032D01*
X214251489Y-138792105D01*
X214087089Y-138703214D01*
X213997821Y-138675581D01*
X213914441Y-138649770D01*
X213914438Y-138649769D01*
X213908554Y-138647948D01*
X213902429Y-138647304D01*
X213902428Y-138647304D01*
X213728813Y-138629056D01*
X213728812Y-138629056D01*
X213722685Y-138628412D01*
X213604087Y-138639206D01*
X213542703Y-138644792D01*
X213542702Y-138644792D01*
X213536562Y-138645351D01*
X213530648Y-138647092D01*
X213530646Y-138647092D01*
X213408466Y-138683052D01*
X213357273Y-138698119D01*
X213351808Y-138700976D01*
X213247560Y-138755475D01*
X213191647Y-138784705D01*
X213045995Y-138901813D01*
X212925862Y-139044981D01*
X212922899Y-139050370D01*
X212922896Y-139050375D01*
X212849509Y-139183868D01*
X212835826Y-139208757D01*
X212833965Y-139214624D01*
X212833964Y-139214626D01*
X212822468Y-139250867D01*
X212779315Y-139386901D01*
X212758482Y-139572630D01*
X212192000Y-139572630D01*
X212192000Y-136016630D01*
X217076482Y-136016630D01*
X217076998Y-136022774D01*
X217089077Y-136166613D01*
X217092121Y-136202867D01*
X217143636Y-136382520D01*
X217163220Y-136420626D01*
X217188325Y-136469475D01*
X217229064Y-136548746D01*
X217232887Y-136553570D01*
X217232890Y-136553574D01*
X217274442Y-136605999D01*
X217345152Y-136695212D01*
X217349846Y-136699207D01*
X217458877Y-136792000D01*
X217487478Y-136816342D01*
X217650621Y-136907519D01*
X217828367Y-136965272D01*
X218013945Y-136987401D01*
X218020080Y-136986929D01*
X218020082Y-136986929D01*
X218076119Y-136982617D01*
X218200287Y-136973063D01*
X218380296Y-136922804D01*
X218385785Y-136920031D01*
X218385791Y-136920029D01*
X218463159Y-136880947D01*
X218547114Y-136838538D01*
X218575524Y-136816342D01*
X218602193Y-136795505D01*
X218623792Y-136778630D01*
X228760482Y-136778630D01*
X228760998Y-136784774D01*
X228772728Y-136924459D01*
X228776121Y-136964867D01*
X228777819Y-136970788D01*
X228777819Y-136970789D01*
X228782447Y-136986929D01*
X228827636Y-137144520D01*
X228849392Y-137186852D01*
X228887347Y-137260705D01*
X228913064Y-137310746D01*
X228916887Y-137315570D01*
X228916890Y-137315574D01*
X229022170Y-137448402D01*
X229029152Y-137457212D01*
X229033846Y-137461207D01*
X229104080Y-137520981D01*
X229171478Y-137578342D01*
X229334621Y-137669519D01*
X229512367Y-137727272D01*
X229697945Y-137749401D01*
X229704080Y-137748929D01*
X229704082Y-137748929D01*
X229760119Y-137744617D01*
X229884287Y-137735063D01*
X230064296Y-137684804D01*
X230069785Y-137682031D01*
X230069791Y-137682029D01*
X230147159Y-137642947D01*
X230231114Y-137600538D01*
X230259524Y-137578342D01*
X230283486Y-137559621D01*
X230378387Y-137485475D01*
X230382413Y-137480811D01*
X230382416Y-137480808D01*
X230496480Y-137348663D01*
X230500507Y-137343998D01*
X230592821Y-137181495D01*
X230607091Y-137138600D01*
X230649867Y-137010009D01*
X230651814Y-137004157D01*
X230673216Y-136834746D01*
X230674796Y-136822241D01*
X230674797Y-136822232D01*
X230675238Y-136818738D01*
X230675611Y-136792000D01*
X230657373Y-136605999D01*
X230653419Y-136592901D01*
X230605136Y-136432983D01*
X230603355Y-136427083D01*
X230515615Y-136262066D01*
X230506574Y-136250981D01*
X230401388Y-136122010D01*
X230401385Y-136122007D01*
X230397493Y-136117235D01*
X230392744Y-136113306D01*
X230258239Y-136002034D01*
X230258236Y-136002032D01*
X230253489Y-135998105D01*
X230089089Y-135909214D01*
X229999822Y-135881581D01*
X229916441Y-135855770D01*
X229916438Y-135855769D01*
X229910554Y-135853948D01*
X229904429Y-135853304D01*
X229904428Y-135853304D01*
X229730813Y-135835056D01*
X229730812Y-135835056D01*
X229724685Y-135834412D01*
X229619345Y-135843999D01*
X229544703Y-135850792D01*
X229544702Y-135850792D01*
X229538562Y-135851351D01*
X229532648Y-135853092D01*
X229532646Y-135853092D01*
X229410466Y-135889052D01*
X229359273Y-135904119D01*
X229193647Y-135990705D01*
X229047995Y-136107813D01*
X228927862Y-136250981D01*
X228924899Y-136256370D01*
X228924896Y-136256375D01*
X228868089Y-136359708D01*
X228837826Y-136414757D01*
X228835965Y-136420624D01*
X228835964Y-136420626D01*
X228834061Y-136426625D01*
X228781315Y-136592901D01*
X228760482Y-136778630D01*
X218623792Y-136778630D01*
X218694387Y-136723475D01*
X218698413Y-136718811D01*
X218698416Y-136718808D01*
X218807096Y-136592901D01*
X218816507Y-136581998D01*
X218901159Y-136432983D01*
X218905778Y-136424852D01*
X218905779Y-136424851D01*
X218908821Y-136419495D01*
X218923091Y-136376600D01*
X218963084Y-136256375D01*
X218967814Y-136242157D01*
X218975187Y-136183791D01*
X218990796Y-136060241D01*
X218990797Y-136060232D01*
X218991238Y-136056738D01*
X218991611Y-136030000D01*
X218973373Y-135843999D01*
X218969419Y-135830901D01*
X218921136Y-135670983D01*
X218919355Y-135665083D01*
X218831615Y-135500066D01*
X218822574Y-135488981D01*
X218717388Y-135360010D01*
X218717385Y-135360007D01*
X218713493Y-135355235D01*
X218708744Y-135351306D01*
X218574239Y-135240034D01*
X218574236Y-135240032D01*
X218569489Y-135236105D01*
X218405089Y-135147214D01*
X218310769Y-135118017D01*
X218232441Y-135093770D01*
X218232438Y-135093769D01*
X218226554Y-135091948D01*
X218220429Y-135091304D01*
X218220428Y-135091304D01*
X218046813Y-135073056D01*
X218046812Y-135073056D01*
X218040685Y-135072412D01*
X217922087Y-135083206D01*
X217860703Y-135088792D01*
X217860702Y-135088792D01*
X217854562Y-135089351D01*
X217848648Y-135091092D01*
X217848646Y-135091092D01*
X217757164Y-135118017D01*
X217675273Y-135142119D01*
X217669808Y-135144976D01*
X217559500Y-135202643D01*
X217509647Y-135228705D01*
X217363995Y-135345813D01*
X217243862Y-135488981D01*
X217240899Y-135494370D01*
X217240896Y-135494375D01*
X217220117Y-135532173D01*
X217153826Y-135652757D01*
X217097315Y-135830901D01*
X217076482Y-136016630D01*
X212192000Y-136016630D01*
X212192000Y-134492630D01*
X229268482Y-134492630D01*
X229284121Y-134678867D01*
X229335636Y-134858520D01*
X229421064Y-135024746D01*
X229424887Y-135029570D01*
X229424890Y-135029574D01*
X229516687Y-135145392D01*
X229537152Y-135171212D01*
X229541846Y-135175207D01*
X229574819Y-135203269D01*
X229679478Y-135292342D01*
X229842621Y-135383519D01*
X230020367Y-135441272D01*
X230205945Y-135463401D01*
X230212080Y-135462929D01*
X230212082Y-135462929D01*
X230268119Y-135458617D01*
X230392287Y-135449063D01*
X230572296Y-135398804D01*
X230577785Y-135396031D01*
X230577791Y-135396029D01*
X230677200Y-135345813D01*
X230739114Y-135314538D01*
X230767524Y-135292342D01*
X230791486Y-135273621D01*
X230886387Y-135199475D01*
X230890413Y-135194811D01*
X230890416Y-135194808D01*
X230995509Y-135073056D01*
X231008507Y-135057998D01*
X231100821Y-134895495D01*
X231115091Y-134852600D01*
X231157867Y-134724009D01*
X231159814Y-134718157D01*
X231165553Y-134672727D01*
X231182796Y-134536241D01*
X231182797Y-134536232D01*
X231183238Y-134532738D01*
X231183611Y-134506000D01*
X231165373Y-134319999D01*
X231161419Y-134306901D01*
X231113136Y-134146983D01*
X231111355Y-134141083D01*
X231023615Y-133976066D01*
X231010727Y-133960264D01*
X230909388Y-133836010D01*
X230909385Y-133836007D01*
X230905493Y-133831235D01*
X230900744Y-133827306D01*
X230766239Y-133716034D01*
X230766236Y-133716032D01*
X230761489Y-133712105D01*
X230597089Y-133623214D01*
X230507822Y-133595581D01*
X230424441Y-133569770D01*
X230424438Y-133569769D01*
X230418554Y-133567948D01*
X230412429Y-133567304D01*
X230412428Y-133567304D01*
X230238813Y-133549056D01*
X230238812Y-133549056D01*
X230232685Y-133548412D01*
X230114087Y-133559206D01*
X230052703Y-133564792D01*
X230052702Y-133564792D01*
X230046562Y-133565351D01*
X230040648Y-133567092D01*
X230040646Y-133567092D01*
X229918466Y-133603052D01*
X229867273Y-133618119D01*
X229701647Y-133704705D01*
X229555995Y-133821813D01*
X229435862Y-133964981D01*
X229432899Y-133970370D01*
X229432896Y-133970375D01*
X229359509Y-134103868D01*
X229345826Y-134128757D01*
X229289315Y-134306901D01*
X229268482Y-134492630D01*
X212192000Y-134492630D01*
X212192000Y-131079295D01*
X216341051Y-131079295D01*
X216341348Y-131084448D01*
X216341348Y-131084451D01*
X216347002Y-131182508D01*
X216353910Y-131302315D01*
X216355047Y-131307361D01*
X216355048Y-131307367D01*
X216363999Y-131347083D01*
X216403022Y-131520239D01*
X216487066Y-131727216D01*
X216603787Y-131917688D01*
X216750050Y-132086538D01*
X216921926Y-132229232D01*
X217114800Y-132341938D01*
X217323492Y-132421630D01*
X217328560Y-132422661D01*
X217328563Y-132422662D01*
X217435817Y-132444483D01*
X217542397Y-132466167D01*
X217547572Y-132466357D01*
X217547574Y-132466357D01*
X217760473Y-132474164D01*
X217760477Y-132474164D01*
X217765637Y-132474353D01*
X217770757Y-132473697D01*
X217770759Y-132473697D01*
X217872762Y-132460630D01*
X230538482Y-132460630D01*
X230554121Y-132646867D01*
X230605636Y-132826520D01*
X230691064Y-132992746D01*
X230694887Y-132997570D01*
X230694890Y-132997574D01*
X230800170Y-133130402D01*
X230807152Y-133139212D01*
X230811846Y-133143207D01*
X230844819Y-133171269D01*
X230949478Y-133260342D01*
X231112621Y-133351519D01*
X231290367Y-133409272D01*
X231475945Y-133431401D01*
X231482080Y-133430929D01*
X231482082Y-133430929D01*
X231538119Y-133426617D01*
X231662287Y-133417063D01*
X231842296Y-133366804D01*
X231847785Y-133364031D01*
X231847791Y-133364029D01*
X231925159Y-133324947D01*
X232009114Y-133282538D01*
X232037524Y-133260342D01*
X232061486Y-133241621D01*
X232156387Y-133167475D01*
X232160413Y-133162811D01*
X232160416Y-133162808D01*
X232274480Y-133030663D01*
X232278507Y-133025998D01*
X232370821Y-132863495D01*
X232385091Y-132820600D01*
X232427867Y-132692009D01*
X232429814Y-132686157D01*
X232450737Y-132520538D01*
X232452796Y-132504241D01*
X232452797Y-132504232D01*
X232453238Y-132500738D01*
X232453611Y-132474000D01*
X232435373Y-132287999D01*
X232433107Y-132280492D01*
X232394848Y-132153773D01*
X232381355Y-132109083D01*
X232293615Y-131944066D01*
X232275284Y-131921590D01*
X232179388Y-131804010D01*
X232179385Y-131804007D01*
X232175493Y-131799235D01*
X232170744Y-131795306D01*
X232036239Y-131684034D01*
X232036236Y-131684032D01*
X232031489Y-131680105D01*
X231867089Y-131591214D01*
X231777821Y-131563581D01*
X231694441Y-131537770D01*
X231694438Y-131537769D01*
X231688554Y-131535948D01*
X231682429Y-131535304D01*
X231682428Y-131535304D01*
X231508813Y-131517056D01*
X231508812Y-131517056D01*
X231502685Y-131516412D01*
X231408047Y-131525025D01*
X231322703Y-131532792D01*
X231322702Y-131532792D01*
X231316562Y-131533351D01*
X231310648Y-131535092D01*
X231310646Y-131535092D01*
X231188466Y-131571052D01*
X231137273Y-131586119D01*
X230971647Y-131672705D01*
X230825995Y-131789813D01*
X230705862Y-131932981D01*
X230702899Y-131938370D01*
X230702896Y-131938375D01*
X230629509Y-132071868D01*
X230615826Y-132096757D01*
X230559315Y-132274901D01*
X230538482Y-132460630D01*
X217872762Y-132460630D01*
X217982088Y-132446625D01*
X217982089Y-132446625D01*
X217987216Y-132445968D01*
X217992166Y-132444483D01*
X218196229Y-132383261D01*
X218196234Y-132383259D01*
X218201184Y-132381774D01*
X218401794Y-132283496D01*
X218583660Y-132153773D01*
X218628507Y-132109083D01*
X218738235Y-131999737D01*
X218741896Y-131996089D01*
X218783368Y-131938375D01*
X218869235Y-131818877D01*
X218872253Y-131814677D01*
X218884542Y-131789813D01*
X218968936Y-131619053D01*
X218968937Y-131619051D01*
X218971230Y-131614411D01*
X219036170Y-131400669D01*
X219065329Y-131179190D01*
X219066166Y-131144929D01*
X219066874Y-131115965D01*
X219066874Y-131115961D01*
X219066956Y-131112600D01*
X219048652Y-130889961D01*
X218994231Y-130673302D01*
X218905154Y-130468440D01*
X218783814Y-130280877D01*
X218687137Y-130174630D01*
X229268482Y-130174630D01*
X229284121Y-130360867D01*
X229335636Y-130540520D01*
X229421064Y-130706746D01*
X229424887Y-130711570D01*
X229424890Y-130711574D01*
X229474328Y-130773948D01*
X229537152Y-130853212D01*
X229541846Y-130857207D01*
X229580332Y-130889961D01*
X229679478Y-130974342D01*
X229842621Y-131065519D01*
X230020367Y-131123272D01*
X230205945Y-131145401D01*
X230212080Y-131144929D01*
X230212082Y-131144929D01*
X230268119Y-131140617D01*
X230392287Y-131131063D01*
X230572296Y-131080804D01*
X230577785Y-131078031D01*
X230577791Y-131078029D01*
X230677200Y-131027813D01*
X230739114Y-130996538D01*
X230767524Y-130974342D01*
X230839503Y-130918105D01*
X230886387Y-130881475D01*
X230890413Y-130876811D01*
X230890416Y-130876808D01*
X231004480Y-130744663D01*
X231008507Y-130739998D01*
X231100821Y-130577495D01*
X231115091Y-130534600D01*
X231138545Y-130464092D01*
X231159814Y-130400157D01*
X231165553Y-130354727D01*
X231182796Y-130218241D01*
X231182797Y-130218232D01*
X231183238Y-130214738D01*
X231183611Y-130188000D01*
X231165373Y-130001999D01*
X231161419Y-129988901D01*
X231121280Y-129855957D01*
X231111355Y-129823083D01*
X231023615Y-129658066D01*
X231010727Y-129642264D01*
X230909388Y-129518010D01*
X230909385Y-129518007D01*
X230905493Y-129513235D01*
X230900744Y-129509306D01*
X230766239Y-129398034D01*
X230766236Y-129398032D01*
X230761489Y-129394105D01*
X230597089Y-129305214D01*
X230483454Y-129270038D01*
X230424441Y-129251770D01*
X230424438Y-129251769D01*
X230418554Y-129249948D01*
X230412429Y-129249304D01*
X230412428Y-129249304D01*
X230238813Y-129231056D01*
X230238812Y-129231056D01*
X230232685Y-129230412D01*
X230114087Y-129241206D01*
X230052703Y-129246792D01*
X230052702Y-129246792D01*
X230046562Y-129247351D01*
X230040648Y-129249092D01*
X230040646Y-129249092D01*
X229918466Y-129285052D01*
X229867273Y-129300119D01*
X229701647Y-129386705D01*
X229555995Y-129503813D01*
X229435862Y-129646981D01*
X229432899Y-129652370D01*
X229432896Y-129652375D01*
X229401341Y-129709775D01*
X229345826Y-129810757D01*
X229343965Y-129816624D01*
X229343964Y-129816626D01*
X229327594Y-129868232D01*
X229289315Y-129988901D01*
X229268482Y-130174630D01*
X218687137Y-130174630D01*
X218633470Y-130115651D01*
X218629419Y-130112452D01*
X218629415Y-130112448D01*
X218462214Y-129980400D01*
X218462210Y-129980398D01*
X218458159Y-129977198D01*
X218416853Y-129954396D01*
X218366884Y-129903964D01*
X218352112Y-129834521D01*
X218377228Y-129768116D01*
X218404580Y-129741509D01*
X218451162Y-129708282D01*
X218583660Y-129613773D01*
X218741896Y-129456089D01*
X218801394Y-129373289D01*
X218869235Y-129278877D01*
X218872253Y-129274677D01*
X218883575Y-129251770D01*
X218968936Y-129079053D01*
X218968937Y-129079051D01*
X218971230Y-129074411D01*
X219036170Y-128860669D01*
X219065329Y-128639190D01*
X219065530Y-128630981D01*
X219066874Y-128575965D01*
X219066874Y-128575961D01*
X219066956Y-128572600D01*
X219048652Y-128349961D01*
X218994231Y-128133302D01*
X218905154Y-127928440D01*
X218879400Y-127888630D01*
X229522482Y-127888630D01*
X229538121Y-128074867D01*
X229539819Y-128080788D01*
X229539819Y-128080789D01*
X229547632Y-128108037D01*
X229589636Y-128254520D01*
X229611392Y-128296852D01*
X229649347Y-128370705D01*
X229675064Y-128420746D01*
X229678887Y-128425570D01*
X229678890Y-128425574D01*
X229728221Y-128487813D01*
X229791152Y-128567212D01*
X229795846Y-128571207D01*
X229866080Y-128630981D01*
X229933478Y-128688342D01*
X230096621Y-128779519D01*
X230274367Y-128837272D01*
X230459945Y-128859401D01*
X230466080Y-128858929D01*
X230466082Y-128858929D01*
X230522119Y-128854617D01*
X230646287Y-128845063D01*
X230826296Y-128794804D01*
X230831785Y-128792031D01*
X230831791Y-128792029D01*
X230909159Y-128752947D01*
X230993114Y-128710538D01*
X231021524Y-128688342D01*
X231080188Y-128642508D01*
X231140387Y-128595475D01*
X231144413Y-128590811D01*
X231144416Y-128590808D01*
X231258480Y-128458663D01*
X231262507Y-128453998D01*
X231324459Y-128344942D01*
X231351778Y-128296852D01*
X231351779Y-128296851D01*
X231354821Y-128291495D01*
X231369091Y-128248600D01*
X231407445Y-128133302D01*
X231413814Y-128114157D01*
X231436676Y-127933190D01*
X231436796Y-127932241D01*
X231436797Y-127932232D01*
X231437238Y-127928738D01*
X231437611Y-127902000D01*
X231419373Y-127715999D01*
X231415419Y-127702901D01*
X231371360Y-127556973D01*
X231365355Y-127537083D01*
X231277615Y-127372066D01*
X231242685Y-127329238D01*
X231163388Y-127232010D01*
X231163385Y-127232007D01*
X231159493Y-127227235D01*
X231154744Y-127223306D01*
X231020239Y-127112034D01*
X231020236Y-127112032D01*
X231015489Y-127108105D01*
X230851089Y-127019214D01*
X230761821Y-126991581D01*
X230678441Y-126965770D01*
X230678438Y-126965769D01*
X230672554Y-126963948D01*
X230666429Y-126963304D01*
X230666428Y-126963304D01*
X230492813Y-126945056D01*
X230492812Y-126945056D01*
X230486685Y-126944412D01*
X230368087Y-126955206D01*
X230306703Y-126960792D01*
X230306702Y-126960792D01*
X230300562Y-126961351D01*
X230294648Y-126963092D01*
X230294646Y-126963092D01*
X230172466Y-126999052D01*
X230121273Y-127014119D01*
X229955647Y-127100705D01*
X229809995Y-127217813D01*
X229689862Y-127360981D01*
X229686899Y-127366370D01*
X229686896Y-127366375D01*
X229646201Y-127440400D01*
X229599826Y-127524757D01*
X229543315Y-127702901D01*
X229522482Y-127888630D01*
X218879400Y-127888630D01*
X218783814Y-127740877D01*
X218633470Y-127575651D01*
X218629419Y-127572452D01*
X218629415Y-127572448D01*
X218462214Y-127440400D01*
X218462210Y-127440398D01*
X218458159Y-127437198D01*
X218416853Y-127414396D01*
X218366884Y-127363964D01*
X218352112Y-127294521D01*
X218377228Y-127228116D01*
X218404580Y-127201509D01*
X218448403Y-127170250D01*
X218583660Y-127073773D01*
X218741896Y-126916089D01*
X218801394Y-126833289D01*
X218869235Y-126738877D01*
X218872253Y-126734677D01*
X218898627Y-126681314D01*
X218968936Y-126539053D01*
X218968937Y-126539051D01*
X218971230Y-126534411D01*
X219036170Y-126320669D01*
X219065329Y-126099190D01*
X219066505Y-126051063D01*
X219066874Y-126035965D01*
X219066874Y-126035961D01*
X219066956Y-126032600D01*
X219052489Y-125856630D01*
X230792482Y-125856630D01*
X230792998Y-125862774D01*
X230807259Y-126032600D01*
X230808121Y-126042867D01*
X230859636Y-126222520D01*
X230945064Y-126388746D01*
X230948887Y-126393570D01*
X230948890Y-126393574D01*
X230981880Y-126435196D01*
X231061152Y-126535212D01*
X231065846Y-126539207D01*
X231197930Y-126651620D01*
X231203478Y-126656342D01*
X231366621Y-126747519D01*
X231544367Y-126805272D01*
X231729945Y-126827401D01*
X231736080Y-126826929D01*
X231736082Y-126826929D01*
X231792119Y-126822617D01*
X231916287Y-126813063D01*
X232096296Y-126762804D01*
X232101785Y-126760031D01*
X232101791Y-126760029D01*
X232179159Y-126720947D01*
X232263114Y-126678538D01*
X232291524Y-126656342D01*
X232315486Y-126637621D01*
X232410387Y-126563475D01*
X232414413Y-126558811D01*
X232414416Y-126558808D01*
X232490669Y-126470468D01*
X232532507Y-126421998D01*
X232624821Y-126259495D01*
X232638909Y-126217147D01*
X232681867Y-126088009D01*
X232683814Y-126082157D01*
X232694282Y-125999295D01*
X232706796Y-125900241D01*
X232706797Y-125900232D01*
X232707238Y-125896738D01*
X232707611Y-125870000D01*
X232689373Y-125683999D01*
X232685419Y-125670901D01*
X232654018Y-125566897D01*
X232635355Y-125505083D01*
X232547615Y-125340066D01*
X232531378Y-125320157D01*
X232433388Y-125200010D01*
X232433385Y-125200007D01*
X232429493Y-125195235D01*
X232424744Y-125191306D01*
X232290239Y-125080034D01*
X232290236Y-125080032D01*
X232285489Y-125076105D01*
X232121089Y-124987214D01*
X232031821Y-124959581D01*
X231948441Y-124933770D01*
X231948438Y-124933769D01*
X231942554Y-124931948D01*
X231936429Y-124931304D01*
X231936428Y-124931304D01*
X231762813Y-124913056D01*
X231762812Y-124913056D01*
X231756685Y-124912412D01*
X231651345Y-124921999D01*
X231576703Y-124928792D01*
X231576702Y-124928792D01*
X231570562Y-124929351D01*
X231564648Y-124931092D01*
X231564646Y-124931092D01*
X231442466Y-124967052D01*
X231391273Y-124982119D01*
X231385808Y-124984976D01*
X231324603Y-125016973D01*
X231225647Y-125068705D01*
X231079995Y-125185813D01*
X230959862Y-125328981D01*
X230956899Y-125334370D01*
X230956896Y-125334375D01*
X230927174Y-125388440D01*
X230869826Y-125492757D01*
X230813315Y-125670901D01*
X230792482Y-125856630D01*
X219052489Y-125856630D01*
X219048652Y-125809961D01*
X218994231Y-125593302D01*
X218905154Y-125388440D01*
X218783814Y-125200877D01*
X218633470Y-125035651D01*
X218629419Y-125032452D01*
X218629415Y-125032448D01*
X218462214Y-124900400D01*
X218462210Y-124900398D01*
X218458159Y-124897198D01*
X218416853Y-124874396D01*
X218366884Y-124823964D01*
X218352112Y-124754521D01*
X218377228Y-124688116D01*
X218404580Y-124661509D01*
X218448403Y-124630250D01*
X218583660Y-124533773D01*
X218590394Y-124527063D01*
X218725389Y-124392538D01*
X218741896Y-124376089D01*
X218801394Y-124293289D01*
X218869235Y-124198877D01*
X218872253Y-124194677D01*
X218885759Y-124167351D01*
X218968936Y-123999053D01*
X218968937Y-123999051D01*
X218971230Y-123994411D01*
X219003700Y-123887540D01*
X219034665Y-123785623D01*
X219034665Y-123785621D01*
X219036170Y-123780669D01*
X219063823Y-123570630D01*
X229522482Y-123570630D01*
X229522998Y-123576774D01*
X229531861Y-123682315D01*
X229538121Y-123756867D01*
X229589636Y-123936520D01*
X229675064Y-124102746D01*
X229678887Y-124107570D01*
X229678890Y-124107574D01*
X229728328Y-124169948D01*
X229791152Y-124249212D01*
X229795846Y-124253207D01*
X229848111Y-124297688D01*
X229933478Y-124370342D01*
X230096621Y-124461519D01*
X230274367Y-124519272D01*
X230459945Y-124541401D01*
X230466080Y-124540929D01*
X230466082Y-124540929D01*
X230522119Y-124536617D01*
X230646287Y-124527063D01*
X230826296Y-124476804D01*
X230831785Y-124474031D01*
X230831791Y-124474029D01*
X230931200Y-124423813D01*
X230993114Y-124392538D01*
X231009499Y-124379737D01*
X231093503Y-124314105D01*
X231140387Y-124277475D01*
X231144413Y-124272811D01*
X231144416Y-124272808D01*
X231258480Y-124140663D01*
X231262507Y-124135998D01*
X231342939Y-123994411D01*
X231351778Y-123978852D01*
X231351779Y-123978851D01*
X231354821Y-123973495D01*
X231369091Y-123930600D01*
X231411867Y-123802009D01*
X231413814Y-123796157D01*
X231419553Y-123750727D01*
X231436796Y-123614241D01*
X231436797Y-123614232D01*
X231437238Y-123610738D01*
X231437611Y-123584000D01*
X231419373Y-123397999D01*
X231415419Y-123384901D01*
X231380716Y-123269961D01*
X231365355Y-123219083D01*
X231277615Y-123054066D01*
X231273720Y-123049290D01*
X231163388Y-122914010D01*
X231163385Y-122914007D01*
X231159493Y-122909235D01*
X231154744Y-122905306D01*
X231020239Y-122794034D01*
X231020236Y-122794032D01*
X231015489Y-122790105D01*
X230851089Y-122701214D01*
X230720782Y-122660877D01*
X230678441Y-122647770D01*
X230678438Y-122647769D01*
X230672554Y-122645948D01*
X230666429Y-122645304D01*
X230666428Y-122645304D01*
X230492813Y-122627056D01*
X230492812Y-122627056D01*
X230486685Y-122626412D01*
X230368087Y-122637206D01*
X230306703Y-122642792D01*
X230306702Y-122642792D01*
X230300562Y-122643351D01*
X230294648Y-122645092D01*
X230294646Y-122645092D01*
X230253993Y-122657057D01*
X230121273Y-122696119D01*
X229955647Y-122782705D01*
X229809995Y-122899813D01*
X229689862Y-123042981D01*
X229686899Y-123048370D01*
X229686896Y-123048375D01*
X229613509Y-123181868D01*
X229599826Y-123206757D01*
X229597965Y-123212624D01*
X229597964Y-123212626D01*
X229579776Y-123269961D01*
X229543315Y-123384901D01*
X229522482Y-123570630D01*
X219063823Y-123570630D01*
X219065329Y-123559190D01*
X219066956Y-123492600D01*
X219048652Y-123269961D01*
X218994231Y-123053302D01*
X218905154Y-122848440D01*
X218809909Y-122701214D01*
X218786622Y-122665217D01*
X218786620Y-122665214D01*
X218783814Y-122660877D01*
X218633470Y-122495651D01*
X218629419Y-122492452D01*
X218629415Y-122492448D01*
X218462214Y-122360400D01*
X218462210Y-122360398D01*
X218458159Y-122357198D01*
X218416853Y-122334396D01*
X218366884Y-122283964D01*
X218352112Y-122214521D01*
X218377228Y-122148116D01*
X218404580Y-122121509D01*
X218448403Y-122090250D01*
X218583660Y-121993773D01*
X218641991Y-121935646D01*
X218738235Y-121839737D01*
X218741896Y-121836089D01*
X218801394Y-121753289D01*
X218869235Y-121658877D01*
X218872253Y-121654677D01*
X218929607Y-121538630D01*
X231300482Y-121538630D01*
X231302882Y-121567216D01*
X231310580Y-121658877D01*
X231316121Y-121724867D01*
X231367636Y-121904520D01*
X231389392Y-121946852D01*
X231413506Y-121993773D01*
X231453064Y-122070746D01*
X231456887Y-122075570D01*
X231456890Y-122075574D01*
X231493298Y-122121509D01*
X231569152Y-122217212D01*
X231573846Y-122221207D01*
X231647585Y-122283964D01*
X231711478Y-122338342D01*
X231874621Y-122429519D01*
X232052367Y-122487272D01*
X232237945Y-122509401D01*
X232244080Y-122508929D01*
X232244082Y-122508929D01*
X232300119Y-122504617D01*
X232424287Y-122495063D01*
X232604296Y-122444804D01*
X232609785Y-122442031D01*
X232609791Y-122442029D01*
X232687159Y-122402947D01*
X232771114Y-122360538D01*
X232778582Y-122354704D01*
X232849534Y-122299269D01*
X232918387Y-122245475D01*
X232922413Y-122240811D01*
X232922416Y-122240808D01*
X233036480Y-122108663D01*
X233040507Y-122103998D01*
X233132821Y-121941495D01*
X233139097Y-121922631D01*
X233189867Y-121770009D01*
X233191814Y-121764157D01*
X233206231Y-121650038D01*
X233214796Y-121582241D01*
X233214797Y-121582232D01*
X233215238Y-121578738D01*
X233215611Y-121552000D01*
X233197373Y-121365999D01*
X233194112Y-121355196D01*
X233161029Y-121245623D01*
X233143355Y-121187083D01*
X233055615Y-121022066D01*
X232998960Y-120952600D01*
X232941388Y-120882010D01*
X232941385Y-120882007D01*
X232937493Y-120877235D01*
X232932744Y-120873306D01*
X232798239Y-120762034D01*
X232798236Y-120762032D01*
X232793489Y-120758105D01*
X232739885Y-120729122D01*
X232668738Y-120690652D01*
X232618329Y-120640657D01*
X232602952Y-120571346D01*
X232627488Y-120504724D01*
X232684148Y-120461943D01*
X232694784Y-120458457D01*
X232852366Y-120414460D01*
X232852369Y-120414459D01*
X232858296Y-120412804D01*
X232863785Y-120410031D01*
X232863791Y-120410029D01*
X232941159Y-120370947D01*
X233025114Y-120328538D01*
X233044759Y-120313190D01*
X233093638Y-120275001D01*
X233172387Y-120213475D01*
X233176413Y-120208811D01*
X233176416Y-120208808D01*
X233290480Y-120076663D01*
X233294507Y-120071998D01*
X233386821Y-119909495D01*
X233391696Y-119894842D01*
X233423450Y-119799384D01*
X233445814Y-119732157D01*
X233463079Y-119595494D01*
X233468796Y-119550241D01*
X233468797Y-119550232D01*
X233469238Y-119546738D01*
X233469611Y-119520000D01*
X233451373Y-119333999D01*
X233447419Y-119320901D01*
X233408822Y-119193063D01*
X233397355Y-119155083D01*
X233309615Y-118990066D01*
X233273865Y-118946232D01*
X233195388Y-118850010D01*
X233195385Y-118850007D01*
X233191493Y-118845235D01*
X233186744Y-118841306D01*
X233052239Y-118730034D01*
X233052236Y-118730032D01*
X233047489Y-118726105D01*
X232883089Y-118637214D01*
X232771011Y-118602520D01*
X232710441Y-118583770D01*
X232710438Y-118583769D01*
X232704554Y-118581948D01*
X232698429Y-118581304D01*
X232698428Y-118581304D01*
X232524813Y-118563056D01*
X232524812Y-118563056D01*
X232518685Y-118562412D01*
X232400087Y-118573206D01*
X232338703Y-118578792D01*
X232338702Y-118578792D01*
X232332562Y-118579351D01*
X232326648Y-118581092D01*
X232326646Y-118581092D01*
X232253841Y-118602520D01*
X232153273Y-118632119D01*
X231987647Y-118718705D01*
X231841995Y-118835813D01*
X231721862Y-118978981D01*
X231718899Y-118984370D01*
X231718896Y-118984375D01*
X231678125Y-119058538D01*
X231631826Y-119142757D01*
X231575315Y-119320901D01*
X231554482Y-119506630D01*
X231554998Y-119512774D01*
X231564553Y-119626555D01*
X231570121Y-119692867D01*
X231571819Y-119698788D01*
X231571819Y-119698789D01*
X231576733Y-119715925D01*
X231621636Y-119872520D01*
X231707064Y-120038746D01*
X231710887Y-120043570D01*
X231710890Y-120043574D01*
X231769127Y-120117050D01*
X231823152Y-120185212D01*
X231827846Y-120189207D01*
X231933681Y-120279280D01*
X231965478Y-120306342D01*
X231970857Y-120309348D01*
X232100326Y-120381706D01*
X232150032Y-120432399D01*
X232164440Y-120501919D01*
X232138977Y-120568192D01*
X232081725Y-120610177D01*
X232074466Y-120612557D01*
X231899273Y-120664119D01*
X231733647Y-120750705D01*
X231587995Y-120867813D01*
X231467862Y-121010981D01*
X231464899Y-121016370D01*
X231464896Y-121016375D01*
X231398502Y-121137147D01*
X231377826Y-121174757D01*
X231321315Y-121352901D01*
X231300482Y-121538630D01*
X218929607Y-121538630D01*
X218971230Y-121454411D01*
X219036170Y-121240669D01*
X219065329Y-121019190D01*
X219066956Y-120952600D01*
X219048652Y-120729961D01*
X218994231Y-120513302D01*
X218905154Y-120308440D01*
X218783814Y-120120877D01*
X218780340Y-120117059D01*
X218780333Y-120117050D01*
X218636235Y-119958688D01*
X218605183Y-119894842D01*
X218613579Y-119824344D01*
X218658756Y-119769576D01*
X218685200Y-119755907D01*
X218791852Y-119715925D01*
X218807449Y-119707386D01*
X218909524Y-119630885D01*
X218922085Y-119618324D01*
X218998586Y-119516249D01*
X219007124Y-119500654D01*
X219052278Y-119380206D01*
X219055905Y-119364951D01*
X219061431Y-119314086D01*
X219061800Y-119307272D01*
X219061800Y-118684715D01*
X219057325Y-118669476D01*
X219055935Y-118668271D01*
X219048252Y-118666600D01*
X216363916Y-118666600D01*
X216348677Y-118671075D01*
X216347472Y-118672465D01*
X216345801Y-118680148D01*
X216345801Y-119307269D01*
X216346171Y-119314090D01*
X216351695Y-119364952D01*
X216355321Y-119380204D01*
X216400476Y-119500654D01*
X216409014Y-119516249D01*
X216485515Y-119618324D01*
X216498076Y-119630885D01*
X216600151Y-119707386D01*
X216615746Y-119715924D01*
X216724627Y-119756742D01*
X216781391Y-119799384D01*
X216806091Y-119865945D01*
X216790883Y-119935294D01*
X216771491Y-119961775D01*
X216671279Y-120066641D01*
X216644429Y-120094738D01*
X216518543Y-120279280D01*
X216495678Y-120328538D01*
X216436851Y-120455272D01*
X216424488Y-120481905D01*
X216364789Y-120697170D01*
X216341051Y-120919295D01*
X216341348Y-120924448D01*
X216341348Y-120924451D01*
X216347002Y-121022508D01*
X216353910Y-121142315D01*
X216355047Y-121147361D01*
X216355048Y-121147367D01*
X216374919Y-121235539D01*
X216403022Y-121360239D01*
X216441261Y-121454411D01*
X216479472Y-121548513D01*
X216487066Y-121567216D01*
X216603787Y-121757688D01*
X216750050Y-121926538D01*
X216826646Y-121990129D01*
X216917153Y-122065269D01*
X216921926Y-122069232D01*
X216972254Y-122098641D01*
X216995245Y-122112076D01*
X217043969Y-122163714D01*
X217057040Y-122233497D01*
X217030309Y-122299269D01*
X216989855Y-122332627D01*
X216977407Y-122339107D01*
X216973274Y-122342210D01*
X216973271Y-122342212D01*
X216834427Y-122446459D01*
X216798765Y-122473235D01*
X216785351Y-122487272D01*
X216652386Y-122626412D01*
X216644429Y-122634738D01*
X216641515Y-122639010D01*
X216641514Y-122639011D01*
X216637366Y-122645092D01*
X216518543Y-122819280D01*
X216424488Y-123021905D01*
X216364789Y-123237170D01*
X216341051Y-123459295D01*
X216341348Y-123464448D01*
X216341348Y-123464451D01*
X216346811Y-123559190D01*
X216353910Y-123682315D01*
X216355047Y-123687361D01*
X216355048Y-123687367D01*
X216370711Y-123756867D01*
X216403022Y-123900239D01*
X216487066Y-124107216D01*
X216523917Y-124167351D01*
X216588541Y-124272808D01*
X216603787Y-124297688D01*
X216750050Y-124466538D01*
X216921926Y-124609232D01*
X216992395Y-124650411D01*
X216995245Y-124652076D01*
X217043969Y-124703714D01*
X217057040Y-124773497D01*
X217030309Y-124839269D01*
X216989855Y-124872627D01*
X216977407Y-124879107D01*
X216973274Y-124882210D01*
X216973271Y-124882212D01*
X216829519Y-124990144D01*
X216798765Y-125013235D01*
X216644429Y-125174738D01*
X216641515Y-125179010D01*
X216641514Y-125179011D01*
X216626598Y-125200877D01*
X216518543Y-125359280D01*
X216502803Y-125393190D01*
X216459090Y-125487362D01*
X216424488Y-125561905D01*
X216364789Y-125777170D01*
X216341051Y-125999295D01*
X216341348Y-126004448D01*
X216341348Y-126004451D01*
X216346811Y-126099190D01*
X216353910Y-126222315D01*
X216355047Y-126227361D01*
X216355048Y-126227367D01*
X216362289Y-126259495D01*
X216403022Y-126440239D01*
X216487066Y-126647216D01*
X216506260Y-126678538D01*
X216583923Y-126805272D01*
X216603787Y-126837688D01*
X216750050Y-127006538D01*
X216921926Y-127149232D01*
X216992395Y-127190411D01*
X216995245Y-127192076D01*
X217043969Y-127243714D01*
X217057040Y-127313497D01*
X217030309Y-127379269D01*
X216989855Y-127412627D01*
X216977407Y-127419107D01*
X216973274Y-127422210D01*
X216973271Y-127422212D01*
X216820277Y-127537083D01*
X216798765Y-127553235D01*
X216644429Y-127714738D01*
X216518543Y-127899280D01*
X216504869Y-127928738D01*
X216434290Y-128080789D01*
X216424488Y-128101905D01*
X216364789Y-128317170D01*
X216341051Y-128539295D01*
X216341348Y-128544448D01*
X216341348Y-128544451D01*
X216349645Y-128688342D01*
X216353910Y-128762315D01*
X216355047Y-128767361D01*
X216355048Y-128767367D01*
X216370967Y-128838001D01*
X216403022Y-128980239D01*
X216487066Y-129187216D01*
X216525508Y-129249948D01*
X216561171Y-129308144D01*
X216603787Y-129377688D01*
X216750050Y-129546538D01*
X216921926Y-129689232D01*
X216992395Y-129730411D01*
X216995245Y-129732076D01*
X217043969Y-129783714D01*
X217057040Y-129853497D01*
X217030309Y-129919269D01*
X216989855Y-129952627D01*
X216977407Y-129959107D01*
X216973274Y-129962210D01*
X216973271Y-129962212D01*
X216820887Y-130076625D01*
X216798765Y-130093235D01*
X216795193Y-130096973D01*
X216686022Y-130211214D01*
X216644429Y-130254738D01*
X216518543Y-130439280D01*
X216424488Y-130641905D01*
X216364789Y-130857170D01*
X216341051Y-131079295D01*
X212192000Y-131079295D01*
X212192000Y-118140485D01*
X216345800Y-118140485D01*
X216350275Y-118155724D01*
X216351665Y-118156929D01*
X216359348Y-118158600D01*
X217431685Y-118158600D01*
X217446924Y-118154125D01*
X217448129Y-118152735D01*
X217449800Y-118145052D01*
X217449800Y-118140485D01*
X217957800Y-118140485D01*
X217962275Y-118155724D01*
X217963665Y-118156929D01*
X217971348Y-118158600D01*
X219043684Y-118158600D01*
X219058923Y-118154125D01*
X219060128Y-118152735D01*
X219061799Y-118145052D01*
X219061799Y-117517931D01*
X219061429Y-117511110D01*
X219055905Y-117460248D01*
X219052279Y-117444996D01*
X219007124Y-117324546D01*
X218998586Y-117308951D01*
X218922085Y-117206876D01*
X218909524Y-117194315D01*
X218807449Y-117117814D01*
X218791854Y-117109276D01*
X218671406Y-117064122D01*
X218656151Y-117060495D01*
X218605286Y-117054969D01*
X218598472Y-117054600D01*
X217975915Y-117054600D01*
X217960676Y-117059075D01*
X217959471Y-117060465D01*
X217957800Y-117068148D01*
X217957800Y-118140485D01*
X217449800Y-118140485D01*
X217449800Y-117072716D01*
X217445325Y-117057477D01*
X217443935Y-117056272D01*
X217436252Y-117054601D01*
X216809131Y-117054601D01*
X216802310Y-117054971D01*
X216751448Y-117060495D01*
X216736196Y-117064121D01*
X216615746Y-117109276D01*
X216600151Y-117117814D01*
X216498076Y-117194315D01*
X216485515Y-117206876D01*
X216409014Y-117308951D01*
X216400476Y-117324546D01*
X216355322Y-117444994D01*
X216351695Y-117460249D01*
X216346169Y-117511114D01*
X216345800Y-117517928D01*
X216345800Y-118140485D01*
X212192000Y-118140485D01*
X212192000Y-116712630D01*
X229268482Y-116712630D01*
X229284121Y-116898867D01*
X229335636Y-117078520D01*
X229355830Y-117117814D01*
X229401602Y-117206876D01*
X229421064Y-117244746D01*
X229424887Y-117249570D01*
X229424890Y-117249574D01*
X229474328Y-117311948D01*
X229537152Y-117391212D01*
X229541846Y-117395207D01*
X229574819Y-117423269D01*
X229679478Y-117512342D01*
X229842621Y-117603519D01*
X230020367Y-117661272D01*
X230205945Y-117683401D01*
X230212080Y-117682929D01*
X230212082Y-117682929D01*
X230268119Y-117678617D01*
X230392287Y-117669063D01*
X230572296Y-117618804D01*
X230577785Y-117616031D01*
X230577791Y-117616029D01*
X230697424Y-117555597D01*
X230739114Y-117534538D01*
X230767524Y-117512342D01*
X230839503Y-117456105D01*
X230886387Y-117419475D01*
X230890413Y-117414811D01*
X230890416Y-117414808D01*
X231004480Y-117282663D01*
X231008507Y-117277998D01*
X231100821Y-117115495D01*
X231115091Y-117072600D01*
X231157867Y-116944009D01*
X231159814Y-116938157D01*
X231165553Y-116892727D01*
X231182796Y-116756241D01*
X231182797Y-116756232D01*
X231183238Y-116752738D01*
X231183611Y-116726000D01*
X231165373Y-116539999D01*
X231161419Y-116526901D01*
X231113136Y-116366983D01*
X231111355Y-116361083D01*
X231023615Y-116196066D01*
X231010727Y-116180264D01*
X230909388Y-116056010D01*
X230909385Y-116056007D01*
X230905493Y-116051235D01*
X230900744Y-116047306D01*
X230766239Y-115936034D01*
X230766236Y-115936032D01*
X230761489Y-115932105D01*
X230597089Y-115843214D01*
X230507822Y-115815581D01*
X230424441Y-115789770D01*
X230424438Y-115789769D01*
X230418554Y-115787948D01*
X230412429Y-115787304D01*
X230412428Y-115787304D01*
X230238813Y-115769056D01*
X230238812Y-115769056D01*
X230232685Y-115768412D01*
X230114087Y-115779206D01*
X230052703Y-115784792D01*
X230052702Y-115784792D01*
X230046562Y-115785351D01*
X230040648Y-115787092D01*
X230040646Y-115787092D01*
X229918467Y-115823052D01*
X229867273Y-115838119D01*
X229701647Y-115924705D01*
X229555995Y-116041813D01*
X229435862Y-116184981D01*
X229432899Y-116190370D01*
X229432896Y-116190375D01*
X229359509Y-116323868D01*
X229345826Y-116348757D01*
X229289315Y-116526901D01*
X229268482Y-116712630D01*
X212192000Y-116712630D01*
X212192000Y-113707269D01*
X216875801Y-113707269D01*
X216876171Y-113714090D01*
X216881695Y-113764952D01*
X216885321Y-113780204D01*
X216930476Y-113900654D01*
X216939014Y-113916249D01*
X217015515Y-114018324D01*
X217028076Y-114030885D01*
X217130151Y-114107386D01*
X217145746Y-114115924D01*
X217266194Y-114161078D01*
X217281449Y-114164705D01*
X217332314Y-114170231D01*
X217339128Y-114170600D01*
X218211685Y-114170600D01*
X218226924Y-114166125D01*
X218228129Y-114164735D01*
X218229800Y-114157052D01*
X218229800Y-114152484D01*
X218737800Y-114152484D01*
X218742275Y-114167723D01*
X218743665Y-114168928D01*
X218751348Y-114170599D01*
X219628469Y-114170599D01*
X219635290Y-114170229D01*
X219686152Y-114164705D01*
X219701404Y-114161079D01*
X219821854Y-114115924D01*
X219837449Y-114107386D01*
X219939524Y-114030885D01*
X219952085Y-114018324D01*
X220028586Y-113916249D01*
X220037124Y-113900654D01*
X220082278Y-113780206D01*
X220085905Y-113764951D01*
X220091431Y-113714086D01*
X220091800Y-113707272D01*
X220091800Y-112834715D01*
X220087325Y-112819476D01*
X220085935Y-112818271D01*
X220078252Y-112816600D01*
X218755915Y-112816600D01*
X218740676Y-112821075D01*
X218739471Y-112822465D01*
X218737800Y-112830148D01*
X218737800Y-114152484D01*
X218229800Y-114152484D01*
X218229800Y-112834715D01*
X218225325Y-112819476D01*
X218223935Y-112818271D01*
X218216252Y-112816600D01*
X216893916Y-112816600D01*
X216878677Y-112821075D01*
X216877472Y-112822465D01*
X216875801Y-112830148D01*
X216875801Y-113707269D01*
X212192000Y-113707269D01*
X212192000Y-112290485D01*
X216875800Y-112290485D01*
X216880275Y-112305724D01*
X216881665Y-112306929D01*
X216889348Y-112308600D01*
X218211685Y-112308600D01*
X218226924Y-112304125D01*
X218228129Y-112302735D01*
X218229800Y-112295052D01*
X218229800Y-112290485D01*
X218737800Y-112290485D01*
X218742275Y-112305724D01*
X218743665Y-112306929D01*
X218751348Y-112308600D01*
X220073684Y-112308600D01*
X220088923Y-112304125D01*
X220090128Y-112302735D01*
X220091799Y-112295052D01*
X220091799Y-111417931D01*
X220091429Y-111411110D01*
X220087901Y-111378630D01*
X228252482Y-111378630D01*
X228268121Y-111564867D01*
X228319636Y-111744520D01*
X228405064Y-111910746D01*
X228408887Y-111915570D01*
X228408890Y-111915574D01*
X228514170Y-112048402D01*
X228521152Y-112057212D01*
X228525846Y-112061207D01*
X228558819Y-112089269D01*
X228663478Y-112178342D01*
X228826621Y-112269519D01*
X229004367Y-112327272D01*
X229189945Y-112349401D01*
X229196080Y-112348929D01*
X229196082Y-112348929D01*
X229252119Y-112344617D01*
X229376287Y-112335063D01*
X229556296Y-112284804D01*
X229561785Y-112282031D01*
X229561791Y-112282029D01*
X229639159Y-112242947D01*
X229723114Y-112200538D01*
X229751524Y-112178342D01*
X229775486Y-112159621D01*
X229870387Y-112085475D01*
X229874413Y-112080811D01*
X229874416Y-112080808D01*
X229988480Y-111948663D01*
X229992507Y-111943998D01*
X230084821Y-111781495D01*
X230099091Y-111738600D01*
X230141867Y-111610009D01*
X230143814Y-111604157D01*
X230156290Y-111505401D01*
X230166796Y-111422241D01*
X230166797Y-111422232D01*
X230167238Y-111418738D01*
X230167611Y-111392000D01*
X230149373Y-111205999D01*
X230145419Y-111192901D01*
X230115752Y-111094641D01*
X230095355Y-111027083D01*
X230007615Y-110862066D01*
X229994727Y-110846264D01*
X229893388Y-110722010D01*
X229893385Y-110722007D01*
X229889493Y-110717235D01*
X229884744Y-110713306D01*
X229750239Y-110602034D01*
X229750236Y-110602032D01*
X229745489Y-110598105D01*
X229628095Y-110534630D01*
X231382482Y-110534630D01*
X231382998Y-110540774D01*
X231397025Y-110707813D01*
X231398121Y-110720867D01*
X231449636Y-110900520D01*
X231478908Y-110957477D01*
X231509917Y-111017814D01*
X231535064Y-111066746D01*
X231538887Y-111071570D01*
X231538890Y-111071574D01*
X231640756Y-111200096D01*
X231651152Y-111213212D01*
X231655846Y-111217207D01*
X231688819Y-111245269D01*
X231793478Y-111334342D01*
X231956621Y-111425519D01*
X232134367Y-111483272D01*
X232319945Y-111505401D01*
X232326080Y-111504929D01*
X232326082Y-111504929D01*
X232382119Y-111500617D01*
X232506287Y-111491063D01*
X232686296Y-111440804D01*
X232691785Y-111438031D01*
X232691791Y-111438029D01*
X232769159Y-111398947D01*
X232853114Y-111356538D01*
X232881524Y-111334342D01*
X232905486Y-111315621D01*
X233000387Y-111241475D01*
X233004413Y-111236811D01*
X233004416Y-111236808D01*
X233118480Y-111104663D01*
X233122507Y-111099998D01*
X233199695Y-110964122D01*
X233211778Y-110942852D01*
X233211779Y-110942851D01*
X233214821Y-110937495D01*
X233229091Y-110894600D01*
X233271867Y-110766009D01*
X233273814Y-110760157D01*
X233293790Y-110602034D01*
X233296796Y-110578241D01*
X233296797Y-110578232D01*
X233297238Y-110574738D01*
X233297611Y-110548000D01*
X233279373Y-110361999D01*
X233275419Y-110348901D01*
X233227136Y-110188983D01*
X233225355Y-110183083D01*
X233137615Y-110018066D01*
X233124727Y-110002264D01*
X233023388Y-109878010D01*
X233023385Y-109878007D01*
X233019493Y-109873235D01*
X233014740Y-109869303D01*
X232880239Y-109758034D01*
X232880236Y-109758032D01*
X232875489Y-109754105D01*
X232711089Y-109665214D01*
X232621821Y-109637581D01*
X232538441Y-109611770D01*
X232538438Y-109611769D01*
X232532554Y-109609948D01*
X232526429Y-109609304D01*
X232526428Y-109609304D01*
X232352813Y-109591056D01*
X232352812Y-109591056D01*
X232346685Y-109590412D01*
X232228087Y-109601206D01*
X232166703Y-109606792D01*
X232166702Y-109606792D01*
X232160562Y-109607351D01*
X232154648Y-109609092D01*
X232154646Y-109609092D01*
X232032466Y-109645052D01*
X231981273Y-109660119D01*
X231815647Y-109746705D01*
X231669995Y-109863813D01*
X231549862Y-110006981D01*
X231546899Y-110012370D01*
X231546896Y-110012375D01*
X231473509Y-110145868D01*
X231459826Y-110170757D01*
X231403315Y-110348901D01*
X231382482Y-110534630D01*
X229628095Y-110534630D01*
X229581089Y-110509214D01*
X229491821Y-110481581D01*
X229408441Y-110455770D01*
X229408438Y-110455769D01*
X229402554Y-110453948D01*
X229396429Y-110453304D01*
X229396428Y-110453304D01*
X229222813Y-110435056D01*
X229222812Y-110435056D01*
X229216685Y-110434412D01*
X229098087Y-110445206D01*
X229036703Y-110450792D01*
X229036702Y-110450792D01*
X229030562Y-110451351D01*
X229024648Y-110453092D01*
X229024646Y-110453092D01*
X228902466Y-110489052D01*
X228851273Y-110504119D01*
X228685647Y-110590705D01*
X228539995Y-110707813D01*
X228419862Y-110850981D01*
X228416899Y-110856370D01*
X228416896Y-110856375D01*
X228357663Y-110964121D01*
X228329826Y-111014757D01*
X228273315Y-111192901D01*
X228252482Y-111378630D01*
X220087901Y-111378630D01*
X220085905Y-111360248D01*
X220082279Y-111344996D01*
X220037124Y-111224546D01*
X220028586Y-111208951D01*
X219952085Y-111106876D01*
X219939524Y-111094315D01*
X219837449Y-111017814D01*
X219821854Y-111009276D01*
X219701406Y-110964122D01*
X219686151Y-110960495D01*
X219635286Y-110954969D01*
X219628472Y-110954600D01*
X218755915Y-110954600D01*
X218740676Y-110959075D01*
X218739471Y-110960465D01*
X218737800Y-110968148D01*
X218737800Y-112290485D01*
X218229800Y-112290485D01*
X218229800Y-110972716D01*
X218225325Y-110957477D01*
X218223935Y-110956272D01*
X218216252Y-110954601D01*
X217339131Y-110954601D01*
X217332310Y-110954971D01*
X217281448Y-110960495D01*
X217266196Y-110964121D01*
X217145746Y-111009276D01*
X217130151Y-111017814D01*
X217028076Y-111094315D01*
X217015515Y-111106876D01*
X216939014Y-111208951D01*
X216930476Y-111224546D01*
X216885322Y-111344994D01*
X216881695Y-111360249D01*
X216876169Y-111411114D01*
X216875800Y-111417928D01*
X216875800Y-112290485D01*
X212192000Y-112290485D01*
X212192000Y-109512279D01*
X212212002Y-109444158D01*
X212265658Y-109397665D01*
X212335932Y-109387561D01*
X212400512Y-109417055D01*
X212413238Y-109429782D01*
X212502019Y-109532274D01*
X212509380Y-109539483D01*
X212673234Y-109675516D01*
X212681681Y-109681431D01*
X212865556Y-109788879D01*
X212874842Y-109793329D01*
X213073801Y-109869303D01*
X213083699Y-109872179D01*
X213187050Y-109893206D01*
X213201099Y-109892010D01*
X213204800Y-109881665D01*
X213204800Y-109881117D01*
X213712800Y-109881117D01*
X213716864Y-109894959D01*
X213730278Y-109896993D01*
X213736984Y-109896134D01*
X213747062Y-109893992D01*
X213951055Y-109832791D01*
X213960642Y-109829033D01*
X214151895Y-109735339D01*
X214160745Y-109730064D01*
X214334128Y-109606392D01*
X214342000Y-109599739D01*
X214492852Y-109449412D01*
X214499530Y-109441565D01*
X214623803Y-109268620D01*
X214629113Y-109259783D01*
X214723470Y-109068867D01*
X214727269Y-109059272D01*
X214789177Y-108855510D01*
X214791355Y-108845437D01*
X214792786Y-108834562D01*
X214790575Y-108820378D01*
X214777417Y-108816600D01*
X213730915Y-108816600D01*
X213715676Y-108821075D01*
X213714471Y-108822465D01*
X213712800Y-108830148D01*
X213712800Y-109881117D01*
X213204800Y-109881117D01*
X213204800Y-108290485D01*
X213712800Y-108290485D01*
X213717275Y-108305724D01*
X213718665Y-108306929D01*
X213726348Y-108308600D01*
X214777144Y-108308600D01*
X214790675Y-108304627D01*
X214791980Y-108295547D01*
X214750014Y-108128475D01*
X214746694Y-108118724D01*
X214661772Y-107923414D01*
X214656905Y-107914339D01*
X214541226Y-107735526D01*
X214534936Y-107727357D01*
X214408704Y-107588630D01*
X232844482Y-107588630D01*
X232844998Y-107594774D01*
X232856955Y-107737160D01*
X232860121Y-107774867D01*
X232911636Y-107954520D01*
X232997064Y-108120746D01*
X233000887Y-108125570D01*
X233000890Y-108125574D01*
X233076369Y-108220804D01*
X233113152Y-108267212D01*
X233117846Y-108271207D01*
X233150819Y-108299269D01*
X233255478Y-108388342D01*
X233418621Y-108479519D01*
X233596367Y-108537272D01*
X233781945Y-108559401D01*
X233788080Y-108558929D01*
X233788082Y-108558929D01*
X233844119Y-108554617D01*
X233968287Y-108545063D01*
X234148296Y-108494804D01*
X234153785Y-108492031D01*
X234153791Y-108492029D01*
X234231159Y-108452947D01*
X234315114Y-108410538D01*
X234343524Y-108388342D01*
X234367486Y-108369621D01*
X234462387Y-108295475D01*
X234466413Y-108290811D01*
X234466416Y-108290808D01*
X234580480Y-108158663D01*
X234584507Y-108153998D01*
X234676821Y-107991495D01*
X234691091Y-107948600D01*
X234733867Y-107820009D01*
X234735814Y-107814157D01*
X234745541Y-107737160D01*
X234758796Y-107632241D01*
X234758797Y-107632232D01*
X234759238Y-107628738D01*
X234759611Y-107602000D01*
X234741373Y-107415999D01*
X234737419Y-107402901D01*
X234689645Y-107244669D01*
X234687355Y-107237083D01*
X234599615Y-107072066D01*
X234586727Y-107056264D01*
X234485388Y-106932010D01*
X234485385Y-106932007D01*
X234481493Y-106927235D01*
X234476744Y-106923306D01*
X234342239Y-106812034D01*
X234342236Y-106812032D01*
X234337489Y-106808105D01*
X234173089Y-106719214D01*
X234083822Y-106691581D01*
X234000441Y-106665770D01*
X234000438Y-106665769D01*
X233994554Y-106663948D01*
X233988429Y-106663304D01*
X233988428Y-106663304D01*
X233814813Y-106645056D01*
X233814812Y-106645056D01*
X233808685Y-106644412D01*
X233690087Y-106655206D01*
X233628703Y-106660792D01*
X233628702Y-106660792D01*
X233622562Y-106661351D01*
X233616648Y-106663092D01*
X233616646Y-106663092D01*
X233513320Y-106693503D01*
X233443273Y-106714119D01*
X233277647Y-106800705D01*
X233131995Y-106917813D01*
X233011862Y-107060981D01*
X233008899Y-107066370D01*
X233008896Y-107066375D01*
X233002451Y-107078099D01*
X232921826Y-107224757D01*
X232919965Y-107230624D01*
X232919964Y-107230626D01*
X232915509Y-107244669D01*
X232865315Y-107402901D01*
X232844482Y-107588630D01*
X214408704Y-107588630D01*
X214391606Y-107569840D01*
X214384073Y-107562815D01*
X214216939Y-107430822D01*
X214208352Y-107425117D01*
X214021917Y-107322199D01*
X214012505Y-107317969D01*
X213811759Y-107246880D01*
X213801788Y-107244246D01*
X213730637Y-107231572D01*
X213717340Y-107233032D01*
X213712800Y-107247589D01*
X213712800Y-108290485D01*
X213204800Y-108290485D01*
X213204800Y-107245702D01*
X213200882Y-107232358D01*
X213186606Y-107230371D01*
X213148124Y-107236260D01*
X213138088Y-107238651D01*
X212935668Y-107304812D01*
X212926159Y-107308809D01*
X212737263Y-107407142D01*
X212728538Y-107412636D01*
X212558233Y-107540505D01*
X212550526Y-107547348D01*
X212409094Y-107695348D01*
X212347570Y-107730778D01*
X212276657Y-107727321D01*
X212218871Y-107686075D01*
X212192557Y-107620135D01*
X212192000Y-107608297D01*
X212192000Y-105930000D01*
X212212002Y-105861879D01*
X212265658Y-105815386D01*
X212318000Y-105804000D01*
X217159636Y-105804000D01*
X217227757Y-105824002D01*
G37*
G04 #@! TD.AperFunction*
G04 #@! TA.AperFunction,Conductor*
G36*
X259603338Y-97696002D02*
G01*
X259649831Y-97749658D01*
X259660646Y-97790028D01*
X259662625Y-97810769D01*
X259663710Y-97815203D01*
X259663711Y-97815209D01*
X259725337Y-98067054D01*
X259726731Y-98072750D01*
X259827985Y-98322733D01*
X259964265Y-98555482D01*
X260033455Y-98642000D01*
X260084686Y-98706060D01*
X260132716Y-98766119D01*
X260329809Y-98950234D01*
X260551416Y-99103968D01*
X260555499Y-99105999D01*
X260555502Y-99106001D01*
X260671013Y-99163466D01*
X260792894Y-99224101D01*
X260797228Y-99225522D01*
X260797231Y-99225523D01*
X261044853Y-99306698D01*
X261044859Y-99306699D01*
X261049186Y-99308118D01*
X261053677Y-99308898D01*
X261053678Y-99308898D01*
X261311140Y-99353601D01*
X261311148Y-99353602D01*
X261314921Y-99354257D01*
X261318758Y-99354448D01*
X261398578Y-99358422D01*
X261398586Y-99358422D01*
X261400149Y-99358500D01*
X261568512Y-99358500D01*
X261570780Y-99358335D01*
X261570792Y-99358335D01*
X261701884Y-99348823D01*
X261769004Y-99343953D01*
X261773459Y-99342969D01*
X261773462Y-99342969D01*
X262027912Y-99286791D01*
X262027916Y-99286790D01*
X262032372Y-99285806D01*
X262158480Y-99238028D01*
X262280318Y-99191868D01*
X262280321Y-99191867D01*
X262284588Y-99190250D01*
X262520368Y-99059286D01*
X262734773Y-98895657D01*
X262923312Y-98702792D01*
X263082034Y-98484730D01*
X263165570Y-98325954D01*
X263205490Y-98250079D01*
X263205493Y-98250073D01*
X263207615Y-98246039D01*
X263251139Y-98122792D01*
X263295902Y-97996033D01*
X263295902Y-97996032D01*
X263297425Y-97991720D01*
X263339621Y-97777634D01*
X263372419Y-97714667D01*
X263434052Y-97679428D01*
X263463243Y-97676000D01*
X264136000Y-97676000D01*
X264204121Y-97696002D01*
X264250614Y-97749658D01*
X264262000Y-97802000D01*
X264262000Y-105296000D01*
X255460500Y-105296000D01*
X255460500Y-104646866D01*
X255453745Y-104584684D01*
X255402615Y-104448295D01*
X255315261Y-104331739D01*
X255198705Y-104244385D01*
X255062316Y-104193255D01*
X255000134Y-104186500D01*
X253203866Y-104186500D01*
X253141684Y-104193255D01*
X253005295Y-104244385D01*
X252888739Y-104331739D01*
X252801385Y-104448295D01*
X252750255Y-104584684D01*
X252743500Y-104646866D01*
X252743500Y-105296000D01*
X240939501Y-105296000D01*
X241003778Y-105182852D01*
X241003779Y-105182851D01*
X241006821Y-105177495D01*
X241021091Y-105134600D01*
X241063867Y-105006009D01*
X241065814Y-105000157D01*
X241076779Y-104913362D01*
X241088796Y-104818241D01*
X241088797Y-104818232D01*
X241089238Y-104814738D01*
X241089611Y-104788000D01*
X241071373Y-104601999D01*
X241067419Y-104588901D01*
X241033008Y-104474929D01*
X241017355Y-104423083D01*
X240929615Y-104258066D01*
X240916727Y-104242264D01*
X240815388Y-104118010D01*
X240815385Y-104118007D01*
X240811493Y-104113235D01*
X240806744Y-104109306D01*
X240672239Y-103998034D01*
X240672236Y-103998032D01*
X240667489Y-103994105D01*
X240503089Y-103905214D01*
X240413822Y-103877581D01*
X240330441Y-103851770D01*
X240330438Y-103851769D01*
X240324554Y-103849948D01*
X240318429Y-103849304D01*
X240318428Y-103849304D01*
X240144813Y-103831056D01*
X240144812Y-103831056D01*
X240138685Y-103830412D01*
X240020087Y-103841206D01*
X239958703Y-103846792D01*
X239958702Y-103846792D01*
X239952562Y-103847351D01*
X239946648Y-103849092D01*
X239946646Y-103849092D01*
X239893955Y-103864600D01*
X239773273Y-103900119D01*
X239607647Y-103986705D01*
X239461995Y-104103813D01*
X239341862Y-104246981D01*
X239338899Y-104252370D01*
X239338896Y-104252375D01*
X239282593Y-104354792D01*
X239251826Y-104410757D01*
X239195315Y-104588901D01*
X239174482Y-104774630D01*
X239174998Y-104780774D01*
X239187078Y-104924626D01*
X239190121Y-104960867D01*
X239241636Y-105140520D01*
X239263106Y-105182296D01*
X239283687Y-105222342D01*
X239321541Y-105296000D01*
X219105861Y-105296000D01*
X219037740Y-105275998D01*
X218991247Y-105222342D01*
X218980462Y-105182296D01*
X218979418Y-105171646D01*
X218973373Y-105109999D01*
X218969419Y-105096901D01*
X218950760Y-105035103D01*
X218919355Y-104931083D01*
X218831615Y-104766066D01*
X218818727Y-104750264D01*
X218717388Y-104626010D01*
X218717385Y-104626007D01*
X218713493Y-104621235D01*
X218708744Y-104617306D01*
X218574239Y-104506034D01*
X218574236Y-104506032D01*
X218569489Y-104502105D01*
X218405089Y-104413214D01*
X218315821Y-104385581D01*
X218232441Y-104359770D01*
X218232438Y-104359769D01*
X218226554Y-104357948D01*
X218220429Y-104357304D01*
X218220428Y-104357304D01*
X218046813Y-104339056D01*
X218046812Y-104339056D01*
X218040685Y-104338412D01*
X217922087Y-104349206D01*
X217860703Y-104354792D01*
X217860702Y-104354792D01*
X217854562Y-104355351D01*
X217848648Y-104357092D01*
X217848646Y-104357092D01*
X217728301Y-104392512D01*
X217675273Y-104408119D01*
X217669808Y-104410976D01*
X217546573Y-104475401D01*
X217509647Y-104494705D01*
X217363995Y-104611813D01*
X217243862Y-104754981D01*
X217240899Y-104760370D01*
X217240896Y-104760375D01*
X217167509Y-104893868D01*
X217153826Y-104918757D01*
X217151965Y-104924624D01*
X217151964Y-104924626D01*
X217140468Y-104960867D01*
X217097315Y-105096901D01*
X217092422Y-105140520D01*
X217087540Y-105184045D01*
X217060069Y-105249512D01*
X217001565Y-105289734D01*
X216962325Y-105296000D01*
X211176000Y-105296000D01*
X211176000Y-103504630D01*
X228049282Y-103504630D01*
X228049798Y-103510774D01*
X228061528Y-103650459D01*
X228064921Y-103690867D01*
X228066619Y-103696788D01*
X228066619Y-103696789D01*
X228071247Y-103712929D01*
X228116436Y-103870520D01*
X228135772Y-103908144D01*
X228176147Y-103986705D01*
X228201864Y-104036746D01*
X228205687Y-104041570D01*
X228205690Y-104041574D01*
X228266273Y-104118010D01*
X228317952Y-104183212D01*
X228322646Y-104187207D01*
X228400293Y-104253290D01*
X228460278Y-104304342D01*
X228623421Y-104395519D01*
X228801167Y-104453272D01*
X228986745Y-104475401D01*
X228992880Y-104474929D01*
X228992882Y-104474929D01*
X229048919Y-104470617D01*
X229173087Y-104461063D01*
X229353096Y-104410804D01*
X229358585Y-104408031D01*
X229358591Y-104408029D01*
X229454126Y-104359770D01*
X229519914Y-104326538D01*
X229548324Y-104304342D01*
X229600589Y-104263507D01*
X229667187Y-104211475D01*
X229671213Y-104206811D01*
X229671216Y-104206808D01*
X229755377Y-104109306D01*
X229789307Y-104069998D01*
X229881621Y-103907495D01*
X229895891Y-103864600D01*
X229938667Y-103736009D01*
X229940614Y-103730157D01*
X229962016Y-103560746D01*
X229963596Y-103548241D01*
X229963597Y-103548232D01*
X229964038Y-103544738D01*
X229964411Y-103518000D01*
X229946173Y-103331999D01*
X229942219Y-103318901D01*
X229907808Y-103204929D01*
X229892155Y-103153083D01*
X229804415Y-102988066D01*
X229795374Y-102976981D01*
X229690188Y-102848010D01*
X229690185Y-102848007D01*
X229686293Y-102843235D01*
X229681544Y-102839306D01*
X229564683Y-102742630D01*
X240698482Y-102742630D01*
X240698998Y-102748774D01*
X240713142Y-102917207D01*
X240714121Y-102928867D01*
X240765636Y-103108520D01*
X240785220Y-103146626D01*
X240810325Y-103195475D01*
X240851064Y-103274746D01*
X240854887Y-103279570D01*
X240854890Y-103279574D01*
X240896442Y-103331999D01*
X240967152Y-103421212D01*
X240971846Y-103425207D01*
X241080877Y-103518000D01*
X241109478Y-103542342D01*
X241272621Y-103633519D01*
X241450367Y-103691272D01*
X241635945Y-103713401D01*
X241642080Y-103712929D01*
X241642082Y-103712929D01*
X241698119Y-103708617D01*
X241822287Y-103699063D01*
X242002296Y-103648804D01*
X242007785Y-103646031D01*
X242007791Y-103646029D01*
X242085159Y-103606947D01*
X242169114Y-103564538D01*
X242197524Y-103542342D01*
X242224193Y-103521505D01*
X242316387Y-103449475D01*
X242320413Y-103444811D01*
X242320416Y-103444808D01*
X242433918Y-103313314D01*
X242438507Y-103307998D01*
X242509361Y-103183272D01*
X242527778Y-103150852D01*
X242527779Y-103150851D01*
X242530821Y-103145495D01*
X242538467Y-103122512D01*
X242585084Y-102982375D01*
X242589814Y-102968157D01*
X242604992Y-102848010D01*
X242612796Y-102786241D01*
X242612797Y-102786232D01*
X242613238Y-102782738D01*
X242613611Y-102756000D01*
X242595373Y-102569999D01*
X242591419Y-102556901D01*
X242570806Y-102488630D01*
X242541355Y-102391083D01*
X242453615Y-102226066D01*
X242434231Y-102202299D01*
X242406677Y-102136867D01*
X242418872Y-102066926D01*
X242431393Y-102048024D01*
X242430929Y-102047697D01*
X242434480Y-102042664D01*
X242438507Y-102037998D01*
X242523159Y-101888983D01*
X242527778Y-101880852D01*
X242527779Y-101880851D01*
X242530821Y-101875495D01*
X242545091Y-101832600D01*
X242585084Y-101712375D01*
X242589814Y-101698157D01*
X242604992Y-101578010D01*
X242612796Y-101516241D01*
X242612797Y-101516232D01*
X242613238Y-101512738D01*
X242613611Y-101486000D01*
X242612300Y-101472630D01*
X257970482Y-101472630D01*
X257970998Y-101478774D01*
X257977815Y-101559950D01*
X257986121Y-101658867D01*
X258037636Y-101838520D01*
X258123064Y-102004746D01*
X258126887Y-102009570D01*
X258126890Y-102009574D01*
X258227782Y-102136867D01*
X258239152Y-102151212D01*
X258243846Y-102155207D01*
X258352877Y-102248000D01*
X258381478Y-102272342D01*
X258544621Y-102363519D01*
X258647335Y-102396893D01*
X258705940Y-102436965D01*
X258733956Y-102506182D01*
X258745433Y-102642852D01*
X258748121Y-102674867D01*
X258799636Y-102854520D01*
X258821392Y-102896852D01*
X258861045Y-102974009D01*
X258885064Y-103020746D01*
X258888887Y-103025570D01*
X258888890Y-103025574D01*
X258988185Y-103150852D01*
X259001152Y-103167212D01*
X259005846Y-103171207D01*
X259133176Y-103279574D01*
X259143478Y-103288342D01*
X259306621Y-103379519D01*
X259484367Y-103437272D01*
X259669945Y-103459401D01*
X259676080Y-103458929D01*
X259676082Y-103458929D01*
X259732119Y-103454617D01*
X259856287Y-103445063D01*
X260036296Y-103394804D01*
X260041785Y-103392031D01*
X260041791Y-103392029D01*
X260148485Y-103338133D01*
X260203114Y-103310538D01*
X260231524Y-103288342D01*
X260337682Y-103205401D01*
X260350387Y-103195475D01*
X260354413Y-103190811D01*
X260354416Y-103190808D01*
X260468480Y-103058663D01*
X260472507Y-103053998D01*
X260552484Y-102913212D01*
X260561778Y-102896852D01*
X260561779Y-102896851D01*
X260564821Y-102891495D01*
X260579091Y-102848600D01*
X260608142Y-102761269D01*
X260623814Y-102714157D01*
X260638918Y-102594600D01*
X260646796Y-102532241D01*
X260646797Y-102532232D01*
X260647238Y-102528738D01*
X260647611Y-102502000D01*
X260629373Y-102315999D01*
X260575355Y-102137083D01*
X260487615Y-101972066D01*
X260415042Y-101883083D01*
X260373388Y-101832010D01*
X260373385Y-101832007D01*
X260369493Y-101827235D01*
X260364744Y-101823306D01*
X260230239Y-101712034D01*
X260230236Y-101712032D01*
X260225489Y-101708105D01*
X260061089Y-101619214D01*
X259973559Y-101592119D01*
X259914400Y-101552867D01*
X259885420Y-101484050D01*
X259874055Y-101368144D01*
X259867373Y-101299999D01*
X259863419Y-101286901D01*
X259815136Y-101126983D01*
X259813355Y-101121083D01*
X259725615Y-100956066D01*
X259712727Y-100940264D01*
X259611388Y-100816010D01*
X259611385Y-100816007D01*
X259607493Y-100811235D01*
X259602744Y-100807306D01*
X259468239Y-100696034D01*
X259468236Y-100696032D01*
X259463489Y-100692105D01*
X259299089Y-100603214D01*
X259209822Y-100575581D01*
X259126441Y-100549770D01*
X259126438Y-100549769D01*
X259120554Y-100547948D01*
X259114429Y-100547304D01*
X259114428Y-100547304D01*
X258940813Y-100529056D01*
X258940812Y-100529056D01*
X258934685Y-100528412D01*
X258816087Y-100539206D01*
X258754703Y-100544792D01*
X258754702Y-100544792D01*
X258748562Y-100545351D01*
X258742648Y-100547092D01*
X258742646Y-100547092D01*
X258620466Y-100583052D01*
X258569273Y-100598119D01*
X258403647Y-100684705D01*
X258257995Y-100801813D01*
X258137862Y-100944981D01*
X258134899Y-100950370D01*
X258134896Y-100950375D01*
X258061509Y-101083868D01*
X258047826Y-101108757D01*
X257991315Y-101286901D01*
X257970482Y-101472630D01*
X242612300Y-101472630D01*
X242595373Y-101299999D01*
X242591419Y-101286901D01*
X242543136Y-101126983D01*
X242541355Y-101121083D01*
X242453615Y-100956066D01*
X242440727Y-100940264D01*
X242339388Y-100816010D01*
X242339385Y-100816007D01*
X242335493Y-100811235D01*
X242330744Y-100807306D01*
X242196239Y-100696034D01*
X242196236Y-100696032D01*
X242191489Y-100692105D01*
X242027089Y-100603214D01*
X241937822Y-100575581D01*
X241854441Y-100549770D01*
X241854438Y-100549769D01*
X241848554Y-100547948D01*
X241842429Y-100547304D01*
X241842428Y-100547304D01*
X241668813Y-100529056D01*
X241668812Y-100529056D01*
X241662685Y-100528412D01*
X241544087Y-100539206D01*
X241482703Y-100544792D01*
X241482702Y-100544792D01*
X241476562Y-100545351D01*
X241470648Y-100547092D01*
X241470646Y-100547092D01*
X241348466Y-100583052D01*
X241297273Y-100598119D01*
X241131647Y-100684705D01*
X240985995Y-100801813D01*
X240865862Y-100944981D01*
X240862899Y-100950370D01*
X240862896Y-100950375D01*
X240789509Y-101083868D01*
X240775826Y-101108757D01*
X240719315Y-101286901D01*
X240698482Y-101472630D01*
X240698998Y-101478774D01*
X240705815Y-101559950D01*
X240714121Y-101658867D01*
X240765636Y-101838520D01*
X240851064Y-102004746D01*
X240854891Y-102009574D01*
X240854894Y-102009579D01*
X240880111Y-102041396D01*
X240906748Y-102107206D01*
X240893577Y-102176970D01*
X240877887Y-102200650D01*
X240865862Y-102214981D01*
X240775826Y-102378757D01*
X240773965Y-102384624D01*
X240773964Y-102384626D01*
X240762468Y-102420867D01*
X240719315Y-102556901D01*
X240698482Y-102742630D01*
X229564683Y-102742630D01*
X229547039Y-102728034D01*
X229547036Y-102728032D01*
X229542289Y-102724105D01*
X229377889Y-102635214D01*
X229288621Y-102607581D01*
X229205241Y-102581770D01*
X229205238Y-102581769D01*
X229199354Y-102579948D01*
X229193229Y-102579304D01*
X229193228Y-102579304D01*
X229019613Y-102561056D01*
X229019612Y-102561056D01*
X229013485Y-102560412D01*
X228908145Y-102569999D01*
X228833503Y-102576792D01*
X228833502Y-102576792D01*
X228827362Y-102577351D01*
X228821448Y-102579092D01*
X228821446Y-102579092D01*
X228768755Y-102594600D01*
X228648073Y-102630119D01*
X228642608Y-102632976D01*
X228499028Y-102708037D01*
X228482447Y-102716705D01*
X228336795Y-102833813D01*
X228216662Y-102976981D01*
X228213699Y-102982370D01*
X228213696Y-102982375D01*
X228183475Y-103037348D01*
X228126626Y-103140757D01*
X228124765Y-103146624D01*
X228124764Y-103146626D01*
X228113743Y-103181368D01*
X228070115Y-103318901D01*
X228049282Y-103504630D01*
X211176000Y-103504630D01*
X211176000Y-102234630D01*
X218854482Y-102234630D01*
X218854998Y-102240774D01*
X218868108Y-102396892D01*
X218870121Y-102420867D01*
X218921636Y-102600520D01*
X218940972Y-102638144D01*
X219003343Y-102759505D01*
X219007064Y-102766746D01*
X219010887Y-102771570D01*
X219010890Y-102771574D01*
X219071473Y-102848010D01*
X219123152Y-102913212D01*
X219127846Y-102917207D01*
X219255176Y-103025574D01*
X219265478Y-103034342D01*
X219428621Y-103125519D01*
X219606367Y-103183272D01*
X219791945Y-103205401D01*
X219798080Y-103204929D01*
X219798082Y-103204929D01*
X219854119Y-103200617D01*
X219978287Y-103191063D01*
X220158296Y-103140804D01*
X220163785Y-103138031D01*
X220163791Y-103138029D01*
X220241159Y-103098947D01*
X220325114Y-103056538D01*
X220353524Y-103034342D01*
X220405789Y-102993507D01*
X220472387Y-102941475D01*
X220476413Y-102936811D01*
X220476416Y-102936808D01*
X220560577Y-102839306D01*
X220594507Y-102799998D01*
X220686821Y-102637495D01*
X220701091Y-102594600D01*
X220730503Y-102506182D01*
X220745814Y-102460157D01*
X220763251Y-102322133D01*
X220768796Y-102278241D01*
X220768797Y-102278232D01*
X220769238Y-102274738D01*
X220769611Y-102248000D01*
X220751373Y-102061999D01*
X220747419Y-102048901D01*
X220699136Y-101888983D01*
X220697355Y-101883083D01*
X220609615Y-101718066D01*
X220604974Y-101712375D01*
X220495388Y-101578010D01*
X220495385Y-101578007D01*
X220491493Y-101573235D01*
X220486744Y-101569306D01*
X220352239Y-101458034D01*
X220352236Y-101458032D01*
X220347489Y-101454105D01*
X220183089Y-101365214D01*
X220093822Y-101337581D01*
X220010441Y-101311770D01*
X220010438Y-101311769D01*
X220004554Y-101309948D01*
X219998429Y-101309304D01*
X219998428Y-101309304D01*
X219824813Y-101291056D01*
X219824812Y-101291056D01*
X219818685Y-101290412D01*
X219713345Y-101299999D01*
X219638703Y-101306792D01*
X219638702Y-101306792D01*
X219632562Y-101307351D01*
X219626648Y-101309092D01*
X219626646Y-101309092D01*
X219504466Y-101345052D01*
X219453273Y-101360119D01*
X219287647Y-101446705D01*
X219141995Y-101563813D01*
X219021862Y-101706981D01*
X219018899Y-101712370D01*
X219018896Y-101712375D01*
X218957912Y-101823306D01*
X218931826Y-101870757D01*
X218929965Y-101876624D01*
X218929964Y-101876626D01*
X218927916Y-101883083D01*
X218875315Y-102048901D01*
X218854482Y-102234630D01*
X211176000Y-102234630D01*
X211176000Y-100105599D01*
X211188288Y-100104025D01*
X211188289Y-100104025D01*
X211193416Y-100103368D01*
X211198366Y-100101883D01*
X211402429Y-100040661D01*
X211402434Y-100040659D01*
X211407384Y-100039174D01*
X211607994Y-99940896D01*
X211789860Y-99811173D01*
X211948096Y-99653489D01*
X212078453Y-99472077D01*
X212079776Y-99473028D01*
X212126645Y-99429857D01*
X212196580Y-99417625D01*
X212262026Y-99445144D01*
X212289875Y-99476994D01*
X212349987Y-99575088D01*
X212496250Y-99743938D01*
X212668126Y-99886632D01*
X212861000Y-99999338D01*
X213069692Y-100079030D01*
X213074760Y-100080061D01*
X213074763Y-100080062D01*
X213169862Y-100099410D01*
X213288597Y-100123567D01*
X213293772Y-100123757D01*
X213293774Y-100123757D01*
X213506673Y-100131564D01*
X213506677Y-100131564D01*
X213511837Y-100131753D01*
X213516957Y-100131097D01*
X213516959Y-100131097D01*
X213728288Y-100104025D01*
X213728289Y-100104025D01*
X213733416Y-100103368D01*
X213738366Y-100101883D01*
X213942429Y-100040661D01*
X213942434Y-100040659D01*
X213947384Y-100039174D01*
X214147994Y-99940896D01*
X214329860Y-99811173D01*
X214488096Y-99653489D01*
X214618453Y-99472077D01*
X214619776Y-99473028D01*
X214666645Y-99429857D01*
X214736580Y-99417625D01*
X214802026Y-99445144D01*
X214829875Y-99476994D01*
X214889987Y-99575088D01*
X215036250Y-99743938D01*
X215208126Y-99886632D01*
X215401000Y-99999338D01*
X215609692Y-100079030D01*
X215614760Y-100080061D01*
X215614763Y-100080062D01*
X215709862Y-100099410D01*
X215828597Y-100123567D01*
X215833772Y-100123757D01*
X215833774Y-100123757D01*
X216046673Y-100131564D01*
X216046677Y-100131564D01*
X216051837Y-100131753D01*
X216056957Y-100131097D01*
X216056959Y-100131097D01*
X216268288Y-100104025D01*
X216268289Y-100104025D01*
X216273416Y-100103368D01*
X216278366Y-100101883D01*
X216482429Y-100040661D01*
X216482434Y-100040659D01*
X216487384Y-100039174D01*
X216687994Y-99940896D01*
X216869860Y-99811173D01*
X217028096Y-99653489D01*
X217158453Y-99472077D01*
X217159776Y-99473028D01*
X217206645Y-99429857D01*
X217276580Y-99417625D01*
X217342026Y-99445144D01*
X217369875Y-99476994D01*
X217429987Y-99575088D01*
X217576250Y-99743938D01*
X217748126Y-99886632D01*
X217941000Y-99999338D01*
X218149692Y-100079030D01*
X218154760Y-100080061D01*
X218154763Y-100080062D01*
X218249862Y-100099410D01*
X218368597Y-100123567D01*
X218373772Y-100123757D01*
X218373774Y-100123757D01*
X218586673Y-100131564D01*
X218586677Y-100131564D01*
X218591837Y-100131753D01*
X218596957Y-100131097D01*
X218596959Y-100131097D01*
X218808288Y-100104025D01*
X218808289Y-100104025D01*
X218813416Y-100103368D01*
X218818366Y-100101883D01*
X219022429Y-100040661D01*
X219022434Y-100040659D01*
X219027384Y-100039174D01*
X219227994Y-99940896D01*
X219409860Y-99811173D01*
X219568096Y-99653489D01*
X219698453Y-99472077D01*
X219699776Y-99473028D01*
X219746645Y-99429857D01*
X219816580Y-99417625D01*
X219882026Y-99445144D01*
X219909875Y-99476994D01*
X219969987Y-99575088D01*
X220116250Y-99743938D01*
X220288126Y-99886632D01*
X220481000Y-99999338D01*
X220689692Y-100079030D01*
X220694760Y-100080061D01*
X220694763Y-100080062D01*
X220789862Y-100099410D01*
X220908597Y-100123567D01*
X220913772Y-100123757D01*
X220913774Y-100123757D01*
X221126673Y-100131564D01*
X221126677Y-100131564D01*
X221131837Y-100131753D01*
X221136957Y-100131097D01*
X221136959Y-100131097D01*
X221348288Y-100104025D01*
X221348289Y-100104025D01*
X221353416Y-100103368D01*
X221358366Y-100101883D01*
X221562429Y-100040661D01*
X221562434Y-100040659D01*
X221567384Y-100039174D01*
X221767994Y-99940896D01*
X221949860Y-99811173D01*
X222108096Y-99653489D01*
X222238453Y-99472077D01*
X222239776Y-99473028D01*
X222286645Y-99429857D01*
X222356580Y-99417625D01*
X222422026Y-99445144D01*
X222449875Y-99476994D01*
X222509987Y-99575088D01*
X222656250Y-99743938D01*
X222828126Y-99886632D01*
X223021000Y-99999338D01*
X223229692Y-100079030D01*
X223234760Y-100080061D01*
X223234763Y-100080062D01*
X223329862Y-100099410D01*
X223448597Y-100123567D01*
X223453772Y-100123757D01*
X223453774Y-100123757D01*
X223666673Y-100131564D01*
X223666677Y-100131564D01*
X223671837Y-100131753D01*
X223676957Y-100131097D01*
X223676959Y-100131097D01*
X223888288Y-100104025D01*
X223888289Y-100104025D01*
X223893416Y-100103368D01*
X223898366Y-100101883D01*
X224102429Y-100040661D01*
X224102434Y-100040659D01*
X224107384Y-100039174D01*
X224307994Y-99940896D01*
X224489860Y-99811173D01*
X224648096Y-99653489D01*
X224778453Y-99472077D01*
X224779776Y-99473028D01*
X224826645Y-99429857D01*
X224896580Y-99417625D01*
X224962026Y-99445144D01*
X224989875Y-99476994D01*
X225049987Y-99575088D01*
X225196250Y-99743938D01*
X225368126Y-99886632D01*
X225561000Y-99999338D01*
X225769692Y-100079030D01*
X225774760Y-100080061D01*
X225774763Y-100080062D01*
X225869862Y-100099410D01*
X225988597Y-100123567D01*
X225993772Y-100123757D01*
X225993774Y-100123757D01*
X226206673Y-100131564D01*
X226206677Y-100131564D01*
X226211837Y-100131753D01*
X226216957Y-100131097D01*
X226216959Y-100131097D01*
X226428288Y-100104025D01*
X226428289Y-100104025D01*
X226433416Y-100103368D01*
X226438366Y-100101883D01*
X226642429Y-100040661D01*
X226642434Y-100040659D01*
X226647384Y-100039174D01*
X226847994Y-99940896D01*
X227029860Y-99811173D01*
X227188096Y-99653489D01*
X227318453Y-99472077D01*
X227319640Y-99472930D01*
X227366960Y-99429362D01*
X227436897Y-99417145D01*
X227502338Y-99444678D01*
X227530166Y-99476511D01*
X227587694Y-99570388D01*
X227593777Y-99578699D01*
X227733213Y-99739667D01*
X227740580Y-99746883D01*
X227904434Y-99882916D01*
X227912881Y-99888831D01*
X228096756Y-99996279D01*
X228106042Y-100000729D01*
X228305001Y-100076703D01*
X228314899Y-100079579D01*
X228418250Y-100100606D01*
X228432299Y-100099410D01*
X228436000Y-100089065D01*
X228436000Y-98642000D01*
X228456002Y-98573879D01*
X228509658Y-98527386D01*
X228562000Y-98516000D01*
X228818000Y-98516000D01*
X228886121Y-98536002D01*
X228932614Y-98589658D01*
X228944000Y-98642000D01*
X228944000Y-100088517D01*
X228948064Y-100102359D01*
X228961478Y-100104393D01*
X228968184Y-100103534D01*
X228978262Y-100101392D01*
X229182255Y-100040191D01*
X229191842Y-100036433D01*
X229383095Y-99942739D01*
X229391945Y-99937464D01*
X229565328Y-99813792D01*
X229573200Y-99807139D01*
X229724052Y-99656812D01*
X229730730Y-99648965D01*
X229858022Y-99471819D01*
X229859279Y-99472722D01*
X229906373Y-99429362D01*
X229976311Y-99417145D01*
X230041751Y-99444678D01*
X230069579Y-99476511D01*
X230129987Y-99575088D01*
X230276250Y-99743938D01*
X230448126Y-99886632D01*
X230641000Y-99999338D01*
X230849692Y-100079030D01*
X230854760Y-100080061D01*
X230854763Y-100080062D01*
X230949862Y-100099410D01*
X231068597Y-100123567D01*
X231073772Y-100123757D01*
X231073774Y-100123757D01*
X231286673Y-100131564D01*
X231286677Y-100131564D01*
X231291837Y-100131753D01*
X231296957Y-100131097D01*
X231296959Y-100131097D01*
X231508288Y-100104025D01*
X231508289Y-100104025D01*
X231513416Y-100103368D01*
X231518366Y-100101883D01*
X231722429Y-100040661D01*
X231722434Y-100040659D01*
X231727384Y-100039174D01*
X231927994Y-99940896D01*
X232109860Y-99811173D01*
X232268096Y-99653489D01*
X232398453Y-99472077D01*
X232399776Y-99473028D01*
X232446645Y-99429857D01*
X232516580Y-99417625D01*
X232582026Y-99445144D01*
X232609875Y-99476994D01*
X232669987Y-99575088D01*
X232816250Y-99743938D01*
X232988126Y-99886632D01*
X233181000Y-99999338D01*
X233389692Y-100079030D01*
X233394760Y-100080061D01*
X233394763Y-100080062D01*
X233489862Y-100099410D01*
X233608597Y-100123567D01*
X233613772Y-100123757D01*
X233613774Y-100123757D01*
X233826673Y-100131564D01*
X233826677Y-100131564D01*
X233831837Y-100131753D01*
X233836957Y-100131097D01*
X233836959Y-100131097D01*
X234048288Y-100104025D01*
X234048289Y-100104025D01*
X234053416Y-100103368D01*
X234058366Y-100101883D01*
X234262429Y-100040661D01*
X234262434Y-100040659D01*
X234267384Y-100039174D01*
X234467994Y-99940896D01*
X234649860Y-99811173D01*
X234808096Y-99653489D01*
X234938453Y-99472077D01*
X234939776Y-99473028D01*
X234986645Y-99429857D01*
X235056580Y-99417625D01*
X235122026Y-99445144D01*
X235149875Y-99476994D01*
X235209987Y-99575088D01*
X235356250Y-99743938D01*
X235528126Y-99886632D01*
X235721000Y-99999338D01*
X235929692Y-100079030D01*
X235934760Y-100080061D01*
X235934763Y-100080062D01*
X236029862Y-100099410D01*
X236148597Y-100123567D01*
X236153772Y-100123757D01*
X236153774Y-100123757D01*
X236366673Y-100131564D01*
X236366677Y-100131564D01*
X236371837Y-100131753D01*
X236376957Y-100131097D01*
X236376959Y-100131097D01*
X236588288Y-100104025D01*
X236588289Y-100104025D01*
X236593416Y-100103368D01*
X236598366Y-100101883D01*
X236802429Y-100040661D01*
X236802434Y-100040659D01*
X236807384Y-100039174D01*
X237007994Y-99940896D01*
X237189860Y-99811173D01*
X237348096Y-99653489D01*
X237478453Y-99472077D01*
X237479776Y-99473028D01*
X237526645Y-99429857D01*
X237596580Y-99417625D01*
X237662026Y-99445144D01*
X237689875Y-99476994D01*
X237749987Y-99575088D01*
X237896250Y-99743938D01*
X238068126Y-99886632D01*
X238261000Y-99999338D01*
X238469692Y-100079030D01*
X238474760Y-100080061D01*
X238474763Y-100080062D01*
X238569862Y-100099410D01*
X238688597Y-100123567D01*
X238693772Y-100123757D01*
X238693774Y-100123757D01*
X238906673Y-100131564D01*
X238906677Y-100131564D01*
X238911837Y-100131753D01*
X238916957Y-100131097D01*
X238916959Y-100131097D01*
X239128288Y-100104025D01*
X239128289Y-100104025D01*
X239133416Y-100103368D01*
X239138366Y-100101883D01*
X239342429Y-100040661D01*
X239342434Y-100040659D01*
X239347384Y-100039174D01*
X239547994Y-99940896D01*
X239729860Y-99811173D01*
X239888096Y-99653489D01*
X240018453Y-99472077D01*
X240019776Y-99473028D01*
X240066645Y-99429857D01*
X240136580Y-99417625D01*
X240202026Y-99445144D01*
X240229875Y-99476994D01*
X240289987Y-99575088D01*
X240436250Y-99743938D01*
X240608126Y-99886632D01*
X240801000Y-99999338D01*
X241009692Y-100079030D01*
X241014760Y-100080061D01*
X241014763Y-100080062D01*
X241109862Y-100099410D01*
X241228597Y-100123567D01*
X241233772Y-100123757D01*
X241233774Y-100123757D01*
X241446673Y-100131564D01*
X241446677Y-100131564D01*
X241451837Y-100131753D01*
X241456957Y-100131097D01*
X241456959Y-100131097D01*
X241668288Y-100104025D01*
X241668289Y-100104025D01*
X241673416Y-100103368D01*
X241678366Y-100101883D01*
X241882429Y-100040661D01*
X241882434Y-100040659D01*
X241887384Y-100039174D01*
X242087994Y-99940896D01*
X242269860Y-99811173D01*
X242428096Y-99653489D01*
X242558453Y-99472077D01*
X242559776Y-99473028D01*
X242606645Y-99429857D01*
X242676580Y-99417625D01*
X242742026Y-99445144D01*
X242769875Y-99476994D01*
X242829987Y-99575088D01*
X242976250Y-99743938D01*
X243148126Y-99886632D01*
X243341000Y-99999338D01*
X243549692Y-100079030D01*
X243554760Y-100080061D01*
X243554763Y-100080062D01*
X243649862Y-100099410D01*
X243768597Y-100123567D01*
X243773772Y-100123757D01*
X243773774Y-100123757D01*
X243986673Y-100131564D01*
X243986677Y-100131564D01*
X243991837Y-100131753D01*
X243996957Y-100131097D01*
X243996959Y-100131097D01*
X244208288Y-100104025D01*
X244208289Y-100104025D01*
X244213416Y-100103368D01*
X244218366Y-100101883D01*
X244422429Y-100040661D01*
X244422434Y-100040659D01*
X244427384Y-100039174D01*
X244627994Y-99940896D01*
X244809860Y-99811173D01*
X244968096Y-99653489D01*
X245098453Y-99472077D01*
X245099776Y-99473028D01*
X245146645Y-99429857D01*
X245216580Y-99417625D01*
X245282026Y-99445144D01*
X245309875Y-99476994D01*
X245369987Y-99575088D01*
X245516250Y-99743938D01*
X245688126Y-99886632D01*
X245881000Y-99999338D01*
X246089692Y-100079030D01*
X246094760Y-100080061D01*
X246094763Y-100080062D01*
X246189862Y-100099410D01*
X246308597Y-100123567D01*
X246313772Y-100123757D01*
X246313774Y-100123757D01*
X246526673Y-100131564D01*
X246526677Y-100131564D01*
X246531837Y-100131753D01*
X246536957Y-100131097D01*
X246536959Y-100131097D01*
X246748288Y-100104025D01*
X246748289Y-100104025D01*
X246753416Y-100103368D01*
X246758366Y-100101883D01*
X246962429Y-100040661D01*
X246962434Y-100040659D01*
X246967384Y-100039174D01*
X247167994Y-99940896D01*
X247349860Y-99811173D01*
X247508096Y-99653489D01*
X247638453Y-99472077D01*
X247639776Y-99473028D01*
X247686645Y-99429857D01*
X247756580Y-99417625D01*
X247822026Y-99445144D01*
X247849875Y-99476994D01*
X247909987Y-99575088D01*
X248056250Y-99743938D01*
X248228126Y-99886632D01*
X248421000Y-99999338D01*
X248629692Y-100079030D01*
X248634760Y-100080061D01*
X248634763Y-100080062D01*
X248729862Y-100099410D01*
X248848597Y-100123567D01*
X248853772Y-100123757D01*
X248853774Y-100123757D01*
X249066673Y-100131564D01*
X249066677Y-100131564D01*
X249071837Y-100131753D01*
X249076957Y-100131097D01*
X249076959Y-100131097D01*
X249288288Y-100104025D01*
X249288289Y-100104025D01*
X249293416Y-100103368D01*
X249298366Y-100101883D01*
X249502429Y-100040661D01*
X249502434Y-100040659D01*
X249507384Y-100039174D01*
X249707994Y-99940896D01*
X249889860Y-99811173D01*
X250048096Y-99653489D01*
X250178453Y-99472077D01*
X250179776Y-99473028D01*
X250226645Y-99429857D01*
X250296580Y-99417625D01*
X250362026Y-99445144D01*
X250389875Y-99476994D01*
X250449987Y-99575088D01*
X250596250Y-99743938D01*
X250768126Y-99886632D01*
X250961000Y-99999338D01*
X251169692Y-100079030D01*
X251174760Y-100080061D01*
X251174763Y-100080062D01*
X251269862Y-100099410D01*
X251388597Y-100123567D01*
X251393772Y-100123757D01*
X251393774Y-100123757D01*
X251606673Y-100131564D01*
X251606677Y-100131564D01*
X251611837Y-100131753D01*
X251616957Y-100131097D01*
X251616959Y-100131097D01*
X251828288Y-100104025D01*
X251828289Y-100104025D01*
X251833416Y-100103368D01*
X251838366Y-100101883D01*
X252042429Y-100040661D01*
X252042434Y-100040659D01*
X252047384Y-100039174D01*
X252247994Y-99940896D01*
X252429860Y-99811173D01*
X252588096Y-99653489D01*
X252718453Y-99472077D01*
X252719776Y-99473028D01*
X252766645Y-99429857D01*
X252836580Y-99417625D01*
X252902026Y-99445144D01*
X252929875Y-99476994D01*
X252989987Y-99575088D01*
X253136250Y-99743938D01*
X253308126Y-99886632D01*
X253501000Y-99999338D01*
X253709692Y-100079030D01*
X253714760Y-100080061D01*
X253714763Y-100080062D01*
X253809862Y-100099410D01*
X253928597Y-100123567D01*
X253933772Y-100123757D01*
X253933774Y-100123757D01*
X254146673Y-100131564D01*
X254146677Y-100131564D01*
X254151837Y-100131753D01*
X254156957Y-100131097D01*
X254156959Y-100131097D01*
X254368288Y-100104025D01*
X254368289Y-100104025D01*
X254373416Y-100103368D01*
X254378366Y-100101883D01*
X254582429Y-100040661D01*
X254582434Y-100040659D01*
X254587384Y-100039174D01*
X254787994Y-99940896D01*
X254969860Y-99811173D01*
X255128096Y-99653489D01*
X255258453Y-99472077D01*
X255259776Y-99473028D01*
X255306645Y-99429857D01*
X255376580Y-99417625D01*
X255442026Y-99445144D01*
X255469875Y-99476994D01*
X255529987Y-99575088D01*
X255676250Y-99743938D01*
X255848126Y-99886632D01*
X256041000Y-99999338D01*
X256249692Y-100079030D01*
X256254760Y-100080061D01*
X256254763Y-100080062D01*
X256349862Y-100099410D01*
X256468597Y-100123567D01*
X256473772Y-100123757D01*
X256473774Y-100123757D01*
X256686673Y-100131564D01*
X256686677Y-100131564D01*
X256691837Y-100131753D01*
X256696957Y-100131097D01*
X256696959Y-100131097D01*
X256908288Y-100104025D01*
X256908289Y-100104025D01*
X256913416Y-100103368D01*
X256918366Y-100101883D01*
X257122429Y-100040661D01*
X257122434Y-100040659D01*
X257127384Y-100039174D01*
X257327994Y-99940896D01*
X257509860Y-99811173D01*
X257668096Y-99653489D01*
X257798453Y-99472077D01*
X257811995Y-99444678D01*
X257895136Y-99276453D01*
X257895137Y-99276451D01*
X257897430Y-99271811D01*
X257948425Y-99103968D01*
X257960865Y-99063023D01*
X257960865Y-99063021D01*
X257962370Y-99058069D01*
X257991529Y-98836590D01*
X257993156Y-98770000D01*
X257974852Y-98547361D01*
X257920431Y-98330702D01*
X257831354Y-98125840D01*
X257744588Y-97991720D01*
X257712822Y-97942617D01*
X257712820Y-97942614D01*
X257710014Y-97938277D01*
X257706540Y-97934459D01*
X257706533Y-97934450D01*
X257663174Y-97886799D01*
X257632122Y-97822953D01*
X257640518Y-97752455D01*
X257685695Y-97697686D01*
X257756368Y-97676000D01*
X259535217Y-97676000D01*
X259603338Y-97696002D01*
G37*
G04 #@! TD.AperFunction*
G04 #@! TA.AperFunction,Conductor*
G36*
X206960974Y-97696002D02*
G01*
X207007467Y-97749658D01*
X207018116Y-97815607D01*
X207012369Y-97868512D01*
X207012000Y-97875328D01*
X207012000Y-98497885D01*
X207016475Y-98513124D01*
X207017865Y-98514329D01*
X207025548Y-98516000D01*
X208498000Y-98516000D01*
X208566121Y-98536002D01*
X208612614Y-98589658D01*
X208624000Y-98642000D01*
X208624000Y-100109884D01*
X208628475Y-100125123D01*
X208629865Y-100126328D01*
X208637548Y-100127999D01*
X209264669Y-100127999D01*
X209271490Y-100127629D01*
X209322352Y-100122105D01*
X209337604Y-100118479D01*
X209458054Y-100073324D01*
X209473649Y-100064786D01*
X209575724Y-99988285D01*
X209588285Y-99975724D01*
X209664786Y-99873649D01*
X209673324Y-99858054D01*
X209714225Y-99748952D01*
X209756867Y-99692188D01*
X209823428Y-99667488D01*
X209892777Y-99682696D01*
X209927444Y-99710684D01*
X209952865Y-99740031D01*
X209952869Y-99740035D01*
X209956250Y-99743938D01*
X210128126Y-99886632D01*
X210321000Y-99999338D01*
X210529692Y-100079030D01*
X210534760Y-100080061D01*
X210534763Y-100080062D01*
X210642017Y-100101883D01*
X210748597Y-100123567D01*
X210753772Y-100123757D01*
X210753774Y-100123757D01*
X210966673Y-100131564D01*
X210966677Y-100131564D01*
X210971837Y-100131753D01*
X210976957Y-100131097D01*
X210976959Y-100131097D01*
X211188288Y-100104025D01*
X211188289Y-100104025D01*
X211193416Y-100103368D01*
X211198366Y-100101883D01*
X211402429Y-100040661D01*
X211402434Y-100040659D01*
X211407384Y-100039174D01*
X211607994Y-99940896D01*
X211684000Y-99886682D01*
X211684000Y-107219703D01*
X211663998Y-107287824D01*
X211610342Y-107334317D01*
X211540068Y-107344421D01*
X211497109Y-107330013D01*
X211488445Y-107325231D01*
X211477589Y-107319238D01*
X211472720Y-107317514D01*
X211472716Y-107317512D01*
X211271887Y-107246395D01*
X211271883Y-107246394D01*
X211267012Y-107244669D01*
X211261919Y-107243762D01*
X211261916Y-107243761D01*
X211052173Y-107206400D01*
X211052167Y-107206399D01*
X211047084Y-107205494D01*
X210973252Y-107204592D01*
X210828881Y-107202828D01*
X210828879Y-107202828D01*
X210823711Y-107202765D01*
X210602891Y-107236555D01*
X210390556Y-107305957D01*
X210192407Y-107409107D01*
X210188274Y-107412210D01*
X210188271Y-107412212D01*
X210105250Y-107474546D01*
X210013765Y-107543235D01*
X210010193Y-107546973D01*
X209932698Y-107628066D01*
X209871174Y-107663495D01*
X209800262Y-107660038D01*
X209742476Y-107618792D01*
X209723623Y-107585244D01*
X209682124Y-107474546D01*
X209673586Y-107458951D01*
X209597085Y-107356876D01*
X209584524Y-107344315D01*
X209482449Y-107267814D01*
X209466854Y-107259276D01*
X209346406Y-107214122D01*
X209331151Y-107210495D01*
X209280286Y-107204969D01*
X209273472Y-107204600D01*
X208650915Y-107204600D01*
X208635676Y-107209075D01*
X208634471Y-107210465D01*
X208632800Y-107218148D01*
X208632800Y-109902484D01*
X208637275Y-109917723D01*
X208638665Y-109918928D01*
X208646348Y-109920599D01*
X209273469Y-109920599D01*
X209280290Y-109920229D01*
X209331152Y-109914705D01*
X209346404Y-109911079D01*
X209466854Y-109865924D01*
X209482449Y-109857386D01*
X209584524Y-109780885D01*
X209597085Y-109768324D01*
X209673586Y-109666249D01*
X209682124Y-109650654D01*
X209723025Y-109541552D01*
X209765667Y-109484788D01*
X209832228Y-109460088D01*
X209901577Y-109475296D01*
X209936244Y-109503284D01*
X209961665Y-109532631D01*
X209961669Y-109532635D01*
X209965050Y-109536538D01*
X210136926Y-109679232D01*
X210329800Y-109791938D01*
X210538492Y-109871630D01*
X210543560Y-109872661D01*
X210543563Y-109872662D01*
X210650817Y-109894483D01*
X210757397Y-109916167D01*
X210762572Y-109916357D01*
X210762574Y-109916357D01*
X210975473Y-109924164D01*
X210975477Y-109924164D01*
X210980637Y-109924353D01*
X210985757Y-109923697D01*
X210985759Y-109923697D01*
X211197088Y-109896625D01*
X211197089Y-109896625D01*
X211202216Y-109895968D01*
X211207166Y-109894483D01*
X211411229Y-109833261D01*
X211411234Y-109833259D01*
X211416184Y-109831774D01*
X211502571Y-109789454D01*
X211572542Y-109777448D01*
X211637899Y-109805178D01*
X211677889Y-109863841D01*
X211684000Y-109902606D01*
X211684000Y-119414408D01*
X211663998Y-119482529D01*
X211610342Y-119529022D01*
X211540068Y-119539126D01*
X211477011Y-119510931D01*
X211376326Y-119426446D01*
X211370928Y-119423479D01*
X211370923Y-119423475D01*
X211208408Y-119334133D01*
X211208409Y-119334133D01*
X211203013Y-119331167D01*
X211197146Y-119329306D01*
X211197144Y-119329305D01*
X211020364Y-119273227D01*
X211020363Y-119273227D01*
X211014494Y-119271365D01*
X210860573Y-119254100D01*
X210754031Y-119254100D01*
X210750975Y-119254400D01*
X210750968Y-119254400D01*
X210692460Y-119260137D01*
X210606967Y-119268520D01*
X210601066Y-119270302D01*
X210601064Y-119270302D01*
X210527747Y-119292438D01*
X210417631Y-119325684D01*
X210243004Y-119418534D01*
X210164539Y-119482529D01*
X210094513Y-119539640D01*
X210094510Y-119539643D01*
X210089738Y-119543535D01*
X210085811Y-119548282D01*
X210085809Y-119548284D01*
X209967599Y-119691175D01*
X209967597Y-119691179D01*
X209963670Y-119695925D01*
X209869602Y-119869899D01*
X209811118Y-120058832D01*
X209790445Y-120255525D01*
X209808370Y-120452488D01*
X209864210Y-120642219D01*
X209955840Y-120817490D01*
X210079768Y-120971625D01*
X210231274Y-121098754D01*
X210236672Y-121101721D01*
X210236677Y-121101725D01*
X210379980Y-121180505D01*
X210404587Y-121194033D01*
X210410454Y-121195894D01*
X210410456Y-121195895D01*
X210556267Y-121242149D01*
X210593106Y-121253835D01*
X210747027Y-121271100D01*
X210853569Y-121271100D01*
X210856625Y-121270800D01*
X210856632Y-121270800D01*
X210915140Y-121265063D01*
X211000633Y-121256680D01*
X211006534Y-121254898D01*
X211006536Y-121254898D01*
X211079853Y-121232762D01*
X211189969Y-121199516D01*
X211364596Y-121106666D01*
X211478364Y-121013879D01*
X211543796Y-120986325D01*
X211613737Y-120998520D01*
X211665982Y-121046593D01*
X211684000Y-121111522D01*
X211684000Y-129414408D01*
X211663998Y-129482529D01*
X211610342Y-129529022D01*
X211540068Y-129539126D01*
X211477011Y-129510931D01*
X211376326Y-129426446D01*
X211370928Y-129423479D01*
X211370923Y-129423475D01*
X211208408Y-129334133D01*
X211208409Y-129334133D01*
X211203013Y-129331167D01*
X211197146Y-129329306D01*
X211197144Y-129329305D01*
X211020364Y-129273227D01*
X211020363Y-129273227D01*
X211014494Y-129271365D01*
X210860573Y-129254100D01*
X210754031Y-129254100D01*
X210750975Y-129254400D01*
X210750968Y-129254400D01*
X210692460Y-129260137D01*
X210606967Y-129268520D01*
X210601066Y-129270302D01*
X210601064Y-129270302D01*
X210527747Y-129292438D01*
X210417631Y-129325684D01*
X210243004Y-129418534D01*
X210164539Y-129482529D01*
X210094513Y-129539640D01*
X210094510Y-129539643D01*
X210089738Y-129543535D01*
X210085811Y-129548282D01*
X210085809Y-129548284D01*
X209967599Y-129691175D01*
X209967597Y-129691179D01*
X209963670Y-129695925D01*
X209869602Y-129869899D01*
X209811118Y-130058832D01*
X209790445Y-130255525D01*
X209808370Y-130452488D01*
X209810108Y-130458394D01*
X209810109Y-130458398D01*
X209824097Y-130505925D01*
X209864210Y-130642219D01*
X209867063Y-130647677D01*
X209867065Y-130647681D01*
X209871049Y-130655301D01*
X209955840Y-130817490D01*
X210079768Y-130971625D01*
X210231274Y-131098754D01*
X210236672Y-131101721D01*
X210236677Y-131101725D01*
X210362655Y-131170981D01*
X210404587Y-131194033D01*
X210410454Y-131195894D01*
X210410456Y-131195895D01*
X210587236Y-131251973D01*
X210593106Y-131253835D01*
X210747027Y-131271100D01*
X210853569Y-131271100D01*
X210856625Y-131270800D01*
X210856632Y-131270800D01*
X210915140Y-131265063D01*
X211000633Y-131256680D01*
X211006534Y-131254898D01*
X211006536Y-131254898D01*
X211079853Y-131232762D01*
X211189969Y-131199516D01*
X211364596Y-131106666D01*
X211478364Y-131013879D01*
X211543796Y-130986325D01*
X211613737Y-130998520D01*
X211665982Y-131046593D01*
X211684000Y-131111522D01*
X211684000Y-149366000D01*
X211663998Y-149434121D01*
X211610342Y-149480614D01*
X211558000Y-149492000D01*
X203174000Y-149492000D01*
X203105879Y-149471998D01*
X203059386Y-149418342D01*
X203048000Y-149366000D01*
X203048000Y-148457675D01*
X203068002Y-148389554D01*
X203121658Y-148343061D01*
X203195554Y-148333532D01*
X203311137Y-148353600D01*
X203314921Y-148354257D01*
X203318758Y-148354448D01*
X203398578Y-148358422D01*
X203398586Y-148358422D01*
X203400149Y-148358500D01*
X203568512Y-148358500D01*
X203570780Y-148358335D01*
X203570792Y-148358335D01*
X203701884Y-148348823D01*
X203769004Y-148343953D01*
X203773459Y-148342969D01*
X203773462Y-148342969D01*
X204027912Y-148286791D01*
X204027916Y-148286790D01*
X204032372Y-148285806D01*
X204195240Y-148224101D01*
X204280318Y-148191868D01*
X204280321Y-148191867D01*
X204284588Y-148190250D01*
X204520368Y-148059286D01*
X204734773Y-147895657D01*
X204746487Y-147883675D01*
X204920117Y-147706060D01*
X204923312Y-147702792D01*
X205082034Y-147484730D01*
X205155939Y-147344259D01*
X205205490Y-147250079D01*
X205205493Y-147250073D01*
X205207615Y-147246039D01*
X205297425Y-146991720D01*
X205349581Y-146727100D01*
X205349808Y-146722544D01*
X205362764Y-146462292D01*
X205362764Y-146462286D01*
X205362991Y-146457723D01*
X205337375Y-146189231D01*
X205292042Y-146003967D01*
X205274355Y-145931688D01*
X205273269Y-145927250D01*
X205172015Y-145677267D01*
X205035735Y-145444518D01*
X204917928Y-145297208D01*
X204870136Y-145237447D01*
X204870135Y-145237445D01*
X204867284Y-145233881D01*
X204670191Y-145049766D01*
X204448584Y-144896032D01*
X204444501Y-144894001D01*
X204444498Y-144893999D01*
X204279606Y-144811967D01*
X204207106Y-144775899D01*
X204202772Y-144774478D01*
X204202769Y-144774477D01*
X203955147Y-144693302D01*
X203955141Y-144693301D01*
X203950814Y-144691882D01*
X203946322Y-144691102D01*
X203688860Y-144646399D01*
X203688852Y-144646398D01*
X203685079Y-144645743D01*
X203673817Y-144645182D01*
X203601422Y-144641578D01*
X203601414Y-144641578D01*
X203599851Y-144641500D01*
X203431488Y-144641500D01*
X203429220Y-144641665D01*
X203429208Y-144641665D01*
X203298116Y-144651177D01*
X203230996Y-144656047D01*
X203226541Y-144657031D01*
X203226538Y-144657031D01*
X202972088Y-144713209D01*
X202972084Y-144713210D01*
X202967628Y-144714194D01*
X202841520Y-144761972D01*
X202719682Y-144808132D01*
X202719679Y-144808133D01*
X202715412Y-144809750D01*
X202479632Y-144940714D01*
X202265227Y-145104343D01*
X202076688Y-145297208D01*
X201917966Y-145515270D01*
X201915844Y-145519304D01*
X201794510Y-145749921D01*
X201794507Y-145749927D01*
X201792385Y-145753961D01*
X201790865Y-145758266D01*
X201790863Y-145758270D01*
X201704098Y-146003967D01*
X201702575Y-146008280D01*
X201650419Y-146272900D01*
X201650192Y-146277453D01*
X201650192Y-146277456D01*
X201637671Y-146528986D01*
X201637009Y-146542277D01*
X201637444Y-146546833D01*
X201638703Y-146560033D01*
X201625261Y-146629746D01*
X201576264Y-146681124D01*
X201513273Y-146698000D01*
X200888000Y-146698000D01*
X200819879Y-146677998D01*
X200773386Y-146624342D01*
X200762000Y-146572000D01*
X200762000Y-131330000D01*
X200782002Y-131261879D01*
X200835658Y-131215386D01*
X200888000Y-131204000D01*
X203307147Y-131204000D01*
X203375268Y-131224002D01*
X203421761Y-131277658D01*
X203431865Y-131347932D01*
X203427249Y-131368099D01*
X203396227Y-131465893D01*
X203381315Y-131512901D01*
X203360482Y-131698630D01*
X203376121Y-131884867D01*
X203427636Y-132064520D01*
X203513064Y-132230746D01*
X203516887Y-132235570D01*
X203516890Y-132235574D01*
X203622170Y-132368402D01*
X203629152Y-132377212D01*
X203633846Y-132381207D01*
X203666819Y-132409269D01*
X203771478Y-132498342D01*
X203934621Y-132589519D01*
X204112367Y-132647272D01*
X204297945Y-132669401D01*
X204304080Y-132668929D01*
X204304082Y-132668929D01*
X204360119Y-132664617D01*
X204484287Y-132655063D01*
X204664296Y-132604804D01*
X204669785Y-132602031D01*
X204669791Y-132602029D01*
X204747159Y-132562947D01*
X204831114Y-132520538D01*
X204859524Y-132498342D01*
X204883486Y-132479621D01*
X204978387Y-132405475D01*
X204982413Y-132400811D01*
X204982416Y-132400808D01*
X205096480Y-132268663D01*
X205100507Y-132263998D01*
X205192821Y-132101495D01*
X205207091Y-132058600D01*
X205249867Y-131930009D01*
X205251814Y-131924157D01*
X205257553Y-131878727D01*
X205274796Y-131742241D01*
X205274797Y-131742232D01*
X205275238Y-131738738D01*
X205275611Y-131712000D01*
X205257373Y-131525999D01*
X205255592Y-131520100D01*
X205255591Y-131520095D01*
X205209193Y-131366418D01*
X205208652Y-131295423D01*
X205246580Y-131235407D01*
X205310934Y-131205423D01*
X205329815Y-131204000D01*
X205588000Y-131204000D01*
X205588000Y-129227422D01*
X205608002Y-129159301D01*
X205661658Y-129112808D01*
X205728918Y-129102308D01*
X205821945Y-129113401D01*
X205828080Y-129112929D01*
X205828082Y-129112929D01*
X205884119Y-129108617D01*
X206008287Y-129099063D01*
X206188296Y-129048804D01*
X206193785Y-129046031D01*
X206193791Y-129046029D01*
X206271159Y-129006947D01*
X206355114Y-128964538D01*
X206502387Y-128849475D01*
X206506413Y-128844811D01*
X206506416Y-128844808D01*
X206620480Y-128712663D01*
X206624507Y-128707998D01*
X206716821Y-128545495D01*
X206775814Y-128368157D01*
X206781203Y-128325501D01*
X206798796Y-128186241D01*
X206798797Y-128186232D01*
X206799238Y-128182738D01*
X206799611Y-128156000D01*
X206781373Y-127969999D01*
X206727355Y-127791083D01*
X206639615Y-127626066D01*
X206635720Y-127621290D01*
X206525388Y-127486010D01*
X206525385Y-127486007D01*
X206521493Y-127481235D01*
X206516744Y-127477306D01*
X206382239Y-127366034D01*
X206382236Y-127366032D01*
X206377489Y-127362105D01*
X206213089Y-127273214D01*
X206174785Y-127261357D01*
X206115626Y-127222104D01*
X206087080Y-127157100D01*
X206098209Y-127086981D01*
X206145481Y-127034010D01*
X206178167Y-127019632D01*
X206182367Y-127018460D01*
X206182373Y-127018458D01*
X206188296Y-127016804D01*
X206193785Y-127014031D01*
X206193791Y-127014029D01*
X206271159Y-126974947D01*
X206355114Y-126932538D01*
X206502387Y-126817475D01*
X206506413Y-126812811D01*
X206506416Y-126812808D01*
X206620480Y-126680663D01*
X206624507Y-126675998D01*
X206716821Y-126513495D01*
X206775814Y-126336157D01*
X206781203Y-126293501D01*
X206798796Y-126154241D01*
X206798797Y-126154232D01*
X206799238Y-126150738D01*
X206799611Y-126124000D01*
X206781373Y-125937999D01*
X206727355Y-125759083D01*
X206639615Y-125594066D01*
X206635720Y-125589290D01*
X206525388Y-125454010D01*
X206525385Y-125454007D01*
X206521493Y-125449235D01*
X206516744Y-125445306D01*
X206382239Y-125334034D01*
X206382236Y-125334032D01*
X206377489Y-125330105D01*
X206213089Y-125241214D01*
X206174785Y-125229357D01*
X206115626Y-125190104D01*
X206087080Y-125125100D01*
X206098209Y-125054981D01*
X206145481Y-125002010D01*
X206178167Y-124987632D01*
X206182367Y-124986460D01*
X206182373Y-124986458D01*
X206188296Y-124984804D01*
X206193785Y-124982031D01*
X206193791Y-124982029D01*
X206271159Y-124942947D01*
X206355114Y-124900538D01*
X206502387Y-124785475D01*
X206506413Y-124780811D01*
X206506416Y-124780808D01*
X206620480Y-124648663D01*
X206624507Y-124643998D01*
X206716821Y-124481495D01*
X206775814Y-124304157D01*
X206781203Y-124261501D01*
X206798796Y-124122241D01*
X206798797Y-124122232D01*
X206799238Y-124118738D01*
X206799611Y-124092000D01*
X206781373Y-123905999D01*
X206727355Y-123727083D01*
X206639615Y-123562066D01*
X206635720Y-123557290D01*
X206525388Y-123422010D01*
X206525385Y-123422007D01*
X206521493Y-123417235D01*
X206378225Y-123298714D01*
X206338487Y-123239880D01*
X206336864Y-123168902D01*
X206373873Y-123108315D01*
X206380966Y-123102340D01*
X206502387Y-123007475D01*
X206506413Y-123002811D01*
X206506416Y-123002808D01*
X206620480Y-122870663D01*
X206624507Y-122865998D01*
X206716821Y-122703495D01*
X206775814Y-122526157D01*
X206781203Y-122483501D01*
X206798796Y-122344241D01*
X206798797Y-122344232D01*
X206799238Y-122340738D01*
X206799611Y-122314000D01*
X206781373Y-122127999D01*
X206727355Y-121949083D01*
X206639615Y-121784066D01*
X206635720Y-121779290D01*
X206525388Y-121644010D01*
X206525385Y-121644007D01*
X206521493Y-121639235D01*
X206516744Y-121635306D01*
X206382239Y-121524034D01*
X206382236Y-121524032D01*
X206377489Y-121520105D01*
X206213089Y-121431214D01*
X206123822Y-121403581D01*
X206040441Y-121377770D01*
X206040438Y-121377769D01*
X206034554Y-121375948D01*
X206028429Y-121375304D01*
X206028428Y-121375304D01*
X205854813Y-121357056D01*
X205854812Y-121357056D01*
X205848685Y-121356412D01*
X205796715Y-121361142D01*
X205725420Y-121367630D01*
X205655766Y-121353885D01*
X205604602Y-121304664D01*
X205588000Y-121242149D01*
X205588000Y-112562600D01*
X206710326Y-112562600D01*
X206730191Y-112815003D01*
X206731345Y-112819810D01*
X206731346Y-112819816D01*
X206760282Y-112940342D01*
X206789295Y-113061191D01*
X206886184Y-113295102D01*
X207018472Y-113510976D01*
X207182902Y-113703498D01*
X207375424Y-113867928D01*
X207389065Y-113876287D01*
X207585197Y-113996477D01*
X207591298Y-114000216D01*
X207595868Y-114002109D01*
X207595872Y-114002111D01*
X207693815Y-114042680D01*
X207825209Y-114097105D01*
X207909832Y-114117421D01*
X208066584Y-114155054D01*
X208066590Y-114155055D01*
X208071397Y-114156209D01*
X208323800Y-114176074D01*
X208576203Y-114156209D01*
X208581010Y-114155055D01*
X208581016Y-114155054D01*
X208737768Y-114117421D01*
X208822391Y-114097105D01*
X208953785Y-114042680D01*
X209051728Y-114002111D01*
X209051732Y-114002109D01*
X209056302Y-114000216D01*
X209062404Y-113996477D01*
X209258535Y-113876287D01*
X209272176Y-113867928D01*
X209464698Y-113703498D01*
X209629128Y-113510976D01*
X209761416Y-113295102D01*
X209858305Y-113061191D01*
X209887318Y-112940342D01*
X209916254Y-112819816D01*
X209916255Y-112819810D01*
X209917409Y-112815003D01*
X209937274Y-112562600D01*
X209917409Y-112310197D01*
X209858305Y-112064009D01*
X209856411Y-112059436D01*
X209763311Y-111834672D01*
X209763309Y-111834668D01*
X209761416Y-111830098D01*
X209629128Y-111614224D01*
X209464698Y-111421702D01*
X209272176Y-111257272D01*
X209056302Y-111124984D01*
X209051732Y-111123091D01*
X209051728Y-111123089D01*
X208826964Y-111029989D01*
X208826962Y-111029988D01*
X208822391Y-111028095D01*
X208737768Y-111007779D01*
X208581016Y-110970146D01*
X208581010Y-110970145D01*
X208576203Y-110968991D01*
X208323800Y-110949126D01*
X208071397Y-110968991D01*
X208066590Y-110970145D01*
X208066584Y-110970146D01*
X207909832Y-111007779D01*
X207825209Y-111028095D01*
X207820638Y-111029988D01*
X207820636Y-111029989D01*
X207595872Y-111123089D01*
X207595868Y-111123091D01*
X207591298Y-111124984D01*
X207375424Y-111257272D01*
X207182902Y-111421702D01*
X207018472Y-111614224D01*
X206886184Y-111830098D01*
X206884291Y-111834668D01*
X206884289Y-111834672D01*
X206791189Y-112059436D01*
X206789295Y-112064009D01*
X206730191Y-112310197D01*
X206710326Y-112562600D01*
X205588000Y-112562600D01*
X205588000Y-109457269D01*
X207020801Y-109457269D01*
X207021171Y-109464090D01*
X207026695Y-109514952D01*
X207030321Y-109530204D01*
X207075476Y-109650654D01*
X207084014Y-109666249D01*
X207160515Y-109768324D01*
X207173076Y-109780885D01*
X207275151Y-109857386D01*
X207290746Y-109865924D01*
X207411194Y-109911078D01*
X207426449Y-109914705D01*
X207477314Y-109920231D01*
X207484128Y-109920600D01*
X208106685Y-109920600D01*
X208121924Y-109916125D01*
X208123129Y-109914735D01*
X208124800Y-109907052D01*
X208124800Y-108834715D01*
X208120325Y-108819476D01*
X208118935Y-108818271D01*
X208111252Y-108816600D01*
X207038916Y-108816600D01*
X207023677Y-108821075D01*
X207022472Y-108822465D01*
X207020801Y-108830148D01*
X207020801Y-109457269D01*
X205588000Y-109457269D01*
X205588000Y-108290485D01*
X207020800Y-108290485D01*
X207025275Y-108305724D01*
X207026665Y-108306929D01*
X207034348Y-108308600D01*
X208106685Y-108308600D01*
X208121924Y-108304125D01*
X208123129Y-108302735D01*
X208124800Y-108295052D01*
X208124800Y-107222716D01*
X208120325Y-107207477D01*
X208118935Y-107206272D01*
X208111252Y-107204601D01*
X207484131Y-107204601D01*
X207477310Y-107204971D01*
X207426448Y-107210495D01*
X207411196Y-107214121D01*
X207290746Y-107259276D01*
X207275151Y-107267814D01*
X207173076Y-107344315D01*
X207160515Y-107356876D01*
X207084014Y-107458951D01*
X207075476Y-107474546D01*
X207030322Y-107594994D01*
X207026695Y-107610249D01*
X207021169Y-107661114D01*
X207020800Y-107667928D01*
X207020800Y-108290485D01*
X205588000Y-108290485D01*
X205588000Y-99664669D01*
X207012001Y-99664669D01*
X207012371Y-99671490D01*
X207017895Y-99722352D01*
X207021521Y-99737604D01*
X207066676Y-99858054D01*
X207075214Y-99873649D01*
X207151715Y-99975724D01*
X207164276Y-99988285D01*
X207266351Y-100064786D01*
X207281946Y-100073324D01*
X207402394Y-100118478D01*
X207417649Y-100122105D01*
X207468514Y-100127631D01*
X207475328Y-100128000D01*
X208097885Y-100128000D01*
X208113124Y-100123525D01*
X208114329Y-100122135D01*
X208116000Y-100114452D01*
X208116000Y-99042115D01*
X208111525Y-99026876D01*
X208110135Y-99025671D01*
X208102452Y-99024000D01*
X207030116Y-99024000D01*
X207014877Y-99028475D01*
X207013672Y-99029865D01*
X207012001Y-99037548D01*
X207012001Y-99664669D01*
X205588000Y-99664669D01*
X205588000Y-97802000D01*
X205608002Y-97733879D01*
X205661658Y-97687386D01*
X205714000Y-97676000D01*
X206892853Y-97676000D01*
X206960974Y-97696002D01*
G37*
G04 #@! TD.AperFunction*
G04 #@! TA.AperFunction,Conductor*
G36*
X239241636Y-105140520D02*
G01*
X239327064Y-105306746D01*
X239330887Y-105311570D01*
X239330890Y-105311574D01*
X239436170Y-105444402D01*
X239443152Y-105453212D01*
X239447846Y-105457207D01*
X239480819Y-105485269D01*
X239585478Y-105574342D01*
X239748621Y-105665519D01*
X239926367Y-105723272D01*
X240111945Y-105745401D01*
X240118080Y-105744929D01*
X240118082Y-105744929D01*
X240174119Y-105740617D01*
X240298287Y-105731063D01*
X240478296Y-105680804D01*
X240483785Y-105678031D01*
X240483791Y-105678029D01*
X240561159Y-105638947D01*
X240645114Y-105596538D01*
X240673524Y-105574342D01*
X240697486Y-105555621D01*
X240792387Y-105481475D01*
X240796413Y-105476811D01*
X240796416Y-105476808D01*
X240910480Y-105344663D01*
X240914507Y-105339998D01*
X241006821Y-105177495D01*
X241051895Y-105042000D01*
X252743500Y-105042000D01*
X252743500Y-106443134D01*
X252750255Y-106505316D01*
X252801385Y-106641705D01*
X252888739Y-106758261D01*
X253005295Y-106845615D01*
X253013704Y-106848767D01*
X253013705Y-106848768D01*
X253122451Y-106889535D01*
X253179216Y-106932176D01*
X253203916Y-106998738D01*
X253188709Y-107068087D01*
X253169316Y-107094568D01*
X253042629Y-107227138D01*
X252916743Y-107411680D01*
X252822688Y-107614305D01*
X252762989Y-107829570D01*
X252739251Y-108051695D01*
X252739548Y-108056848D01*
X252739548Y-108056851D01*
X252745011Y-108151590D01*
X252752110Y-108274715D01*
X252753247Y-108279761D01*
X252753248Y-108279767D01*
X252773119Y-108367939D01*
X252801222Y-108492639D01*
X252885266Y-108699616D01*
X253001987Y-108890088D01*
X253148250Y-109058938D01*
X253320126Y-109201632D01*
X253513000Y-109314338D01*
X253517825Y-109316180D01*
X253517826Y-109316181D01*
X253560234Y-109332375D01*
X253721692Y-109394030D01*
X253726760Y-109395061D01*
X253726763Y-109395062D01*
X253834017Y-109416883D01*
X253940597Y-109438567D01*
X253945772Y-109438757D01*
X253945774Y-109438757D01*
X254158673Y-109446564D01*
X254158677Y-109446564D01*
X254163837Y-109446753D01*
X254168957Y-109446097D01*
X254168959Y-109446097D01*
X254380288Y-109419025D01*
X254380289Y-109419025D01*
X254385416Y-109418368D01*
X254390366Y-109416883D01*
X254594429Y-109355661D01*
X254594434Y-109355659D01*
X254599384Y-109354174D01*
X254799994Y-109255896D01*
X254981860Y-109126173D01*
X255140096Y-108968489D01*
X255168406Y-108929092D01*
X255267435Y-108791277D01*
X255270453Y-108787077D01*
X255369430Y-108586811D01*
X255434370Y-108373069D01*
X255463529Y-108151590D01*
X255465156Y-108085000D01*
X255446852Y-107862361D01*
X255392431Y-107645702D01*
X255303354Y-107440840D01*
X255182014Y-107253277D01*
X255178532Y-107249450D01*
X255034798Y-107091488D01*
X255003746Y-107027642D01*
X255012141Y-106957143D01*
X255057317Y-106902375D01*
X255083761Y-106888706D01*
X255190297Y-106848767D01*
X255198705Y-106845615D01*
X255315261Y-106758261D01*
X255402615Y-106641705D01*
X255453745Y-106505316D01*
X255460500Y-106443134D01*
X255460500Y-105042000D01*
X264262000Y-105042000D01*
X264262000Y-146826000D01*
X264241998Y-146894121D01*
X264188342Y-146940614D01*
X264136000Y-146952000D01*
X263458512Y-146952000D01*
X263390391Y-146931998D01*
X263343898Y-146878342D01*
X263334890Y-146801636D01*
X263349581Y-146727100D01*
X263352422Y-146670034D01*
X263362764Y-146462292D01*
X263362764Y-146462286D01*
X263362991Y-146457723D01*
X263337375Y-146189231D01*
X263329042Y-146155174D01*
X263274355Y-145931688D01*
X263273269Y-145927250D01*
X263172015Y-145677267D01*
X263035735Y-145444518D01*
X262917928Y-145297208D01*
X262870136Y-145237447D01*
X262870135Y-145237445D01*
X262867284Y-145233881D01*
X262670191Y-145049766D01*
X262448584Y-144896032D01*
X262444501Y-144894001D01*
X262444498Y-144893999D01*
X262279606Y-144811967D01*
X262207106Y-144775899D01*
X262202772Y-144774478D01*
X262202769Y-144774477D01*
X261955147Y-144693302D01*
X261955141Y-144693301D01*
X261950814Y-144691882D01*
X261935448Y-144689214D01*
X261688860Y-144646399D01*
X261688852Y-144646398D01*
X261685079Y-144645743D01*
X261673817Y-144645182D01*
X261601422Y-144641578D01*
X261601414Y-144641578D01*
X261599851Y-144641500D01*
X261431488Y-144641500D01*
X261429220Y-144641665D01*
X261429208Y-144641665D01*
X261298116Y-144651177D01*
X261230996Y-144656047D01*
X261226541Y-144657031D01*
X261226538Y-144657031D01*
X260972088Y-144713209D01*
X260972084Y-144713210D01*
X260967628Y-144714194D01*
X260841520Y-144761972D01*
X260719682Y-144808132D01*
X260719679Y-144808133D01*
X260715412Y-144809750D01*
X260479632Y-144940714D01*
X260265227Y-145104343D01*
X260076688Y-145297208D01*
X259917966Y-145515270D01*
X259915844Y-145519304D01*
X259794510Y-145749921D01*
X259794507Y-145749927D01*
X259792385Y-145753961D01*
X259790865Y-145758266D01*
X259790863Y-145758270D01*
X259707472Y-145994412D01*
X259702575Y-146008280D01*
X259701692Y-146012762D01*
X259651422Y-146267813D01*
X259650419Y-146272900D01*
X259650192Y-146277453D01*
X259650192Y-146277456D01*
X259637416Y-146534107D01*
X259637009Y-146542277D01*
X259662625Y-146810769D01*
X259663710Y-146815203D01*
X259663711Y-146815209D01*
X259714515Y-147022828D01*
X259726731Y-147072750D01*
X259827985Y-147322733D01*
X259964265Y-147555482D01*
X260132716Y-147766119D01*
X260329809Y-147950234D01*
X260551416Y-148103968D01*
X260555499Y-148105999D01*
X260555502Y-148106001D01*
X260641548Y-148148808D01*
X260792894Y-148224101D01*
X260797228Y-148225522D01*
X260797231Y-148225523D01*
X261044853Y-148306698D01*
X261044859Y-148306699D01*
X261049186Y-148308118D01*
X261053677Y-148308898D01*
X261053678Y-148308898D01*
X261311140Y-148353601D01*
X261311148Y-148353602D01*
X261314921Y-148354257D01*
X261318758Y-148354448D01*
X261398578Y-148358422D01*
X261398586Y-148358422D01*
X261400149Y-148358500D01*
X261568512Y-148358500D01*
X261570780Y-148358335D01*
X261570792Y-148358335D01*
X261701884Y-148348823D01*
X261769004Y-148343953D01*
X261773459Y-148342969D01*
X261773462Y-148342969D01*
X261822836Y-148332068D01*
X261893667Y-148336914D01*
X261950634Y-148379284D01*
X261975651Y-148445727D01*
X261976000Y-148455105D01*
X261976000Y-149366000D01*
X261955998Y-149434121D01*
X261902342Y-149480614D01*
X261850000Y-149492000D01*
X235178000Y-149492000D01*
X235109879Y-149471998D01*
X235063386Y-149418342D01*
X235052000Y-149366000D01*
X235052000Y-147446630D01*
X239428482Y-147446630D01*
X239428998Y-147452774D01*
X239443142Y-147621207D01*
X239444121Y-147632867D01*
X239495636Y-147812520D01*
X239581064Y-147978746D01*
X239584887Y-147983570D01*
X239584890Y-147983574D01*
X239644899Y-148059286D01*
X239697152Y-148125212D01*
X239701846Y-148129207D01*
X239734819Y-148157269D01*
X239839478Y-148246342D01*
X240002621Y-148337519D01*
X240180367Y-148395272D01*
X240365945Y-148417401D01*
X240372080Y-148416929D01*
X240372082Y-148416929D01*
X240428119Y-148412617D01*
X240552287Y-148403063D01*
X240732296Y-148352804D01*
X240737785Y-148350031D01*
X240737791Y-148350029D01*
X240823570Y-148306698D01*
X240899114Y-148268538D01*
X240927524Y-148246342D01*
X240999317Y-148190250D01*
X241046387Y-148153475D01*
X241050413Y-148148811D01*
X241050416Y-148148808D01*
X241164480Y-148016663D01*
X241168507Y-148011998D01*
X241227204Y-147908672D01*
X241257778Y-147854852D01*
X241257779Y-147854851D01*
X241260821Y-147849495D01*
X241268467Y-147826512D01*
X241317867Y-147678009D01*
X241319814Y-147672157D01*
X241335052Y-147551537D01*
X241342796Y-147490241D01*
X241342797Y-147490232D01*
X241343238Y-147486738D01*
X241343611Y-147460000D01*
X241325373Y-147273999D01*
X241321419Y-147260901D01*
X241302760Y-147199103D01*
X241271355Y-147095083D01*
X241188169Y-146938630D01*
X242984482Y-146938630D01*
X242984998Y-146944774D01*
X242997078Y-147088626D01*
X243000121Y-147124867D01*
X243051636Y-147304520D01*
X243072059Y-147344259D01*
X243133343Y-147463505D01*
X243137064Y-147470746D01*
X243140887Y-147475570D01*
X243140890Y-147475574D01*
X243201098Y-147551537D01*
X243253152Y-147617212D01*
X243257846Y-147621207D01*
X243324588Y-147678009D01*
X243395478Y-147738342D01*
X243558621Y-147829519D01*
X243736367Y-147887272D01*
X243921945Y-147909401D01*
X243928080Y-147908929D01*
X243928082Y-147908929D01*
X243984119Y-147904617D01*
X244108287Y-147895063D01*
X244288296Y-147844804D01*
X244293785Y-147842031D01*
X244293791Y-147842029D01*
X244371159Y-147802947D01*
X244455114Y-147760538D01*
X244483524Y-147738342D01*
X244551539Y-147685202D01*
X244602387Y-147645475D01*
X244606413Y-147640811D01*
X244606416Y-147640808D01*
X244720480Y-147508663D01*
X244724507Y-147503998D01*
X244816821Y-147341495D01*
X244823063Y-147322733D01*
X244873867Y-147170009D01*
X244875814Y-147164157D01*
X244886827Y-147076981D01*
X244898796Y-146982241D01*
X244898797Y-146982232D01*
X244899238Y-146978738D01*
X244899611Y-146952000D01*
X244898300Y-146938630D01*
X249842482Y-146938630D01*
X249842998Y-146944774D01*
X249855078Y-147088626D01*
X249858121Y-147124867D01*
X249909636Y-147304520D01*
X249930059Y-147344259D01*
X249991343Y-147463505D01*
X249995064Y-147470746D01*
X249998887Y-147475570D01*
X249998890Y-147475574D01*
X250059098Y-147551537D01*
X250111152Y-147617212D01*
X250115846Y-147621207D01*
X250182588Y-147678009D01*
X250253478Y-147738342D01*
X250416621Y-147829519D01*
X250594367Y-147887272D01*
X250779945Y-147909401D01*
X250786080Y-147908929D01*
X250786082Y-147908929D01*
X250842119Y-147904617D01*
X250966287Y-147895063D01*
X251146296Y-147844804D01*
X251151785Y-147842031D01*
X251151791Y-147842029D01*
X251229159Y-147802947D01*
X251313114Y-147760538D01*
X251341524Y-147738342D01*
X251409539Y-147685202D01*
X251460387Y-147645475D01*
X251464413Y-147640811D01*
X251464416Y-147640808D01*
X251578480Y-147508663D01*
X251582507Y-147503998D01*
X251674821Y-147341495D01*
X251681063Y-147322733D01*
X251731867Y-147170009D01*
X251733814Y-147164157D01*
X251744827Y-147076981D01*
X251756796Y-146982241D01*
X251756797Y-146982232D01*
X251757238Y-146978738D01*
X251757611Y-146952000D01*
X251739373Y-146765999D01*
X251735419Y-146752901D01*
X251687136Y-146592983D01*
X251685355Y-146587083D01*
X251597615Y-146422066D01*
X251584727Y-146406264D01*
X251483388Y-146282010D01*
X251483385Y-146282007D01*
X251479493Y-146277235D01*
X251474253Y-146272900D01*
X251340239Y-146162034D01*
X251340236Y-146162032D01*
X251335489Y-146158105D01*
X251171089Y-146069214D01*
X251081822Y-146041581D01*
X250998441Y-146015770D01*
X250998438Y-146015769D01*
X250992554Y-146013948D01*
X250986429Y-146013304D01*
X250986428Y-146013304D01*
X250812813Y-145995056D01*
X250812812Y-145995056D01*
X250806685Y-145994412D01*
X250701696Y-146003967D01*
X250626703Y-146010792D01*
X250626702Y-146010792D01*
X250620562Y-146011351D01*
X250614648Y-146013092D01*
X250614646Y-146013092D01*
X250492466Y-146049052D01*
X250441273Y-146064119D01*
X250275647Y-146150705D01*
X250129995Y-146267813D01*
X250009862Y-146410981D01*
X250006899Y-146416370D01*
X250006896Y-146416375D01*
X249950593Y-146518792D01*
X249919826Y-146574757D01*
X249917965Y-146580624D01*
X249917964Y-146580626D01*
X249907614Y-146613253D01*
X249863315Y-146752901D01*
X249842482Y-146938630D01*
X244898300Y-146938630D01*
X244881373Y-146765999D01*
X244877419Y-146752901D01*
X244829136Y-146592983D01*
X244827355Y-146587083D01*
X244739615Y-146422066D01*
X244726727Y-146406264D01*
X244625388Y-146282010D01*
X244625385Y-146282007D01*
X244621493Y-146277235D01*
X244616253Y-146272900D01*
X244482239Y-146162034D01*
X244482236Y-146162032D01*
X244477489Y-146158105D01*
X244313089Y-146069214D01*
X244223822Y-146041581D01*
X244140441Y-146015770D01*
X244140438Y-146015769D01*
X244134554Y-146013948D01*
X244128429Y-146013304D01*
X244128428Y-146013304D01*
X243954813Y-145995056D01*
X243954812Y-145995056D01*
X243948685Y-145994412D01*
X243843696Y-146003967D01*
X243768703Y-146010792D01*
X243768702Y-146010792D01*
X243762562Y-146011351D01*
X243756648Y-146013092D01*
X243756646Y-146013092D01*
X243634466Y-146049052D01*
X243583273Y-146064119D01*
X243417647Y-146150705D01*
X243271995Y-146267813D01*
X243151862Y-146410981D01*
X243148899Y-146416370D01*
X243148896Y-146416375D01*
X243092593Y-146518792D01*
X243061826Y-146574757D01*
X243059965Y-146580624D01*
X243059964Y-146580626D01*
X243049614Y-146613253D01*
X243005315Y-146752901D01*
X242984482Y-146938630D01*
X241188169Y-146938630D01*
X241183615Y-146930066D01*
X241141430Y-146878342D01*
X241069388Y-146790010D01*
X241069385Y-146790007D01*
X241065493Y-146785235D01*
X241060744Y-146781306D01*
X240926239Y-146670034D01*
X240926236Y-146670032D01*
X240921489Y-146666105D01*
X240757089Y-146577214D01*
X240644226Y-146542277D01*
X240584441Y-146523770D01*
X240584438Y-146523769D01*
X240578554Y-146521948D01*
X240572429Y-146521304D01*
X240572428Y-146521304D01*
X240398813Y-146503056D01*
X240398812Y-146503056D01*
X240392685Y-146502412D01*
X240274087Y-146513206D01*
X240212703Y-146518792D01*
X240212702Y-146518792D01*
X240206562Y-146519351D01*
X240200648Y-146521092D01*
X240200646Y-146521092D01*
X240113187Y-146546833D01*
X240027273Y-146572119D01*
X239861647Y-146658705D01*
X239715995Y-146775813D01*
X239595862Y-146918981D01*
X239592899Y-146924370D01*
X239592896Y-146924375D01*
X239544428Y-147012539D01*
X239505826Y-147082757D01*
X239503965Y-147088624D01*
X239503964Y-147088626D01*
X239492468Y-147124867D01*
X239449315Y-147260901D01*
X239428482Y-147446630D01*
X235052000Y-147446630D01*
X235052000Y-144652630D01*
X236888482Y-144652630D01*
X236904121Y-144838867D01*
X236955636Y-145018520D01*
X237041064Y-145184746D01*
X237044887Y-145189570D01*
X237044890Y-145189574D01*
X237077534Y-145230760D01*
X237157152Y-145331212D01*
X237161846Y-145335207D01*
X237286094Y-145440951D01*
X237299478Y-145452342D01*
X237462621Y-145543519D01*
X237640367Y-145601272D01*
X237825945Y-145623401D01*
X237832080Y-145622929D01*
X237832082Y-145622929D01*
X237888119Y-145618617D01*
X238012287Y-145609063D01*
X238192296Y-145558804D01*
X238197785Y-145556031D01*
X238197791Y-145556029D01*
X238275159Y-145516947D01*
X238359114Y-145474538D01*
X238387524Y-145452342D01*
X238411486Y-145433621D01*
X238506387Y-145359475D01*
X238510413Y-145354811D01*
X238510416Y-145354808D01*
X238624480Y-145222663D01*
X238628507Y-145217998D01*
X238720821Y-145055495D01*
X238735091Y-145012600D01*
X238773003Y-144898631D01*
X238779814Y-144878157D01*
X238788660Y-144808132D01*
X238802796Y-144696241D01*
X238802797Y-144696232D01*
X238803238Y-144692738D01*
X238803611Y-144666000D01*
X238785373Y-144479999D01*
X238781419Y-144466901D01*
X238733136Y-144306983D01*
X238731355Y-144301083D01*
X238643615Y-144136066D01*
X238630727Y-144120264D01*
X238529388Y-143996010D01*
X238529385Y-143996007D01*
X238525493Y-143991235D01*
X238520744Y-143987306D01*
X238386239Y-143876034D01*
X238386236Y-143876032D01*
X238381489Y-143872105D01*
X238217089Y-143783214D01*
X238127822Y-143755581D01*
X238044441Y-143729770D01*
X238044438Y-143729769D01*
X238038554Y-143727948D01*
X238032429Y-143727304D01*
X238032428Y-143727304D01*
X237858813Y-143709056D01*
X237858812Y-143709056D01*
X237852685Y-143708412D01*
X237734087Y-143719206D01*
X237672703Y-143724792D01*
X237672702Y-143724792D01*
X237666562Y-143725351D01*
X237660648Y-143727092D01*
X237660646Y-143727092D01*
X237538466Y-143763052D01*
X237487273Y-143778119D01*
X237321647Y-143864705D01*
X237175995Y-143981813D01*
X237055862Y-144124981D01*
X237052899Y-144130370D01*
X237052896Y-144130375D01*
X236979509Y-144263868D01*
X236965826Y-144288757D01*
X236909315Y-144466901D01*
X236908629Y-144473020D01*
X236889255Y-144645743D01*
X236888482Y-144652630D01*
X235052000Y-144652630D01*
X235052000Y-141045630D01*
X238869482Y-141045630D01*
X238885121Y-141231867D01*
X238936636Y-141411520D01*
X239022064Y-141577746D01*
X239025887Y-141582570D01*
X239025890Y-141582574D01*
X239131170Y-141715402D01*
X239138152Y-141724212D01*
X239142846Y-141728207D01*
X239175819Y-141756269D01*
X239280478Y-141845342D01*
X239443621Y-141936519D01*
X239621367Y-141994272D01*
X239806945Y-142016401D01*
X239813080Y-142015929D01*
X239813082Y-142015929D01*
X239869119Y-142011617D01*
X239993287Y-142002063D01*
X240173296Y-141951804D01*
X240178785Y-141949031D01*
X240178791Y-141949029D01*
X240256159Y-141909947D01*
X240340114Y-141867538D01*
X240368524Y-141845342D01*
X240392486Y-141826621D01*
X240487387Y-141752475D01*
X240491413Y-141747811D01*
X240491416Y-141747808D01*
X240605480Y-141615663D01*
X240609507Y-141610998D01*
X240701821Y-141448495D01*
X240716091Y-141405600D01*
X240758867Y-141277009D01*
X240760814Y-141271157D01*
X240766553Y-141225727D01*
X240783796Y-141089241D01*
X240783797Y-141089232D01*
X240784238Y-141085738D01*
X240784611Y-141059000D01*
X240766373Y-140872999D01*
X240762419Y-140859901D01*
X240714136Y-140699983D01*
X240712355Y-140694083D01*
X240624615Y-140529066D01*
X240611727Y-140513264D01*
X240510388Y-140389010D01*
X240510385Y-140389007D01*
X240506493Y-140384235D01*
X240501744Y-140380306D01*
X240367239Y-140269034D01*
X240367236Y-140269032D01*
X240362489Y-140265105D01*
X240198089Y-140176214D01*
X240108822Y-140148581D01*
X240025441Y-140122770D01*
X240025438Y-140122769D01*
X240019554Y-140120948D01*
X240013429Y-140120304D01*
X240013428Y-140120304D01*
X239839813Y-140102056D01*
X239839812Y-140102056D01*
X239833685Y-140101412D01*
X239715087Y-140112206D01*
X239653703Y-140117792D01*
X239653702Y-140117792D01*
X239647562Y-140118351D01*
X239641648Y-140120092D01*
X239641646Y-140120092D01*
X239519466Y-140156052D01*
X239468273Y-140171119D01*
X239302647Y-140257705D01*
X239156995Y-140374813D01*
X239036862Y-140517981D01*
X239033899Y-140523370D01*
X239033896Y-140523375D01*
X238960509Y-140656868D01*
X238946826Y-140681757D01*
X238890315Y-140859901D01*
X238869482Y-141045630D01*
X235052000Y-141045630D01*
X235052000Y-138048630D01*
X236888482Y-138048630D01*
X236904121Y-138234867D01*
X236955636Y-138414520D01*
X237041064Y-138580746D01*
X237044887Y-138585570D01*
X237044890Y-138585574D01*
X237150170Y-138718402D01*
X237157152Y-138727212D01*
X237161846Y-138731207D01*
X237194819Y-138759269D01*
X237299478Y-138848342D01*
X237462621Y-138939519D01*
X237640367Y-138997272D01*
X237825945Y-139019401D01*
X237832080Y-139018929D01*
X237832082Y-139018929D01*
X237888119Y-139014617D01*
X238012287Y-139005063D01*
X238192296Y-138954804D01*
X238197785Y-138952031D01*
X238197791Y-138952029D01*
X238275159Y-138912947D01*
X238359114Y-138870538D01*
X238387524Y-138848342D01*
X238411486Y-138829621D01*
X238506387Y-138755475D01*
X238510413Y-138750811D01*
X238510416Y-138750808D01*
X238624480Y-138618663D01*
X238628507Y-138613998D01*
X238720821Y-138451495D01*
X238735091Y-138408600D01*
X238777867Y-138280009D01*
X238779814Y-138274157D01*
X238785553Y-138228727D01*
X238802796Y-138092241D01*
X238802797Y-138092232D01*
X238803238Y-138088738D01*
X238803611Y-138062000D01*
X238785373Y-137875999D01*
X238781419Y-137862901D01*
X238733136Y-137702983D01*
X238731355Y-137697083D01*
X238643615Y-137532066D01*
X238630727Y-137516264D01*
X238529388Y-137392010D01*
X238529385Y-137392007D01*
X238525493Y-137387235D01*
X238520744Y-137383306D01*
X238386239Y-137272034D01*
X238386236Y-137272032D01*
X238381489Y-137268105D01*
X238217089Y-137179214D01*
X238127821Y-137151581D01*
X238044441Y-137125770D01*
X238044438Y-137125769D01*
X238038554Y-137123948D01*
X238032429Y-137123304D01*
X238032428Y-137123304D01*
X237858813Y-137105056D01*
X237858812Y-137105056D01*
X237852685Y-137104412D01*
X237734087Y-137115206D01*
X237672703Y-137120792D01*
X237672702Y-137120792D01*
X237666562Y-137121351D01*
X237660648Y-137123092D01*
X237660646Y-137123092D01*
X237538466Y-137159052D01*
X237487273Y-137174119D01*
X237321647Y-137260705D01*
X237175995Y-137377813D01*
X237055862Y-137520981D01*
X237052899Y-137526370D01*
X237052896Y-137526375D01*
X236979509Y-137659868D01*
X236965826Y-137684757D01*
X236909315Y-137862901D01*
X236888482Y-138048630D01*
X235052000Y-138048630D01*
X235052000Y-134492630D01*
X238666482Y-134492630D01*
X238682121Y-134678867D01*
X238733636Y-134858520D01*
X238819064Y-135024746D01*
X238822887Y-135029570D01*
X238822890Y-135029574D01*
X238928170Y-135162402D01*
X238935152Y-135171212D01*
X238939846Y-135175207D01*
X238972819Y-135203269D01*
X239077478Y-135292342D01*
X239240621Y-135383519D01*
X239418367Y-135441272D01*
X239603945Y-135463401D01*
X239610080Y-135462929D01*
X239610082Y-135462929D01*
X239666119Y-135458617D01*
X239790287Y-135449063D01*
X239970296Y-135398804D01*
X239975785Y-135396031D01*
X239975791Y-135396029D01*
X240053159Y-135356947D01*
X240137114Y-135314538D01*
X240165524Y-135292342D01*
X240189486Y-135273621D01*
X240284387Y-135199475D01*
X240288413Y-135194811D01*
X240288416Y-135194808D01*
X240402480Y-135062663D01*
X240406507Y-135057998D01*
X240498821Y-134895495D01*
X240513091Y-134852600D01*
X240555867Y-134724009D01*
X240557814Y-134718157D01*
X240563553Y-134672727D01*
X240580796Y-134536241D01*
X240580797Y-134536232D01*
X240581238Y-134532738D01*
X240581611Y-134506000D01*
X240563373Y-134319999D01*
X240559419Y-134306901D01*
X240511136Y-134146983D01*
X240509355Y-134141083D01*
X240421615Y-133976066D01*
X240408727Y-133960264D01*
X240307388Y-133836010D01*
X240307385Y-133836007D01*
X240303493Y-133831235D01*
X240298744Y-133827306D01*
X240164239Y-133716034D01*
X240164236Y-133716032D01*
X240159489Y-133712105D01*
X239995089Y-133623214D01*
X239905822Y-133595581D01*
X239822441Y-133569770D01*
X239822438Y-133569769D01*
X239816554Y-133567948D01*
X239810429Y-133567304D01*
X239810428Y-133567304D01*
X239636813Y-133549056D01*
X239636812Y-133549056D01*
X239630685Y-133548412D01*
X239512087Y-133559206D01*
X239450703Y-133564792D01*
X239450702Y-133564792D01*
X239444562Y-133565351D01*
X239438648Y-133567092D01*
X239438646Y-133567092D01*
X239316466Y-133603052D01*
X239265273Y-133618119D01*
X239099647Y-133704705D01*
X238953995Y-133821813D01*
X238833862Y-133964981D01*
X238830899Y-133970370D01*
X238830896Y-133970375D01*
X238757509Y-134103868D01*
X238743826Y-134128757D01*
X238687315Y-134306901D01*
X238666482Y-134492630D01*
X235052000Y-134492630D01*
X235052000Y-131698630D01*
X236888482Y-131698630D01*
X236904121Y-131884867D01*
X236955636Y-132064520D01*
X237041064Y-132230746D01*
X237044887Y-132235570D01*
X237044890Y-132235574D01*
X237150170Y-132368402D01*
X237157152Y-132377212D01*
X237161846Y-132381207D01*
X237194819Y-132409269D01*
X237299478Y-132498342D01*
X237462621Y-132589519D01*
X237640367Y-132647272D01*
X237825945Y-132669401D01*
X237832080Y-132668929D01*
X237832082Y-132668929D01*
X237888119Y-132664617D01*
X238012287Y-132655063D01*
X238192296Y-132604804D01*
X238197785Y-132602031D01*
X238197791Y-132602029D01*
X238275159Y-132562947D01*
X238359114Y-132520538D01*
X238387524Y-132498342D01*
X238411486Y-132479621D01*
X238506387Y-132405475D01*
X238510413Y-132400811D01*
X238510416Y-132400808D01*
X238624480Y-132268663D01*
X238628507Y-132263998D01*
X238720821Y-132101495D01*
X238735091Y-132058600D01*
X238777867Y-131930009D01*
X238779814Y-131924157D01*
X238785553Y-131878727D01*
X238802796Y-131742241D01*
X238802797Y-131742232D01*
X238803238Y-131738738D01*
X238803611Y-131712000D01*
X238785373Y-131525999D01*
X238781419Y-131512901D01*
X238733136Y-131352983D01*
X238731355Y-131347083D01*
X238643615Y-131182066D01*
X238630727Y-131166264D01*
X238529388Y-131042010D01*
X238529385Y-131042007D01*
X238525493Y-131037235D01*
X238520744Y-131033306D01*
X238386239Y-130922034D01*
X238386236Y-130922032D01*
X238381489Y-130918105D01*
X238217089Y-130829214D01*
X238127821Y-130801581D01*
X238044441Y-130775770D01*
X238044438Y-130775769D01*
X238038554Y-130773948D01*
X238032429Y-130773304D01*
X238032428Y-130773304D01*
X237858813Y-130755056D01*
X237858812Y-130755056D01*
X237852685Y-130754412D01*
X237734087Y-130765206D01*
X237672703Y-130770792D01*
X237672702Y-130770792D01*
X237666562Y-130771351D01*
X237660648Y-130773092D01*
X237660646Y-130773092D01*
X237538466Y-130809052D01*
X237487273Y-130824119D01*
X237321647Y-130910705D01*
X237175995Y-131027813D01*
X237055862Y-131170981D01*
X237052899Y-131176370D01*
X237052896Y-131176375D01*
X236979509Y-131309868D01*
X236965826Y-131334757D01*
X236909315Y-131512901D01*
X236888482Y-131698630D01*
X235052000Y-131698630D01*
X235052000Y-127888630D01*
X238920482Y-127888630D01*
X238920998Y-127894774D01*
X238933433Y-128042852D01*
X238936121Y-128074867D01*
X238987636Y-128254520D01*
X239009392Y-128296852D01*
X239032325Y-128341475D01*
X239073064Y-128420746D01*
X239076887Y-128425570D01*
X239076890Y-128425574D01*
X239153723Y-128522512D01*
X239189152Y-128567212D01*
X239193846Y-128571207D01*
X239234024Y-128605401D01*
X239331478Y-128688342D01*
X239494621Y-128779519D01*
X239672367Y-128837272D01*
X239857945Y-128859401D01*
X239864080Y-128858929D01*
X239864082Y-128858929D01*
X239920119Y-128854617D01*
X240044287Y-128845063D01*
X240224296Y-128794804D01*
X240229785Y-128792031D01*
X240229791Y-128792029D01*
X240307159Y-128752947D01*
X240391114Y-128710538D01*
X240419524Y-128688342D01*
X240525682Y-128605401D01*
X240538387Y-128595475D01*
X240542413Y-128590811D01*
X240542416Y-128590808D01*
X240656480Y-128458663D01*
X240660507Y-128453998D01*
X240740484Y-128313212D01*
X240749778Y-128296852D01*
X240749779Y-128296851D01*
X240752821Y-128291495D01*
X240767091Y-128248600D01*
X240809867Y-128120009D01*
X240811814Y-128114157D01*
X240826918Y-127994600D01*
X240834796Y-127932241D01*
X240834797Y-127932232D01*
X240835238Y-127928738D01*
X240835611Y-127902000D01*
X240817373Y-127715999D01*
X240813419Y-127702901D01*
X240792806Y-127634630D01*
X245016482Y-127634630D01*
X245032121Y-127820867D01*
X245083636Y-128000520D01*
X245105392Y-128042852D01*
X245145045Y-128120009D01*
X245169064Y-128166746D01*
X245172887Y-128171570D01*
X245172890Y-128171574D01*
X245233941Y-128248600D01*
X245285152Y-128313212D01*
X245289846Y-128317207D01*
X245417176Y-128425574D01*
X245427478Y-128434342D01*
X245590621Y-128525519D01*
X245768367Y-128583272D01*
X245953945Y-128605401D01*
X245960080Y-128604929D01*
X245960082Y-128604929D01*
X246016119Y-128600617D01*
X246140287Y-128591063D01*
X246320296Y-128540804D01*
X246325785Y-128538031D01*
X246325791Y-128538029D01*
X246403159Y-128498947D01*
X246487114Y-128456538D01*
X246515524Y-128434342D01*
X246539936Y-128415269D01*
X246634387Y-128341475D01*
X246638413Y-128336811D01*
X246638416Y-128336808D01*
X246752480Y-128204663D01*
X246756507Y-128199998D01*
X246848821Y-128037495D01*
X246863091Y-127994600D01*
X246886172Y-127925214D01*
X246907814Y-127860157D01*
X246925251Y-127722133D01*
X246930796Y-127678241D01*
X246930797Y-127678232D01*
X246931238Y-127674738D01*
X246931611Y-127648000D01*
X246913373Y-127461999D01*
X246909419Y-127448901D01*
X246861136Y-127288983D01*
X246859355Y-127283083D01*
X246771615Y-127118066D01*
X246766974Y-127112375D01*
X246657388Y-126978010D01*
X246657385Y-126978007D01*
X246653493Y-126973235D01*
X246648744Y-126969306D01*
X246514239Y-126858034D01*
X246514236Y-126858032D01*
X246509489Y-126854105D01*
X246345089Y-126765214D01*
X246255821Y-126737581D01*
X246172441Y-126711770D01*
X246172438Y-126711769D01*
X246166554Y-126709948D01*
X246160429Y-126709304D01*
X246160428Y-126709304D01*
X245986813Y-126691056D01*
X245986812Y-126691056D01*
X245980685Y-126690412D01*
X245862087Y-126701206D01*
X245800703Y-126706792D01*
X245800702Y-126706792D01*
X245794562Y-126707351D01*
X245788648Y-126709092D01*
X245788646Y-126709092D01*
X245668301Y-126744512D01*
X245615273Y-126760119D01*
X245609808Y-126762976D01*
X245486573Y-126827401D01*
X245449647Y-126846705D01*
X245303995Y-126963813D01*
X245183862Y-127106981D01*
X245180899Y-127112370D01*
X245180896Y-127112375D01*
X245125056Y-127213950D01*
X245093826Y-127270757D01*
X245037315Y-127448901D01*
X245016482Y-127634630D01*
X240792806Y-127634630D01*
X240765136Y-127542983D01*
X240763355Y-127537083D01*
X240675615Y-127372066D01*
X240588589Y-127265362D01*
X240561388Y-127232010D01*
X240561385Y-127232007D01*
X240557493Y-127227235D01*
X240552744Y-127223306D01*
X240418239Y-127112034D01*
X240418236Y-127112032D01*
X240413489Y-127108105D01*
X240249089Y-127019214D01*
X240115981Y-126978010D01*
X240076441Y-126965770D01*
X240076438Y-126965769D01*
X240070554Y-126963948D01*
X240064429Y-126963304D01*
X240064428Y-126963304D01*
X239890813Y-126945056D01*
X239890812Y-126945056D01*
X239884685Y-126944412D01*
X239766087Y-126955206D01*
X239704703Y-126960792D01*
X239704702Y-126960792D01*
X239698562Y-126961351D01*
X239692648Y-126963092D01*
X239692646Y-126963092D01*
X239641960Y-126978010D01*
X239519273Y-127014119D01*
X239353647Y-127100705D01*
X239207995Y-127217813D01*
X239087862Y-127360981D01*
X239084899Y-127366370D01*
X239084896Y-127366375D01*
X239042754Y-127443032D01*
X238997826Y-127524757D01*
X238941315Y-127702901D01*
X238920482Y-127888630D01*
X235052000Y-127888630D01*
X235052000Y-125094630D01*
X236888482Y-125094630D01*
X236888998Y-125100774D01*
X236895815Y-125181950D01*
X236904121Y-125280867D01*
X236955636Y-125460520D01*
X237041064Y-125626746D01*
X237044887Y-125631570D01*
X237044890Y-125631574D01*
X237086442Y-125683999D01*
X237157152Y-125773212D01*
X237161846Y-125777207D01*
X237270877Y-125870000D01*
X237299478Y-125894342D01*
X237462621Y-125985519D01*
X237640367Y-126043272D01*
X237825945Y-126065401D01*
X237832080Y-126064929D01*
X237832082Y-126064929D01*
X237888119Y-126060617D01*
X238012287Y-126051063D01*
X238192296Y-126000804D01*
X238197785Y-125998031D01*
X238197791Y-125998029D01*
X238275159Y-125958947D01*
X238359114Y-125916538D01*
X238387524Y-125894342D01*
X238414193Y-125873505D01*
X238435792Y-125856630D01*
X249842482Y-125856630D01*
X249842998Y-125862774D01*
X249854728Y-126002459D01*
X249858121Y-126042867D01*
X249859819Y-126048788D01*
X249859819Y-126048789D01*
X249864447Y-126064929D01*
X249909636Y-126222520D01*
X249995064Y-126388746D01*
X249998887Y-126393570D01*
X249998890Y-126393574D01*
X250104170Y-126526402D01*
X250111152Y-126535212D01*
X250115846Y-126539207D01*
X250148819Y-126567269D01*
X250253478Y-126656342D01*
X250416621Y-126747519D01*
X250594367Y-126805272D01*
X250779945Y-126827401D01*
X250786080Y-126826929D01*
X250786082Y-126826929D01*
X250842119Y-126822617D01*
X250966287Y-126813063D01*
X251146296Y-126762804D01*
X251151785Y-126760031D01*
X251151791Y-126760029D01*
X251247326Y-126711770D01*
X251313114Y-126678538D01*
X251341524Y-126656342D01*
X251365486Y-126637621D01*
X251460387Y-126563475D01*
X251464413Y-126558811D01*
X251464416Y-126558808D01*
X251578480Y-126426663D01*
X251582507Y-126421998D01*
X251674821Y-126259495D01*
X251689091Y-126216600D01*
X251731867Y-126088009D01*
X251733814Y-126082157D01*
X251755216Y-125912746D01*
X251756796Y-125900241D01*
X251756797Y-125900232D01*
X251757238Y-125896738D01*
X251757611Y-125870000D01*
X251739373Y-125683999D01*
X251735419Y-125670901D01*
X251687136Y-125510983D01*
X251685355Y-125505083D01*
X251597615Y-125340066D01*
X251588574Y-125328981D01*
X251483388Y-125200010D01*
X251483385Y-125200007D01*
X251479493Y-125195235D01*
X251474744Y-125191306D01*
X251340239Y-125080034D01*
X251340236Y-125080032D01*
X251335489Y-125076105D01*
X251171089Y-124987214D01*
X251081821Y-124959581D01*
X250998441Y-124933770D01*
X250998438Y-124933769D01*
X250992554Y-124931948D01*
X250986429Y-124931304D01*
X250986428Y-124931304D01*
X250812813Y-124913056D01*
X250812812Y-124913056D01*
X250806685Y-124912412D01*
X250701345Y-124921999D01*
X250626703Y-124928792D01*
X250626702Y-124928792D01*
X250620562Y-124929351D01*
X250614648Y-124931092D01*
X250614646Y-124931092D01*
X250492466Y-124967052D01*
X250441273Y-124982119D01*
X250275647Y-125068705D01*
X250129995Y-125185813D01*
X250009862Y-125328981D01*
X250006899Y-125334370D01*
X250006896Y-125334375D01*
X249940803Y-125454600D01*
X249919826Y-125492757D01*
X249917965Y-125498624D01*
X249917964Y-125498626D01*
X249915916Y-125505083D01*
X249863315Y-125670901D01*
X249842482Y-125856630D01*
X238435792Y-125856630D01*
X238506387Y-125801475D01*
X238510413Y-125796811D01*
X238510416Y-125796808D01*
X238619096Y-125670901D01*
X238628507Y-125659998D01*
X238713159Y-125510983D01*
X238717778Y-125502852D01*
X238717779Y-125502851D01*
X238720821Y-125497495D01*
X238735091Y-125454600D01*
X238775084Y-125334375D01*
X238779814Y-125320157D01*
X238794992Y-125200010D01*
X238802796Y-125138241D01*
X238802797Y-125138232D01*
X238803238Y-125134738D01*
X238803611Y-125108000D01*
X238785373Y-124921999D01*
X238781419Y-124908901D01*
X238733136Y-124748983D01*
X238731355Y-124743083D01*
X238643615Y-124578066D01*
X238630727Y-124562264D01*
X238529388Y-124438010D01*
X238529385Y-124438007D01*
X238525493Y-124433235D01*
X238520744Y-124429306D01*
X238386239Y-124318034D01*
X238386236Y-124318032D01*
X238381489Y-124314105D01*
X238217089Y-124225214D01*
X238127822Y-124197581D01*
X238044441Y-124171770D01*
X238044438Y-124171769D01*
X238038554Y-124169948D01*
X238032429Y-124169304D01*
X238032428Y-124169304D01*
X237858813Y-124151056D01*
X237858812Y-124151056D01*
X237852685Y-124150412D01*
X237734087Y-124161206D01*
X237672703Y-124166792D01*
X237672702Y-124166792D01*
X237666562Y-124167351D01*
X237660648Y-124169092D01*
X237660646Y-124169092D01*
X237538466Y-124205052D01*
X237487273Y-124220119D01*
X237321647Y-124306705D01*
X237175995Y-124423813D01*
X237055862Y-124566981D01*
X237052899Y-124572370D01*
X237052896Y-124572375D01*
X236979509Y-124705868D01*
X236965826Y-124730757D01*
X236909315Y-124908901D01*
X236888482Y-125094630D01*
X235052000Y-125094630D01*
X235052000Y-123202000D01*
X235072002Y-123133879D01*
X235125658Y-123087386D01*
X235178000Y-123076000D01*
X239878000Y-123076000D01*
X239878000Y-121038451D01*
X239898002Y-120970330D01*
X239951658Y-120923837D01*
X240021932Y-120913733D01*
X240042935Y-120918618D01*
X240180367Y-120963272D01*
X240365945Y-120985401D01*
X240372080Y-120984929D01*
X240372082Y-120984929D01*
X240428119Y-120980617D01*
X240552287Y-120971063D01*
X240732296Y-120920804D01*
X240737785Y-120918031D01*
X240737791Y-120918029D01*
X240815159Y-120878947D01*
X240899114Y-120836538D01*
X240927524Y-120814342D01*
X240951486Y-120795621D01*
X241046387Y-120721475D01*
X241050413Y-120716811D01*
X241050416Y-120716808D01*
X241126669Y-120628468D01*
X241168507Y-120579998D01*
X241260821Y-120417495D01*
X241319814Y-120240157D01*
X241325203Y-120197501D01*
X241342796Y-120058241D01*
X241342797Y-120058232D01*
X241343238Y-120054738D01*
X241343611Y-120028000D01*
X241325373Y-119841999D01*
X241321419Y-119828901D01*
X241287008Y-119714929D01*
X241271355Y-119663083D01*
X241183615Y-119498066D01*
X241174574Y-119486981D01*
X241069388Y-119358010D01*
X241069385Y-119358007D01*
X241065493Y-119353235D01*
X241054104Y-119343813D01*
X240926239Y-119238034D01*
X240926236Y-119238032D01*
X240921489Y-119234105D01*
X240757089Y-119145214D01*
X240667821Y-119117581D01*
X240584441Y-119091770D01*
X240584438Y-119091769D01*
X240578554Y-119089948D01*
X240572429Y-119089304D01*
X240572428Y-119089304D01*
X240398813Y-119071056D01*
X240398812Y-119071056D01*
X240392685Y-119070412D01*
X240274087Y-119081206D01*
X240212703Y-119086792D01*
X240212702Y-119086792D01*
X240206562Y-119087351D01*
X240039573Y-119136499D01*
X239968578Y-119136544D01*
X239908828Y-119098198D01*
X239879294Y-119033636D01*
X239878000Y-119015625D01*
X239878000Y-118758000D01*
X236194000Y-118758000D01*
X236125879Y-118737998D01*
X236079386Y-118684342D01*
X236068000Y-118632000D01*
X236068000Y-118236630D01*
X242984482Y-118236630D01*
X242984998Y-118242774D01*
X242997078Y-118386626D01*
X243000121Y-118422867D01*
X243051636Y-118602520D01*
X243073392Y-118644852D01*
X243133343Y-118761505D01*
X243137064Y-118768746D01*
X243140887Y-118773570D01*
X243140890Y-118773574D01*
X243246170Y-118906402D01*
X243253152Y-118915212D01*
X243257846Y-118919207D01*
X243324588Y-118976009D01*
X243395478Y-119036342D01*
X243558621Y-119127519D01*
X243736367Y-119185272D01*
X243921945Y-119207401D01*
X243928080Y-119206929D01*
X243928082Y-119206929D01*
X243984119Y-119202617D01*
X244108287Y-119193063D01*
X244288296Y-119142804D01*
X244293785Y-119140031D01*
X244293791Y-119140029D01*
X244389326Y-119091770D01*
X244455114Y-119058538D01*
X244483524Y-119036342D01*
X244510040Y-119015625D01*
X244602387Y-118943475D01*
X244606413Y-118938811D01*
X244606416Y-118938808D01*
X244720480Y-118806663D01*
X244724507Y-118801998D01*
X244757096Y-118744630D01*
X255430482Y-118744630D01*
X255430998Y-118750774D01*
X255445142Y-118919207D01*
X255446121Y-118930867D01*
X255497636Y-119110520D01*
X255516972Y-119148144D01*
X255557347Y-119226705D01*
X255583064Y-119276746D01*
X255586887Y-119281570D01*
X255586890Y-119281574D01*
X255647473Y-119358010D01*
X255699152Y-119423212D01*
X255703846Y-119427207D01*
X255781493Y-119493290D01*
X255841478Y-119544342D01*
X256004621Y-119635519D01*
X256182367Y-119693272D01*
X256367945Y-119715401D01*
X256374080Y-119714929D01*
X256374082Y-119714929D01*
X256430119Y-119710617D01*
X256554287Y-119701063D01*
X256734296Y-119650804D01*
X256739785Y-119648031D01*
X256739791Y-119648029D01*
X256817159Y-119608947D01*
X256901114Y-119566538D01*
X256929524Y-119544342D01*
X256981789Y-119503507D01*
X257048387Y-119451475D01*
X257052413Y-119446811D01*
X257052416Y-119446808D01*
X257166480Y-119314663D01*
X257170507Y-119309998D01*
X257241361Y-119185272D01*
X257259778Y-119152852D01*
X257259779Y-119152851D01*
X257262821Y-119147495D01*
X257270467Y-119124512D01*
X257319867Y-118976009D01*
X257321814Y-118970157D01*
X257329366Y-118910381D01*
X257344796Y-118788241D01*
X257344797Y-118788232D01*
X257345238Y-118784738D01*
X257345611Y-118758000D01*
X257344300Y-118744630D01*
X261526482Y-118744630D01*
X261526998Y-118750774D01*
X261541142Y-118919207D01*
X261542121Y-118930867D01*
X261593636Y-119110520D01*
X261612972Y-119148144D01*
X261653347Y-119226705D01*
X261679064Y-119276746D01*
X261682887Y-119281570D01*
X261682890Y-119281574D01*
X261743473Y-119358010D01*
X261795152Y-119423212D01*
X261799846Y-119427207D01*
X261877493Y-119493290D01*
X261937478Y-119544342D01*
X262100621Y-119635519D01*
X262278367Y-119693272D01*
X262463945Y-119715401D01*
X262470080Y-119714929D01*
X262470082Y-119714929D01*
X262526119Y-119710617D01*
X262650287Y-119701063D01*
X262830296Y-119650804D01*
X262835785Y-119648031D01*
X262835791Y-119648029D01*
X262913159Y-119608947D01*
X262997114Y-119566538D01*
X263025524Y-119544342D01*
X263077789Y-119503507D01*
X263144387Y-119451475D01*
X263148413Y-119446811D01*
X263148416Y-119446808D01*
X263262480Y-119314663D01*
X263266507Y-119309998D01*
X263337361Y-119185272D01*
X263355778Y-119152852D01*
X263355779Y-119152851D01*
X263358821Y-119147495D01*
X263366467Y-119124512D01*
X263415867Y-118976009D01*
X263417814Y-118970157D01*
X263425366Y-118910381D01*
X263440796Y-118788241D01*
X263440797Y-118788232D01*
X263441238Y-118784738D01*
X263441611Y-118758000D01*
X263423373Y-118571999D01*
X263419419Y-118558901D01*
X263400760Y-118497103D01*
X263369355Y-118393083D01*
X263281615Y-118228066D01*
X263189940Y-118115662D01*
X263167388Y-118088010D01*
X263167385Y-118088007D01*
X263163493Y-118083235D01*
X263158744Y-118079306D01*
X263024239Y-117968034D01*
X263024236Y-117968032D01*
X263019489Y-117964105D01*
X262855089Y-117875214D01*
X262765822Y-117847581D01*
X262682441Y-117821770D01*
X262682438Y-117821769D01*
X262676554Y-117819948D01*
X262670429Y-117819304D01*
X262670428Y-117819304D01*
X262496813Y-117801056D01*
X262496812Y-117801056D01*
X262490685Y-117800412D01*
X262372087Y-117811206D01*
X262310703Y-117816792D01*
X262310702Y-117816792D01*
X262304562Y-117817351D01*
X262298648Y-117819092D01*
X262298646Y-117819092D01*
X262176466Y-117855052D01*
X262125273Y-117870119D01*
X261959647Y-117956705D01*
X261813995Y-118073813D01*
X261693862Y-118216981D01*
X261690899Y-118222370D01*
X261690896Y-118222375D01*
X261617509Y-118355868D01*
X261603826Y-118380757D01*
X261601965Y-118386624D01*
X261601964Y-118386626D01*
X261590468Y-118422867D01*
X261547315Y-118558901D01*
X261526482Y-118744630D01*
X257344300Y-118744630D01*
X257327373Y-118571999D01*
X257323419Y-118558901D01*
X257304760Y-118497103D01*
X257273355Y-118393083D01*
X257185615Y-118228066D01*
X257093940Y-118115662D01*
X257071388Y-118088010D01*
X257071385Y-118088007D01*
X257067493Y-118083235D01*
X257062744Y-118079306D01*
X256928239Y-117968034D01*
X256928236Y-117968032D01*
X256923489Y-117964105D01*
X256759089Y-117875214D01*
X256669822Y-117847581D01*
X256586441Y-117821770D01*
X256586438Y-117821769D01*
X256580554Y-117819948D01*
X256574429Y-117819304D01*
X256574428Y-117819304D01*
X256400813Y-117801056D01*
X256400812Y-117801056D01*
X256394685Y-117800412D01*
X256276087Y-117811206D01*
X256214703Y-117816792D01*
X256214702Y-117816792D01*
X256208562Y-117817351D01*
X256202648Y-117819092D01*
X256202646Y-117819092D01*
X256080466Y-117855052D01*
X256029273Y-117870119D01*
X255863647Y-117956705D01*
X255717995Y-118073813D01*
X255597862Y-118216981D01*
X255594899Y-118222370D01*
X255594896Y-118222375D01*
X255521509Y-118355868D01*
X255507826Y-118380757D01*
X255505965Y-118386624D01*
X255505964Y-118386626D01*
X255494468Y-118422867D01*
X255451315Y-118558901D01*
X255430482Y-118744630D01*
X244757096Y-118744630D01*
X244816821Y-118639495D01*
X244819315Y-118632000D01*
X244873867Y-118468009D01*
X244875814Y-118462157D01*
X244897876Y-118287521D01*
X244898796Y-118280241D01*
X244898797Y-118280232D01*
X244899238Y-118276738D01*
X244899611Y-118250000D01*
X244881373Y-118063999D01*
X244877419Y-118050901D01*
X244829136Y-117890983D01*
X244827355Y-117885083D01*
X244739615Y-117720066D01*
X244720231Y-117696299D01*
X244692677Y-117630867D01*
X244704872Y-117560926D01*
X244717393Y-117542024D01*
X244716929Y-117541697D01*
X244720480Y-117536664D01*
X244724507Y-117531998D01*
X244795361Y-117407272D01*
X244813778Y-117374852D01*
X244813779Y-117374851D01*
X244816821Y-117369495D01*
X244824467Y-117346512D01*
X244873867Y-117198009D01*
X244875814Y-117192157D01*
X244890918Y-117072600D01*
X244898796Y-117010241D01*
X244898797Y-117010232D01*
X244899238Y-117006738D01*
X244899536Y-116985345D01*
X244920485Y-116917511D01*
X244974783Y-116871770D01*
X245045191Y-116862645D01*
X245109355Y-116893035D01*
X245137590Y-116929506D01*
X245166246Y-116985265D01*
X245166252Y-116985274D01*
X245169064Y-116990746D01*
X245172887Y-116995570D01*
X245172890Y-116995574D01*
X245233941Y-117072600D01*
X245285152Y-117137212D01*
X245289846Y-117141207D01*
X245417176Y-117249574D01*
X245427478Y-117258342D01*
X245590621Y-117349519D01*
X245768367Y-117407272D01*
X245953945Y-117429401D01*
X245960080Y-117428929D01*
X245960082Y-117428929D01*
X246016119Y-117424617D01*
X246140287Y-117415063D01*
X246320296Y-117364804D01*
X246325785Y-117362031D01*
X246325791Y-117362029D01*
X246403159Y-117322947D01*
X246487114Y-117280538D01*
X246515524Y-117258342D01*
X246539936Y-117239269D01*
X246634387Y-117165475D01*
X246638413Y-117160811D01*
X246638416Y-117160808D01*
X246752480Y-117028663D01*
X246756507Y-117023998D01*
X246848821Y-116861495D01*
X246907814Y-116684157D01*
X246918779Y-116597362D01*
X246930796Y-116502241D01*
X246930797Y-116502232D01*
X246931238Y-116498738D01*
X246931611Y-116472000D01*
X246913373Y-116285999D01*
X246909419Y-116272901D01*
X246861136Y-116112983D01*
X246859355Y-116107083D01*
X246771615Y-115942066D01*
X246766974Y-115936375D01*
X246657388Y-115802010D01*
X246657385Y-115802007D01*
X246653493Y-115797235D01*
X246648744Y-115793306D01*
X246514239Y-115682034D01*
X246514236Y-115682032D01*
X246509489Y-115678105D01*
X246345089Y-115589214D01*
X246255822Y-115561581D01*
X246172441Y-115535770D01*
X246172438Y-115535769D01*
X246166554Y-115533948D01*
X246160429Y-115533304D01*
X246160428Y-115533304D01*
X245986813Y-115515056D01*
X245986812Y-115515056D01*
X245980685Y-115514412D01*
X245862087Y-115525206D01*
X245800703Y-115530792D01*
X245800702Y-115530792D01*
X245794562Y-115531351D01*
X245788648Y-115533092D01*
X245788646Y-115533092D01*
X245666466Y-115569052D01*
X245615273Y-115584119D01*
X245449647Y-115670705D01*
X245303995Y-115787813D01*
X245183862Y-115930981D01*
X245180899Y-115936370D01*
X245180896Y-115936375D01*
X245125056Y-116037950D01*
X245093826Y-116094757D01*
X245037315Y-116272901D01*
X245028806Y-116348757D01*
X245017443Y-116450066D01*
X245016482Y-116458630D01*
X245016998Y-116464775D01*
X245016952Y-116468081D01*
X244996002Y-116535916D01*
X244941704Y-116581657D01*
X244871296Y-116590780D01*
X244807133Y-116560390D01*
X244779712Y-116525478D01*
X244742508Y-116455507D01*
X244739615Y-116450066D01*
X244652589Y-116343362D01*
X244625388Y-116310010D01*
X244625385Y-116310007D01*
X244621493Y-116305235D01*
X244616744Y-116301306D01*
X244482239Y-116190034D01*
X244482236Y-116190032D01*
X244477489Y-116186105D01*
X244313089Y-116097214D01*
X244179981Y-116056010D01*
X244140441Y-116043770D01*
X244140438Y-116043769D01*
X244134554Y-116041948D01*
X244128429Y-116041304D01*
X244128428Y-116041304D01*
X243954813Y-116023056D01*
X243954812Y-116023056D01*
X243948685Y-116022412D01*
X243830087Y-116033206D01*
X243768703Y-116038792D01*
X243768702Y-116038792D01*
X243762562Y-116039351D01*
X243756648Y-116041092D01*
X243756646Y-116041092D01*
X243705960Y-116056010D01*
X243583273Y-116092119D01*
X243417647Y-116178705D01*
X243271995Y-116295813D01*
X243151862Y-116438981D01*
X243148899Y-116444370D01*
X243148896Y-116444375D01*
X243106754Y-116521032D01*
X243061826Y-116602757D01*
X243005315Y-116780901D01*
X242984482Y-116966630D01*
X242984998Y-116972774D01*
X242999142Y-117141207D01*
X243000121Y-117152867D01*
X243051636Y-117332520D01*
X243073392Y-117374852D01*
X243096325Y-117419475D01*
X243137064Y-117498746D01*
X243140891Y-117503575D01*
X243140894Y-117503579D01*
X243166111Y-117535396D01*
X243192748Y-117601206D01*
X243179577Y-117670970D01*
X243163887Y-117694650D01*
X243151862Y-117708981D01*
X243061826Y-117872757D01*
X243005315Y-118050901D01*
X242984482Y-118236630D01*
X236068000Y-118236630D01*
X236068000Y-116712630D01*
X238666482Y-116712630D01*
X238666998Y-116718774D01*
X238679846Y-116871770D01*
X238682121Y-116898867D01*
X238733636Y-117078520D01*
X238755392Y-117120852D01*
X238795045Y-117198009D01*
X238819064Y-117244746D01*
X238822887Y-117249570D01*
X238822890Y-117249574D01*
X238883941Y-117326600D01*
X238935152Y-117391212D01*
X238939846Y-117395207D01*
X239067182Y-117503579D01*
X239077478Y-117512342D01*
X239240621Y-117603519D01*
X239418367Y-117661272D01*
X239603945Y-117683401D01*
X239610080Y-117682929D01*
X239610082Y-117682929D01*
X239666119Y-117678617D01*
X239790287Y-117669063D01*
X239970296Y-117618804D01*
X239975785Y-117616031D01*
X239975791Y-117616029D01*
X240053159Y-117576947D01*
X240137114Y-117534538D01*
X240165524Y-117512342D01*
X240271682Y-117429401D01*
X240284387Y-117419475D01*
X240288413Y-117414811D01*
X240288416Y-117414808D01*
X240402480Y-117282663D01*
X240406507Y-117277998D01*
X240486484Y-117137212D01*
X240495778Y-117120852D01*
X240495779Y-117120851D01*
X240498821Y-117115495D01*
X240513091Y-117072600D01*
X240542143Y-116985265D01*
X240557814Y-116938157D01*
X240566822Y-116866852D01*
X240580796Y-116756241D01*
X240580797Y-116756232D01*
X240581238Y-116752738D01*
X240581611Y-116726000D01*
X240563373Y-116539999D01*
X240559419Y-116526901D01*
X240511136Y-116366983D01*
X240509355Y-116361083D01*
X240421615Y-116196066D01*
X240416974Y-116190375D01*
X240307388Y-116056010D01*
X240307385Y-116056007D01*
X240303493Y-116051235D01*
X240298744Y-116047306D01*
X240164239Y-115936034D01*
X240164236Y-115936032D01*
X240159489Y-115932105D01*
X239995089Y-115843214D01*
X239861981Y-115802010D01*
X239822441Y-115789770D01*
X239822438Y-115789769D01*
X239816554Y-115787948D01*
X239810429Y-115787304D01*
X239810428Y-115787304D01*
X239636813Y-115769056D01*
X239636812Y-115769056D01*
X239630685Y-115768412D01*
X239512087Y-115779206D01*
X239450703Y-115784792D01*
X239450702Y-115784792D01*
X239444562Y-115785351D01*
X239438648Y-115787092D01*
X239438646Y-115787092D01*
X239387960Y-115802010D01*
X239265273Y-115838119D01*
X239099647Y-115924705D01*
X238953995Y-116041813D01*
X238833862Y-116184981D01*
X238830899Y-116190370D01*
X238830896Y-116190375D01*
X238788754Y-116267032D01*
X238743826Y-116348757D01*
X238687315Y-116526901D01*
X238666482Y-116712630D01*
X236068000Y-116712630D01*
X236068000Y-114172630D01*
X236888482Y-114172630D01*
X236888998Y-114178774D01*
X236900728Y-114318459D01*
X236904121Y-114358867D01*
X236905819Y-114364788D01*
X236905819Y-114364789D01*
X236910447Y-114380929D01*
X236955636Y-114538520D01*
X237041064Y-114704746D01*
X237044887Y-114709570D01*
X237044890Y-114709574D01*
X237150170Y-114842402D01*
X237157152Y-114851212D01*
X237161846Y-114855207D01*
X237194819Y-114883269D01*
X237299478Y-114972342D01*
X237462621Y-115063519D01*
X237640367Y-115121272D01*
X237825945Y-115143401D01*
X237832080Y-115142929D01*
X237832082Y-115142929D01*
X237888119Y-115138617D01*
X238012287Y-115129063D01*
X238192296Y-115078804D01*
X238197785Y-115076031D01*
X238197791Y-115076029D01*
X238275159Y-115036947D01*
X238359114Y-114994538D01*
X238387524Y-114972342D01*
X238411486Y-114953621D01*
X238506387Y-114879475D01*
X238510413Y-114874811D01*
X238510416Y-114874808D01*
X238624480Y-114742663D01*
X238628507Y-114737998D01*
X238720821Y-114575495D01*
X238735091Y-114532600D01*
X238777867Y-114404009D01*
X238779814Y-114398157D01*
X238801216Y-114228746D01*
X238802796Y-114216241D01*
X238802797Y-114216232D01*
X238803238Y-114212738D01*
X238803611Y-114186000D01*
X238785373Y-113999999D01*
X238781419Y-113986901D01*
X238733136Y-113826983D01*
X238731355Y-113821083D01*
X238643615Y-113656066D01*
X238634574Y-113644981D01*
X238529388Y-113516010D01*
X238529385Y-113516007D01*
X238525493Y-113511235D01*
X238520744Y-113507306D01*
X238403883Y-113410630D01*
X252382482Y-113410630D01*
X252382998Y-113416774D01*
X252389815Y-113497950D01*
X252398121Y-113596867D01*
X252449636Y-113776520D01*
X252535064Y-113942746D01*
X252538887Y-113947570D01*
X252538890Y-113947574D01*
X252580442Y-113999999D01*
X252651152Y-114089212D01*
X252655846Y-114093207D01*
X252764877Y-114186000D01*
X252793478Y-114210342D01*
X252956621Y-114301519D01*
X253134367Y-114359272D01*
X253319945Y-114381401D01*
X253326080Y-114380929D01*
X253326082Y-114380929D01*
X253382119Y-114376617D01*
X253506287Y-114367063D01*
X253686296Y-114316804D01*
X253691785Y-114314031D01*
X253691791Y-114314029D01*
X253769159Y-114274947D01*
X253853114Y-114232538D01*
X253881524Y-114210342D01*
X253908193Y-114189505D01*
X254000387Y-114117475D01*
X254004413Y-114112811D01*
X254004416Y-114112808D01*
X254113096Y-113986901D01*
X254122507Y-113975998D01*
X254207159Y-113826983D01*
X254211778Y-113818852D01*
X254211779Y-113818851D01*
X254214821Y-113813495D01*
X254229091Y-113770600D01*
X254269084Y-113650375D01*
X254273814Y-113636157D01*
X254288992Y-113516010D01*
X254296796Y-113454241D01*
X254296797Y-113454232D01*
X254297238Y-113450738D01*
X254297611Y-113424000D01*
X254279373Y-113237999D01*
X254275419Y-113224901D01*
X254227136Y-113064983D01*
X254225355Y-113059083D01*
X254137615Y-112894066D01*
X254124727Y-112878264D01*
X254023388Y-112754010D01*
X254023385Y-112754007D01*
X254019493Y-112749235D01*
X254014744Y-112745306D01*
X253880239Y-112634034D01*
X253880236Y-112634032D01*
X253875489Y-112630105D01*
X253711089Y-112541214D01*
X253621822Y-112513581D01*
X253538441Y-112487770D01*
X253538438Y-112487769D01*
X253532554Y-112485948D01*
X253526429Y-112485304D01*
X253526428Y-112485304D01*
X253352813Y-112467056D01*
X253352812Y-112467056D01*
X253346685Y-112466412D01*
X253228087Y-112477206D01*
X253166703Y-112482792D01*
X253166702Y-112482792D01*
X253160562Y-112483351D01*
X253154648Y-112485092D01*
X253154646Y-112485092D01*
X253032467Y-112521052D01*
X252981273Y-112536119D01*
X252815647Y-112622705D01*
X252669995Y-112739813D01*
X252549862Y-112882981D01*
X252546899Y-112888370D01*
X252546896Y-112888375D01*
X252473509Y-113021868D01*
X252459826Y-113046757D01*
X252403315Y-113224901D01*
X252382482Y-113410630D01*
X238403883Y-113410630D01*
X238386239Y-113396034D01*
X238386236Y-113396032D01*
X238381489Y-113392105D01*
X238217089Y-113303214D01*
X238127822Y-113275581D01*
X238044441Y-113249770D01*
X238044438Y-113249769D01*
X238038554Y-113247948D01*
X238032429Y-113247304D01*
X238032428Y-113247304D01*
X237858813Y-113229056D01*
X237858812Y-113229056D01*
X237852685Y-113228412D01*
X237747345Y-113237999D01*
X237672703Y-113244792D01*
X237672702Y-113244792D01*
X237666562Y-113245351D01*
X237660648Y-113247092D01*
X237660646Y-113247092D01*
X237538466Y-113283052D01*
X237487273Y-113298119D01*
X237321647Y-113384705D01*
X237175995Y-113501813D01*
X237055862Y-113644981D01*
X237052899Y-113650370D01*
X237052896Y-113650375D01*
X236986803Y-113770600D01*
X236965826Y-113808757D01*
X236963965Y-113814624D01*
X236963964Y-113814626D01*
X236961916Y-113821083D01*
X236909315Y-113986901D01*
X236888482Y-114172630D01*
X236068000Y-114172630D01*
X236068000Y-109854630D01*
X239682482Y-109854630D01*
X239698121Y-110040867D01*
X239749636Y-110220520D01*
X239835064Y-110386746D01*
X239838887Y-110391570D01*
X239838890Y-110391574D01*
X239944170Y-110524402D01*
X239951152Y-110533212D01*
X239955846Y-110537207D01*
X239988819Y-110565269D01*
X240093478Y-110654342D01*
X240256621Y-110745519D01*
X240434367Y-110803272D01*
X240619945Y-110825401D01*
X240626080Y-110824929D01*
X240626082Y-110824929D01*
X240682119Y-110820617D01*
X240806287Y-110811063D01*
X240986296Y-110760804D01*
X240991785Y-110758031D01*
X240991791Y-110758029D01*
X241069159Y-110718947D01*
X241153114Y-110676538D01*
X241181524Y-110654342D01*
X241205486Y-110635621D01*
X241300387Y-110561475D01*
X241304413Y-110556811D01*
X241304416Y-110556808D01*
X241418480Y-110424663D01*
X241422507Y-110419998D01*
X241514821Y-110257495D01*
X241529091Y-110214600D01*
X241571867Y-110086009D01*
X241573814Y-110080157D01*
X241579553Y-110034727D01*
X241596796Y-109898241D01*
X241596797Y-109898232D01*
X241597238Y-109894738D01*
X241597611Y-109868000D01*
X241579373Y-109681999D01*
X241575419Y-109668901D01*
X241527136Y-109508983D01*
X241525355Y-109503083D01*
X241437615Y-109338066D01*
X241416137Y-109311731D01*
X241323388Y-109198010D01*
X241323385Y-109198007D01*
X241319493Y-109193235D01*
X241314744Y-109189306D01*
X241180239Y-109078034D01*
X241180236Y-109078032D01*
X241175489Y-109074105D01*
X241011089Y-108985214D01*
X240921822Y-108957581D01*
X240838441Y-108931770D01*
X240838438Y-108931769D01*
X240832554Y-108929948D01*
X240826429Y-108929304D01*
X240826428Y-108929304D01*
X240652813Y-108911056D01*
X240652812Y-108911056D01*
X240646685Y-108910412D01*
X240528087Y-108921206D01*
X240466703Y-108926792D01*
X240466702Y-108926792D01*
X240460562Y-108927351D01*
X240454648Y-108929092D01*
X240454646Y-108929092D01*
X240335048Y-108964292D01*
X240281273Y-108980119D01*
X240275808Y-108982976D01*
X240137978Y-109055031D01*
X240115647Y-109066705D01*
X239969995Y-109183813D01*
X239849862Y-109326981D01*
X239846899Y-109332370D01*
X239846896Y-109332375D01*
X239812434Y-109395062D01*
X239759826Y-109490757D01*
X239703315Y-109668901D01*
X239682482Y-109854630D01*
X236068000Y-109854630D01*
X236068000Y-105042000D01*
X239213386Y-105042000D01*
X239241636Y-105140520D01*
G37*
G04 #@! TD.AperFunction*
M02*
