G04 #@! TF.GenerationSoftware,KiCad,Pcbnew,(6.0.1)*
G04 #@! TF.CreationDate,2022-02-21T00:55:15+09:00*
G04 #@! TF.ProjectId,KiCAD_jtag,4b694341-445f-46a7-9461-672e6b696361,rev?*
G04 #@! TF.SameCoordinates,Original*
G04 #@! TF.FileFunction,Paste,Top*
G04 #@! TF.FilePolarity,Positive*
%FSLAX46Y46*%
G04 Gerber Fmt 4.6, Leading zero omitted, Abs format (unit mm)*
G04 Created by KiCad (PCBNEW (6.0.1)) date 2022-02-21 00:55:15*
%MOMM*%
%LPD*%
G01*
G04 APERTURE LIST*
G04 Aperture macros list*
%AMRoundRect*
0 Rectangle with rounded corners*
0 $1 Rounding radius*
0 $2 $3 $4 $5 $6 $7 $8 $9 X,Y pos of 4 corners*
0 Add a 4 corners polygon primitive as box body*
4,1,4,$2,$3,$4,$5,$6,$7,$8,$9,$2,$3,0*
0 Add four circle primitives for the rounded corners*
1,1,$1+$1,$2,$3*
1,1,$1+$1,$4,$5*
1,1,$1+$1,$6,$7*
1,1,$1+$1,$8,$9*
0 Add four rect primitives between the rounded corners*
20,1,$1+$1,$2,$3,$4,$5,0*
20,1,$1+$1,$4,$5,$6,$7,0*
20,1,$1+$1,$6,$7,$8,$9,0*
20,1,$1+$1,$8,$9,$2,$3,0*%
G04 Aperture macros list end*
%ADD10RoundRect,0.250000X0.350000X0.450000X-0.350000X0.450000X-0.350000X-0.450000X0.350000X-0.450000X0*%
%ADD11RoundRect,0.250000X-0.450000X0.350000X-0.450000X-0.350000X0.450000X-0.350000X0.450000X0.350000X0*%
%ADD12RoundRect,0.250000X0.450000X-0.350000X0.450000X0.350000X-0.450000X0.350000X-0.450000X-0.350000X0*%
%ADD13R,1.200000X0.600000*%
%ADD14RoundRect,0.250000X-0.450000X0.325000X-0.450000X-0.325000X0.450000X-0.325000X0.450000X0.325000X0*%
%ADD15RoundRect,0.250000X-0.350000X-0.450000X0.350000X-0.450000X0.350000X0.450000X-0.350000X0.450000X0*%
%ADD16RoundRect,0.250000X-0.337500X-0.475000X0.337500X-0.475000X0.337500X0.475000X-0.337500X0.475000X0*%
%ADD17RoundRect,0.250000X-0.475000X0.337500X-0.475000X-0.337500X0.475000X-0.337500X0.475000X0.337500X0*%
%ADD18RoundRect,0.250000X0.337500X0.475000X-0.337500X0.475000X-0.337500X-0.475000X0.337500X-0.475000X0*%
%ADD19RoundRect,0.250000X0.475000X-0.337500X0.475000X0.337500X-0.475000X0.337500X-0.475000X-0.337500X0*%
%ADD20R,0.700000X1.525000*%
%ADD21R,0.600000X1.200000*%
%ADD22R,2.750000X1.000000*%
%ADD23RoundRect,0.250000X0.450000X-0.325000X0.450000X0.325000X-0.450000X0.325000X-0.450000X-0.325000X0*%
%ADD24RoundRect,0.250000X-0.325000X-0.450000X0.325000X-0.450000X0.325000X0.450000X-0.325000X0.450000X0*%
G04 APERTURE END LIST*
D10*
X243926000Y-145428000D03*
X241926000Y-145428000D03*
D11*
X261976000Y-106328000D03*
X261976000Y-108328000D03*
D12*
X202794000Y-138808000D03*
X202794000Y-136808000D03*
D10*
X243926000Y-139306600D03*
X241926000Y-139306600D03*
D13*
X236302000Y-145362000D03*
X236302000Y-144412000D03*
X236302000Y-143462000D03*
X233802000Y-143462000D03*
X233802000Y-144412000D03*
X233802000Y-145362000D03*
D10*
X224130000Y-144158000D03*
X222130000Y-144158000D03*
D14*
X202794000Y-132465000D03*
X202794000Y-134515000D03*
D15*
X226940000Y-114948000D03*
X228940000Y-114948000D03*
D16*
X226902500Y-112662000D03*
X228977500Y-112662000D03*
D10*
X244434000Y-108598000D03*
X242434000Y-108598000D03*
D11*
X259690000Y-106344000D03*
X259690000Y-108344000D03*
D13*
X236302000Y-125804000D03*
X236302000Y-124854000D03*
X236302000Y-123904000D03*
X233802000Y-123904000D03*
X233802000Y-124854000D03*
X233802000Y-125804000D03*
D17*
X255118000Y-111603000D03*
X255118000Y-113678000D03*
D16*
X226394500Y-143142000D03*
X228469500Y-143142000D03*
D10*
X245974000Y-130442000D03*
X243974000Y-130442000D03*
X245942000Y-132728000D03*
X243942000Y-132728000D03*
D18*
X233782000Y-116980000D03*
X231707000Y-116980000D03*
D19*
X217003800Y-109600100D03*
X217003800Y-107525100D03*
D13*
X218522000Y-138946000D03*
X218522000Y-137996000D03*
X218522000Y-137046000D03*
X216022000Y-137046000D03*
X216022000Y-138946000D03*
D16*
X236554500Y-147460000D03*
X238629500Y-147460000D03*
X236394300Y-141059200D03*
X238469300Y-141059200D03*
D13*
X236394200Y-138961200D03*
X236394200Y-138011200D03*
X236394200Y-137061200D03*
X233894200Y-137061200D03*
X233894200Y-138011200D03*
X233894200Y-138961200D03*
D18*
X233803500Y-134506000D03*
X231728500Y-134506000D03*
D15*
X226321000Y-139078000D03*
X228321000Y-139078000D03*
D16*
X226365200Y-136792000D03*
X228440200Y-136792000D03*
D10*
X245958000Y-126124000D03*
X243958000Y-126124000D03*
D16*
X226902500Y-130188000D03*
X228977500Y-130188000D03*
D10*
X243926000Y-143142000D03*
X241926000Y-143142000D03*
D11*
X257404000Y-106328000D03*
X257404000Y-108328000D03*
D20*
X257531000Y-117152000D03*
X258801000Y-117152000D03*
X260071000Y-117152000D03*
X261341000Y-117152000D03*
X261341000Y-111728000D03*
X260071000Y-111728000D03*
X258801000Y-111728000D03*
X257531000Y-111728000D03*
D10*
X245942000Y-114948000D03*
X243942000Y-114948000D03*
D15*
X226940000Y-125870000D03*
X228940000Y-125870000D03*
D16*
X226902500Y-123584000D03*
X228977500Y-123584000D03*
D10*
X224114000Y-137528600D03*
X222114000Y-137528600D03*
D18*
X233803500Y-127902000D03*
X231728500Y-127902000D03*
D10*
X224622000Y-124854000D03*
X222622000Y-124854000D03*
D13*
X236302000Y-114882000D03*
X236302000Y-113932000D03*
X236302000Y-112982000D03*
X233802000Y-112982000D03*
X233802000Y-113932000D03*
X233802000Y-114882000D03*
X233802000Y-108648000D03*
X233802000Y-109598000D03*
X233802000Y-110548000D03*
X236302000Y-110548000D03*
X236302000Y-108648000D03*
D10*
X245958000Y-123838000D03*
X243958000Y-123838000D03*
D16*
X238332500Y-108582000D03*
X240407500Y-108582000D03*
D11*
X202540000Y-104042000D03*
X202540000Y-106042000D03*
D10*
X224638000Y-131458000D03*
X222638000Y-131458000D03*
D13*
X236302000Y-132408000D03*
X236302000Y-131458000D03*
X236302000Y-130508000D03*
X233802000Y-130508000D03*
X233802000Y-131458000D03*
X233802000Y-132408000D03*
D18*
X233549500Y-147460000D03*
X231474500Y-147460000D03*
D10*
X245958000Y-112662000D03*
X243958000Y-112662000D03*
X243951400Y-136995200D03*
X241951400Y-136995200D03*
D21*
X235748000Y-119286000D03*
X234798000Y-119286000D03*
X233848000Y-119286000D03*
X233848000Y-121786000D03*
X235748000Y-121786000D03*
D22*
X208678800Y-119262600D03*
X212928800Y-119262600D03*
X208678800Y-121262600D03*
X212928800Y-121262600D03*
X208678800Y-123262600D03*
X212928800Y-123262600D03*
X208678800Y-125262600D03*
X212928800Y-125262600D03*
X208678800Y-127262600D03*
X212928800Y-127262600D03*
X208678800Y-129262600D03*
X212928800Y-129262600D03*
X208678800Y-131262600D03*
X212928800Y-131262600D03*
D12*
X219303800Y-109562600D03*
X219303800Y-107562600D03*
D23*
X202540000Y-110385000D03*
X202540000Y-108335000D03*
D16*
X236300500Y-116980000D03*
X238375500Y-116980000D03*
D15*
X226432000Y-145428000D03*
X228432000Y-145428000D03*
D16*
X215980500Y-141110000D03*
X218055500Y-141110000D03*
D24*
X240622000Y-106312000D03*
X242672000Y-106312000D03*
D16*
X236300500Y-134506000D03*
X238375500Y-134506000D03*
D18*
X233879700Y-141059200D03*
X231804700Y-141059200D03*
D16*
X236554500Y-127902000D03*
X238629500Y-127902000D03*
D15*
X226956000Y-132474000D03*
X228956000Y-132474000D03*
D10*
X224622000Y-113678000D03*
X222622000Y-113678000D03*
D16*
X238078500Y-121552000D03*
X240153500Y-121552000D03*
M02*
