M48
; DRILL file {KiCad (6.0.1)} date Mon Feb 21 00:55:49 2022
; FORMAT={-:-/ absolute / metric / decimal}
; #@! TF.CreationDate,2022-02-21T00:55:49+09:00
; #@! TF.GenerationSoftware,Kicad,Pcbnew,(6.0.1)
; #@! TF.FileFunction,MixedPlating,1,4
FMAT,2
METRIC
; #@! TA.AperFunction,Plated,PTH,ViaDrill
T1C0.635
; #@! TA.AperFunction,Plated,PTH,ComponentDrill
T2C1.000
; #@! TA.AperFunction,Plated,PTH,ComponentDrill
T3C1.100
; #@! TA.AperFunction,NonPlated,NPTH,ComponentDrill
T4C1.000
; #@! TA.AperFunction,NonPlated,NPTH,ComponentDrill
T5C2.700
%
G90
G05
T1
X202.54Y-102.248
X202.794Y-112.154
X202.794Y-140.602
X204.318Y-131.712
X205.842Y-122.314
X205.842Y-124.092
X205.842Y-126.124
X205.842Y-128.156
X213.716Y-139.586
X215.98Y-142.612
X218.034Y-105.296
X218.034Y-136.03
X218.056Y-142.612
X219.812Y-102.248
X227.94Y-140.602
X227.94Y-146.952
X228.448Y-133.998
X228.702Y-116.218
X228.702Y-127.14
X229.007Y-103.518
X229.21Y-111.392
X229.718Y-136.792
X229.718Y-143.142
X229.972Y-147.46
X230.226Y-116.726
X230.226Y-130.188
X230.226Y-134.506
X230.277Y-141.059
X230.48Y-123.584
X230.48Y-127.902
X231.242Y-139.078
X231.496Y-132.474
X231.75Y-125.87
X232.004Y-145.174
X232.258Y-121.552
X232.34Y-110.548
X232.512Y-119.52
X232.766Y-118.25
X232.766Y-148.73
X233.02Y-129.172
X233.02Y-135.776
X233.02Y-142.38
X233.802Y-107.602
X236.83Y-118.25
X237.084Y-135.776
X237.084Y-142.38
X237.084Y-148.73
X237.338Y-129.172
X237.846Y-114.186
X237.846Y-125.108
X237.846Y-131.712
X237.846Y-138.062
X237.846Y-144.666
X238.1Y-107.328
X238.354Y-120.028
X239.624Y-116.726
X239.624Y-134.506
X239.827Y-141.059
X239.878Y-127.902
X240.132Y-104.788
X240.386Y-120.028
X240.386Y-147.46
X240.64Y-109.868
X241.656Y-101.486
X241.656Y-102.756
X243.942Y-116.98
X243.942Y-118.25
X243.942Y-146.952
X245.466Y-136.538
X245.466Y-142.888
X245.974Y-116.472
X245.974Y-127.648
X247.498Y-112.408
X247.498Y-123.584
X247.498Y-129.934
X250.8Y-125.87
X250.8Y-146.952
X253.34Y-111.9
X253.34Y-113.424
X256.388Y-118.758
X258.928Y-101.486
X259.69Y-102.502
X260.706Y-103.772
X262.484Y-118.758
T2
X208.37Y-96.23
X208.37Y-98.77
X208.379Y-108.563
X210.91Y-96.23
X210.91Y-98.77
X210.919Y-108.563
X213.45Y-96.23
X213.45Y-98.77
X213.459Y-108.563
X215.99Y-96.23
X215.99Y-98.77
X217.704Y-118.413
X217.704Y-120.953
X217.704Y-123.493
X217.704Y-126.033
X217.704Y-128.573
X217.704Y-131.113
X218.53Y-96.23
X218.53Y-98.77
X221.07Y-96.23
X221.07Y-98.77
X223.61Y-96.23
X223.61Y-98.77
X226.15Y-96.23
X226.15Y-98.77
X228.69Y-96.23
X228.69Y-98.77
X231.23Y-96.23
X231.23Y-98.77
X233.77Y-96.23
X233.77Y-98.77
X236.31Y-96.23
X236.31Y-98.77
X238.85Y-96.23
X238.85Y-98.77
X241.39Y-96.23
X241.39Y-98.77
X243.93Y-96.23
X243.93Y-98.77
X246.47Y-96.23
X246.47Y-98.77
X249.01Y-96.23
X249.01Y-98.77
X251.55Y-96.23
X251.55Y-98.77
X254.09Y-96.23
X254.09Y-98.77
X254.102Y-105.545
X254.102Y-108.085
X256.63Y-96.23
X256.63Y-98.77
T3
X208.324Y-112.563
X218.484Y-112.563
T4
X210.804Y-120.263
X210.804Y-130.263
T5
X203.5Y-97.5
X203.5Y-146.5
X261.5Y-97.5
X261.5Y-146.5
T0
M30
