G04 #@! TF.GenerationSoftware,KiCad,Pcbnew,(6.0.1)*
G04 #@! TF.CreationDate,2022-02-21T00:55:15+09:00*
G04 #@! TF.ProjectId,KiCAD_jtag,4b694341-445f-46a7-9461-672e6b696361,rev?*
G04 #@! TF.SameCoordinates,Original*
G04 #@! TF.FileFunction,Soldermask,Bot*
G04 #@! TF.FilePolarity,Negative*
%FSLAX46Y46*%
G04 Gerber Fmt 4.6, Leading zero omitted, Abs format (unit mm)*
G04 Created by KiCad (PCBNEW (6.0.1)) date 2022-02-21 00:55:15*
%MOMM*%
%LPD*%
G01*
G04 APERTURE LIST*
%ADD10C,2.700000*%
%ADD11R,1.700000X1.700000*%
%ADD12O,1.700000X1.700000*%
%ADD13R,2.200000X2.200000*%
%ADD14O,2.200000X2.200000*%
%ADD15C,1.000000*%
G04 APERTURE END LIST*
D10*
X203500000Y-97500000D03*
X261500000Y-97500000D03*
X203500000Y-146500000D03*
X261500000Y-146500000D03*
D11*
X217703800Y-118412600D03*
D12*
X217703800Y-120952600D03*
X217703800Y-123492600D03*
X217703800Y-126032600D03*
X217703800Y-128572600D03*
X217703800Y-131112600D03*
D11*
X208378800Y-108562600D03*
D12*
X210918800Y-108562600D03*
X213458800Y-108562600D03*
D13*
X218483800Y-112562600D03*
D14*
X208323800Y-112562600D03*
D11*
X254102000Y-105545000D03*
D12*
X254102000Y-108085000D03*
D15*
X210803800Y-130262600D03*
X210803800Y-120262600D03*
D11*
X208370000Y-98770000D03*
D12*
X208370000Y-96230000D03*
X210910000Y-98770000D03*
X210910000Y-96230000D03*
X213450000Y-98770000D03*
X213450000Y-96230000D03*
X215990000Y-98770000D03*
X215990000Y-96230000D03*
X218530000Y-98770000D03*
X218530000Y-96230000D03*
X221070000Y-98770000D03*
X221070000Y-96230000D03*
X223610000Y-98770000D03*
X223610000Y-96230000D03*
X226150000Y-98770000D03*
X226150000Y-96230000D03*
X228690000Y-98770000D03*
X228690000Y-96230000D03*
X231230000Y-98770000D03*
X231230000Y-96230000D03*
X233770000Y-98770000D03*
X233770000Y-96230000D03*
X236310000Y-98770000D03*
X236310000Y-96230000D03*
X238850000Y-98770000D03*
X238850000Y-96230000D03*
X241390000Y-98770000D03*
X241390000Y-96230000D03*
X243930000Y-98770000D03*
X243930000Y-96230000D03*
X246470000Y-98770000D03*
X246470000Y-96230000D03*
X249010000Y-98770000D03*
X249010000Y-96230000D03*
X251550000Y-98770000D03*
X251550000Y-96230000D03*
X254090000Y-98770000D03*
X254090000Y-96230000D03*
X256630000Y-98770000D03*
X256630000Y-96230000D03*
M02*
