G04 #@! TF.GenerationSoftware,KiCad,Pcbnew,(6.0.1)*
G04 #@! TF.CreationDate,2022-02-21T00:55:15+09:00*
G04 #@! TF.ProjectId,KiCAD_jtag,4b694341-445f-46a7-9461-672e6b696361,rev?*
G04 #@! TF.SameCoordinates,Original*
G04 #@! TF.FileFunction,Copper,L1,Top*
G04 #@! TF.FilePolarity,Positive*
%FSLAX46Y46*%
G04 Gerber Fmt 4.6, Leading zero omitted, Abs format (unit mm)*
G04 Created by KiCad (PCBNEW (6.0.1)) date 2022-02-21 00:55:15*
%MOMM*%
%LPD*%
G01*
G04 APERTURE LIST*
G04 Aperture macros list*
%AMRoundRect*
0 Rectangle with rounded corners*
0 $1 Rounding radius*
0 $2 $3 $4 $5 $6 $7 $8 $9 X,Y pos of 4 corners*
0 Add a 4 corners polygon primitive as box body*
4,1,4,$2,$3,$4,$5,$6,$7,$8,$9,$2,$3,0*
0 Add four circle primitives for the rounded corners*
1,1,$1+$1,$2,$3*
1,1,$1+$1,$4,$5*
1,1,$1+$1,$6,$7*
1,1,$1+$1,$8,$9*
0 Add four rect primitives between the rounded corners*
20,1,$1+$1,$2,$3,$4,$5,0*
20,1,$1+$1,$4,$5,$6,$7,0*
20,1,$1+$1,$6,$7,$8,$9,0*
20,1,$1+$1,$8,$9,$2,$3,0*%
G04 Aperture macros list end*
G04 #@! TA.AperFunction,SMDPad,CuDef*
%ADD10RoundRect,0.250000X0.350000X0.450000X-0.350000X0.450000X-0.350000X-0.450000X0.350000X-0.450000X0*%
G04 #@! TD*
G04 #@! TA.AperFunction,SMDPad,CuDef*
%ADD11RoundRect,0.250000X-0.450000X0.350000X-0.450000X-0.350000X0.450000X-0.350000X0.450000X0.350000X0*%
G04 #@! TD*
G04 #@! TA.AperFunction,SMDPad,CuDef*
%ADD12RoundRect,0.250000X0.450000X-0.350000X0.450000X0.350000X-0.450000X0.350000X-0.450000X-0.350000X0*%
G04 #@! TD*
G04 #@! TA.AperFunction,SMDPad,CuDef*
%ADD13R,1.200000X0.600000*%
G04 #@! TD*
G04 #@! TA.AperFunction,SMDPad,CuDef*
%ADD14RoundRect,0.250000X-0.450000X0.325000X-0.450000X-0.325000X0.450000X-0.325000X0.450000X0.325000X0*%
G04 #@! TD*
G04 #@! TA.AperFunction,SMDPad,CuDef*
%ADD15RoundRect,0.250000X-0.350000X-0.450000X0.350000X-0.450000X0.350000X0.450000X-0.350000X0.450000X0*%
G04 #@! TD*
G04 #@! TA.AperFunction,SMDPad,CuDef*
%ADD16RoundRect,0.250000X-0.337500X-0.475000X0.337500X-0.475000X0.337500X0.475000X-0.337500X0.475000X0*%
G04 #@! TD*
G04 #@! TA.AperFunction,ComponentPad*
%ADD17R,1.700000X1.700000*%
G04 #@! TD*
G04 #@! TA.AperFunction,ComponentPad*
%ADD18O,1.700000X1.700000*%
G04 #@! TD*
G04 #@! TA.AperFunction,SMDPad,CuDef*
%ADD19RoundRect,0.250000X-0.475000X0.337500X-0.475000X-0.337500X0.475000X-0.337500X0.475000X0.337500X0*%
G04 #@! TD*
G04 #@! TA.AperFunction,SMDPad,CuDef*
%ADD20RoundRect,0.250000X0.337500X0.475000X-0.337500X0.475000X-0.337500X-0.475000X0.337500X-0.475000X0*%
G04 #@! TD*
G04 #@! TA.AperFunction,SMDPad,CuDef*
%ADD21RoundRect,0.250000X0.475000X-0.337500X0.475000X0.337500X-0.475000X0.337500X-0.475000X-0.337500X0*%
G04 #@! TD*
G04 #@! TA.AperFunction,SMDPad,CuDef*
%ADD22R,0.700000X1.525000*%
G04 #@! TD*
G04 #@! TA.AperFunction,ComponentPad*
%ADD23R,2.200000X2.200000*%
G04 #@! TD*
G04 #@! TA.AperFunction,ComponentPad*
%ADD24O,2.200000X2.200000*%
G04 #@! TD*
G04 #@! TA.AperFunction,SMDPad,CuDef*
%ADD25R,0.600000X1.200000*%
G04 #@! TD*
G04 #@! TA.AperFunction,SMDPad,CuDef*
%ADD26R,2.750000X1.000000*%
G04 #@! TD*
G04 #@! TA.AperFunction,SMDPad,CuDef*
%ADD27RoundRect,0.250000X0.450000X-0.325000X0.450000X0.325000X-0.450000X0.325000X-0.450000X-0.325000X0*%
G04 #@! TD*
G04 #@! TA.AperFunction,SMDPad,CuDef*
%ADD28RoundRect,0.250000X-0.325000X-0.450000X0.325000X-0.450000X0.325000X0.450000X-0.325000X0.450000X0*%
G04 #@! TD*
G04 #@! TA.AperFunction,ViaPad*
%ADD29C,0.889000*%
G04 #@! TD*
G04 #@! TA.AperFunction,Conductor*
%ADD30C,0.406400*%
G04 #@! TD*
G04 #@! TA.AperFunction,Conductor*
%ADD31C,0.203200*%
G04 #@! TD*
G04 APERTURE END LIST*
D10*
X243926000Y-145428000D03*
X241926000Y-145428000D03*
D11*
X261976000Y-106328000D03*
X261976000Y-108328000D03*
D12*
X202794000Y-138808000D03*
X202794000Y-136808000D03*
D10*
X243926000Y-139306600D03*
X241926000Y-139306600D03*
D13*
X236302000Y-145362000D03*
X236302000Y-144412000D03*
X236302000Y-143462000D03*
X233802000Y-143462000D03*
X233802000Y-144412000D03*
X233802000Y-145362000D03*
D10*
X224130000Y-144158000D03*
X222130000Y-144158000D03*
D14*
X202794000Y-132465000D03*
X202794000Y-134515000D03*
D15*
X226940000Y-114948000D03*
X228940000Y-114948000D03*
D16*
X226902500Y-112662000D03*
X228977500Y-112662000D03*
D17*
X217703800Y-118412600D03*
D18*
X217703800Y-120952600D03*
X217703800Y-123492600D03*
X217703800Y-126032600D03*
X217703800Y-128572600D03*
X217703800Y-131112600D03*
D10*
X244434000Y-108598000D03*
X242434000Y-108598000D03*
D11*
X259690000Y-106344000D03*
X259690000Y-108344000D03*
D13*
X236302000Y-125804000D03*
X236302000Y-124854000D03*
X236302000Y-123904000D03*
X233802000Y-123904000D03*
X233802000Y-124854000D03*
X233802000Y-125804000D03*
D19*
X255118000Y-111603000D03*
X255118000Y-113678000D03*
D16*
X226394500Y-143142000D03*
X228469500Y-143142000D03*
D10*
X245974000Y-130442000D03*
X243974000Y-130442000D03*
X245942000Y-132728000D03*
X243942000Y-132728000D03*
D20*
X233782000Y-116980000D03*
X231707000Y-116980000D03*
D21*
X217003800Y-109600100D03*
X217003800Y-107525100D03*
D13*
X218522000Y-138946000D03*
X218522000Y-137996000D03*
X218522000Y-137046000D03*
X216022000Y-137046000D03*
X216022000Y-138946000D03*
D16*
X236554500Y-147460000D03*
X238629500Y-147460000D03*
X236394300Y-141059200D03*
X238469300Y-141059200D03*
D13*
X236394200Y-138961200D03*
X236394200Y-138011200D03*
X236394200Y-137061200D03*
X233894200Y-137061200D03*
X233894200Y-138011200D03*
X233894200Y-138961200D03*
D20*
X233803500Y-134506000D03*
X231728500Y-134506000D03*
D15*
X226321000Y-139078000D03*
X228321000Y-139078000D03*
D16*
X226365200Y-136792000D03*
X228440200Y-136792000D03*
D10*
X245958000Y-126124000D03*
X243958000Y-126124000D03*
D16*
X226902500Y-130188000D03*
X228977500Y-130188000D03*
D10*
X243926000Y-143142000D03*
X241926000Y-143142000D03*
D17*
X208378800Y-108562600D03*
D18*
X210918800Y-108562600D03*
X213458800Y-108562600D03*
D11*
X257404000Y-106328000D03*
X257404000Y-108328000D03*
D22*
X257531000Y-117152000D03*
X258801000Y-117152000D03*
X260071000Y-117152000D03*
X261341000Y-117152000D03*
X261341000Y-111728000D03*
X260071000Y-111728000D03*
X258801000Y-111728000D03*
X257531000Y-111728000D03*
D10*
X245942000Y-114948000D03*
X243942000Y-114948000D03*
D15*
X226940000Y-125870000D03*
X228940000Y-125870000D03*
D16*
X226902500Y-123584000D03*
X228977500Y-123584000D03*
D23*
X218483800Y-112562600D03*
D24*
X208323800Y-112562600D03*
D10*
X224114000Y-137528600D03*
X222114000Y-137528600D03*
D20*
X233803500Y-127902000D03*
X231728500Y-127902000D03*
D10*
X224622000Y-124854000D03*
X222622000Y-124854000D03*
D13*
X236302000Y-114882000D03*
X236302000Y-113932000D03*
X236302000Y-112982000D03*
X233802000Y-112982000D03*
X233802000Y-113932000D03*
X233802000Y-114882000D03*
X233802000Y-108648000D03*
X233802000Y-109598000D03*
X233802000Y-110548000D03*
X236302000Y-110548000D03*
X236302000Y-108648000D03*
D10*
X245958000Y-123838000D03*
X243958000Y-123838000D03*
D16*
X238332500Y-108582000D03*
X240407500Y-108582000D03*
D11*
X202540000Y-104042000D03*
X202540000Y-106042000D03*
D10*
X224638000Y-131458000D03*
X222638000Y-131458000D03*
D13*
X236302000Y-132408000D03*
X236302000Y-131458000D03*
X236302000Y-130508000D03*
X233802000Y-130508000D03*
X233802000Y-131458000D03*
X233802000Y-132408000D03*
D20*
X233549500Y-147460000D03*
X231474500Y-147460000D03*
D10*
X245958000Y-112662000D03*
X243958000Y-112662000D03*
D17*
X254102000Y-105545000D03*
D18*
X254102000Y-108085000D03*
D10*
X243951400Y-136995200D03*
X241951400Y-136995200D03*
D25*
X235748000Y-119286000D03*
X234798000Y-119286000D03*
X233848000Y-119286000D03*
X233848000Y-121786000D03*
X235748000Y-121786000D03*
D26*
X208678800Y-119262600D03*
X212928800Y-119262600D03*
X208678800Y-121262600D03*
X212928800Y-121262600D03*
X208678800Y-123262600D03*
X212928800Y-123262600D03*
X208678800Y-125262600D03*
X212928800Y-125262600D03*
X208678800Y-127262600D03*
X212928800Y-127262600D03*
X208678800Y-129262600D03*
X212928800Y-129262600D03*
X208678800Y-131262600D03*
X212928800Y-131262600D03*
D12*
X219303800Y-109562600D03*
X219303800Y-107562600D03*
D27*
X202540000Y-110385000D03*
X202540000Y-108335000D03*
D16*
X236300500Y-116980000D03*
X238375500Y-116980000D03*
D15*
X226432000Y-145428000D03*
X228432000Y-145428000D03*
D16*
X215980500Y-141110000D03*
X218055500Y-141110000D03*
D28*
X240622000Y-106312000D03*
X242672000Y-106312000D03*
D16*
X236300500Y-134506000D03*
X238375500Y-134506000D03*
D20*
X233879700Y-141059200D03*
X231804700Y-141059200D03*
D16*
X236554500Y-127902000D03*
X238629500Y-127902000D03*
D15*
X226956000Y-132474000D03*
X228956000Y-132474000D03*
D10*
X224622000Y-113678000D03*
X222622000Y-113678000D03*
D16*
X238078500Y-121552000D03*
X240153500Y-121552000D03*
D17*
X208370000Y-98770000D03*
D18*
X208370000Y-96230000D03*
X210910000Y-98770000D03*
X210910000Y-96230000D03*
X213450000Y-98770000D03*
X213450000Y-96230000D03*
X215990000Y-98770000D03*
X215990000Y-96230000D03*
X218530000Y-98770000D03*
X218530000Y-96230000D03*
X221070000Y-98770000D03*
X221070000Y-96230000D03*
X223610000Y-98770000D03*
X223610000Y-96230000D03*
X226150000Y-98770000D03*
X226150000Y-96230000D03*
X228690000Y-98770000D03*
X228690000Y-96230000D03*
X231230000Y-98770000D03*
X231230000Y-96230000D03*
X233770000Y-98770000D03*
X233770000Y-96230000D03*
X236310000Y-98770000D03*
X236310000Y-96230000D03*
X238850000Y-98770000D03*
X238850000Y-96230000D03*
X241390000Y-98770000D03*
X241390000Y-96230000D03*
X243930000Y-98770000D03*
X243930000Y-96230000D03*
X246470000Y-98770000D03*
X246470000Y-96230000D03*
X249010000Y-98770000D03*
X249010000Y-96230000D03*
X251550000Y-98770000D03*
X251550000Y-96230000D03*
X254090000Y-98770000D03*
X254090000Y-96230000D03*
X256630000Y-98770000D03*
X256630000Y-96230000D03*
D29*
X237084000Y-142380000D03*
X237084000Y-135776000D03*
X245466000Y-142888000D03*
X247498000Y-112408000D03*
X247498000Y-123584000D03*
X247498000Y-129934000D03*
X238100000Y-107328000D03*
X253340000Y-111900000D03*
X202794000Y-140602000D03*
X237084000Y-148730000D03*
X245466000Y-136538000D03*
X237338000Y-129172000D03*
X236830000Y-118250000D03*
X260706000Y-103772000D03*
X202540000Y-102248000D03*
X229718000Y-143142000D03*
X230226000Y-130188000D03*
X205842000Y-128156000D03*
X262484000Y-118758000D03*
X239878000Y-127902000D03*
X239624000Y-116726000D03*
X218034000Y-136030000D03*
X232512000Y-119520000D03*
X205842000Y-126124000D03*
X240386000Y-120028000D03*
X229718000Y-136792000D03*
X240132000Y-104788000D03*
X229210000Y-111392000D03*
X205842000Y-124092000D03*
X256388000Y-118758000D03*
X230480000Y-123584000D03*
X237846000Y-138062000D03*
X232340000Y-110548000D03*
X253340000Y-113424000D03*
X205842000Y-122314000D03*
X204318000Y-131712000D03*
X233802000Y-107602000D03*
X239827000Y-141059000D03*
X240386000Y-147460000D03*
X237846000Y-125108000D03*
X230480000Y-127902000D03*
X230226000Y-116726000D03*
X230226000Y-134506000D03*
X202794000Y-112154000D03*
X218056000Y-142612000D03*
X237846000Y-131712000D03*
X229972000Y-147460000D03*
X237846000Y-144666000D03*
X230277000Y-141059000D03*
X240640000Y-109868000D03*
X218034000Y-105296000D03*
X237846000Y-114186000D03*
X239624000Y-134506000D03*
X259690000Y-102502000D03*
X258928000Y-101486000D03*
X231750000Y-125870000D03*
X250800000Y-125870000D03*
X232004000Y-145174000D03*
X219812000Y-102248000D03*
X213716000Y-139586000D03*
X231496000Y-132474000D03*
X231242000Y-139078000D03*
X243942000Y-116980000D03*
X243942000Y-118250000D03*
X241656000Y-102756000D03*
X245974000Y-127648000D03*
X245974000Y-116472000D03*
X241656000Y-101486000D03*
X232258000Y-121552000D03*
X229006800Y-103518000D03*
X243942000Y-146952000D03*
X250800000Y-146952000D03*
X228702000Y-127140000D03*
X228448000Y-133998000D03*
X232766000Y-148730000D03*
X227940000Y-146952000D03*
X238354000Y-120028000D03*
X215980000Y-142612000D03*
X233020000Y-142380000D03*
X227940000Y-140602000D03*
X232766000Y-118250000D03*
X233020000Y-129172000D03*
X233020000Y-135776000D03*
X228702000Y-116218000D03*
D30*
X236394000Y-141690000D02*
X237084000Y-142380000D01*
X236554000Y-147460000D02*
X236554000Y-148200000D01*
X236302000Y-114882000D02*
X236302000Y-116978000D01*
X236394000Y-141007700D02*
X236394300Y-141008000D01*
X255243000Y-111728000D02*
X255118000Y-111603000D01*
X238266000Y-108648000D02*
X238332000Y-108582000D01*
X202794000Y-140602000D02*
X202794000Y-138808000D01*
X257404000Y-106328000D02*
X257404000Y-105042000D01*
X238332000Y-107560000D02*
X238100000Y-107328000D01*
X259690000Y-106344000D02*
X259690000Y-104788000D01*
X257658000Y-104788000D02*
X259690000Y-104788000D01*
X236302000Y-125804000D02*
X236302000Y-127650000D01*
X236300500Y-116979500D02*
X236300000Y-116980000D01*
X255118000Y-111603000D02*
X253637000Y-111603000D01*
X236554500Y-147460000D02*
X236554000Y-147460000D01*
X236554000Y-148200000D02*
X237084000Y-148730000D01*
X245974000Y-130442000D02*
X246990000Y-130442000D01*
X236302000Y-108648000D02*
X238266000Y-108648000D01*
X257404000Y-105042000D02*
X257658000Y-104788000D01*
X261976000Y-105042000D02*
X261976000Y-106328000D01*
X246990000Y-130442000D02*
X247498000Y-129934000D01*
X236554000Y-127902000D02*
X236554000Y-128388000D01*
X236302000Y-127650000D02*
X236428000Y-127776000D01*
X236302000Y-116978000D02*
X236300500Y-116979500D01*
X236302000Y-147208000D02*
X236554000Y-147460000D01*
X247244000Y-123838000D02*
X247498000Y-123584000D01*
X236428000Y-127776000D02*
X236554000Y-127902000D01*
X236300300Y-134505700D02*
X236300000Y-134506000D01*
X236394000Y-138961000D02*
X236394000Y-139984300D01*
X236554000Y-128388000D02*
X237338000Y-129172000D01*
X236300000Y-134506000D02*
X236300000Y-134992000D01*
X236394000Y-139984300D02*
X235890900Y-139984300D01*
X236300300Y-134505800D02*
X236300300Y-134505700D01*
X236300000Y-134992000D02*
X237084000Y-135776000D01*
X236394000Y-141007700D02*
X236394000Y-141690000D01*
X259690000Y-104788000D02*
X260706000Y-104788000D01*
X236300500Y-134506000D02*
X236300300Y-134505800D01*
X245009000Y-136995000D02*
X245466000Y-136538000D01*
X260706000Y-104788000D02*
X261722000Y-104788000D01*
X260706000Y-104788000D02*
X260706000Y-103772000D01*
X236300500Y-116979500D02*
X236300500Y-116980000D01*
X245958000Y-112662000D02*
X247244000Y-112662000D01*
X253637000Y-111603000D02*
X253340000Y-111900000D01*
X245212000Y-143142000D02*
X245466000Y-142888000D01*
X235890900Y-139984300D02*
X235387500Y-139480900D01*
X236394000Y-139984300D02*
X236394000Y-141007700D01*
X236302000Y-145362000D02*
X236302000Y-147208000D01*
X235387500Y-139480900D02*
X235387500Y-138961200D01*
X257531000Y-111728000D02*
X255243000Y-111728000D01*
X247244000Y-112662000D02*
X247498000Y-112408000D01*
X238332000Y-108582000D02*
X238332000Y-107560000D01*
X236302000Y-132408000D02*
X236302000Y-134504000D01*
X236394300Y-141008000D02*
X236394300Y-141059200D01*
X236300000Y-117720000D02*
X236830000Y-118250000D01*
X236302000Y-134504000D02*
X236300300Y-134505700D01*
X238332500Y-108582000D02*
X238332000Y-108582000D01*
X261722000Y-104788000D02*
X261976000Y-105042000D01*
X236300000Y-116980000D02*
X236300000Y-117720000D01*
X245958000Y-123838000D02*
X247244000Y-123838000D01*
X236428000Y-127776000D02*
X236428500Y-127776000D01*
X236394200Y-138961200D02*
X235387500Y-138961200D01*
X243951400Y-136995200D02*
X243951400Y-136995000D01*
X243951400Y-136995000D02*
X245009000Y-136995000D01*
X236428500Y-127776000D02*
X236554500Y-127902000D01*
X243926000Y-143142000D02*
X245212000Y-143142000D01*
X202540000Y-102248000D02*
X202540000Y-104042000D01*
X237795000Y-138011000D02*
X237846000Y-138062000D01*
X228470000Y-143142000D02*
X228469500Y-143142000D01*
X232746000Y-119286000D02*
X232512000Y-119520000D01*
X262230000Y-119012000D02*
X262484000Y-118758000D01*
X238376000Y-134506000D02*
X238375500Y-134506000D01*
X236302000Y-124854000D02*
X237592000Y-124854000D01*
X236302000Y-144412000D02*
X237592000Y-144412000D01*
X238469500Y-141059000D02*
X238469300Y-141059200D01*
X253594000Y-113678000D02*
X253340000Y-113424000D01*
X238630000Y-127902000D02*
X239878000Y-127902000D01*
X238376000Y-116980000D02*
X238375500Y-116980000D01*
X231804500Y-141059000D02*
X231804700Y-141059200D01*
X231474000Y-147460000D02*
X229972000Y-147460000D01*
X202794000Y-132465000D02*
X203565000Y-132465000D01*
X238469500Y-141059000D02*
X239827000Y-141059000D01*
X208678400Y-123263000D02*
X206029000Y-123263000D01*
X208679000Y-127263000D02*
X208678400Y-127263000D01*
X236302000Y-131458000D02*
X237592000Y-131458000D01*
X208678400Y-129263000D02*
X208679000Y-129263000D01*
X231728000Y-127902000D02*
X231728500Y-127902000D01*
X218522000Y-136518000D02*
X218034000Y-136030000D01*
X228978000Y-123584000D02*
X228977500Y-123584000D01*
X256642000Y-119012000D02*
X256388000Y-118758000D01*
X240407500Y-108081500D02*
X240407500Y-108582000D01*
X219304000Y-107064500D02*
X219304000Y-106566000D01*
X238630000Y-147460000D02*
X238629500Y-147460000D01*
X240622000Y-106312000D02*
X240622000Y-105278000D01*
X260071000Y-117152000D02*
X260071000Y-118885000D01*
X218522000Y-137046000D02*
X218522000Y-136518000D01*
X218056000Y-141861000D02*
X218056000Y-142612000D01*
X205842000Y-121806000D02*
X205842000Y-122314000D01*
X258801000Y-118631000D02*
X259182000Y-119012000D01*
X239370000Y-116980000D02*
X239624000Y-116726000D01*
X240153500Y-120906500D02*
X240153500Y-121552000D01*
X228440200Y-136792000D02*
X229718000Y-136792000D01*
X236302000Y-113932000D02*
X237592000Y-113932000D01*
X231728000Y-134506000D02*
X231728500Y-134506000D01*
X218056000Y-141110000D02*
X218056000Y-141861000D01*
X236394400Y-138011000D02*
X237795000Y-138011000D01*
X205842000Y-126124000D02*
X205842000Y-127394000D01*
X257912000Y-119012000D02*
X256642000Y-119012000D01*
X231728000Y-134506000D02*
X230226000Y-134506000D01*
X208678400Y-121263000D02*
X206385000Y-121263000D01*
X240408000Y-109636000D02*
X240408000Y-108081000D01*
X208679000Y-125263000D02*
X208678400Y-125263000D01*
X259182000Y-119012000D02*
X259944000Y-119012000D01*
X203565000Y-132465000D02*
X204318000Y-131712000D01*
X208678400Y-127263000D02*
X205973000Y-127263000D01*
X258801000Y-117152000D02*
X258801000Y-118631000D01*
X208678400Y-123263000D02*
X208678800Y-123262600D01*
X233802000Y-108648000D02*
X233802000Y-107602000D01*
X202540000Y-110385000D02*
X202540000Y-111900000D01*
X240640000Y-109868000D02*
X240408000Y-109636000D01*
X228978000Y-111624000D02*
X229210000Y-111392000D01*
X255118000Y-113678000D02*
X253594000Y-113678000D01*
X218055500Y-141860500D02*
X218055500Y-141110000D01*
X240154000Y-120260000D02*
X240386000Y-120028000D01*
X237592000Y-113932000D02*
X237846000Y-114186000D01*
X237592000Y-124854000D02*
X237846000Y-125108000D01*
X208678400Y-125263000D02*
X208678800Y-125262600D01*
X205842000Y-127394000D02*
X205842000Y-128156000D01*
X238630000Y-147460000D02*
X240386000Y-147460000D01*
X208678400Y-125263000D02*
X205941000Y-125263000D01*
X240408000Y-106526000D02*
X240622000Y-106312000D01*
X205842000Y-122314000D02*
X205842000Y-123449000D01*
X228978000Y-112662000D02*
X228978000Y-112143000D01*
X205973000Y-127263000D02*
X205842000Y-127394000D01*
X205842000Y-124092000D02*
X205842000Y-125362000D01*
X238630000Y-127902000D02*
X238629500Y-127902000D01*
X231804500Y-141059000D02*
X230277000Y-141059000D01*
X208678400Y-121263000D02*
X208678800Y-121262600D01*
X228978000Y-123584000D02*
X230480000Y-123584000D01*
X206385000Y-121263000D02*
X205842000Y-121806000D01*
X238376000Y-134506000D02*
X239624000Y-134506000D01*
X240622000Y-105278000D02*
X240132000Y-104788000D01*
X217004000Y-106925500D02*
X217004000Y-106326000D01*
X228977500Y-112143500D02*
X228977500Y-112662000D01*
X228978000Y-112143000D02*
X228977500Y-112143500D01*
X217004000Y-106326000D02*
X218034000Y-105296000D01*
X240408000Y-108081000D02*
X240407500Y-108081500D01*
X217004000Y-106925500D02*
X217003800Y-106925700D01*
X217003800Y-106925700D02*
X217003800Y-107525100D01*
X257912000Y-119012000D02*
X259182000Y-119012000D01*
X260071000Y-118885000D02*
X259944000Y-119012000D01*
X228470000Y-143142000D02*
X229718000Y-143142000D01*
X234798000Y-119286000D02*
X233848000Y-119286000D01*
X208679000Y-123263000D02*
X208678400Y-123263000D01*
X228978000Y-130188000D02*
X230226000Y-130188000D01*
X206187000Y-129263000D02*
X208678400Y-129263000D01*
X261087000Y-119012000D02*
X261341000Y-118758000D01*
X237592000Y-131458000D02*
X237846000Y-131712000D01*
X219303800Y-107064700D02*
X219303800Y-107562600D01*
X208679000Y-121263000D02*
X208678400Y-121263000D01*
X231474000Y-147460000D02*
X231474500Y-147460000D01*
X217004000Y-107525000D02*
X217004000Y-106925500D01*
X261087000Y-119012000D02*
X262230000Y-119012000D01*
X240408000Y-108081000D02*
X240408000Y-106526000D01*
X259944000Y-119012000D02*
X261087000Y-119012000D01*
X231707000Y-116980000D02*
X230480000Y-116980000D01*
X219304000Y-107064500D02*
X219303800Y-107064700D01*
X205842000Y-128156000D02*
X205842000Y-128918000D01*
X205842000Y-123449000D02*
X205842000Y-124092000D01*
X240154000Y-120906000D02*
X240154000Y-120260000D01*
X219304000Y-107563000D02*
X219304000Y-107064500D01*
X230480000Y-116980000D02*
X230226000Y-116726000D01*
X231728000Y-127902000D02*
X230480000Y-127902000D01*
X228978000Y-112143000D02*
X228978000Y-111624000D01*
X205842000Y-128918000D02*
X206187000Y-129263000D01*
X233848000Y-119286000D02*
X232746000Y-119286000D01*
X261341000Y-118631000D02*
X261341000Y-117152000D01*
X208678400Y-129263000D02*
X208678800Y-129262600D01*
X240154000Y-120906000D02*
X240153500Y-120906500D01*
X208678400Y-127263000D02*
X208678800Y-127262600D01*
X261341000Y-118758000D02*
X261341000Y-118631000D01*
X236394400Y-138011000D02*
X236394200Y-138011200D01*
X240154000Y-121552000D02*
X240154000Y-120906000D01*
X233802000Y-110548000D02*
X232340000Y-110548000D01*
X206029000Y-123263000D02*
X205842000Y-123449000D01*
X218056000Y-141861000D02*
X218055500Y-141860500D01*
X257531000Y-117152000D02*
X257531000Y-118631000D01*
X202540000Y-111900000D02*
X202794000Y-112154000D01*
X205842000Y-125362000D02*
X205842000Y-126124000D01*
X205941000Y-125263000D02*
X205842000Y-125362000D01*
X238376000Y-116980000D02*
X239370000Y-116980000D01*
X219304000Y-106566000D02*
X218034000Y-105296000D01*
X228978000Y-130188000D02*
X228977500Y-130188000D01*
X257531000Y-118631000D02*
X257912000Y-119012000D01*
X218522000Y-137996000D02*
X218522000Y-137046000D01*
X237592000Y-144412000D02*
X237846000Y-144666000D01*
D31*
X261341000Y-108963000D02*
X261341000Y-111728000D01*
X263500000Y-104788000D02*
X261214000Y-102502000D01*
X261976000Y-108328000D02*
X262754000Y-108328000D01*
X263500000Y-107582000D02*
X263500000Y-104788000D01*
X262754000Y-108328000D02*
X263500000Y-107582000D01*
X261976000Y-108328000D02*
X261341000Y-108963000D01*
X261214000Y-102502000D02*
X259690000Y-102502000D01*
X256134000Y-106820000D02*
X256134000Y-104280000D01*
X256642000Y-107328000D02*
X256134000Y-106820000D01*
X256134000Y-104280000D02*
X258928000Y-101486000D01*
X259690000Y-108344000D02*
X258674000Y-107328000D01*
X260071000Y-108725000D02*
X260071000Y-111728000D01*
X258674000Y-107328000D02*
X256642000Y-107328000D01*
X259690000Y-108344000D02*
X260071000Y-108725000D01*
X236302000Y-110548000D02*
X237256000Y-110548000D01*
X244450000Y-105042000D02*
X244450000Y-108582000D01*
X237592000Y-110884000D02*
X243942000Y-110884000D01*
X244450000Y-108582000D02*
X244434000Y-108598000D01*
X237256000Y-110548000D02*
X237592000Y-110884000D01*
X243930000Y-98770000D02*
X243930000Y-104522000D01*
X243930000Y-104522000D02*
X244450000Y-105042000D01*
X244434000Y-110392000D02*
X244434000Y-108598000D01*
X243942000Y-110884000D02*
X244434000Y-110392000D01*
X233802000Y-124854000D02*
X233020000Y-124854000D01*
X247244000Y-100724000D02*
X249784000Y-100724000D01*
X251054000Y-125616000D02*
X250800000Y-125870000D01*
X232004000Y-125870000D02*
X231750000Y-125870000D01*
X249784000Y-100724000D02*
X251054000Y-101994000D01*
X251054000Y-101994000D02*
X251054000Y-125616000D01*
X246470000Y-99950000D02*
X247244000Y-100724000D01*
X246470000Y-98770000D02*
X246470000Y-99950000D01*
X233020000Y-124854000D02*
X232004000Y-125870000D01*
X232766000Y-144412000D02*
X232004000Y-145174000D01*
X233802000Y-144412000D02*
X232766000Y-144412000D01*
X217530622Y-138946000D02*
X217272000Y-138687378D01*
X217272000Y-138687378D02*
X217272000Y-138316000D01*
X213716000Y-139078000D02*
X213716000Y-139586000D01*
X223610000Y-98770000D02*
X223610000Y-100482000D01*
X218522000Y-138946000D02*
X217530622Y-138946000D01*
X223610000Y-100482000D02*
X221844000Y-102248000D01*
X221844000Y-102248000D02*
X219812000Y-102248000D01*
X214732000Y-138062000D02*
X217018000Y-138062000D01*
X213716000Y-139078000D02*
X214732000Y-138062000D01*
X217272000Y-138316000D02*
X217018000Y-138062000D01*
X232004000Y-132474000D02*
X231496000Y-132474000D01*
X233802000Y-131458000D02*
X233020000Y-131458000D01*
X233020000Y-131458000D02*
X232004000Y-132474000D01*
X234290000Y-106312000D02*
X228956000Y-106312000D01*
X234798000Y-113932000D02*
X235052000Y-113678000D01*
X227432000Y-104788000D02*
X227432000Y-97512000D01*
X235052000Y-113678000D02*
X235052000Y-107074000D01*
X228956000Y-106312000D02*
X227432000Y-104788000D01*
X235052000Y-107074000D02*
X234290000Y-106312000D01*
X227432000Y-97512000D02*
X226150000Y-96230000D01*
X233802000Y-113932000D02*
X234798000Y-113932000D01*
X232816800Y-138011200D02*
X231750000Y-139078000D01*
X233894200Y-138011200D02*
X232816800Y-138011200D01*
X231750000Y-139078000D02*
X231242000Y-139078000D01*
X243926000Y-139306600D02*
X249047400Y-139306600D01*
X243942000Y-116980000D02*
X244450000Y-116980000D01*
X249047400Y-139306600D02*
X249784000Y-138570000D01*
X244450000Y-116980000D02*
X249784000Y-122314000D01*
X249784000Y-138570000D02*
X249784000Y-122314000D01*
X244958000Y-118250000D02*
X243942000Y-118250000D01*
X248514000Y-132728000D02*
X249022000Y-132220000D01*
X249022000Y-132220000D02*
X249022000Y-122314000D01*
X249022000Y-122314000D02*
X244958000Y-118250000D01*
X245942000Y-132728000D02*
X248514000Y-132728000D01*
X245958000Y-127632000D02*
X245974000Y-127648000D01*
X237756000Y-102756000D02*
X241656000Y-102756000D01*
X233770000Y-98770000D02*
X237756000Y-102756000D01*
X245958000Y-126124000D02*
X245958000Y-127632000D01*
X236310000Y-100204000D02*
X237592000Y-101486000D01*
X245942000Y-114948000D02*
X245942000Y-116440000D01*
X236310000Y-98770000D02*
X236310000Y-100204000D01*
X237592000Y-101486000D02*
X241656000Y-101486000D01*
X245942000Y-116440000D02*
X245974000Y-116472000D01*
X235016400Y-97523600D02*
X233070800Y-97523600D01*
X232512000Y-100012800D02*
X229006800Y-103518000D01*
X235560000Y-120536000D02*
X233274000Y-120536000D01*
X235748000Y-120348000D02*
X235560000Y-120536000D01*
X232512000Y-98082400D02*
X232512000Y-100012800D01*
X233070800Y-97523600D02*
X232512000Y-98082400D01*
X233274000Y-120536000D02*
X232258000Y-121552000D01*
X236310000Y-96230000D02*
X235016400Y-97523600D01*
X235748000Y-119286000D02*
X235748000Y-120348000D01*
X251550000Y-96230000D02*
X252832000Y-97512000D01*
X251816000Y-145936000D02*
X250800000Y-146952000D01*
X252832000Y-97512000D02*
X252832000Y-102248000D01*
X251816000Y-103264000D02*
X251816000Y-145936000D01*
X243926000Y-145428000D02*
X243942000Y-145444000D01*
X252832000Y-102248000D02*
X251816000Y-103264000D01*
X243942000Y-145444000D02*
X243942000Y-146952000D01*
X202540000Y-106042000D02*
X202540000Y-108335000D01*
X241606000Y-143462000D02*
X241926000Y-143142000D01*
X241926000Y-143142000D02*
X241926000Y-145428000D01*
X236302000Y-143462000D02*
X241606000Y-143462000D01*
X243892000Y-123904000D02*
X243958000Y-123838000D01*
X236302000Y-123904000D02*
X243892000Y-123904000D01*
X243958000Y-123838000D02*
X243958000Y-126124000D01*
X242672000Y-106312000D02*
X242672000Y-108360000D01*
X242672000Y-108360000D02*
X242434000Y-108598000D01*
X241926000Y-139306600D02*
X241926200Y-139306800D01*
X236394400Y-137061000D02*
X236394200Y-137061200D01*
X236394400Y-137061000D02*
X241885000Y-137061000D01*
X241951400Y-136995200D02*
X241951200Y-136995200D01*
X241951000Y-139281000D02*
X241926200Y-139306800D01*
X241885000Y-137061000D02*
X241951000Y-136995000D01*
X241951200Y-136995200D02*
X241951000Y-136995000D01*
X241951000Y-136995000D02*
X241951000Y-139281000D01*
X243958000Y-112662000D02*
X243958000Y-114932000D01*
X243958000Y-114932000D02*
X243942000Y-114948000D01*
X236302000Y-112982000D02*
X243638000Y-112982000D01*
X243638000Y-112982000D02*
X243958000Y-112662000D01*
D30*
X228956000Y-126886000D02*
X228702000Y-127140000D01*
X213459000Y-111897000D02*
X214125000Y-112563000D01*
X217703800Y-118412600D02*
X217704100Y-118412900D01*
X216022000Y-141068000D02*
X215980300Y-141109700D01*
X219304000Y-109562800D02*
X219304000Y-109563000D01*
X233550000Y-147946000D02*
X232766000Y-148730000D01*
X233802000Y-114882000D02*
X229006000Y-114882000D01*
X233879700Y-141289200D02*
X233879700Y-141059200D01*
X214496000Y-109600000D02*
X213462600Y-108566600D01*
X219303800Y-109562600D02*
X219304000Y-109562800D01*
X233802000Y-145362000D02*
X233802000Y-147208000D01*
X229006000Y-114882000D02*
X228940000Y-114948000D01*
X233390900Y-140003000D02*
X232887500Y-139499600D01*
X217003700Y-109600000D02*
X217003800Y-109600100D01*
X228940000Y-114948000D02*
X228940000Y-115980000D01*
X217003700Y-109600000D02*
X214496000Y-109600000D01*
X216022000Y-138946000D02*
X216022000Y-141068000D01*
X238078000Y-121552000D02*
X235982000Y-121552000D01*
X233802000Y-134504000D02*
X233803500Y-134505500D01*
X233802000Y-125804000D02*
X233802000Y-127900000D01*
X233549500Y-147460000D02*
X233550000Y-147460000D01*
X228321000Y-140221000D02*
X227940000Y-140602000D01*
X214125000Y-112563000D02*
X218483800Y-112563000D01*
X235982000Y-121552000D02*
X235748000Y-121786000D01*
X215980300Y-141109700D02*
X215980000Y-141110000D01*
X213458800Y-108562600D02*
X213458800Y-108562800D01*
X233782000Y-116980000D02*
X233782000Y-117234000D01*
X228956000Y-125886000D02*
X228956000Y-126886000D01*
X233802000Y-132408000D02*
X233802000Y-134504000D01*
X228321000Y-139078000D02*
X228321000Y-140221000D01*
X233802000Y-147208000D02*
X233550000Y-147460000D01*
X233880000Y-141289500D02*
X233879700Y-141289200D01*
X233880000Y-141289500D02*
X233880000Y-141520000D01*
X233804000Y-128388000D02*
X233020000Y-129172000D01*
X233894200Y-138961200D02*
X232887500Y-138961200D01*
X218484000Y-112563000D02*
X218484000Y-117633000D01*
X228956000Y-132474000D02*
X228956000Y-133490000D01*
X233802000Y-114882000D02*
X233802000Y-116960000D01*
X218483800Y-112562600D02*
X218483800Y-112563000D01*
X233894000Y-140003000D02*
X233894000Y-141045000D01*
X233782000Y-117234000D02*
X232766000Y-118250000D01*
X228432000Y-146460000D02*
X227940000Y-146952000D01*
X213458800Y-108562800D02*
X213462600Y-108566600D01*
X238078500Y-121552000D02*
X238078000Y-121552000D01*
X233803500Y-134505500D02*
X233803500Y-134506000D01*
X233880000Y-141520000D02*
X233020000Y-142380000D01*
X233550000Y-147460000D02*
X233550000Y-147946000D01*
X232887500Y-139499600D02*
X232887500Y-138961200D01*
X219266000Y-109600000D02*
X217003700Y-109600000D01*
X233802000Y-127900000D02*
X233803500Y-127901500D01*
X228956000Y-133490000D02*
X228448000Y-133998000D01*
X233804000Y-134506000D02*
X233804000Y-134992000D01*
X233894000Y-141045000D02*
X233880000Y-141059000D01*
X233880000Y-141059000D02*
X233880000Y-141289500D01*
X218484000Y-117633000D02*
X217704100Y-118412900D01*
X233894000Y-138961000D02*
X233894000Y-140003000D01*
X228432000Y-145428000D02*
X228432000Y-146460000D01*
X228940000Y-125870000D02*
X228956000Y-125886000D01*
X233894000Y-140003000D02*
X233390900Y-140003000D01*
X233802000Y-116960000D02*
X233782000Y-116980000D01*
X233803500Y-127901500D02*
X233804000Y-127902000D01*
X215980500Y-141110000D02*
X215980300Y-141109800D01*
X238354000Y-120028000D02*
X238078000Y-120304000D01*
X219304000Y-109563000D02*
X219266000Y-109600000D01*
X233804000Y-127902000D02*
X233804000Y-128388000D01*
X218483800Y-112563000D02*
X218484000Y-112563000D01*
X233803500Y-134505500D02*
X233804000Y-134506000D01*
X228940000Y-115980000D02*
X228702000Y-116218000D01*
X233803500Y-127901500D02*
X233803500Y-127902000D01*
X215980000Y-141110000D02*
X215980000Y-142612000D01*
X215980300Y-141109800D02*
X215980300Y-141109700D01*
X213459000Y-108563000D02*
X213459000Y-111897000D01*
X238078000Y-120304000D02*
X238078000Y-121552000D01*
X233804000Y-134992000D02*
X233020000Y-135776000D01*
D31*
X243908000Y-130508000D02*
X243974000Y-130442000D01*
X243974000Y-132696000D02*
X243942000Y-132728000D01*
X243974000Y-130442000D02*
X243974000Y-132696000D01*
X236302000Y-130508000D02*
X243908000Y-130508000D01*
X226902000Y-132420000D02*
X226956000Y-132474000D01*
X226956000Y-132442000D02*
X226956000Y-132474000D01*
X225908000Y-130188000D02*
X226405000Y-130188000D01*
X226956000Y-132474000D02*
X228073600Y-131356400D01*
X224638000Y-131458000D02*
X225908000Y-130188000D01*
X226902000Y-130188000D02*
X226902000Y-132420000D01*
X232700000Y-130508000D02*
X233802000Y-130508000D01*
X226405000Y-130188000D02*
X226902500Y-130188000D01*
X231851600Y-131356400D02*
X232700000Y-130508000D01*
X228073600Y-131356400D02*
X231851600Y-131356400D01*
X226365000Y-137909500D02*
X226365200Y-137909300D01*
X231851600Y-137960400D02*
X232751000Y-137061000D01*
X227438600Y-137960400D02*
X231851600Y-137960400D01*
X226365200Y-137909300D02*
X226365200Y-136792000D01*
X232751000Y-137061000D02*
X233894000Y-137061000D01*
X233894000Y-137061000D02*
X233894200Y-137061200D01*
X226365000Y-139027000D02*
X226365000Y-137909500D01*
X226365000Y-139027000D02*
X226365000Y-139034000D01*
X224851000Y-136792000D02*
X224114200Y-137528800D01*
X226321000Y-138945000D02*
X226321000Y-139078000D01*
X226321000Y-138919000D02*
X226321000Y-138983000D01*
X226321000Y-138983000D02*
X226365000Y-139027000D01*
X226321000Y-139078000D02*
X227438600Y-137960400D01*
X226365000Y-136792000D02*
X224851000Y-136792000D01*
X226365000Y-137909500D02*
X226365000Y-136792000D01*
X224114000Y-137528600D02*
X224114200Y-137528800D01*
X222114000Y-137529000D02*
X221217000Y-136632000D01*
X212928400Y-121263000D02*
X212929000Y-121263000D01*
X220320000Y-132220000D02*
X219213000Y-131113000D01*
X217703400Y-131113000D02*
X217703800Y-131112600D01*
X211465000Y-121263000D02*
X212928400Y-121263000D01*
X221217000Y-136632000D02*
X221217400Y-136632000D01*
X221217000Y-136632000D02*
X220320000Y-135735000D01*
X210668000Y-127902000D02*
X210668000Y-122060000D01*
X215494000Y-130442000D02*
X215494000Y-129172000D01*
X210668000Y-122060000D02*
X211465000Y-121263000D01*
X211176000Y-128410000D02*
X210668000Y-127902000D01*
X217703400Y-131113000D02*
X216165000Y-131113000D01*
X219213000Y-131113000D02*
X217703400Y-131113000D01*
X221217400Y-136632000D02*
X222114000Y-137528600D01*
X212928400Y-121263000D02*
X212928800Y-121262600D01*
X214732000Y-128410000D02*
X211176000Y-128410000D01*
X220320000Y-135735000D02*
X220320000Y-132220000D01*
X215494000Y-129172000D02*
X214732000Y-128410000D01*
X216165000Y-131113000D02*
X215494000Y-130442000D01*
X257161000Y-108085000D02*
X254102000Y-108085000D01*
X257404000Y-108328000D02*
X257161000Y-108085000D01*
X257404000Y-108852000D02*
X258801000Y-110249000D01*
X257404000Y-108328000D02*
X257404000Y-108852000D01*
X258801000Y-110249000D02*
X258801000Y-111728000D01*
X202794000Y-134515000D02*
X202794000Y-136808000D01*
X226940000Y-114948000D02*
X226902000Y-114910000D01*
X232105600Y-113830400D02*
X232954000Y-112982000D01*
X232954000Y-112982000D02*
X233802000Y-112982000D01*
X226902000Y-113786000D02*
X226902500Y-113785500D01*
X226902000Y-114910000D02*
X226902000Y-113786000D01*
X226940000Y-114948000D02*
X228057600Y-113830400D01*
X228057600Y-113830400D02*
X232105600Y-113830400D01*
X226902500Y-113785500D02*
X226902500Y-112662000D01*
X226902000Y-113786000D02*
X226902000Y-112662000D01*
X225638000Y-112662000D02*
X224622000Y-113678000D01*
X226902000Y-112662000D02*
X225638000Y-112662000D01*
X217589000Y-123378000D02*
X217589200Y-123378000D01*
X217589200Y-123378000D02*
X217703800Y-123492600D01*
X217589000Y-123378000D02*
X217704000Y-123493000D01*
X217704000Y-123493000D02*
X219141000Y-123493000D01*
X217474000Y-123263000D02*
X217589000Y-123378000D01*
X221590000Y-113678000D02*
X222622000Y-113678000D01*
X212928800Y-123262600D02*
X212929000Y-123262800D01*
X220574000Y-114694000D02*
X221590000Y-113678000D01*
X219141000Y-123493000D02*
X220574000Y-122060000D01*
X212929000Y-123262800D02*
X212929000Y-123263000D01*
X220574000Y-122060000D02*
X220574000Y-114694000D01*
X212929000Y-123263000D02*
X217474000Y-123263000D01*
X217703800Y-128572600D02*
X217703700Y-128572700D01*
X212928800Y-127262600D02*
X212929000Y-127262800D01*
X216394000Y-127263000D02*
X217703700Y-128572700D01*
X219753000Y-128573000D02*
X222638000Y-131458000D01*
X217704000Y-128573000D02*
X219753000Y-128573000D01*
X212929000Y-127263000D02*
X216394000Y-127263000D01*
X217703700Y-128572700D02*
X217704000Y-128573000D01*
X212929000Y-127262800D02*
X212929000Y-127263000D01*
X226432000Y-145428000D02*
X226394000Y-145390000D01*
X226394000Y-143142000D02*
X225146000Y-143142000D01*
X227600400Y-144259600D02*
X231902400Y-144259600D01*
X226394500Y-144265500D02*
X226394500Y-143142000D01*
X226394000Y-145390000D02*
X226394000Y-144266000D01*
X226394000Y-144266000D02*
X226394500Y-144265500D01*
X226394000Y-144266000D02*
X226394000Y-143142000D01*
X232700000Y-143462000D02*
X233802000Y-143462000D01*
X225146000Y-143142000D02*
X224130000Y-144158000D01*
X226432000Y-145428000D02*
X227600400Y-144259600D01*
X231902400Y-144259600D02*
X232700000Y-143462000D01*
X212929000Y-131687000D02*
X212929000Y-131475000D01*
X215494000Y-134252000D02*
X212929000Y-131687000D01*
X212929000Y-131475000D02*
X212928800Y-131474800D01*
X221082000Y-144158000D02*
X219812000Y-142888000D01*
X219812000Y-142888000D02*
X219812000Y-135268000D01*
X212929000Y-131475000D02*
X212929000Y-131263000D01*
X222130000Y-144158000D02*
X221082000Y-144158000D01*
X212928800Y-131474800D02*
X212928800Y-131262600D01*
X218796000Y-134252000D02*
X215494000Y-134252000D01*
X219812000Y-135268000D02*
X218796000Y-134252000D01*
X226902000Y-125832000D02*
X226902000Y-124708000D01*
X226940000Y-125870000D02*
X226902000Y-125832000D01*
X226902000Y-124708000D02*
X226902500Y-124707500D01*
X233848000Y-123858000D02*
X233802000Y-123904000D01*
X226902000Y-123584000D02*
X225892000Y-123584000D01*
X232700000Y-123904000D02*
X233802000Y-123904000D01*
X225892000Y-123584000D02*
X224622000Y-124854000D01*
X226902000Y-124708000D02*
X226902000Y-123584000D01*
X228057600Y-124752400D02*
X231851600Y-124752400D01*
X233848000Y-121786000D02*
X233848000Y-123858000D01*
X226940000Y-125870000D02*
X228057600Y-124752400D01*
X226902500Y-124707500D02*
X226902500Y-123584000D01*
X231851600Y-124752400D02*
X232700000Y-123904000D01*
X212928800Y-125262600D02*
X212929000Y-125262800D01*
X217319000Y-125648000D02*
X217319200Y-125648000D01*
X217319200Y-125648000D02*
X217703800Y-126032600D01*
X212929000Y-125262800D02*
X212929000Y-125263000D01*
X220157000Y-126033000D02*
X221336000Y-124854000D01*
X216934000Y-125263000D02*
X217319000Y-125648000D01*
X212929000Y-125263000D02*
X216934000Y-125263000D01*
X221336000Y-124854000D02*
X222622000Y-124854000D01*
X217704000Y-126033000D02*
X220157000Y-126033000D01*
X217319000Y-125648000D02*
X217704000Y-126033000D01*
X221574000Y-109598000D02*
X220828000Y-108852000D01*
X210919000Y-105045000D02*
X210919000Y-106804000D01*
X220828000Y-108852000D02*
X220828000Y-105550000D01*
X219558000Y-104280000D02*
X211684000Y-104280000D01*
X210919000Y-106804000D02*
X210918800Y-106804200D01*
X211684000Y-104280000D02*
X210919000Y-105045000D01*
X210919000Y-106804000D02*
X210919000Y-108563000D01*
X210918800Y-106804200D02*
X210918800Y-108562600D01*
X220828000Y-105550000D02*
X219558000Y-104280000D01*
X233802000Y-109598000D02*
X221574000Y-109598000D01*
X208678800Y-131262600D02*
X210358900Y-131262600D01*
X208679000Y-133033000D02*
X208679000Y-134803000D01*
X210358900Y-131904200D02*
X210358900Y-131262600D01*
X208679000Y-134803000D02*
X210922000Y-137046000D01*
X209230100Y-133033000D02*
X210358900Y-131904200D01*
X208679000Y-133033000D02*
X209230100Y-133033000D01*
X210922000Y-137046000D02*
X216022000Y-137046000D01*
X208679000Y-131263000D02*
X208679000Y-133033000D01*
X208324000Y-114658000D02*
X212928700Y-119262700D01*
X208324000Y-112563000D02*
X208324000Y-114658000D01*
X212928800Y-119262600D02*
X212928700Y-119262700D01*
X208323800Y-112562600D02*
X208324000Y-112562800D01*
X208324000Y-112562800D02*
X208324000Y-112563000D01*
M02*
