G04 #@! TF.GenerationSoftware,KiCad,Pcbnew,(6.0.1)*
G04 #@! TF.CreationDate,2022-02-21T00:55:15+09:00*
G04 #@! TF.ProjectId,KiCAD_jtag,4b694341-445f-46a7-9461-672e6b696361,rev?*
G04 #@! TF.SameCoordinates,Original*
G04 #@! TF.FileFunction,Copper,L4,Bot*
G04 #@! TF.FilePolarity,Positive*
%FSLAX46Y46*%
G04 Gerber Fmt 4.6, Leading zero omitted, Abs format (unit mm)*
G04 Created by KiCad (PCBNEW (6.0.1)) date 2022-02-21 00:55:15*
%MOMM*%
%LPD*%
G01*
G04 APERTURE LIST*
G04 #@! TA.AperFunction,ComponentPad*
%ADD10R,1.700000X1.700000*%
G04 #@! TD*
G04 #@! TA.AperFunction,ComponentPad*
%ADD11O,1.700000X1.700000*%
G04 #@! TD*
G04 #@! TA.AperFunction,ComponentPad*
%ADD12R,2.200000X2.200000*%
G04 #@! TD*
G04 #@! TA.AperFunction,ComponentPad*
%ADD13O,2.200000X2.200000*%
G04 #@! TD*
G04 #@! TA.AperFunction,ViaPad*
%ADD14C,0.889000*%
G04 #@! TD*
G04 #@! TA.AperFunction,Conductor*
%ADD15C,0.203200*%
G04 #@! TD*
G04 APERTURE END LIST*
D10*
X217703800Y-118412600D03*
D11*
X217703800Y-120952600D03*
X217703800Y-123492600D03*
X217703800Y-126032600D03*
X217703800Y-128572600D03*
X217703800Y-131112600D03*
D10*
X208378800Y-108562600D03*
D11*
X210918800Y-108562600D03*
X213458800Y-108562600D03*
D12*
X218483800Y-112562600D03*
D13*
X208323800Y-112562600D03*
D10*
X254102000Y-105545000D03*
D11*
X254102000Y-108085000D03*
D10*
X208370000Y-98770000D03*
D11*
X208370000Y-96230000D03*
X210910000Y-98770000D03*
X210910000Y-96230000D03*
X213450000Y-98770000D03*
X213450000Y-96230000D03*
X215990000Y-98770000D03*
X215990000Y-96230000D03*
X218530000Y-98770000D03*
X218530000Y-96230000D03*
X221070000Y-98770000D03*
X221070000Y-96230000D03*
X223610000Y-98770000D03*
X223610000Y-96230000D03*
X226150000Y-98770000D03*
X226150000Y-96230000D03*
X228690000Y-98770000D03*
X228690000Y-96230000D03*
X231230000Y-98770000D03*
X231230000Y-96230000D03*
X233770000Y-98770000D03*
X233770000Y-96230000D03*
X236310000Y-98770000D03*
X236310000Y-96230000D03*
X238850000Y-98770000D03*
X238850000Y-96230000D03*
X241390000Y-98770000D03*
X241390000Y-96230000D03*
X243930000Y-98770000D03*
X243930000Y-96230000D03*
X246470000Y-98770000D03*
X246470000Y-96230000D03*
X249010000Y-98770000D03*
X249010000Y-96230000D03*
X251550000Y-98770000D03*
X251550000Y-96230000D03*
X254090000Y-98770000D03*
X254090000Y-96230000D03*
X256630000Y-98770000D03*
X256630000Y-96230000D03*
D14*
X237084000Y-142380000D03*
X237084000Y-135776000D03*
X245466000Y-142888000D03*
X247498000Y-112408000D03*
X247498000Y-123584000D03*
X247498000Y-129934000D03*
X238100000Y-107328000D03*
X253340000Y-111900000D03*
X202794000Y-140602000D03*
X237084000Y-148730000D03*
X245466000Y-136538000D03*
X237338000Y-129172000D03*
X236830000Y-118250000D03*
X260706000Y-103772000D03*
X202540000Y-102248000D03*
X229718000Y-143142000D03*
X230226000Y-130188000D03*
X205842000Y-128156000D03*
X262484000Y-118758000D03*
X239878000Y-127902000D03*
X239624000Y-116726000D03*
X218034000Y-136030000D03*
X232512000Y-119520000D03*
X205842000Y-126124000D03*
X240386000Y-120028000D03*
X229718000Y-136792000D03*
X240132000Y-104788000D03*
X229210000Y-111392000D03*
X205842000Y-124092000D03*
X256388000Y-118758000D03*
X230480000Y-123584000D03*
X237846000Y-138062000D03*
X232340000Y-110548000D03*
X253340000Y-113424000D03*
X205842000Y-122314000D03*
X204318000Y-131712000D03*
X233802000Y-107602000D03*
X239827000Y-141059000D03*
X240386000Y-147460000D03*
X237846000Y-125108000D03*
X230480000Y-127902000D03*
X230226000Y-116726000D03*
X230226000Y-134506000D03*
X202794000Y-112154000D03*
X218056000Y-142612000D03*
X237846000Y-131712000D03*
X229972000Y-147460000D03*
X237846000Y-144666000D03*
X230277000Y-141059000D03*
X240640000Y-109868000D03*
X218034000Y-105296000D03*
X237846000Y-114186000D03*
X239624000Y-134506000D03*
X259690000Y-102502000D03*
X258928000Y-101486000D03*
X231750000Y-125870000D03*
X250800000Y-125870000D03*
X232004000Y-145174000D03*
X219812000Y-102248000D03*
X213716000Y-139586000D03*
X231496000Y-132474000D03*
X231242000Y-139078000D03*
X243942000Y-116980000D03*
X243942000Y-118250000D03*
X241656000Y-102756000D03*
X245974000Y-127648000D03*
X245974000Y-116472000D03*
X241656000Y-101486000D03*
X232258000Y-121552000D03*
X229006800Y-103518000D03*
X243942000Y-146952000D03*
X250800000Y-146952000D03*
X228702000Y-127140000D03*
X228448000Y-133998000D03*
X232766000Y-148730000D03*
X227940000Y-146952000D03*
X238354000Y-120028000D03*
X215980000Y-142612000D03*
X233020000Y-142380000D03*
X227940000Y-140602000D03*
X232766000Y-118250000D03*
X233020000Y-129172000D03*
X233020000Y-135776000D03*
X228702000Y-116218000D03*
D15*
X242926000Y-100978000D02*
X257150000Y-100978000D01*
X241390000Y-99442000D02*
X242926000Y-100978000D01*
X241390000Y-98770000D02*
X241390000Y-99442000D01*
X257150000Y-100978000D02*
X258674000Y-102502000D01*
X258674000Y-102502000D02*
X259690000Y-102502000D01*
X241390000Y-96230000D02*
X242672000Y-97512000D01*
X257912000Y-100470000D02*
X258928000Y-101486000D01*
X243434000Y-100470000D02*
X257912000Y-100470000D01*
X242672000Y-97512000D02*
X242672000Y-99708000D01*
X242672000Y-99708000D02*
X243434000Y-100470000D01*
X250800000Y-125870000D02*
X248006000Y-128664000D01*
X242418000Y-126632000D02*
X232512000Y-126632000D01*
X242926000Y-127394000D02*
X242926000Y-127140000D01*
X248006000Y-128664000D02*
X244196000Y-128664000D01*
X244196000Y-128664000D02*
X242926000Y-127394000D01*
X232512000Y-126632000D02*
X231750000Y-125870000D01*
X242926000Y-127140000D02*
X242418000Y-126632000D01*
X221070000Y-98770000D02*
X221070000Y-144146000D01*
X222098000Y-145174000D02*
X232004000Y-145174000D01*
X221070000Y-144146000D02*
X222098000Y-145174000D01*
X219304000Y-139586000D02*
X220320000Y-138570000D01*
X220320000Y-102756000D02*
X219812000Y-102248000D01*
X220320000Y-138570000D02*
X220320000Y-102756000D01*
X213716000Y-139586000D02*
X219304000Y-139586000D01*
X227178000Y-132474000D02*
X231496000Y-132474000D01*
X226150000Y-131446000D02*
X227178000Y-132474000D01*
X226150000Y-98770000D02*
X226150000Y-131446000D01*
X231242000Y-134760000D02*
X231242000Y-139078000D01*
X227432000Y-97488000D02*
X227432000Y-129934000D01*
X228702000Y-131204000D02*
X232258000Y-131204000D01*
X232258000Y-131204000D02*
X232766000Y-131712000D01*
X227432000Y-129934000D02*
X228702000Y-131204000D01*
X232766000Y-133236000D02*
X231242000Y-134760000D01*
X228690000Y-96230000D02*
X227432000Y-97488000D01*
X232766000Y-131712000D02*
X232766000Y-133236000D01*
X233770000Y-96230000D02*
X235052000Y-97512000D01*
X243942000Y-114440000D02*
X243942000Y-116980000D01*
X235052000Y-105550000D02*
X243942000Y-114440000D01*
X235052000Y-97512000D02*
X235052000Y-105550000D01*
X234544000Y-102084000D02*
X234544000Y-105804000D01*
X242926000Y-114186000D02*
X242926000Y-117234000D01*
X242926000Y-117234000D02*
X243942000Y-118250000D01*
X234544000Y-105804000D02*
X242926000Y-114186000D01*
X231230000Y-98770000D02*
X234544000Y-102084000D01*
X241656000Y-102756000D02*
X244958000Y-106058000D01*
X244958000Y-126632000D02*
X245974000Y-127648000D01*
X244958000Y-106058000D02*
X244958000Y-126632000D01*
X241656000Y-101486000D02*
X245974000Y-105804000D01*
X245974000Y-105804000D02*
X245974000Y-116472000D01*
X231496000Y-111646000D02*
X228956000Y-109106000D01*
X232258000Y-121552000D02*
X231496000Y-120790000D01*
X228956000Y-109106000D02*
X228956000Y-103568800D01*
X231496000Y-120790000D02*
X231496000Y-111646000D01*
X228956000Y-103568800D02*
X229006800Y-103518000D01*
X243942000Y-146952000D02*
X250800000Y-146952000D01*
M02*
